<svg width="185" height="184" viewBox="0 0 185 184" fill="none" xmlns="http://www.w3.org/2000/svg">
<g clip-path="url(#clip0)">
<path d="M134.657 135.835C158.521 112.006 158.521 73.3702 134.657 49.5405C110.792 25.7108 72.0996 25.7108 48.2349 49.5405C24.3701 73.3702 24.3701 112.006 48.2349 135.835C72.0996 159.665 110.792 159.665 134.657 135.835Z" fill="#4A6EAE"/>
<path d="M90.2192 156.569C126.114 156.569 155.169 127.557 155.169 91.758C155.169 79.8702 151.964 68.7315 146.37 59.1543C123.478 78.165 84.989 105.885 35.2017 126.099C46.6691 144.4 67.0274 156.569 90.2192 156.569Z" fill="#003D78"/>
<path fill-rule="evenodd" clip-rule="evenodd" d="M91.9828 33.447C92.5396 33.6059 92.8974 34.0823 93.2954 34.5195C94.3293 35.7505 95.2837 37.1402 95.9994 38.6094C96.6754 39.9596 97.1525 41.4288 97.0332 42.9379C96.9538 44.6851 96.3176 46.5117 94.8064 47.5042C93.6532 48.2984 92.1021 48.3791 90.7503 48.1C89.4784 47.7427 88.4044 46.9087 87.8075 45.7175C86.9313 43.9304 86.8929 41.7861 87.6096 39.9601C88.563 37.4975 90.2333 35.3929 91.9828 33.447Z" fill="#3D843C"/>
<path fill-rule="evenodd" clip-rule="evenodd" d="M111.946 44.0891C113.974 42.2625 116.479 41.1506 119.025 40.2373C119.303 40.7933 119.502 41.4286 119.621 42.1036C120.019 43.9302 120.218 45.8363 120.019 47.7819C119.859 50.2043 118.468 52.6661 116.161 53.6984C113.457 54.9295 109.918 52.8236 109.6 49.9263C109.361 47.7424 110.316 45.5185 111.946 44.0891Z" fill="#3D843C"/>
<path fill-rule="evenodd" clip-rule="evenodd" d="M61.4019 42.0242C61.76 42.0242 62.1576 42.0637 62.5155 42.1035C64.8614 42.7785 67.1284 43.6918 69.0772 45.1611C70.429 46.1934 71.3437 47.7011 71.7416 49.3701C72.02 50.6805 71.821 52.1497 70.9463 53.2219C69.9121 54.5323 68.242 55.3264 66.5719 55.2073C65.5377 55.128 64.5437 54.6119 63.7085 53.9373C62.4366 52.8254 61.5211 51.2768 61.243 49.5694C60.8055 47.0669 60.9649 44.486 61.4019 42.0242Z" fill="#3D843C"/>
<path fill-rule="evenodd" clip-rule="evenodd" d="M105.226 57.7489C106.618 57.0343 108.049 56.3194 109.56 55.9224C110.396 58.2256 110.674 60.6874 110.515 63.1492C110.435 64.8569 109.839 66.4848 108.725 67.7951C107.97 68.6291 107.015 69.344 105.902 69.5821C104.908 69.8601 103.834 69.7012 102.919 69.3042C101.726 68.7084 100.692 67.7158 100.255 66.4453C99.7379 64.9362 100.096 63.2279 100.812 61.7993C101.726 59.9722 103.555 58.7813 105.226 57.7489Z" fill="#3D843C"/>
<path fill-rule="evenodd" clip-rule="evenodd" d="M71.3835 56.8354C73.8493 57.1532 76.2353 58.2254 78.3429 59.5358C80.5303 60.9652 82.1605 63.6652 81.6834 66.326C81.405 67.9539 80.0529 69.1451 78.6213 69.8202C77.7466 70.0178 76.8715 70.1775 75.9965 69.9791C74.4456 69.7011 73.213 68.5496 72.338 67.3186C71.3835 65.9684 71.1054 64.3406 70.9463 62.7522C70.8666 60.7665 70.9463 58.7416 71.3835 56.8354Z" fill="#3D843C"/>
<path fill-rule="evenodd" clip-rule="evenodd" d="M134.535 60.2902C136.325 60.1313 138.114 60.1711 139.864 60.4491C139.826 61.0364 139.747 61.6203 139.626 62.1963C139.069 64.3801 138.273 66.5244 136.961 68.351C136.007 69.6613 134.615 70.6144 133.064 71.0911C131.911 71.4086 130.638 71.3293 129.565 70.8131C128.133 70.0584 127.219 68.5892 126.9 67.0406C126.781 65.8494 127.178 64.6982 127.735 63.6653C128.531 62.7523 129.366 61.8387 130.479 61.3228C131.75 60.6873 133.142 60.4491 134.535 60.2902Z" fill="#3D843C"/>
<path fill-rule="evenodd" clip-rule="evenodd" d="M40.7212 63.5769C42.328 62.7745 44.2024 62.5454 45.9624 62.3546C47.5689 62.3162 49.2127 62.3162 50.7059 63.0037C52.1598 63.7293 53.5371 64.9135 53.9961 66.4798C54.3788 67.6651 54.1108 68.9634 53.5371 70.0324C52.8101 71.2547 51.5476 72.2098 50.094 72.3624C47.9898 72.5535 45.8092 71.5985 44.4322 69.994C42.7488 68.1607 41.5244 65.9069 40.7212 63.5769Z" fill="#3D843C"/>
<path fill-rule="evenodd" clip-rule="evenodd" d="M69.8726 83.5596C72.2184 82.6461 74.8037 82.4079 77.309 82.527C79.6153 82.7245 81.9219 83.9169 83.1149 85.9418C83.7512 86.9742 83.8309 88.2448 83.5525 89.436C83.0355 90.8655 82.0412 92.1761 80.5698 92.7321C78.7804 93.3674 76.8316 92.8512 75.2808 91.9376C73.5709 90.9053 72.537 89.1583 71.4632 87.4904C70.8666 86.2187 70.1905 84.9487 69.8726 83.5596Z" fill="#3D843C"/>
<path fill-rule="evenodd" clip-rule="evenodd" d="M118.269 84.4731C120.178 83.4407 122.524 83.4407 124.473 84.2755C126.859 85.2684 128.967 86.8567 130.796 88.6435C130.199 89.5965 129.245 90.2318 128.33 90.9069C126.66 92.0982 124.831 93.1308 122.803 93.5276C120.933 93.8059 118.866 93.369 117.394 92.1777C116.161 91.026 115.684 89.2392 116.003 87.6111C116.281 86.2996 117.076 85.1083 118.269 84.4731Z" fill="#3D843C"/>
<path fill-rule="evenodd" clip-rule="evenodd" d="M39.343 84.2432C40.8732 83.4028 42.6714 82.8299 44.4695 83.0974C45.8849 83.2885 47.3385 83.8995 48.1802 85.0837C49.1367 86.3819 49.1748 88.1399 48.6777 89.5913C48.2187 90.6609 47.3776 91.5776 46.2674 92.0362C44.6807 92.7283 42.8908 92.7964 41.2559 92.227C39.2283 91.5395 37.392 90.2797 35.747 88.9035C35.3644 88.5982 35.0201 88.2161 34.6377 87.8723C35.9392 86.3441 37.6223 85.198 39.343 84.2432Z" fill="#3D843C"/>
<path fill-rule="evenodd" clip-rule="evenodd" d="M135.567 84.7905C137.397 83.6788 139.743 83.5993 141.732 84.3539C144.197 85.3465 146.305 87.0144 148.253 88.8012C147.736 89.7542 146.782 90.3497 145.947 90.9853C144.197 92.2553 142.248 93.4073 140.061 93.7649C138.192 93.9238 136.124 93.5674 134.733 92.2559C133.778 91.3426 133.341 89.9924 133.38 88.7219C133.42 87.173 134.216 85.585 135.567 84.7905Z" fill="#3D843C"/>
<path fill-rule="evenodd" clip-rule="evenodd" d="M55.2382 86.0213C56.789 85.1464 58.4989 84.433 60.2886 84.4728C61.8793 84.4728 63.5494 84.9492 64.663 86.1404C65.5377 87.0537 65.8958 88.3641 65.856 89.6349C65.7763 90.8657 65.2992 92.0967 64.3447 92.9705C63.5892 93.6851 62.5949 94.0028 61.6009 94.3601C60.567 94.3601 59.4528 94.4792 58.4195 94.2015C55.9142 93.4867 53.7668 91.9378 51.7776 90.3495C51.4992 90.032 51.2208 89.754 50.9424 89.476C52.1362 88.0468 53.6871 86.9747 55.2382 86.0213Z" fill="#3D843C"/>
<path fill-rule="evenodd" clip-rule="evenodd" d="M128.927 108.219C129.762 107.385 130.915 106.79 132.108 106.79C133.58 106.71 134.971 107.306 136.204 108.06C137.914 109.41 139.067 111.355 139.982 113.301C140.459 114.374 140.897 115.485 141.135 116.597C139.386 117.193 137.556 117.391 135.727 117.391C133.898 117.431 131.989 117.194 130.438 116.2C129.483 115.604 128.648 114.81 128.092 113.818C127.654 113.023 127.456 112.15 127.535 111.236C127.614 110.125 128.171 109.093 128.927 108.219Z" fill="#3D843C"/>
<path fill-rule="evenodd" clip-rule="evenodd" d="M45.7328 107.086C47.1867 106.055 49.023 105.444 50.8203 105.901C52.0828 106.207 53.1159 107.199 53.6896 108.385C54.1871 109.492 54.3397 110.83 53.881 112.014C53.3439 113.351 52.1976 114.382 50.9353 115.07C49.7875 115.681 48.4481 115.872 47.148 115.948C45.1203 115.987 43.0546 115.757 41.1035 115.184C41.2183 114.077 41.6773 113.045 42.1363 112.014C43.0175 110.181 44.0879 108.347 45.7328 107.086Z" fill="#3D843C"/>
<path fill-rule="evenodd" clip-rule="evenodd" d="M101.964 111.316C102.561 109.171 104.748 107.504 107.015 107.663C108.128 107.742 109.163 108.259 110.037 108.894C111.707 110.204 112.581 112.269 112.98 114.294C113.377 116.161 113.497 118.067 113.417 119.933C112.025 120.29 110.673 119.736 109.321 119.536C107.173 118.861 104.867 118.106 103.436 116.28C102.282 114.93 101.567 113.103 101.964 111.316Z" fill="#3D843C"/>
<path fill-rule="evenodd" clip-rule="evenodd" d="M76.394 109.212C77.4279 108.973 78.5421 108.973 79.5355 109.291C80.4501 109.728 81.2853 110.323 81.8814 111.118C82.5575 112.031 82.8359 113.182 82.7576 114.294C82.4792 116.478 81.1271 118.424 79.2978 119.576C77.1498 120.846 74.8039 121.799 72.3385 122.197C71.8614 121.482 71.9807 120.529 71.8614 119.734C71.7421 117.908 71.8215 116.122 72.2192 114.374C72.7353 112.11 74.326 110.165 76.394 109.212Z" fill="#3D843C"/>
<path fill-rule="evenodd" clip-rule="evenodd" d="M113.337 125.651C114.291 124.658 115.564 123.943 116.955 123.943C118.466 123.904 119.858 124.698 120.932 125.691C122.801 127.438 123.318 130.098 123.636 132.56C123.755 133.791 123.795 135.062 123.716 136.293C122.165 136.372 120.614 136.015 119.102 135.578C117.233 135.022 115.325 134.268 113.933 132.799C112.979 131.647 112.183 130.257 112.183 128.708C112.145 127.597 112.582 126.485 113.337 125.651Z" fill="#3D843C"/>
<path fill-rule="evenodd" clip-rule="evenodd" d="M64.1058 125.652C65.0999 124.897 66.3726 124.382 67.6849 124.5C68.5995 124.579 69.4347 125.056 70.1901 125.532C71.0253 126.287 71.7808 127.24 71.9798 128.431C72.2582 129.98 71.7014 131.528 70.9058 132.799C69.5141 134.864 67.1676 135.936 64.9422 136.77C63.789 137.167 62.6754 137.524 61.5223 137.683C61.085 135.856 61.085 133.951 61.1246 132.123C61.2837 130.972 61.4428 129.781 61.8804 128.709C62.3165 127.518 63.1126 126.485 64.1058 125.652Z" fill="#3D843C"/>
<path fill-rule="evenodd" clip-rule="evenodd" d="M105.862 35.5912C106.06 35.4721 106.26 35.353 106.498 35.2734C107.453 36.6634 108.129 38.2517 108.646 39.8799C109.203 41.7462 109.601 43.8507 109.004 45.7569C108.527 47.3452 107.493 48.854 105.942 49.529C103.596 50.4821 100.534 49.3315 99.5792 46.9478C98.8237 44.8433 99.2609 42.3815 100.534 40.5945C101.925 38.5695 103.834 36.9428 105.862 35.5912Z" fill="#BAC529"/>
<path fill-rule="evenodd" clip-rule="evenodd" d="M75.6784 35.512C75.9568 35.5913 76.1954 35.6706 76.4738 35.7502C78.5814 36.8618 80.6096 38.2902 82.2003 40.1579C83.4332 41.5874 84.1092 43.5728 83.9501 45.4786C83.8308 46.7486 83.1943 47.9805 82.1604 48.7349C80.8482 49.7275 79.0984 50.0049 77.5077 49.5291C74.9625 48.4967 73.6107 45.598 73.7299 42.9375C73.8888 40.3577 74.6047 37.8547 75.6784 35.512Z" fill="#BAC529"/>
<path fill-rule="evenodd" clip-rule="evenodd" d="M122.365 52.3086C124.95 50.5614 128.091 49.7274 131.153 49.4497C131.471 52.1102 131.193 54.85 130.358 57.3519C129.682 59.3771 128.091 61.005 126.143 61.8392C125.268 62.0368 124.313 62.157 123.439 61.9188C121.331 61.323 119.661 59.2185 119.78 56.9949C119.899 55.1678 121.013 53.5397 122.365 52.3086Z" fill="#BAC529"/>
<path fill-rule="evenodd" clip-rule="evenodd" d="M49.9888 50.8394C51.5 50.6418 53.0113 50.7601 54.5223 50.9585C56.1528 51.2364 57.8229 51.5937 59.2548 52.4675C60.2999 53.1136 61.1623 54.0157 61.7601 55.0882C62.277 55.9222 62.5554 56.9148 62.4361 57.9076C62.3963 59.1387 61.6804 60.25 60.8056 61.0843C59.692 62.0769 58.1412 62.5535 56.6698 62.2358C54.602 61.7594 52.8123 60.2901 51.8977 58.384C50.7443 56.0413 50.108 53.4206 49.9888 50.8394Z" fill="#BAC529"/>
<path fill-rule="evenodd" clip-rule="evenodd" d="M90.8295 50.8792C90.9886 50.7996 91.1478 50.7203 91.3069 50.6816C92.102 51.4761 92.8179 52.3098 93.4549 53.2216C94.6081 54.9291 95.6818 56.7559 95.9987 58.7814C96.2372 60.7668 95.8008 63.0303 94.2489 64.4202C93.2548 65.2951 91.8628 65.6115 90.5506 65.5319C89.2787 65.2937 87.9656 64.6982 87.2101 63.626C85.9382 61.7597 85.8184 59.2183 86.6137 57.1535C87.5289 54.7705 89.1196 52.7455 90.8295 50.8792Z" fill="#BAC529"/>
<path fill-rule="evenodd" clip-rule="evenodd" d="M116.439 68.1529C118.388 67.3587 120.456 66.8425 122.564 66.7231C122.643 66.9207 122.723 67.1202 122.803 67.3587C122.803 70.3765 122.564 73.593 121.053 76.2933C120.615 76.849 120.098 77.3657 119.621 77.8813C118.905 78.3978 118.15 78.8344 117.315 79.1513C116.201 79.3895 115.048 79.2704 113.974 78.8336C112.622 77.9996 111.429 76.6497 111.27 75.0216C111.072 73.1951 112.026 71.4876 113.179 70.1375C114.133 69.3043 115.246 68.5895 116.439 68.1529Z" fill="#BAC529"/>
<path fill-rule="evenodd" clip-rule="evenodd" d="M58.1412 71.4483C59.3342 71.0512 60.5272 70.8131 61.7203 70.6144C63.2711 70.4555 64.9016 70.3364 66.4527 70.694C67.4468 70.8915 68.3614 71.4085 69.2361 71.964C70.1906 72.7581 71.1055 73.8303 71.3437 75.1406C71.662 76.6497 71.1055 78.1982 70.1112 79.3497C69.276 80.2633 68.0434 80.8985 66.8105 80.8985C64.9016 80.9383 63.0325 80.1837 61.6804 78.8733C60.5272 77.7614 59.6921 76.4112 58.8173 75.1009C58.3398 74.0685 57.8626 73.0361 57.3857 72.0037C57.5844 71.7658 57.8628 71.5276 58.1412 71.4483Z" fill="#BAC529"/>
<path fill-rule="evenodd" clip-rule="evenodd" d="M135.807 72.2428C137.636 71.6868 139.545 71.8852 141.375 72.2428C142.926 72.6001 144.437 72.9574 145.789 73.712C145.542 74.3988 145.236 75.063 144.874 75.6975C143.681 77.7227 142.25 79.6285 140.341 80.9787C138.909 81.8536 137.199 82.3288 135.529 82.0906C134.495 81.9715 133.501 81.4156 132.785 80.6609C131.553 79.1123 131.155 76.8091 132.109 75.0224C132.943 73.6722 134.335 72.759 135.807 72.2428Z" fill="#BAC529"/>
<path fill-rule="evenodd" clip-rule="evenodd" d="M97.0334 74.2679C98.4652 73.7517 99.9366 73.1955 101.487 73.0369C101.845 74.7443 101.925 76.4916 101.805 78.199C101.686 80.5022 101.09 82.9245 99.34 84.5524C98.3457 85.5055 97.0732 86.22 95.6417 86.22C93.6135 86.22 91.7444 84.7113 91.0683 82.8449C90.472 80.9391 91.2275 78.8741 92.3809 77.365C93.5736 75.8958 95.3234 75.0223 97.0334 74.2679Z" fill="#BAC529"/>
<path fill-rule="evenodd" clip-rule="evenodd" d="M41.0653 73.1652C42.9782 72.7069 45.044 72.4774 46.8803 73.2798C48.4871 73.8911 49.9025 75.1896 50.2468 76.947C50.3582 77.8374 50.2532 78.7414 49.9407 79.5827C49.5198 80.5377 48.7932 81.4547 47.7986 81.9511C46.2299 82.7534 44.3171 82.5624 42.6721 81.9511C40.874 81.1106 39.4218 79.6208 38.1963 78.0928C37.4693 77.1381 36.819 76.183 36.2461 75.1896C37.6988 74.1584 39.3822 73.6235 41.0653 73.1652Z" fill="#BAC529"/>
<path fill-rule="evenodd" clip-rule="evenodd" d="M98.9822 93.6852C100.135 92.9308 101.607 92.8117 102.879 93.2088C104.55 93.725 106.061 94.8765 106.975 96.3855C108.169 98.3311 108.884 100.555 109.362 102.818C109.401 103.176 109.441 103.533 109.52 103.93C107.89 104.287 106.26 104.208 104.629 104.089C102.601 103.891 100.454 103.454 98.9025 102.064C98.4661 101.707 98.0665 101.308 97.7095 100.873C97.0334 99.9593 96.5962 98.8871 96.5962 97.7356C96.5962 96.0683 97.6301 94.559 98.9822 93.6852Z" fill="#BAC529"/>
<path fill-rule="evenodd" clip-rule="evenodd" d="M41.3717 95.9705C42.7871 95.0538 44.5852 94.7098 46.2684 94.9774C47.5685 95.2065 48.7556 96.0086 49.4056 97.1166C49.788 97.9187 50.0175 98.7592 50.0175 99.6377C50.0175 100.975 49.3675 102.274 48.3341 103.114C46.8805 104.299 44.8529 104.833 42.9785 104.527C40.53 104.184 38.1199 103.267 35.9775 102.044C36.3218 101.165 36.8958 100.401 37.4311 99.6372C38.5801 98.2625 39.8415 96.9256 41.3717 95.9705Z" fill="#BAC529"/>
<path fill-rule="evenodd" clip-rule="evenodd" d="M135.409 96.4648C136.045 96.4253 136.68 96.3855 137.278 96.3855C138.391 96.5444 139.544 96.8224 140.5 97.4579C142.369 98.6887 143.801 100.436 145.073 102.263C145.471 102.858 145.869 103.533 146.147 104.208C144.636 105.122 142.966 105.678 141.256 106.114C139.228 106.591 137.04 106.829 135.092 105.917C133.461 105.242 132.03 103.892 131.712 102.065C131.352 99.6415 132.943 97.0208 135.409 96.4648Z" fill="#BAC529"/>
<path fill-rule="evenodd" clip-rule="evenodd" d="M111.668 102.937C111.389 100.515 113.219 98.2526 115.525 97.7356C116.837 97.4576 118.19 97.7753 119.303 98.4504C120.775 99.3253 121.848 100.714 122.484 102.302C123.24 104.129 123.638 106.074 123.837 108.059C123.876 108.496 123.876 108.933 123.876 109.409C121.728 109.568 119.542 109.171 117.434 108.655C116.32 108.258 115.207 107.861 114.253 107.106C112.98 106.035 111.946 104.605 111.668 102.937Z" fill="#BAC529"/>
<path fill-rule="evenodd" clip-rule="evenodd" d="M65.2197 99.0857C66.3729 98.9271 67.5656 99.0857 68.5602 99.7608C69.9519 100.714 70.7871 102.422 70.8267 104.089C70.7871 104.327 70.7473 104.566 70.7074 104.804C70.3097 106.671 68.7589 108.1 67.0896 108.973C65.0614 109.807 62.7935 109.848 60.6073 109.728C59.5232 109.647 58.4463 109.488 57.3853 109.251C57.4647 108.1 57.9022 106.948 58.3394 105.876C58.8567 104.606 59.4929 103.374 60.2896 102.264C61.4417 100.595 63.2709 99.4035 65.2197 99.0857Z" fill="#BAC529"/>
<path fill-rule="evenodd" clip-rule="evenodd" d="M121.092 119.694C121.928 118.027 123.677 116.716 125.626 116.756C127.535 116.836 129.244 117.987 130.438 119.417C131.671 121.164 132.267 123.268 132.625 125.333C132.823 126.406 132.983 127.438 132.943 128.51C131.114 128.669 129.285 128.431 127.535 128.073C125.666 127.597 123.757 126.922 122.444 125.452C121.053 123.983 120.177 121.68 121.092 119.694Z" fill="#BAC529"/>
<path fill-rule="evenodd" clip-rule="evenodd" d="M52.0069 117.515C53.2691 116.178 54.9907 115.109 56.9035 115.223C58.3953 115.338 59.6963 116.331 60.4614 117.592C60.8822 118.356 61.188 119.235 61.1114 120.113C61.0348 121.221 60.5374 122.214 59.9244 123.054C58.7373 124.697 56.8255 125.575 54.95 125.996C53.1518 126.416 51.2774 126.722 49.4029 126.607C49.3645 125.422 49.516 124.239 49.7472 123.092C50.1321 121.144 50.7443 119.12 52.0069 117.515Z" fill="#BAC529"/>
<path fill-rule="evenodd" clip-rule="evenodd" d="M101.726 133.116C102.203 130.377 105.424 128.669 108.009 129.543C109.52 130.059 110.674 131.369 111.35 132.76C112.463 135.063 112.145 137.724 111.747 140.146C111.549 141.178 111.27 142.211 110.912 143.164C108.646 142.607 106.577 141.337 104.708 139.907C102.68 138.317 101.368 135.737 101.726 133.116Z" fill="#BAC529"/>
<path fill-rule="evenodd" clip-rule="evenodd" d="M76.7122 130.178C79.0581 129.384 81.9617 130.734 82.8364 133.116C83.5125 135.459 82.7966 138.08 81.1265 139.867C79.4165 141.733 77.3883 143.322 75.0817 144.354C74.2468 142.924 73.7299 141.297 73.2923 139.708C72.8153 137.445 72.6163 134.943 73.7697 132.879C74.4057 131.687 75.4 130.615 76.7122 130.178Z" fill="#BAC529"/>
<path fill-rule="evenodd" clip-rule="evenodd" d="M86.2165 68.629C86.6142 68.3908 87.1312 68.6687 87.171 69.1056C87.2903 70.0189 87.171 70.972 87.171 71.9248C87.2504 76.0545 88.2843 80.105 89.6365 83.9567C90.2332 85.7037 90.8695 87.4111 91.5454 89.0791C95.1631 89.4762 98.8626 88.4438 102.084 86.7758C104.907 85.3066 107.293 83.1228 109.242 80.5814C108.963 82.2095 108.327 83.758 107.532 85.1875C107.369 85.4677 107.183 85.7335 106.975 85.982C106.811 86.2241 106.625 86.4501 106.418 86.6567C104.112 89.3966 100.732 90.9465 97.3513 91.938C96.6752 92.0969 96.039 92.2558 95.363 92.4146C94.647 92.5735 93.9314 92.7324 93.2553 93.0101C93.3348 93.2077 93.4145 93.3677 93.4939 93.6059C94.5278 95.7104 95.2038 97.9739 95.8398 100.238C96.5955 103.851 97.2318 107.505 97.5896 111.198C97.868 114.057 98.067 116.876 98.1862 119.695C98.1862 120.37 98.2258 121.006 98.2258 121.643C98.2258 125.415 98.3451 129.148 98.1065 132.92C97.9873 135.223 97.868 137.566 97.5896 139.869C97.2318 143.204 95.7491 150.58 94.437 153.637C91.4456 153.71 89.176 153.694 86.3129 153.496C87.0286 150.478 88.2442 143.721 88.483 140.624C88.7614 138.084 89 135.501 89.1987 132.919C89.3578 130.14 89.5963 127.32 89.676 124.541C89.7953 122.992 89.8748 121.443 89.9146 119.895C89.9541 118.108 89.994 116.282 89.9541 114.494C89.9541 112.27 90.0338 110.007 89.7953 107.744C89.7159 106.671 89.5169 105.639 89.2385 104.567C88.7614 103.654 87.9262 102.979 87.0905 102.343C85.3805 101.112 83.5513 100.198 81.6424 99.4047C78.6597 98.1737 75.5979 97.3002 72.4566 96.6251C68.5596 95.7118 64.5827 95.2355 60.606 94.7986C61.0036 94.6795 61.4013 94.5604 61.7992 94.4808C62.7933 94.4808 63.7876 94.3617 64.7816 94.2832C68.8378 94.0448 72.8933 94.2039 76.9107 94.5612C79.5353 94.7588 82.1203 95.2761 84.6267 95.9509C85.74 96.2687 86.8138 96.626 87.9273 96.8258C87.8476 95.674 87.5297 94.5624 87.2911 93.4902C87.0127 92.1798 86.7742 90.8692 86.4958 89.5591C85.8991 86.4219 85.3822 83.2452 84.9447 80.0686C84.6663 77.7653 84.3879 75.5019 84.229 73.199C84.1892 72.6032 84.229 72.0077 84.3085 71.412C84.6654 70.3364 85.1428 69.1443 86.2165 68.629Z" fill="#2A190A"/>
<path d="M91.4458 7.81055C44.5001 7.81055 6.44385 45.8117 6.44385 92.6883C6.44385 139.565 44.5001 177.566 91.4458 177.566C138.391 177.566 176.448 139.565 176.448 92.6883C176.448 45.8115 138.391 7.81055 91.4458 7.81055ZM150.058 117.413C146.854 124.976 142.268 131.77 136.426 137.602C130.584 143.435 123.782 148.015 116.207 151.215C108.364 154.527 100.033 156.207 91.4458 156.207C82.859 156.207 74.528 154.527 66.6848 151.215C59.1101 148.015 52.3071 143.436 46.4655 137.603C40.624 131.77 36.0362 124.977 32.8334 117.413C29.5161 109.581 27.8341 101.261 27.8341 92.6883C27.8341 84.1152 29.5161 75.7953 32.8334 67.9636C36.0373 60.4001 40.624 53.607 46.4655 47.774C52.3071 41.9411 59.1098 37.36 66.6848 34.1622C74.528 30.8497 82.8587 29.17 91.4458 29.17C100.033 29.17 108.364 30.8497 116.207 34.1622C123.781 37.3614 130.584 41.9411 136.426 47.774C142.268 53.607 146.854 60.3998 150.058 67.9636C153.375 75.7953 155.057 84.1138 155.057 92.6883C155.057 101.263 153.375 109.581 150.058 117.413Z" fill="#4A6EAE"/>
<path d="M91.446 184C79.1013 184 67.1254 181.586 55.8508 176.824C44.9613 172.224 35.1818 165.641 26.7838 157.256C18.3858 148.87 11.7927 139.105 7.18689 128.231C2.41796 116.973 0 105.015 0 92.6883C0 80.3616 2.41796 68.4033 7.18689 57.1452C11.7939 46.2718 18.3861 36.5066 26.7838 28.1212C35.1815 19.7359 44.9613 13.1516 55.8508 8.55281C67.1263 3.79087 79.1013 1.37646 91.446 1.37646C103.791 1.37646 115.768 3.79087 127.041 8.55281C137.931 13.153 147.71 19.7356 156.108 28.1212C164.506 36.5069 171.099 46.2718 175.705 57.1452C180.474 68.4033 182.892 80.3616 182.892 92.6883C182.892 105.015 180.474 116.973 175.705 128.231C171.098 139.105 164.506 148.87 156.108 157.256C147.71 165.641 137.931 172.225 127.041 176.824C115.768 181.586 103.79 184 91.446 184ZM91.446 3.87526C42.4023 3.87526 2.50218 43.7163 2.50218 92.6883C2.50218 141.66 42.4023 181.502 91.446 181.502C140.49 181.502 180.39 141.66 180.39 92.6883C180.39 43.7165 140.49 3.87526 91.446 3.87526Z" fill="#001D7E"/>
<path d="M165.182 41.5461C165.182 41.5461 157.376 49.8203 142.986 61.771C148.224 70.7369 151.224 81.1647 151.224 92.2939C151.224 125.808 124.023 152.969 90.4198 152.969C68.7079 152.969 49.6488 141.576 38.9132 124.443C30.0384 128.047 20.7786 131.396 11.1636 134.385C11.1636 134.385 35.1829 181.282 90.4594 182.036C139.953 182.713 215.115 126.012 165.182 41.5461Z" fill="#305FA4"/>
<path fill-rule="evenodd" clip-rule="evenodd" d="M29.9459 54.7535L32.4897 52.371C33.1657 53.0063 33.6827 53.7209 34.0009 54.4357C34.2793 55.1904 34.3986 55.9448 34.3189 56.6992C34.2395 57.4933 33.9212 58.3273 33.3644 59.2804C32.7282 60.4713 32.0126 61.3053 31.2568 61.8613C30.4615 62.3775 29.5073 62.6555 28.3538 62.7362C27.2402 62.7757 25.9678 62.4184 24.6555 61.6637C22.9057 60.6311 21.7924 59.4003 21.3947 57.9311C20.9968 56.422 21.2755 54.8337 22.2709 53.1262C23.0663 51.7761 23.941 50.9026 24.8955 50.4259C25.8898 49.9893 27.0828 49.8702 28.3951 50.1479L27.3612 53.444C27.0031 53.3246 26.6851 53.3246 26.485 53.3246C26.1412 53.3591 25.8123 53.4823 25.5306 53.6822C25.2126 53.8798 24.9741 54.1191 24.8149 54.4764C24.3774 55.1912 24.3378 55.9456 24.6957 56.7C24.9741 57.256 25.5718 57.812 26.5645 58.3677C27.7179 59.0427 28.6325 59.3207 29.2687 59.2016C29.9049 59.0825 30.4222 58.7252 30.78 58.0502C31.1777 57.4544 31.2571 56.8589 31.0982 56.3427C30.9004 55.8254 30.5426 55.2697 29.9459 54.7535ZM31.7752 49.5118C32.8887 50.4649 33.9625 51.0209 35.0362 51.2193C36.1498 51.4168 37.1438 51.3384 38.0585 50.9416C39.0129 50.5047 39.9275 49.7898 40.8421 48.7574C41.7183 47.7251 42.2737 46.6924 42.4727 45.6998C42.7112 44.6675 42.6318 43.6746 42.2341 42.682C41.8763 41.729 41.1205 40.7759 40.0468 39.8229C38.5355 38.5529 37.0246 37.9565 35.4735 38.0756C33.9223 38.1947 32.4911 39.0287 31.1389 40.5775C29.8267 42.0863 29.23 43.5953 29.3496 45.1837C29.4691 46.772 30.2642 48.2015 31.7752 49.5118ZM34.2807 46.6529C33.3263 45.8587 32.8093 45.0646 32.69 44.3895C32.5708 43.6746 32.8093 43.0393 33.2864 42.4436C33.8034 41.8481 34.4396 41.5303 35.1555 41.5303C35.8714 41.5303 36.6269 41.8876 37.5014 42.682C38.5754 43.5569 39.1319 44.3497 39.2512 45.0245C39.3309 45.6996 39.1319 46.3746 38.615 46.9701C38.0582 47.6054 37.4615 47.8837 36.7459 47.8837C36.0303 47.8837 35.1953 47.4866 34.2807 46.6529ZM38.2574 33.2313L41.2398 30.8888L46.9663 38.195L51.6581 34.5021L53.5272 36.8846L45.8519 42.8807L38.2574 33.2313ZM48.557 25.6866L54.6413 36.3284L63.6292 31.2061L62.277 28.7837L56.5904 32.04L55.3575 29.9355L60.4877 26.997L59.2548 24.8521L54.125 27.7514L53.1309 26.0837L58.6584 22.9068L57.347 20.6436L48.557 25.6866ZM51.142 20.4847L53.6857 19.0155L52.5736 22.5495L51.1819 23.3436L51.142 20.4847ZM69.5134 24.376L68.7183 21.954L74.2863 20.0876L75.9564 25.0116C75.1212 26.1232 74.3657 26.9174 73.6498 27.4734C72.7925 28.0561 71.8548 28.5109 70.8661 28.8235C69.4744 29.3002 68.2814 29.4588 67.2484 29.2604C66.2142 29.1015 65.2982 28.6249 64.5042 27.8705C63.7085 27.0763 63.1119 26.0834 62.7143 24.8919C62.2768 23.6212 62.1574 22.4298 62.3562 21.3178C62.554 20.2062 63.112 19.2133 63.9469 18.4194C64.5834 17.7839 65.5776 17.2279 66.9295 16.7515C68.2014 16.3544 69.1963 16.1162 69.9518 16.1557C70.6278 16.1557 71.3039 16.3533 71.902 16.6719C72.5226 17.0731 73.0511 17.6009 73.4528 18.2207L70.2307 20.0078C69.9125 19.6104 69.5547 19.3722 69.1567 19.2531C68.7195 19.134 68.2421 19.1738 67.7252 19.3324C66.9298 19.6104 66.4129 20.0871 66.0946 20.8017C65.8162 21.5165 65.8968 22.4696 66.2925 23.6211C66.6901 24.8911 67.2469 25.6861 67.9227 26.0832C68.5592 26.4803 69.3147 26.5198 70.1499 26.2023C70.5476 26.0832 70.9452 25.9243 71.2632 25.6861C71.5815 25.4081 71.9393 25.0903 72.2974 24.6537L71.9393 23.5813L69.5134 24.376ZM76.2342 14.5284L79.9724 13.8534L82.1594 25.9248L78.3817 26.5999L76.2342 14.5284ZM83.79 19.4919C83.7105 17.5064 84.2275 15.9181 85.3411 14.7666C86.4151 13.6547 87.9656 13.0592 89.954 12.9796C92.0218 12.9401 93.6124 13.4564 94.726 14.5284C95.8792 15.6009 96.4758 17.1094 96.5154 19.0948C96.5553 20.5245 96.3176 21.7158 95.8792 22.6291C95.4021 23.5423 94.726 24.2967 93.851 24.8129C92.9364 25.3689 91.7832 25.6468 90.4311 25.6878C89.0394 25.6878 87.8873 25.5289 86.9713 25.092C86.0567 24.695 85.3011 24.02 84.7046 23.0671C84.1091 22.1129 83.8301 20.9216 83.7908 19.4919H83.79ZM87.568 19.4126C87.6075 20.6436 87.8464 21.5575 88.3235 22.0731C88.8005 22.5887 89.437 22.8275 90.2321 22.8275C91.0272 22.8275 91.6639 22.5495 92.1015 21.9938C92.539 21.4381 92.7377 20.4847 92.6978 19.1346C92.6978 17.9433 92.4194 17.1094 91.9423 16.5946C91.4652 16.0798 90.8288 15.8402 90.0334 15.8402C89.2381 15.88 88.6414 16.1577 88.2042 16.7137C87.7277 17.2682 87.529 18.1815 87.5688 19.4126H87.568ZM111.705 26.4399L107.53 25.2884L106.418 27.0368L102.68 26.0044L110.475 15.442L114.491 16.5946L115.565 29.6589L111.708 28.547L111.705 26.4399ZM111.626 23.6603L111.546 19.0541L109.041 22.9454L111.626 23.6603ZM113.256 12.8594L116.08 13.6535L112.779 15.3215L111.189 14.8857L113.256 12.8594ZM121.17 18.7364L124.63 20.3247L120.814 28.7442L126.223 31.2061L124.99 33.9461L116.122 29.9355L121.17 18.7364ZM133.219 37.5188L132.543 39.5042L135.807 41.8083L139.187 29.1413L135.767 26.719L124.87 34.0641L128.052 36.2877L129.722 35.0177L133.219 37.5188ZM134.134 34.8583L131.907 33.3095L135.566 30.4901L134.134 34.8583ZM145.191 33.8268L148.65 37.4392L144.554 43.9913L151.315 40.2188L154.735 43.8313L145.827 52.2892L143.721 50.0678L150.481 43.5953L142.051 48.3206L140.102 46.2956L145.232 38.1154L138.472 44.5481L136.324 42.3245L145.191 33.8268ZM151.872 50.5061C150.639 51.2605 149.723 52.0944 149.207 53.0461C148.65 53.9989 148.412 54.9917 148.452 55.9843C148.531 57.0169 148.929 58.1292 149.605 59.3199C150.281 60.4713 151.076 61.3451 151.991 61.9011C152.866 62.4173 153.86 62.6555 154.894 62.6555C155.928 62.5762 157.042 62.2186 158.314 61.504C160.024 60.5111 161.097 59.2804 161.495 57.7713C161.893 56.2623 161.575 54.6344 160.541 52.8474C159.547 51.14 158.314 50.0678 156.763 49.6301C155.252 49.2338 153.622 49.5516 151.872 50.5047L151.872 50.5061ZM153.741 53.8019C154.854 53.2061 155.729 52.927 156.445 53.087C157.121 53.2061 157.677 53.6032 158.075 54.2783C158.473 54.9533 158.553 55.6284 158.314 56.3035C158.075 56.9786 157.479 57.6138 156.484 58.2096C155.291 58.8847 154.336 59.1627 153.661 59.0433C152.985 58.9239 152.428 58.4873 152.031 57.7733C151.633 57.0982 151.553 56.4231 151.792 55.7481C152.03 55.071 152.668 54.4357 153.741 53.8005L153.741 53.8019Z" fill="white"/>
<path fill-rule="evenodd" clip-rule="evenodd" d="M48.8356 145.205L52.0577 147.508L49.1547 156.284L56.5115 150.685L59.6524 152.908L48.7958 160.254L45.4556 157.871L48.8356 145.205ZM61.7996 164.622L61.5215 166.687L65.1799 168.317L65.9753 155.253L62.1976 153.545L52.9316 162.876L56.4711 164.464L57.8628 162.876L61.7996 164.622ZM62.1577 161.842L59.692 160.77L62.7145 157.275L62.1577 161.842ZM70.2694 157.038L73.9278 157.871L71.8202 166.925L77.6262 168.275L76.9105 171.214L67.4459 168.99L70.2694 157.038ZM81.3245 159.42L85.1423 159.857L83.6709 172.049L79.8929 171.612L81.3245 159.42ZM87.2101 160.334L90.7496 160.214L95.5615 166.847L95.3636 160.056L98.9426 159.937L99.3403 172.207L95.7613 172.326L90.9491 165.735L91.1876 172.485L87.6086 172.604L87.2101 160.334ZM100.254 159.897L103.954 159.024L104.908 163.193L108.965 162.28L108.01 158.111L111.709 157.236L114.492 169.188L110.754 170.063L109.641 165.219L105.584 166.132L106.737 170.976L103.039 171.851L100.254 159.897ZM115.087 162.795C115.644 164.106 116.399 165.059 117.314 165.694C118.229 166.33 119.183 166.687 120.217 166.687C121.211 166.727 122.325 166.449 123.597 165.893C124.83 165.337 125.784 164.623 126.381 163.788C127.017 162.954 127.375 162.001 127.415 160.969C127.494 159.936 127.217 158.745 126.62 157.435C125.824 155.648 124.671 154.496 123.239 153.94C121.768 153.384 120.098 153.543 118.229 154.377C116.399 155.211 115.246 156.363 114.65 157.832C114.094 159.302 114.253 160.97 115.088 162.796L115.087 162.795ZM118.547 161.247C118.03 160.095 117.871 159.182 118.07 158.507C118.267 157.792 118.706 157.315 119.422 156.998C120.138 156.68 120.814 156.64 121.49 156.958C122.126 157.236 122.683 157.911 123.16 158.983C123.717 160.214 123.915 161.168 123.717 161.842C123.518 162.517 123.08 162.994 122.325 163.351C121.609 163.669 120.893 163.669 120.257 163.391C119.621 163.074 119.025 162.359 118.547 161.248L118.547 161.247ZM129.085 158.864L131.869 156.601C132.267 156.998 132.664 157.276 133.062 157.395C133.658 157.554 134.255 157.435 134.851 156.998C135.289 156.68 135.527 156.363 135.647 155.966C135.726 155.608 135.647 155.251 135.488 155.013C135.289 154.735 135.01 154.576 134.652 154.536C134.255 154.496 133.619 154.695 132.624 155.092C131.073 155.767 129.841 156.085 128.886 155.967C127.932 155.887 127.176 155.451 126.62 154.697C126.262 154.181 126.063 153.585 126.023 152.91C126.016 152.191 126.223 151.486 126.62 150.885C127.017 150.21 127.733 149.455 128.768 148.74C130.039 147.787 131.193 147.35 132.188 147.35C133.221 147.35 134.136 147.787 135.011 148.74L132.267 151.003C131.83 150.606 131.432 150.368 131.074 150.368C130.637 150.328 130.239 150.487 129.802 150.805C129.444 151.043 129.245 151.321 129.166 151.599C129.086 151.876 129.126 152.115 129.285 152.353C129.404 152.512 129.564 152.592 129.802 152.631C130.041 152.631 130.478 152.512 131.114 152.234C132.665 151.559 133.858 151.162 134.614 151.043C135.409 150.924 136.125 150.963 136.722 151.241C137.278 151.479 137.756 151.876 138.153 152.432C138.63 153.067 138.869 153.782 138.909 154.577C138.948 155.372 138.75 156.126 138.312 156.84C137.875 157.595 137.159 158.309 136.205 159.024C134.534 160.216 133.103 160.732 131.989 160.573C130.876 160.374 129.881 159.818 129.086 158.865L129.085 158.864Z" fill="white"/>
<path fill-rule="evenodd" clip-rule="evenodd" d="M17.9758 89.293C19.8448 89.293 21.3561 90.802 21.3561 92.7078C21.3561 94.5347 19.8448 96.0832 17.9758 96.0832C16.1067 96.0832 14.5957 94.5347 14.5957 92.7078C14.596 90.802 16.107 89.293 17.9758 89.293Z" fill="white"/>
<path fill-rule="evenodd" clip-rule="evenodd" d="M164.876 89.293C166.746 89.293 168.296 90.802 168.296 92.7078C168.296 94.5347 166.746 96.0832 164.876 96.0832C163.007 96.0832 161.496 94.5347 161.496 92.7078C161.496 90.802 163.007 89.293 164.876 89.293Z" fill="white"/>
</g>
<defs>
<clipPath id="clip0">
<rect width="185" height="184" fill="white"/>
</clipPath>
</defs>
</svg>
