<?xml version="1.0" encoding="utf-8"?>
<!-- Generator: Adobe Illustrator 24.1.0, SVG Export Plug-In . SVG Version: 6.00 Build 0)  -->
<svg version="1.1" id="Camada_1" xmlns="http://www.w3.org/2000/svg" xmlns:xlink="http://www.w3.org/1999/xlink" x="0px" y="0px"
	 viewBox="0 0 202.3 202.1" style="enable-background:new 0 0 202.3 202.1;" xml:space="preserve">
<style type="text/css">

</style>
<g>
	<g>

			<ellipse transform="matrix(0.7071 -0.7071 0.7071 0.7071 -42.2928 101.3598)" class="st0" cx="101.2" cy="101.7" rx="67" ry="67"/>
		<g>
			<defs>

					<ellipse id="SVGID_1_" transform="matrix(0.7071 -0.7071 0.7071 0.7071 -42.2928 101.3598)" cx="101.2" cy="101.7" rx="67" ry="67"/>
			</defs>
			<clipPath id="SVGID_2_">
				<use xlink:href="#SVGID_1_"  style="overflow:visible;"/>
			</clipPath>
			<g class="st1">
				<path class="st2" d="M99.9,171.8c39.3,0,71.2-31.8,71.2-71.1c0-13-3.5-25.3-9.6-35.8c-25.1,20.9-67.3,51.3-121.8,73.5
					C52.1,158.5,74.4,171.8,99.9,171.8z"/>
			</g>
		</g>
		<g>
			<path class="st30" d="M101.8,36.7c0.6,0.2,1,0.7,1.4,1.2c1.1,1.4,2.2,2.9,3,4.5c0.7,1.5,1.3,3.1,1.1,4.7c-0.1,1.9-0.8,3.9-2.4,5
				c-1.3,0.9-3,1-4.4,0.7c-1.4-0.4-2.6-1.3-3.2-2.6c-1-2-1-4.3-0.2-6.3C98,41.2,99.9,38.9,101.8,36.7z"/>
			<path class="st30" d="M123.7,48.4c2.2-2,5-3.2,7.8-4.2c0.3,0.6,0.5,1.3,0.7,2c0.4,2,0.7,4.1,0.4,6.2c-0.2,2.7-1.7,5.4-4.2,6.5
				c-3,1.4-6.8-1-7.2-4.1C120.8,52.4,121.9,50,123.7,48.4z"/>
			<path class="st30" d="M68.3,46.1c0.4,0,0.8,0,1.2,0.1c2.6,0.7,5.1,1.7,7.2,3.4c1.5,1.1,2.5,2.8,2.9,4.6c0.3,1.4,0.1,3.1-0.9,4.2
				c-1.1,1.4-3,2.3-4.8,2.2c-1.1-0.1-2.2-0.7-3.1-1.4c-1.4-1.2-2.4-2.9-2.7-4.8C67.6,51.7,67.8,48.8,68.3,46.1z"/>
			<path class="st30" d="M116.3,63.4c1.5-0.8,3.1-1.6,4.7-2c0.9,2.5,1.2,5.2,1,7.9c-0.1,1.9-0.7,3.7-2,5.1c-0.8,0.9-1.9,1.7-3.1,2
				c-1.1,0.3-2.3,0.1-3.3-0.3c-1.3-0.7-2.4-1.7-2.9-3.1c-0.6-1.7-0.2-3.5,0.6-5.1C112.5,65.8,114.5,64.5,116.3,63.4z"/>
			<path class="st30" d="M79.2,62.4c2.7,0.3,5.3,1.5,7.6,3c2.4,1.6,4.2,4.5,3.7,7.5c-0.3,1.8-1.8,3.1-3.4,3.8c-1,0.2-1.9,0.4-2.9,0.2
				c-1.7-0.3-3.1-1.6-4-2.9c-1-1.5-1.4-3.3-1.5-5C78.7,66.7,78.7,64.5,79.2,62.4z"/>
			<path class="st30" d="M148.4,66.2c2-0.2,3.9-0.1,5.8,0.2c0,0.7-0.1,1.3-0.3,1.9c-0.6,2.4-1.5,4.7-2.9,6.8c-1,1.4-2.6,2.5-4.3,3
				c-1.3,0.3-2.7,0.3-3.8-0.3c-1.6-0.8-2.6-2.4-2.9-4.1c-0.1-1.3,0.3-2.6,0.9-3.7c0.9-1,1.8-2,3-2.6
				C145.4,66.6,146.9,66.4,148.4,66.2z"/>
			<path class="st30" d="M45.6,69.8c1.8-0.9,3.8-1.1,5.7-1.3c1.8,0,3.6,0,5.2,0.7c1.6,0.8,3.1,2.1,3.6,3.8c0.4,1.3,0.1,2.7-0.5,3.9
				c-0.8,1.3-2.2,2.4-3.8,2.6c-2.3,0.2-4.7-0.8-6.2-2.6C47.8,74.8,46.5,72.3,45.6,69.8z"/>
			<path class="st30" d="M77.6,91.7c2.6-1,5.4-1.3,8.1-1.1c2.5,0.2,5.1,1.5,6.4,3.7c0.7,1.1,0.8,2.5,0.5,3.8c-0.6,1.6-1.7,3-3.3,3.6
				c-2,0.7-4.1,0.1-5.8-0.9c-1.9-1.1-3-3.1-4.2-4.9C78.7,94.6,77.9,93.2,77.6,91.7z"/>
			<path class="st30" d="M130.6,92.7c2.1-1.1,4.7-1.1,6.8-0.2c2.6,1.1,4.9,2.8,6.9,4.8c-0.7,1-1.7,1.7-2.7,2.5
				c-1.8,1.3-3.8,2.4-6.1,2.9c-2,0.3-4.3-0.2-5.9-1.5c-1.4-1.3-1.9-3.2-1.5-5C128.4,94.7,129.3,93.4,130.6,92.7z"/>
			<path class="st30" d="M44.1,92.5c1.7-0.9,3.6-1.6,5.6-1.3c1.6,0.2,3.1,0.9,4.1,2.2c1,1.4,1.1,3.4,0.5,4.9
				c-0.5,1.2-1.4,2.2-2.6,2.7c-1.7,0.8-3.7,0.8-5.5,0.2c-2.2-0.8-4.2-2.1-6-3.6c-0.4-0.3-0.8-0.8-1.2-1.1
				C40.4,94.8,42.2,93.5,44.1,92.5z"/>
			<path class="st30" d="M149.6,93.1c2-1.2,4.6-1.3,6.8-0.5c2.7,1.1,5,2.9,7.1,4.9c-0.6,1-1.6,1.7-2.5,2.4c-1.9,1.4-4.1,2.7-6.4,3.1
				c-2,0.2-4.3-0.2-5.8-1.7c-1-1-1.5-2.5-1.5-3.9C147.2,95.7,148.1,93.9,149.6,93.1z"/>
			<path class="st30" d="M61.5,94.4c1.7-1,3.6-1.7,5.5-1.7c1.7,0,3.6,0.5,4.8,1.8c1,1,1.4,2.4,1.3,3.8c-0.1,1.4-0.6,2.7-1.7,3.7
				c-0.8,0.8-1.9,1.1-3,1.5c-1.1,0-2.4,0.1-3.5-0.2c-2.7-0.8-5.1-2.5-7.3-4.2c-0.3-0.3-0.6-0.7-0.9-1C58.1,96.6,59.8,95.5,61.5,94.4
				z"/>
			<path class="st30" d="M142.3,118.8c0.9-0.9,2.2-1.6,3.5-1.6c1.6-0.1,3.1,0.6,4.5,1.4c1.9,1.5,3.1,3.6,4.1,5.8
				c0.5,1.2,1,2.4,1.3,3.6c-1.9,0.7-3.9,0.9-5.9,0.9c-2,0-4.1-0.2-5.8-1.3c-1-0.7-2-1.5-2.6-2.6c-0.5-0.9-0.7-1.8-0.6-2.8
				C140.8,120.9,141.4,119.7,142.3,118.8z"/>
			<path class="st30" d="M51.1,117.5c1.6-1.1,3.6-1.8,5.6-1.3c1.4,0.3,2.5,1.4,3.1,2.7c0.5,1.2,0.7,2.7,0.2,4
				c-0.6,1.5-1.8,2.6-3.2,3.4c-1.3,0.7-2.7,0.9-4.2,1c-2.2,0-4.5-0.2-6.6-0.8c0.1-1.2,0.6-2.3,1.1-3.5
				C48.1,120.9,49.3,118.9,51.1,117.5z"/>
			<path class="st30" d="M112.7,122.2c0.7-2.4,3.1-4.2,5.5-4c1.2,0.1,2.4,0.7,3.3,1.4c1.8,1.4,2.8,3.7,3.2,5.9c0.4,2,0.6,4.1,0.5,6.2
				c-1.5,0.4-3-0.2-4.5-0.4c-2.4-0.7-4.9-1.6-6.4-3.6C113.1,126.1,112.3,124.1,112.7,122.2z"/>
			<path class="st30" d="M84.7,119.9c1.1-0.3,2.4-0.3,3.4,0.1c1,0.5,1.9,1.1,2.6,2c0.7,1,1,2.3,1,3.5c-0.3,2.4-1.8,4.5-3.8,5.8
				c-2.4,1.4-4.9,2.4-7.6,2.9c-0.5-0.8-0.4-1.8-0.5-2.7c-0.1-2,0-4,0.4-5.9C80.7,123,82.4,120.9,84.7,119.9z"/>
			<path class="st30" d="M125.2,137.9c1-1.1,2.4-1.9,4-1.9c1.7,0,3.2,0.8,4.4,1.9c2,1.9,2.6,4.8,3,7.5c0.1,1.4,0.2,2.7,0.1,4.1
				c-1.7,0.1-3.4-0.3-5.1-0.8c-2-0.6-4.1-1.4-5.7-3.1c-1-1.3-1.9-2.8-1.9-4.5C123.9,140,124.4,138.8,125.2,137.9z"/>
			<path class="st30" d="M71.2,137.9c1.1-0.8,2.5-1.4,3.9-1.3c1,0.1,1.9,0.6,2.7,1.1c0.9,0.8,1.7,1.9,2,3.2c0.3,1.7-0.3,3.4-1.2,4.8
				c-1.5,2.3-4.1,3.4-6.5,4.4c-1.3,0.4-2.5,0.8-3.7,1c-0.5-2-0.5-4.1-0.4-6.1c0.2-1.3,0.3-2.6,0.8-3.7
				C69.3,140,70.2,138.8,71.2,137.9z"/>
			<path class="st40" d="M117,39.1c0.2-0.1,0.4-0.3,0.7-0.3c1,1.5,1.8,3.3,2.4,5.1c0.6,2,1,4.4,0.4,6.4c-0.5,1.7-1.7,3.4-3.4,4.1
				c-2.6,1-5.9-0.2-7-2.8c-0.8-2.3-0.3-5,1-7C112.7,42.3,114.8,40.6,117,39.1z"/>
			<path class="st40" d="M83.9,39c0.3,0.1,0.6,0.2,0.9,0.3c2.3,1.2,4.5,2.8,6.3,4.8c1.4,1.6,2.1,3.7,1.9,5.8c-0.1,1.4-0.8,2.7-2,3.6
				c-1.4,1.1-3.4,1.4-5.1,0.9c-2.8-1.1-4.3-4.3-4.1-7.2C82,44.3,82.8,41.6,83.9,39z"/>
			<path class="st40" d="M135.1,57.4c2.8-1.9,6.3-2.8,9.6-3.1c0.3,2.9,0,5.9-0.9,8.7c-0.7,2.2-2.5,4-4.6,4.9c-1,0.2-2,0.3-3,0.1
				c-2.3-0.7-4.1-3-4-5.4C132.4,60.6,133.6,58.8,135.1,57.4z"/>
			<path class="st40" d="M55.8,55.8c1.7-0.2,3.3-0.1,5,0.1c1.8,0.3,3.6,0.7,5.2,1.7c1.1,0.7,2.1,1.7,2.7,2.9c0.6,0.9,0.9,2,0.7,3.1
				c0,1.4-0.8,2.6-1.8,3.5c-1.2,1.1-2.9,1.6-4.5,1.3c-2.3-0.5-4.2-2.1-5.2-4.2C56.6,61.5,55.9,58.6,55.8,55.8z"/>
			<path class="st40" d="M100.5,55.9c0.2-0.1,0.3-0.2,0.5-0.2c0.9,0.9,1.7,1.8,2.4,2.8c1.3,1.9,2.4,3.9,2.8,6.1
				c0.3,2.2-0.2,4.7-1.9,6.2c-1.1,1-2.6,1.3-4.1,1.2c-1.4-0.3-2.8-0.9-3.7-2.1c-1.4-2-1.5-4.8-0.7-7.1
				C96.9,60.1,98.7,57.9,100.5,55.9z"/>
			<path class="st40" d="M128.6,74.8c2.1-0.9,4.4-1.4,6.7-1.6c0.1,0.2,0.2,0.4,0.3,0.7c0,3.3-0.3,6.8-1.9,9.8c-0.5,0.6-1,1.2-1.6,1.7
				c-0.8,0.6-1.6,1-2.5,1.4c-1.2,0.3-2.5,0.1-3.7-0.3c-1.5-0.9-2.8-2.4-3-4.2c-0.2-2,0.8-3.9,2.1-5.4
				C126.1,76.1,127.3,75.3,128.6,74.8z"/>
			<path class="st40" d="M64.7,78.4c1.3-0.4,2.6-0.7,3.9-0.9c1.7-0.2,3.5-0.3,5.2,0.1c1.1,0.2,2.1,0.8,3.1,1.4c1,0.9,2,2,2.3,3.5
				c0.3,1.7-0.3,3.4-1.4,4.6c-0.9,1-2.3,1.7-3.6,1.7c-2.1,0-4.1-0.8-5.6-2.2c-1.3-1.2-2.2-2.7-3.1-4.1c-0.5-1.1-1-2.3-1.6-3.4
				C64.1,78.8,64.4,78.5,64.7,78.4z"/>
			<path class="st40" d="M149.8,79.3c2-0.6,4.1-0.4,6.1,0c1.7,0.4,3.4,0.8,4.8,1.6c-0.3,0.7-0.6,1.5-1,2.2c-1.3,2.2-2.9,4.3-5,5.8
				c-1.6,1-3.4,1.5-5.3,1.2c-1.1-0.1-2.2-0.7-3-1.6c-1.4-1.7-1.8-4.2-0.7-6.2C146.7,80.9,148.2,79.9,149.8,79.3z"/>
			<path class="st40" d="M107.3,81.5c1.6-0.6,3.2-1.2,4.9-1.4c0.4,1.9,0.5,3.8,0.3,5.7c-0.1,2.5-0.8,5.2-2.7,7
				c-1.1,1-2.5,1.8-4.1,1.8c-2.2,0-4.3-1.7-5-3.7c-0.7-2.1,0.2-4.4,1.4-6C103.5,83.3,105.5,82.3,107.3,81.5z"/>
			<path class="st40" d="M46,80.3c2.1-0.5,4.4-0.8,6.4,0.1c1.8,0.7,3.3,2.1,3.7,4c0.1,1,0,2-0.3,2.9c-0.5,1-1.3,2.1-2.3,2.6
				c-1.7,0.9-3.8,0.7-5.6,0c-2-0.9-3.6-2.6-4.9-4.2c-0.8-1-1.5-2.1-2.1-3.2C42.3,81.4,44.2,80.8,46,80.3z"/>
			<path class="st40" d="M109.5,102.8c1.3-0.8,2.9-1,4.3-0.5c1.8,0.6,3.5,1.8,4.5,3.5c1.3,2.1,2.1,4.6,2.6,7.1c0,0.4,0.1,0.8,0.2,1.2
				c-1.8,0.4-3.6,0.3-5.4,0.2c-2.2-0.2-4.6-0.7-6.3-2.2c-0.5-0.4-0.9-0.8-1.3-1.3c-0.7-1-1.2-2.2-1.2-3.4
				C106.8,105.4,108,103.8,109.5,102.8z"/>
			<path class="st40" d="M46.3,105.3c1.6-1,3.5-1.4,5.4-1.1c1.4,0.3,2.7,1.1,3.4,2.3c0.4,0.9,0.7,1.8,0.7,2.8c0,1.5-0.7,2.9-1.8,3.8
				c-1.6,1.3-3.8,1.9-5.9,1.6c-2.7-0.4-5.3-1.4-7.7-2.7c0.4-1,1-1.8,1.6-2.6C43.3,107.8,44.7,106.4,46.3,105.3z"/>
			<path class="st40" d="M149.4,105.9c0.7,0,1.4-0.1,2-0.1c1.2,0.2,2.5,0.5,3.5,1.2c2,1.4,3.6,3.3,5,5.3c0.4,0.7,0.9,1.4,1.2,2.1
				c-1.7,1-3.5,1.6-5.4,2.1c-2.2,0.5-4.6,0.8-6.8-0.2c-1.8-0.7-3.4-2.2-3.7-4.2C144.9,109.4,146.7,106.5,149.4,105.9z"/>
			<path class="st40" d="M123.4,113c-0.3-2.7,1.7-5.1,4.2-5.7c1.4-0.3,2.9,0,4.1,0.8c1.6,1,2.8,2.5,3.5,4.2c0.8,2,1.3,4.1,1.5,6.3
				c0,0.5,0,1,0,1.5c-2.4,0.2-4.7-0.3-7.1-0.8c-1.2-0.4-2.4-0.9-3.5-1.7C124.8,116.4,123.7,114.8,123.4,113z"/>
			<path class="st40" d="M72.5,108.8c1.3-0.2,2.6,0,3.7,0.7c1.5,1,2.4,2.9,2.5,4.7c0,0.3-0.1,0.5-0.1,0.8c-0.4,2-2.1,3.6-4,4.6
				c-2.2,0.9-4.7,1-7.1,0.8c-1.2-0.1-2.4-0.3-3.5-0.5c0.1-1.3,0.6-2.5,1-3.7c0.6-1.4,1.3-2.7,2.1-4
				C68.3,110.4,70.3,109.1,72.5,108.8z"/>
			<path class="st40" d="M133.7,131.4c0.9-1.8,2.8-3.3,5-3.2c2.1,0.1,4,1.4,5.3,2.9c1.4,1.9,2,4.2,2.4,6.5c0.2,1.2,0.4,2.3,0.3,3.5
				c-2,0.2-4-0.1-5.9-0.5c-2-0.5-4.1-1.3-5.6-2.9C133.6,136.1,132.7,133.5,133.7,131.4z"/>
			<path class="st40" d="M58,129c1.4-1.5,3.3-2.6,5.4-2.5c1.6,0.1,3.1,1.2,3.9,2.6c0.5,0.8,0.8,1.8,0.7,2.8c-0.1,1.2-0.6,2.3-1.3,3.2
				c-1.3,1.8-3.4,2.8-5.4,3.2c-2,0.5-4,0.8-6.1,0.7c0-1.3,0.1-2.6,0.4-3.9C55.9,133,56.6,130.7,58,129z"/>
			<path class="st40" d="M112.5,146.1c0.5-3,4.1-4.9,6.9-3.9c1.7,0.6,2.9,2,3.7,3.5c1.2,2.5,0.9,5.4,0.4,8.1
				c-0.2,1.1-0.5,2.3-0.9,3.3c-2.5-0.6-4.7-2-6.8-3.6C113.5,151.8,112.1,149,112.5,146.1z"/>
			<path class="st40" d="M85.1,142.9c2.6-0.9,5.8,0.6,6.7,3.2c0.7,2.6,0,5.4-1.9,7.4c-1.9,2-4.1,3.8-6.6,4.9c-0.9-1.6-1.5-3.4-2-5.1
				c-0.5-2.5-0.7-5.2,0.5-7.5C82.5,144.5,83.6,143.4,85.1,142.9z"/>
			<path class="st5" d="M95.5,75.3c0.4-0.3,1,0,1,0.5c0.1,1,0,2,0,3.1c0.1,4.5,1.2,9,2.7,13.2c0.7,1.9,1.4,3.8,2.1,5.6
				c4,0.4,8-0.7,11.5-2.5c3.1-1.6,5.7-4,7.8-6.8c-0.3,1.8-1,3.5-1.9,5.1c-0.2,0.3-0.4,0.6-0.6,0.9c-0.2,0.3-0.4,0.5-0.6,0.7
				c-2.5,3-6.2,4.7-9.9,5.8c-0.7,0.2-1.4,0.3-2.2,0.5c-0.8,0.2-1.6,0.3-2.3,0.7c0.1,0.2,0.2,0.4,0.3,0.7c1.1,2.3,1.9,4.8,2.6,7.3
				c0.8,4,1.5,8,1.9,12c0.3,3.1,0.5,6.2,0.7,9.3c0,0.7,0,1.4,0,2.1c0,4.1,0.1,8.2-0.1,12.4c-0.1,2.5-0.3,5.1-0.6,7.6
				c-0.4,3.7-2,11.8-3.5,15.1c-3.3,0.1-5.8,0.1-8.9-0.2c0.8-3.3,2.1-10.7,2.4-14.1c0.3-2.8,0.6-5.6,0.8-8.5c0.2-3.1,0.4-6.1,0.5-9.2
				c0.1-1.7,0.2-3.4,0.3-5.1c0-2,0.1-4,0-5.9c0-2.4,0.1-4.9-0.2-7.4c-0.1-1.2-0.3-2.3-0.6-3.5c-0.5-1-1.4-1.7-2.4-2.4
				c-1.9-1.4-3.9-2.4-6-3.2c-3.3-1.4-6.6-2.3-10.1-3.1c-4.3-1-8.6-1.5-13-2c0.4-0.1,0.9-0.3,1.3-0.3c1.1,0,2.2-0.1,3.3-0.2
				c4.4-0.3,8.9-0.1,13.3,0.3c2.9,0.2,5.7,0.8,8.5,1.5c1.2,0.3,2.4,0.7,3.6,1c-0.1-1.3-0.4-2.5-0.7-3.7c-0.3-1.4-0.6-2.9-0.9-4.3
				c-0.7-3.4-1.2-6.9-1.7-10.4c-0.3-2.5-0.6-5-0.8-7.5c0-0.7,0-1.3,0.1-2C93.8,77.2,94.3,75.9,95.5,75.3z"/>
		</g>
	</g>
	<g>
		<g>
			<path class="st0" d="M101.2,8.6c-51.4,0-93.1,41.7-93.1,93.1s41.7,93.1,93.1,93.1s93.1-41.7,93.1-93.1S152.6,8.6,101.2,8.6z
				 M165.4,128.9c-3.5,8.3-8.5,15.8-14.9,22.2c-6.4,6.4-13.9,11.4-22.2,14.9c-8.6,3.6-17.7,5.5-27.1,5.5c-9.4,0-18.5-1.8-27.1-5.5
				c-8.3-3.5-15.8-8.5-22.2-14.9c-6.4-6.4-11.4-13.9-14.9-22.2c-3.6-8.6-5.5-17.7-5.5-27.1s1.8-18.5,5.5-27.1
				c3.5-8.3,8.5-15.8,14.9-22.2C58.3,46,65.8,41,74.1,37.5c8.6-3.6,17.7-5.5,27.1-5.5c9.4,0,18.5,1.8,27.1,5.5
				c8.3,3.5,15.8,8.5,22.2,14.9c6.4,6.4,11.4,13.9,14.9,22.2c3.6,8.6,5.5,17.7,5.5,27.1S169.1,120.3,165.4,128.9z"/>
		</g>
		<g>
			<path class="st6" d="M101.2,201.9c-13.5,0-26.7-2.6-39-7.9c-11.9-5-22.6-12.3-31.9-21.5c-9.2-9.2-16.4-19.9-21.5-31.9
				c-5.2-12.4-7.9-25.5-7.9-39s2.6-26.7,7.9-39c5-11.9,12.3-22.6,21.5-31.9c9.2-9.2,19.9-16.4,31.9-21.5c12.4-5.2,25.5-7.9,39-7.9
				c13.5,0,26.7,2.6,39,7.9c11.9,5,22.6,12.3,31.9,21.5c9.2,9.2,16.4,19.9,21.5,31.9c5.2,12.4,7.9,25.5,7.9,39s-2.6,26.7-7.9,39
				c-5,11.9-12.3,22.6-21.5,31.9c-9.2,9.2-19.9,16.4-31.9,21.5C127.9,199.3,114.7,201.9,101.2,201.9z M101.2,4.3
				C47.5,4.3,3.7,48,3.7,101.7s43.7,97.5,97.5,97.5s97.5-43.7,97.5-97.5S154.9,4.3,101.2,4.3z"/>
		</g>
		<g>
			<defs>
				<path id="SVGID_3_" d="M101.2,8.6c-51.4,0-93.1,41.7-93.1,93.1s41.7,93.1,93.1,93.1s93.1-41.7,93.1-93.1S152.6,8.6,101.2,8.6z
					 M165.4,128.9c-3.5,8.3-8.5,15.8-14.9,22.2c-6.4,6.4-13.9,11.4-22.2,14.9c-8.6,3.6-17.7,5.5-27.1,5.5c-9.4,0-18.5-1.8-27.1-5.5
					c-8.3-3.5-15.8-8.5-22.2-14.9c-6.4-6.4-11.4-13.9-14.9-22.2c-3.6-8.6-5.5-17.7-5.5-27.1s1.8-18.5,5.5-27.1
					c3.5-8.3,8.5-15.8,14.9-22.2C58.3,46,65.8,41,74.1,37.5c8.6-3.6,17.7-5.5,27.1-5.5c9.4,0,18.5,1.8,27.1,5.5
					c8.3,3.5,15.8,8.5,22.2,14.9c6.4,6.4,11.4,13.9,14.9,22.2c3.6,8.6,5.5,17.7,5.5,27.1S169.1,120.3,165.4,128.9z"/>
			</defs>
			<clipPath id="SVGID_4_">
				<use xlink:href="#SVGID_3_"  style="overflow:visible;"/>
			</clipPath>
			<g class="st7">
				<path class="st8" d="M182,45.6c0,0-8.6,9.1-24.3,22.2c5.7,9.8,9,21.3,9,33.5c0,36.8-29.8,66.6-66.6,66.6
					c-23.8,0-44.7-12.5-56.4-31.3c-9.7,4-19.9,7.6-30.4,10.9c0,0,26.3,51.5,86.9,52.3C154.4,200.5,236.7,138.3,182,45.6z"/>
			</g>
		</g>
		<g>
			<path class="st9" d="M33.8,60.1l2.8-2.6c0.7,0.7,1.3,1.5,1.7,2.3c0.3,0.8,0.4,1.7,0.3,2.5c-0.1,0.9-0.4,1.8-1,2.8
				c-0.7,1.3-1.5,2.2-2.3,2.8c-0.9,0.6-1.9,0.9-3.2,1c-1.2,0-2.6-0.3-4.1-1.2c-1.9-1.1-3.1-2.5-3.6-4.1c-0.4-1.7-0.1-3.4,1-5.3
				c0.9-1.5,1.8-2.4,2.9-3c1.1-0.5,2.4-0.6,3.8-0.3L31,58.7c-0.4-0.1-0.7-0.1-1-0.1c-0.4,0-0.7,0.2-1,0.4c-0.3,0.2-0.6,0.5-0.8,0.9
				c-0.5,0.8-0.5,1.6-0.1,2.4c0.3,0.6,1,1.2,2,1.8c1.3,0.7,2.3,1,3,0.9c0.7-0.1,1.3-0.5,1.7-1.3c0.4-0.7,0.5-1.3,0.3-1.9
				C34.9,61.3,34.5,60.7,33.8,60.1z M33.8,60.1L33.8,60.1L33.8,60.1z M35.8,54.4c1.2,1,2.4,1.7,3.6,1.9c1.2,0.2,2.3,0.1,3.3-0.3
				c1-0.5,2-1.3,3.1-2.4c1-1.1,1.6-2.3,1.8-3.4c0.3-1.1,0.2-2.2-0.3-3.3c-0.4-1-1.2-2.1-2.4-3.1c-1.7-1.4-3.3-2-5-1.9
				c-1.7,0.1-3.3,1-4.7,2.7c-1.4,1.7-2.1,3.3-2,5.1C33.3,51.3,34.2,52.9,35.8,54.4z M35.8,54.4L35.8,54.4L35.8,54.4z M38.6,51.2
				c-1-0.9-1.6-1.7-1.7-2.5c-0.1-0.8,0.1-1.5,0.7-2.1c0.6-0.7,1.3-1,2-1s1.6,0.4,2.6,1.3c1.2,1,1.8,1.8,1.9,2.6
				c0.1,0.7-0.1,1.5-0.7,2.1c-0.6,0.7-1.3,1-2,1S39.6,52.1,38.6,51.2z M38.6,51.2L38.6,51.2L38.6,51.2z M42.9,36.5l3.3-2.6l6.3,8
				l5.1-4.1l2,2.6l-8.4,6.6L42.9,36.5z M42.9,36.5L42.9,36.5L42.9,36.5z M54.2,28.2l6.7,11.7l9.8-5.6l-1.5-2.7L63,35.2l-1.4-2.3
				l5.6-3.2l-1.4-2.4l-5.6,3.2l-1.1-1.8l6.1-3.5l-1.4-2.5L54.2,28.2z M54.2,28.2L54.2,28.2L54.2,28.2z M57,22.5l2.8-1.6l-1.2,3.9
				l-1.5,0.9L57,22.5z M57,22.5L57,22.5L57,22.5z M77.2,26.8l-0.9-2.7l6.1-2l1.8,5.4c-0.9,1.2-1.7,2.1-2.5,2.7
				c-0.8,0.6-1.8,1.1-3.1,1.5c-1.5,0.5-2.8,0.7-4,0.5c-1.1-0.2-2.1-0.7-3-1.5c-0.9-0.9-1.5-2-2-3.3c-0.5-1.4-0.6-2.7-0.4-3.9
				c0.2-1.2,0.8-2.3,1.7-3.2c0.7-0.7,1.8-1.3,3.3-1.8c1.4-0.4,2.5-0.7,3.3-0.7c0.7,0,1.5,0.2,2.1,0.6c0.6,0.4,1.2,1,1.7,1.7L78,22
				c-0.3-0.4-0.7-0.7-1.2-0.8c-0.5-0.1-1-0.1-1.6,0.1c-0.9,0.3-1.4,0.8-1.8,1.6c-0.3,0.8-0.2,1.8,0.2,3.1c0.4,1.4,1,2.3,1.8,2.7
				c0.7,0.4,1.5,0.5,2.4,0.1c0.4-0.1,0.9-0.3,1.2-0.6c0.3-0.3,0.7-0.7,1.1-1.1l-0.4-1.2L77.2,26.8z M77.2,26.8L77.2,26.8L77.2,26.8z
				 M84.5,16l4.1-0.7L91,28.5l-4.1,0.7L84.5,16z M84.5,16L84.5,16L84.5,16z M92.8,21.4c-0.1-2.2,0.5-3.9,1.7-5.2
				c1.2-1.2,2.9-1.9,5.1-2c2.3,0,4,0.5,5.2,1.7c1.3,1.2,1.9,2.8,2,5c0,1.6-0.2,2.9-0.7,3.9c-0.5,1-1.3,1.8-2.2,2.4
				c-1,0.6-2.3,0.9-3.7,1c-1.5,0-2.8-0.2-3.8-0.7c-1-0.4-1.8-1.2-2.5-2.2C93.2,24.3,92.9,23,92.8,21.4z M92.8,21.4L92.8,21.4
				L92.8,21.4z M97,21.3c0,1.4,0.3,2.4,0.8,2.9c0.5,0.6,1.2,0.8,2.1,0.8c0.9,0,1.6-0.3,2-0.9c0.5-0.6,0.7-1.7,0.7-3.1
				c0-1.3-0.3-2.2-0.8-2.8c-0.5-0.6-1.2-0.8-2.1-0.8c-0.9,0-1.5,0.3-2,1C97.1,19,96.9,20,97,21.3z M97,21.3L97,21.3L97,21.3z
				 M123.4,29l-4.6-1.3l-1.2,1.9l-4.1-1.1l8.5-11.6l4.4,1.3l1.2,14.3l-4.2-1.2V29z M123.4,29L123.4,29L123.4,29z M123.3,26l-0.1-5.1
				l-2.7,4.3L123.3,26z M123.3,26L123.3,26L123.3,26z M125.1,14.1l3.1,0.9l-3.6,1.8l-1.7-0.5L125.1,14.1z M125.1,14.1L125.1,14.1
				L125.1,14.1z M133.8,20.6l3.8,1.7l-4.2,9.2l5.9,2.7l-1.4,3l-9.7-4.4L133.8,20.6z M133.8,20.6L133.8,20.6L133.8,20.6z M147,41.2
				l-0.7,2.2l3.6,2.5l3.7-13.9l-3.7-2.7l-11.9,8.1l3.5,2.4l1.8-1.4L147,41.2z M147,41.2L147,41.2L147,41.2z M148,38.3l-2.4-1.7
				l4-3.1L148,38.3z M148,38.3L148,38.3L148,38.3z M160.1,37.1l3.8,4l-4.5,7.2l7.4-4.1l3.7,4l-9.8,9.3l-2.3-2.4l7.4-7.1l-9.2,5.2
				l-2.1-2.2l5.6-9l-7.4,7.1l-2.4-2.4L160.1,37.1z M160.1,37.1L160.1,37.1L160.1,37.1z M167.4,55.4c-1.4,0.8-2.4,1.7-2.9,2.8
				c-0.6,1-0.9,2.1-0.8,3.2c0.1,1.1,0.5,2.4,1.3,3.7c0.7,1.3,1.6,2.2,2.6,2.8c1,0.6,2,0.8,3.2,0.8c1.1-0.1,2.4-0.5,3.7-1.3
				c1.9-1.1,3.1-2.4,3.5-4.1c0.4-1.7,0.1-3.4-1-5.4c-1.1-1.9-2.4-3.1-4.1-3.5C171.1,54,169.3,54.4,167.4,55.4z M167.4,55.4
				L167.4,55.4L167.4,55.4z M169.5,59.1c1.2-0.7,2.2-1,3-0.8c0.7,0.1,1.4,0.6,1.8,1.3c0.4,0.7,0.5,1.5,0.3,2.2
				c-0.3,0.7-0.9,1.4-2,2.1c-1.3,0.7-2.4,1-3.1,0.9c-0.7-0.1-1.4-0.6-1.8-1.4c-0.4-0.7-0.5-1.5-0.3-2.2
				C167.6,60.5,168.3,59.8,169.5,59.1z"/>
		</g>
		<g>
			<path class="st9" d="M54.5,159.4l3.5,2.5l-3.2,9.6l8.1-6.1l3.4,2.4l-11.9,8.1l-3.7-2.6L54.5,159.4z M54.5,159.4L54.5,159.4
				L54.5,159.4z M68.7,180.7l-0.3,2.3l4,1.8l0.9-14.3l-4.1-1.9L59,178.8l3.9,1.7l1.5-1.7L68.7,180.7z M68.7,180.7L68.7,180.7
				L68.7,180.7z M69.1,177.6l-2.7-1.2l3.3-3.8L69.1,177.6z M69.1,177.6L69.1,177.6L69.1,177.6z M78,172.4l4,0.9l-2.3,9.9l6.4,1.5
				l-0.8,3.2l-10.4-2.4L78,172.4z M78,172.4L78,172.4L78,172.4z M90.1,175l4.2,0.5l-1.6,13.4l-4.1-0.5L90.1,175z M90.1,175L90.1,175
				L90.1,175z M96.6,176l3.9-0.1l5.3,7.3l-0.2-7.5l3.9-0.1l0.4,13.5l-3.9,0.1l-5.3-7.2l0.3,7.4l-3.9,0.1L96.6,176z M96.6,176
				L96.6,176L96.6,176z M110.9,175.5l4.1-1l1,4.6l4.4-1l-1-4.6l4.1-1l3.1,13.1l-4.1,1l-1.2-5.3l-4.4,1l1.3,5.3l-4.1,1L110.9,175.5z
				 M110.9,175.5L110.9,175.5L110.9,175.5z M127.1,178.7c0.6,1.4,1.4,2.5,2.4,3.2c1,0.7,2,1.1,3.2,1.1c1.1,0,2.3-0.3,3.7-0.9
				c1.4-0.6,2.4-1.4,3.1-2.3c0.7-0.9,1.1-2,1.1-3.1c0.1-1.1-0.2-2.4-0.9-3.9c-0.9-2-2.1-3.2-3.7-3.8c-1.6-0.6-3.4-0.4-5.5,0.5
				c-2,0.9-3.3,2.2-3.9,3.8C126,174.8,126.2,176.7,127.1,178.7z M127.1,178.7L127.1,178.7L127.1,178.7z M130.9,177
				c-0.6-1.3-0.7-2.3-0.5-3c0.2-0.8,0.7-1.3,1.5-1.7c0.8-0.3,1.5-0.4,2.3,0c0.7,0.3,1.3,1,1.8,2.2c0.6,1.4,0.8,2.4,0.6,3.1
				c-0.2,0.7-0.7,1.3-1.5,1.7c-0.8,0.3-1.6,0.3-2.3,0C132.1,179,131.4,178.2,130.9,177z M130.9,177L130.9,177L130.9,177z
				 M142.5,174.4l3.1-2.5c0.4,0.4,0.9,0.7,1.3,0.9c0.7,0.2,1.3,0,2-0.4c0.5-0.3,0.7-0.7,0.9-1.1c0.1-0.4,0-0.8-0.2-1
				c-0.2-0.3-0.5-0.5-0.9-0.5c-0.4,0-1.1,0.2-2.2,0.6c-1.7,0.7-3.1,1.1-4.1,1c-1-0.1-1.9-0.6-2.5-1.4c-0.4-0.6-0.6-1.2-0.7-2
				c0-0.7,0.2-1.5,0.7-2.2c0.4-0.7,1.2-1.6,2.4-2.4c1.4-1,2.7-1.5,3.7-1.5c1.1,0,2.1,0.5,3.1,1.5l-3,2.5c-0.5-0.4-0.9-0.7-1.3-0.7
				c-0.5,0-0.9,0.1-1.4,0.5c-0.4,0.3-0.6,0.6-0.7,0.9c-0.1,0.3,0,0.6,0.1,0.8c0.1,0.2,0.3,0.3,0.6,0.3c0.3,0,0.7-0.1,1.4-0.4
				c1.7-0.7,3-1.2,3.8-1.3c0.9-0.1,1.7-0.1,2.3,0.2c0.6,0.3,1.1,0.7,1.6,1.3c0.5,0.7,0.8,1.5,0.8,2.4c0,0.9-0.2,1.7-0.7,2.5
				c-0.5,0.8-1.3,1.6-2.3,2.4c-1.8,1.3-3.4,1.9-4.6,1.7C144.4,176,143.3,175.4,142.5,174.4z"/>
		</g>
		<g>
			<g>
				<path class="st9" d="M20.7,98c2,0,3.7,1.7,3.7,3.7c0,2-1.7,3.7-3.7,3.7c-2,0-3.7-1.7-3.7-3.7C17,99.7,18.6,98,20.7,98z"/>
			</g>
			<g>
				<path class="st9" d="M181.7,98c2,0,3.7,1.7,3.7,3.7c0,2-1.7,3.7-3.7,3.7c-2,0-3.7-1.7-3.7-3.7C178,99.7,179.6,98,181.7,98z"/>
			</g>
		</g>
	</g>
</g>
</svg>
