<svg version="1.1" id="Layer_1" xmlns="http://www.w3.org/2000/svg" xmlns:xlink="http://www.w3.org/1999/xlink" x="0px" y="0px"
	 width="200px" height="200px" viewBox="0 0 670.59 671.59" enable-background="new 0 0 670.59 671.59" xml:space="preserve">
<g>
	<path fill="#486EAA" d="M335.295,114.071c-122.26,0-221.725,99.465-221.725,221.724c0,122.258,99.465,221.724,221.725,221.724
		c122.258,0,221.724-99.466,221.724-221.724C557.019,213.536,457.553,114.071,335.295,114.071L335.295,114.071z"/>
	<path fill="#163E78" d="M525.284,221.604c-81.594,66.754-212.297,159.365-379.309,229.492
		c38.982,63.771,109.262,106.423,189.319,106.423c122.258,0,221.724-99.466,221.724-221.724
		C557.019,294.056,545.419,254.979,525.284,221.604L525.284,221.604z"/>
	<path fill-rule="evenodd" clip-rule="evenodd" fill="#3B833C" d="M337.242,120.533c2.021,0.577,3.319,2.309,4.763,3.896
		c3.75,4.474,7.215,9.523,9.813,14.862c2.45,4.906,4.182,10.245,3.749,15.727c-0.288,6.349-2.598,12.986-8.081,16.593
		c-4.183,2.887-9.812,3.174-14.716,2.165c-4.617-1.299-8.514-4.329-10.677-8.657c-3.175-6.493-3.32-14.284-0.723-20.922
		C324.834,135.251,330.895,127.604,337.242,120.533L337.242,120.533z"/>
	<path fill-rule="evenodd" clip-rule="evenodd" fill="#3B833C" d="M409.675,159.202c7.359-6.638,16.449-10.677,25.685-13.996
		c1.008,2.02,1.73,4.329,2.163,6.782c1.442,6.637,2.165,13.563,1.442,20.633c-0.576,8.802-5.627,17.748-13.996,21.499
		c-9.812,4.473-22.652-3.174-23.805-13.708C400.297,172.477,403.759,164.397,409.675,159.202L409.675,159.202z"/>
	<path fill-rule="evenodd" clip-rule="evenodd" fill="#3B833C" d="M226.285,151.699c1.299,0,2.742,0.144,4.041,0.289
		c8.513,2.452,16.736,5.771,23.807,11.11c4.906,3.751,8.225,9.234,9.668,15.294c1.01,4.762,0.288,10.101-2.886,13.997
		c-3.751,4.762-9.812,7.647-15.872,7.214c-3.751-0.289-7.359-2.165-10.389-4.617c-4.618-4.041-7.936-9.668-8.946-15.873
		C224.121,170.024,224.698,160.645,226.285,151.699L226.285,151.699z"/>
	<path fill-rule="evenodd" clip-rule="evenodd" fill="#3B833C" d="M385.29,208.838c5.051-2.597,10.244-5.195,15.728-6.638
		c3.029,8.368,4.04,17.314,3.464,26.26c-0.29,6.205-2.454,12.12-6.494,16.882c-2.742,3.03-6.203,5.627-10.244,6.493
		c-3.608,1.01-7.503,0.433-10.822-1.01c-4.328-2.165-8.08-5.771-9.665-10.389c-1.877-5.483-0.579-11.688,2.019-16.882
		C372.593,216.917,379.23,212.589,385.29,208.838L385.29,208.838z"/>
	<path fill-rule="evenodd" clip-rule="evenodd" fill="#3B833C" d="M262.502,205.519c8.945,1.155,17.603,5.05,25.25,9.812
		c7.937,5.195,13.852,15.006,12.121,24.673c-1.011,5.916-5.916,10.245-11.111,12.698c-3.174,0.722-6.35,1.298-9.523,0.577
		c-5.626-1.01-10.1-5.195-13.273-9.667c-3.463-4.906-4.474-10.822-5.051-16.594C260.625,219.804,260.914,212.445,262.502,205.519
		L262.502,205.519z"/>
	<path fill-rule="evenodd" clip-rule="evenodd" fill="#3B833C" d="M491.63,218.072c6.494-0.577,12.985-0.432,19.335,0.577
		c-0.144,2.165-0.432,4.329-0.866,6.349c-2.019,7.935-4.904,15.727-9.666,22.364c-3.463,4.762-8.513,8.225-14.142,9.957
		c-4.183,1.154-8.801,0.866-12.695-1.011c-5.195-2.741-8.514-8.08-9.667-13.707c-0.434-4.329,1.008-8.513,3.029-12.265
		c2.886-3.318,5.915-6.637,9.955-8.512C481.529,219.515,486.581,218.649,491.63,218.072L491.63,218.072z"/>
	<path fill-rule="evenodd" clip-rule="evenodd" fill="#3B833C" d="M151.249,230.015c5.83-2.915,12.631-3.748,19.017-4.442
		c5.829-0.139,11.798-0.139,17.211,2.36c5.274,2.637,10.272,6.94,11.938,12.631c1.388,4.303,0.416,9.022-1.666,12.909
		c-2.638,4.442-7.219,7.912-12.493,8.467c-7.634,0.694-15.546-2.775-20.543-8.606C158.605,246.671,154.164,238.481,151.249,230.015
		L151.249,230.015z"/>
	<path fill-rule="evenodd" clip-rule="evenodd" fill="#3B833C" d="M257.019,302.625c8.513-3.319,17.892-4.185,26.981-3.752
		c8.369,0.721,16.737,5.051,21.066,12.409c2.309,3.751,2.596,8.369,1.587,12.697c-1.876,5.195-5.482,9.956-10.821,11.976
		c-6.493,2.309-13.564,0.433-19.191-2.886c-6.204-3.75-9.955-10.1-13.851-16.16C260.625,312.292,258.172,307.675,257.019,302.625
		L257.019,302.625z"/>
	<path fill-rule="evenodd" clip-rule="evenodd" fill="#3B833C" d="M432.618,305.943c6.926-3.751,15.438-3.751,22.507-0.722
		c8.658,3.607,16.305,9.379,22.943,15.872c-2.166,3.462-5.627,5.771-8.948,8.225c-6.059,4.328-12.696,8.08-20.055,9.522
		c-6.782,1.01-14.285-0.577-19.624-4.906c-4.473-4.184-6.203-10.677-5.048-16.593C425.401,312.58,428.289,308.252,432.618,305.943
		L432.618,305.943z"/>
	<path fill-rule="evenodd" clip-rule="evenodd" fill="#3B833C" d="M146.252,305.108c5.552-3.053,12.076-5.136,18.6-4.164
		c5.136,0.694,10.411,2.915,13.464,7.218c3.47,4.719,3.608,11.104,1.805,16.378c-1.666,3.887-4.72,7.218-8.745,8.883
		c-5.691,2.499-12.214,2.777-18.183,0.694c-7.356-2.498-14.019-7.079-19.988-12.076c-1.388-1.111-2.638-2.499-4.025-3.748
		C133.898,312.742,140.006,308.578,146.252,305.108L146.252,305.108z"/>
	<path fill-rule="evenodd" clip-rule="evenodd" fill="#3B833C" d="M495.383,307.097c6.637-4.04,15.15-4.329,22.364-1.587
		c8.945,3.607,16.592,9.667,23.664,16.161c-1.877,3.462-5.34,5.627-8.369,7.936c-6.35,4.617-13.42,8.8-21.355,10.099
		c-6.78,0.578-14.285-0.721-19.335-5.482c-3.463-3.318-5.05-8.224-4.906-12.842C487.59,315.755,490.476,309.984,495.383,307.097
		L495.383,307.097z"/>
	<path fill-rule="evenodd" clip-rule="evenodd" fill="#3B833C" d="M203.92,311.57c5.628-3.174,11.832-5.771,18.325-5.627
		c5.771,0,11.832,1.731,15.872,6.06c3.175,3.318,4.473,8.08,4.329,12.697c-0.289,4.473-2.02,8.945-5.483,12.12
		c-2.741,2.598-6.349,3.752-9.956,5.051c-3.751,0-7.792,0.432-11.542-0.578c-9.09-2.597-16.882-8.225-24.096-13.996
		c-1.011-1.154-2.02-2.165-3.031-3.174C192.666,318.929,198.293,315.033,203.92,311.57L203.92,311.57z"/>
	<path fill-rule="evenodd" clip-rule="evenodd" fill="#3B833C" d="M471.286,392.227c3.029-3.03,7.214-5.194,11.542-5.194
		c5.34-0.288,10.391,1.876,14.863,4.618c6.204,4.905,10.389,11.975,13.706,19.045c1.731,3.896,3.32,7.936,4.185,11.976
		c-6.348,2.165-12.985,2.886-19.623,2.886c-6.637,0.145-13.563-0.721-19.189-4.328c-3.465-2.163-6.494-5.051-8.513-8.657
		c-1.587-2.886-2.31-6.061-2.021-9.379C466.524,399.153,468.545,395.401,471.286,392.227L471.286,392.227z"/>
	<path fill-rule="evenodd" clip-rule="evenodd" fill="#3B833C" d="M169.433,388.113c5.274-3.747,11.938-5.968,18.46-4.302
		c4.581,1.11,8.329,4.719,10.411,9.022c1.805,4.024,2.36,8.884,0.694,13.186c-1.943,4.859-6.108,8.606-10.688,11.104
		c-4.165,2.223-9.023,2.915-13.742,3.192c-7.356,0.14-14.852-0.694-21.932-2.775c0.417-4.024,2.083-7.773,3.748-11.521
		C159.577,399.356,163.464,392.693,169.433,388.113L169.433,388.113z"/>
	<path fill-rule="evenodd" clip-rule="evenodd" fill="#3B833C" d="M373.459,403.482c2.163-7.792,10.101-13.852,18.325-13.275
		c4.04,0.289,7.791,2.165,10.966,4.474c6.06,4.761,9.234,12.264,10.677,19.623c1.442,6.781,1.877,13.707,1.587,20.489
		c-5.05,1.299-9.956-0.722-14.861-1.443c-7.792-2.452-16.161-5.194-21.354-11.832C374.613,416.612,372.016,409.976,373.459,403.482
		L373.459,403.482z"/>
	<path fill-rule="evenodd" clip-rule="evenodd" fill="#3B833C" d="M280.681,395.835c3.752-0.866,7.792-0.866,11.399,0.288
		c3.318,1.587,6.35,3.752,8.513,6.638c2.453,3.318,3.464,7.503,3.175,11.543c-1.01,7.936-5.916,15.006-12.553,19.19
		c-7.792,4.616-16.305,8.079-25.25,9.522c-1.732-2.597-1.299-6.06-1.732-8.945c-0.432-6.638-0.144-13.131,1.299-19.479
		C267.407,406.367,273.179,399.297,280.681,395.835L280.681,395.835z"/>
	<path fill-rule="evenodd" clip-rule="evenodd" fill="#3B833C" d="M414.726,455.569c3.462-3.606,8.08-6.204,13.129-6.204
		c5.483-0.144,10.534,2.742,14.429,6.349c6.782,6.35,8.659,16.017,9.812,24.963c0.435,4.473,0.578,9.089,0.29,13.563
		c-5.629,0.287-11.254-1.011-16.737-2.598c-6.782-2.021-13.708-4.763-18.759-10.101c-3.462-4.185-6.348-9.234-6.348-14.862
		C410.396,462.64,411.984,458.6,414.726,455.569L414.726,455.569z"/>
	<path fill-rule="evenodd" clip-rule="evenodd" fill="#3B833C" d="M236.097,455.569c3.607-2.741,8.224-4.616,12.986-4.185
		c3.318,0.289,6.348,2.021,9.089,3.753c3.03,2.74,5.771,6.204,6.494,10.532c1.009,5.627-1.011,11.256-3.896,15.872
		c-5.05,7.503-13.563,11.399-21.644,14.429c-4.184,1.442-8.225,2.741-12.409,3.318c-1.587-6.638-1.587-13.563-1.443-20.201
		c0.577-4.184,1.155-8.513,2.742-12.408C229.604,462.352,232.489,458.6,236.097,455.569L236.097,455.569z"/>
	<path fill-rule="evenodd" clip-rule="evenodd" fill="#B9C429" d="M387.6,128.325c0.72-0.433,1.442-0.865,2.307-1.155
		c3.465,5.051,5.918,10.822,7.793,16.738c2.02,6.782,3.465,14.429,1.299,21.355c-1.73,5.771-5.483,11.254-11.11,13.708
		c-8.513,3.462-19.623-0.722-23.086-9.379c-2.741-7.647-1.154-16.593,3.463-23.086C373.314,139.146,380.24,133.23,387.6,128.325
		L387.6,128.325z"/>
	<path fill-rule="evenodd" clip-rule="evenodd" fill="#B9C429" d="M278.083,128.036c1.011,0.289,1.876,0.577,2.887,0.866
		c7.647,4.04,15.005,9.234,20.777,16.016c4.473,5.194,6.926,12.408,6.35,19.334c-0.436,4.618-2.742,9.091-6.494,11.832
		c-4.762,3.607-11.11,4.617-16.882,2.886c-9.234-3.752-14.141-14.285-13.707-23.953
		C271.591,145.639,274.189,136.549,278.083,128.036L278.083,128.036z"/>
	<path fill-rule="evenodd" clip-rule="evenodd" fill="#B9C429" d="M447.479,189.07c9.379-6.349,20.778-9.379,31.889-10.389
		c1.152,9.667,0.144,19.623-2.886,28.713c-2.454,7.358-8.225,13.274-15.295,16.304c-3.175,0.722-6.638,1.154-9.813,0.288
		c-7.647-2.164-13.708-9.811-13.272-17.891C438.533,199.458,442.573,193.542,447.479,189.07L447.479,189.07z"/>
	<path fill-rule="evenodd" clip-rule="evenodd" fill="#B9C429" d="M184.875,183.731c5.482-0.721,10.966-0.288,16.448,0.434
		c5.917,1.01,11.977,2.309,17.17,5.483c3.752,2.308,6.926,5.627,9.091,9.522c1.875,3.03,2.886,6.637,2.452,10.245
		c-0.144,4.473-2.741,8.513-5.916,11.543c-4.04,3.607-9.667,5.338-15.006,4.184c-7.503-1.731-13.996-7.07-17.314-13.996
		C187.616,202.633,185.307,193.11,184.875,183.731L184.875,183.731z"/>
	<path fill-rule="evenodd" clip-rule="evenodd" fill="#B9C429" d="M333.058,183.875c0.578-0.289,1.155-0.578,1.731-0.721
		c2.885,2.885,5.482,5.916,7.792,9.234c4.185,6.204,8.081,12.841,9.236,20.201c0.863,7.214-0.724,15.438-6.351,20.488
		c-3.608,3.174-8.656,4.33-13.419,4.04c-4.617-0.866-9.379-3.03-12.12-6.925c-4.616-6.782-5.05-16.016-2.164-23.519
		C321.083,198.016,326.854,190.657,333.058,183.875L333.058,183.875z"/>
	<path fill-rule="evenodd" clip-rule="evenodd" fill="#B9C429" d="M425.979,246.641c7.07-2.885,14.572-4.761,22.221-5.195
		c0.288,0.722,0.577,1.443,0.865,2.31c0,10.965-0.865,22.653-6.348,32.465c-1.587,2.02-3.464,3.896-5.195,5.771
		c-2.598,1.876-5.34,3.463-8.369,4.618c-4.04,0.865-8.225,0.433-12.119-1.155c-4.906-3.03-9.234-7.936-9.812-13.851
		c-0.722-6.638,2.741-12.842,6.926-17.748C417.611,250.825,421.651,248.228,425.979,246.641L425.979,246.641z"/>
	<path fill-rule="evenodd" clip-rule="evenodd" fill="#B9C429" d="M214.454,258.617c4.329-1.443,8.658-2.309,12.985-3.03
		c5.627-0.578,11.543-1.01,17.17,0.288c3.607,0.722,6.927,2.597,10.1,4.618c3.463,2.885,6.782,6.781,7.647,11.542
		c1.155,5.483-0.866,11.11-4.473,15.295c-3.03,3.318-7.503,5.626-11.976,5.626c-6.926,0.145-13.708-2.597-18.613-7.358
		c-4.184-4.04-7.214-8.946-10.389-13.707c-1.732-3.752-3.463-7.503-5.195-11.255C212.433,259.771,213.443,258.905,214.454,258.617
		L214.454,258.617z"/>
	<path fill-rule="evenodd" clip-rule="evenodd" fill="#B9C429" d="M496.248,261.502c6.637-2.02,13.563-1.298,20.2,0
		c5.627,1.299,11.11,2.598,16.016,5.339c-0.864,2.453-2.02,4.906-3.318,7.214c-4.328,7.359-9.523,14.284-16.449,19.19
		c-5.193,3.175-11.398,4.905-17.458,4.04c-3.752-0.434-7.358-2.453-9.956-5.194c-4.473-5.627-5.915-13.996-2.454-20.489
		C485.859,266.697,490.909,263.378,496.248,261.502L496.248,261.502z"/>
	<path fill-rule="evenodd" clip-rule="evenodd" fill="#B9C429" d="M355.566,268.861c5.195-1.876,10.534-3.896,16.161-4.473
		c1.297,6.204,1.587,12.553,1.153,18.757c-0.432,8.369-2.596,17.17-8.945,23.086c-3.607,3.462-8.226,6.06-13.417,6.06
		c-7.361,0-14.144-5.483-16.594-12.265c-2.166-6.926,0.576-14.429,4.76-19.912C343.014,274.777,349.363,271.603,355.566,268.861
		L355.566,268.861z"/>
	<path fill-rule="evenodd" clip-rule="evenodd" fill="#B9C429" d="M152.499,264.854c6.94-1.665,14.436-2.498,21.098,0.417
		c5.83,2.221,10.966,6.94,12.215,13.325c0.417,3.331,0,6.523-1.11,9.578c-1.527,3.47-4.165,6.801-7.773,8.605
		c-5.691,2.915-12.631,2.221-18.6,0c-6.524-3.053-11.798-8.467-16.24-14.019c-2.638-3.47-4.997-6.94-7.079-10.549
		C140.284,268.464,146.391,266.52,152.499,264.854L152.499,264.854z"/>
	<path fill-rule="evenodd" clip-rule="evenodd" fill="#B9C429" d="M362.638,339.418c4.184-2.742,9.522-3.175,14.14-1.732
		c6.059,1.876,11.542,6.061,14.862,11.544c4.329,7.07,6.927,15.15,8.657,23.375c0.144,1.298,0.288,2.597,0.576,4.04
		c-5.915,1.298-11.831,1.01-17.747,0.577c-7.357-0.721-15.15-2.308-20.777-7.358c-1.587-1.299-3.03-2.742-4.328-4.329
		c-2.454-3.319-4.041-7.214-4.041-11.398C353.979,348.075,357.732,342.593,362.638,339.418L362.638,339.418z"/>
	<path fill-rule="evenodd" clip-rule="evenodd" fill="#B9C429" d="M153.609,347.721c5.135-3.331,11.66-4.58,17.767-3.608
		c4.719,0.833,9.022,3.748,11.382,7.772c1.388,2.916,2.221,5.969,2.221,9.162c0,4.858-2.359,9.577-6.107,12.631
		c-5.274,4.303-12.631,6.247-19.433,5.136c-8.884-1.25-17.628-4.581-25.401-9.023c1.25-3.192,3.331-5.969,5.274-8.744
		C143.476,356.049,148.057,351.191,153.609,347.721L153.609,347.721z"/>
	<path fill-rule="evenodd" clip-rule="evenodd" fill="#B9C429" d="M494.804,349.518c2.31-0.144,4.619-0.288,6.782-0.288
		c4.04,0.577,8.225,1.586,11.689,3.896c6.779,4.472,11.974,10.822,16.591,17.458c1.443,2.165,2.886,4.617,3.896,7.071
		c-5.483,3.318-11.543,5.337-17.746,6.925c-7.361,1.732-15.295,2.598-22.366-0.721c-5.915-2.454-11.11-7.359-12.265-13.997
		C480.087,361.061,485.859,351.538,494.804,349.518L494.804,349.518z"/>
	<path fill-rule="evenodd" clip-rule="evenodd" fill="#B9C429" d="M408.665,373.038c-1.011-8.802,5.628-17.027,13.996-18.902
		c4.762-1.01,9.668,0.144,13.706,2.598c5.34,3.174,9.235,8.224,11.544,13.995c2.741,6.637,4.184,13.708,4.906,20.923
		c0.145,1.587,0.145,3.173,0.145,4.905c-7.791,0.578-15.728-0.865-23.375-2.741c-4.039-1.442-8.079-2.885-11.544-5.627
		C413.427,384.291,409.675,379.098,408.665,373.038L408.665,373.038z"/>
	<path fill-rule="evenodd" clip-rule="evenodd" fill="#B9C429" d="M240.137,359.041c4.184-0.577,8.512,0,12.12,2.454
		c5.05,3.463,8.08,9.667,8.224,15.727c-0.145,0.866-0.289,1.732-0.432,2.598c-1.443,6.782-7.07,11.976-13.131,15.15
		c-7.359,3.03-15.583,3.174-23.52,2.741c-3.895-0.288-7.791-0.865-11.687-1.73c0.29-4.185,1.876-8.369,3.463-12.265
		c1.876-4.617,4.185-9.09,7.071-13.13C226.43,364.524,233.066,360.195,240.137,359.041L240.137,359.041z"/>
	<path fill-rule="evenodd" clip-rule="evenodd" fill="#B9C429" d="M442.861,433.927c3.029-6.061,9.38-10.821,16.447-10.678
		c6.927,0.289,13.133,4.474,17.461,9.668c4.473,6.348,6.638,13.996,7.935,21.498c0.722,3.896,1.299,7.648,1.155,11.544
		c-6.637,0.577-13.274-0.289-19.624-1.587c-6.78-1.732-13.706-4.186-18.469-9.523C442.718,449.511,439.544,441.142,442.861,433.927
		L442.861,433.927z"/>
	<path fill-rule="evenodd" clip-rule="evenodd" fill="#B9C429" d="M192.196,426.008c4.581-4.858,10.827-8.745,17.767-8.33
		c5.414,0.418,10.133,4.027,12.909,8.607c1.527,2.776,2.637,5.968,2.36,9.161c-0.278,4.024-2.083,7.634-4.303,10.688
		c-4.303,5.969-11.243,9.161-18.045,10.688c-6.524,1.526-13.325,2.636-20.126,2.221c-0.139-4.304,0.416-8.606,1.249-12.77
		C185.395,439.193,187.616,431.837,192.196,426.008L192.196,426.008z"/>
	<path fill-rule="evenodd" clip-rule="evenodd" fill="#B9C429" d="M372.593,482.696c1.73-9.956,13.42-16.16,22.797-12.986
		c5.483,1.876,9.668,6.638,12.121,11.688c4.04,8.368,2.886,18.035,1.442,26.837c-0.722,3.753-1.73,7.503-3.029,10.967
		c-8.225-2.021-15.727-6.637-22.509-11.831C376.057,501.598,371.294,492.219,372.593,482.696L372.593,482.696z"/>
	<path fill-rule="evenodd" clip-rule="evenodd" fill="#B9C429" d="M281.836,472.019c8.513-2.886,19.045,2.021,22.221,10.678
		c2.452,8.513-0.145,18.035-6.205,24.528c-6.204,6.782-13.563,12.554-21.932,16.305c-3.03-5.194-4.905-11.109-6.493-16.882
		c-1.732-8.224-2.453-17.313,1.731-24.817C273.467,477.501,277.075,473.605,281.836,472.019L281.836,472.019z"/>
	<path fill-rule="evenodd" clip-rule="evenodd" fill="#29190B" d="M316.32,248.373c1.443-0.866,3.319,0.144,3.464,1.731
		c0.432,3.319,0,6.782,0,10.245c0.287,15.006,4.04,29.723,8.945,43.719c2.165,6.349,4.473,12.553,6.926,18.613
		c13.129,1.443,26.549-2.308,38.236-8.368c10.243-5.339,18.901-13.274,25.972-22.509c-1.01,5.917-3.319,11.543-6.204,16.738
		c-0.576,1.01-1.299,2.02-2.02,2.886c-0.578,0.866-1.299,1.731-2.021,2.453c-8.368,9.956-20.632,15.583-32.896,19.19
		c-2.454,0.577-4.761,1.155-7.215,1.732c-2.597,0.577-5.194,1.154-7.648,2.164c0.291,0.721,0.579,1.299,0.867,2.165
		c3.752,7.646,6.205,15.871,8.513,24.096c2.741,13.13,5.051,26.404,6.35,39.823c1.009,10.388,1.73,20.634,2.163,30.878
		c0,2.452,0.144,4.762,0.144,7.071c0,13.707,0.434,27.27-0.432,40.978c-0.434,8.368-0.866,16.881-1.875,25.249
		c-1.299,12.12-6.678,38.92-11.44,50.03c-10.853,0.264-19.087,0.207-29.476-0.515c2.597-10.965,7.007-35.52,7.873-46.773
		c1.01-9.235,1.876-18.614,2.598-27.991c0.577-10.102,1.442-20.345,1.73-30.445c0.434-5.628,0.723-11.256,0.866-16.882
		c0.145-6.493,0.289-13.131,0.145-19.623c0-8.081,0.288-16.305-0.577-24.529c-0.288-3.896-1.01-7.646-2.02-11.543
		c-1.732-3.319-4.762-5.771-7.792-8.081c-6.205-4.473-12.842-7.792-19.767-10.677c-10.823-4.473-21.933-7.647-33.332-10.1
		c-14.14-3.319-28.568-5.05-42.998-6.637c1.444-0.433,2.887-0.865,4.33-1.154c3.607,0,7.214-0.432,10.821-0.721
		c14.717-0.865,29.435-0.289,44.008,1.01c9.523,0.721,18.902,2.597,27.991,5.05c4.041,1.153,7.938,2.452,11.978,3.173
		c-0.288-4.184-1.442-8.224-2.31-12.12c-1.009-4.762-1.875-9.523-2.886-14.284c-2.164-11.399-4.04-22.942-5.627-34.485
		c-1.009-8.368-2.019-16.594-2.598-24.962c-0.145-2.164,0-4.329,0.29-6.493C310.694,254.577,312.425,250.248,316.32,248.373
		L316.32,248.373z"/>
	<path fill="#486EAA" d="M335.295,27.379c-170.333,0-308.416,138.083-308.416,308.416s138.083,308.416,308.416,308.416
		c170.333,0,308.416-138.083,308.416-308.416S505.628,27.379,335.295,27.379L335.295,27.379z M547.958,425.636L547.958,425.636
		c-11.625,27.483-28.266,52.166-49.461,73.361s-45.877,37.836-73.362,49.462c-28.457,12.035-58.684,18.139-89.84,18.139
		s-61.383-6.104-89.84-18.139c-27.484-11.626-52.167-28.267-73.362-49.462c-21.195-21.195-37.836-45.878-49.461-73.361
		c-12.036-28.458-18.14-58.685-18.14-89.841c0-31.157,6.104-61.383,18.14-89.84c11.625-27.484,28.266-52.167,49.461-73.362
		c21.196-21.195,45.878-37.836,73.362-49.461c28.458-12.037,58.684-18.14,89.84-18.14s61.383,6.103,89.84,18.14
		c27.485,11.625,52.167,28.266,73.362,49.461c21.195,21.194,37.836,45.877,49.461,73.362c12.037,28.457,18.141,58.684,18.141,89.84
		C566.099,366.951,559.995,397.178,547.958,425.636L547.958,425.636z"/>
	<path fill="#181D7D" d="M335.295,667.59c-44.79,0-88.243-8.773-129.151-26.076c-39.51-16.712-74.993-40.635-105.463-71.104
		c-30.47-30.471-54.394-65.954-71.105-105.465C12.272,424.037,3.5,380.584,3.5,335.795c0-44.79,8.772-88.243,26.076-129.151
		c16.711-39.51,40.635-74.993,71.105-105.463c30.47-30.47,65.953-54.394,105.463-71.104C247.052,12.772,290.505,4,335.295,4
		c44.789,0,88.243,8.772,129.15,26.076c39.511,16.711,74.994,40.634,105.465,71.104c30.47,30.47,54.391,65.953,71.103,105.463
		c17.305,40.908,26.077,84.361,26.077,129.151c0,44.79-8.772,88.242-26.077,129.15c-16.712,39.511-40.633,74.994-71.103,105.465
		c-30.471,30.469-65.954,54.392-105.465,71.104C423.538,658.816,380.084,667.59,335.295,667.59L335.295,667.59z M335.295,13.079
		L335.295,13.079c-177.947,0-322.716,144.77-322.716,322.716c0,177.945,144.769,322.716,322.716,322.716
		c177.945,0,322.715-144.771,322.715-322.716C658.01,157.849,513.24,13.079,335.295,13.079L335.295,13.079z"/>
	<path fill="#2B5E9E" d="M590.412,162.455c-11.646,11.381-31.315,29.88-58.272,52.733c6.015,9.805,11.297,20.073,15.818,30.766
		c12.037,28.457,18.141,58.684,18.141,89.84c0,31.156-6.104,61.383-18.141,89.841l0,0c-11.625,27.483-28.266,52.166-49.461,73.361
		s-45.877,37.836-73.362,49.462c-28.457,12.035-58.684,18.139-89.84,18.139s-61.383-6.104-89.84-18.139
		c-27.484-11.626-52.167-28.267-73.362-49.462c-13.556-13.556-25.25-28.54-34.959-44.77c-23.897,9.544-48.544,18.568-73.903,26.921
		c51.954,97.042,154.292,163.063,272.064,163.063c170.333,0,308.416-138.083,308.416-308.416
		C643.711,271.526,624.044,211.855,590.412,162.455L590.412,162.455z"/>
	<path fill-rule="evenodd" clip-rule="evenodd" fill="#FFFFFF" d="M112.153,197.953l9.234-8.657c2.453,2.308,4.33,4.906,5.484,7.503
		c1.01,2.742,1.442,5.483,1.154,8.224c-0.289,2.886-1.443,5.916-3.463,9.379c-2.309,4.329-4.905,7.358-7.647,9.378
		c-2.886,1.876-6.349,2.886-10.534,3.175c-4.04,0.144-8.657-1.155-13.418-3.896c-6.349-3.752-10.389-8.225-11.832-13.563
		c-1.443-5.482-0.433-11.253,3.174-17.458c2.886-4.905,6.061-8.08,9.524-9.812c3.607-1.587,7.936-2.021,12.697-1.01l-3.752,11.976
		c-1.298-0.433-2.453-0.433-3.174-0.433c-1.298,0.145-2.453,0.578-3.463,1.299c-1.154,0.722-2.021,1.587-2.597,2.886
		c-1.588,2.597-1.732,5.338-0.433,8.08c1.009,2.021,3.175,4.041,6.782,6.06c4.184,2.453,7.503,3.463,9.812,3.03
		c2.309-0.434,4.184-1.732,5.482-4.184c1.443-2.165,1.732-4.329,1.154-6.205C115.616,201.849,114.318,199.829,112.153,197.953
		L112.153,197.953z M118.79,178.908L118.79,178.908c4.041,3.462,7.937,5.483,11.832,6.204c4.04,0.722,7.647,0.433,10.966-1.01
		c3.463-1.588,6.781-4.185,10.1-7.936c3.174-3.751,5.194-7.503,5.916-11.11c0.865-3.751,0.577-7.358-0.866-10.966
		c-1.298-3.463-4.04-6.926-7.936-10.389c-5.483-4.617-10.965-6.782-16.593-6.349c-5.627,0.433-10.822,3.462-15.727,9.09
		c-4.762,5.482-6.926,10.966-6.493,16.737C110.421,168.951,113.308,174.146,118.79,178.908L118.79,178.908z M127.881,168.519
		L127.881,168.519c-3.463-2.886-5.339-5.772-5.772-8.225c-0.432-2.597,0.433-4.906,2.165-7.07c1.875-2.164,4.184-3.319,6.781-3.319
		s5.339,1.299,8.513,4.185c3.896,3.174,5.916,6.06,6.349,8.514c0.289,2.452-0.433,4.905-2.308,7.07
		c-2.02,2.308-4.185,3.318-6.782,3.318S131.199,171.549,127.881,168.519L127.881,168.519z M142.31,119.749L142.31,119.749
		l10.821-8.513l20.778,26.549l17.026-13.418l6.782,8.656l-27.848,21.788L142.31,119.749L142.31,119.749z M179.68,92.335
		L179.68,92.335l22.076,38.669l32.609-18.613l-4.905-8.802l-20.633,11.832l-4.473-7.647l18.613-10.677l-4.473-7.792L199.88,99.838
		l-3.606-6.061l20.056-11.543l-4.762-8.224L179.68,92.335L179.68,92.335z M189.059,73.433L189.059,73.433l9.235-5.339l-4.04,12.842
		l-5.05,2.887L189.059,73.433L189.059,73.433z M255.72,87.573L255.72,87.573l-2.886-8.801l20.201-6.782l6.06,17.892
		c-3.03,4.04-5.771,6.925-8.368,8.946c-2.742,1.876-6.061,3.607-10.1,4.906c-5.051,1.731-9.379,2.309-13.13,1.587
		c-3.751-0.577-7.07-2.308-9.956-5.05c-2.886-2.886-5.05-6.493-6.493-10.822c-1.587-4.617-2.02-8.946-1.299-12.986
		c0.722-4.04,2.742-7.647,5.772-10.533c2.309-2.309,5.916-4.329,10.822-6.06c4.617-1.443,8.224-2.309,10.965-2.164
		c2.453,0,4.906,0.721,7.07,1.875c2.02,1.298,4.041,3.175,5.627,5.627l-11.687,6.493c-1.154-1.442-2.453-2.309-3.896-2.741
		c-1.587-0.433-3.319-0.29-5.195,0.288c-2.885,1.011-4.761,2.742-5.916,5.339c-1.01,2.598-0.722,6.06,0.722,10.245
		c1.443,4.617,3.463,7.503,5.916,8.946c2.309,1.443,5.05,1.587,8.081,0.433c1.442-0.433,2.885-1.01,4.04-1.875
		c1.155-1.01,2.454-2.165,3.751-3.751l-1.298-3.896L255.72,87.573L255.72,87.573z M280.104,51.79L280.104,51.79l13.563-2.453
		l7.936,43.863l-13.708,2.454L280.104,51.79L280.104,51.79z M307.519,69.826L307.519,69.826c-0.288-7.214,1.587-12.986,5.627-17.17
		c3.896-4.041,9.523-6.205,16.738-6.493c7.502-0.145,13.273,1.731,17.313,5.627c4.185,3.895,6.351,9.378,6.494,16.593
		c0.145,5.195-0.723,9.523-2.31,12.842c-1.73,3.319-4.185,6.061-7.357,7.936c-3.318,2.021-7.503,3.031-12.409,3.175
		c-5.05,0-9.234-0.578-12.553-2.165c-3.319-1.442-6.061-3.896-8.225-7.358S307.662,75.021,307.519,69.826L307.519,69.826z
		 M321.227,69.537L321.227,69.537c0.144,4.473,1.011,7.792,2.741,9.667c1.731,1.876,4.041,2.742,6.927,2.742
		c2.885,0,5.192-1.01,6.781-3.03c1.587-2.021,2.308-5.483,2.164-10.389c0-4.329-1.011-7.359-2.741-9.234
		c-1.731-1.876-4.041-2.742-6.927-2.742c-2.885,0.144-5.049,1.154-6.636,3.174C321.804,61.745,321.083,65.064,321.227,69.537
		L321.227,69.537z M408.81,95.076L408.81,95.076l-15.15-4.185l-4.041,6.349l-13.562-3.751l28.28-38.381l14.573,4.185l3.896,47.47
		l-13.996-4.04V95.076L408.81,95.076z M408.521,84.976L408.521,84.976l-0.29-16.737l-9.09,14.14L408.521,84.976L408.521,84.976z
		 M414.437,45.729L414.437,45.729l10.244,2.886l-11.977,6.06l-5.771-1.587L414.437,45.729L414.437,45.729z M443.149,67.084
		L443.149,67.084l12.554,5.771l-13.853,30.589l19.624,8.946l-4.474,9.956l-32.176-14.573L443.149,67.084L443.149,67.084z
		 M486.869,135.333L486.869,135.333l-2.453,7.214l11.832,8.369l12.264-46.028l-12.409-8.802l-39.533,26.693l11.543,8.08l6.06-4.617
		L486.869,135.333L486.869,135.333z M490.188,125.665L490.188,125.665l-8.079-5.627l13.274-10.245L490.188,125.665L490.188,125.665z
		 M530.301,121.914L530.301,121.914l12.553,13.13l-14.862,23.808l24.528-13.707l12.409,13.13l-32.32,30.733l-7.647-8.08
		l24.528-23.519l-30.587,17.17l-7.07-7.358l18.612-29.724l-24.528,23.375l-7.792-8.08L530.301,121.914L530.301,121.914z
		 M554.541,182.514L554.541,182.514c-4.473,2.742-7.793,5.772-9.668,9.235c-2.02,3.462-2.886,7.07-2.741,10.677
		c0.288,3.752,1.73,7.792,4.185,12.121c2.453,4.184,5.339,7.358,8.656,9.378c3.175,1.876,6.782,2.742,10.534,2.742
		c3.751-0.289,7.791-1.587,12.407-4.185c6.205-3.607,10.102-8.08,11.543-13.563c1.444-5.483,0.29-11.399-3.462-17.892
		c-3.606-6.204-8.081-10.1-13.706-11.687C566.806,177.897,560.888,179.051,554.541,182.514L554.541,182.514z M561.322,194.491
		L561.322,194.491c4.041-2.165,7.215-3.174,9.813-2.597c2.451,0.432,4.472,1.875,5.915,4.328c1.442,2.453,1.731,4.906,0.864,7.359
		c-0.864,2.453-3.029,4.762-6.636,6.926c-4.328,2.453-7.793,3.463-10.245,3.029c-2.452-0.433-4.474-2.02-5.916-4.617
		c-1.443-2.453-1.731-4.906-0.864-7.358C555.117,199.107,557.427,196.799,561.322,194.491L561.322,194.491z"/>
	<path fill-rule="evenodd" clip-rule="evenodd" fill="#FFFFFF" d="M68.723,323.458c6.781,0,12.264,5.483,12.264,12.409
		c0,6.637-5.483,12.264-12.264,12.264c-6.782,0-12.265-5.627-12.265-12.264C56.458,328.941,61.941,323.458,68.723,323.458
		L68.723,323.458z"/>
	<path fill-rule="evenodd" clip-rule="evenodd" fill="#FFFFFF" d="M601.722,323.458c6.782,0,12.409,5.483,12.409,12.409
		c0,6.637-5.627,12.264-12.409,12.264c-6.78,0-12.265-5.627-12.265-12.264C589.457,328.941,594.941,323.458,601.722,323.458
		L601.722,323.458z"/>
	<path fill="#FFFFFF" d="M478.622,537.424l21.572,33.18l-9.159,5.955l-14.116-21.708c-0.751,2.087-1.599,3.924-2.538,5.519
		c-0.94,1.596-2.245,3.395-3.925,5.384l-4.801-7.384c2.433-3.008,4.052-5.769,4.845-8.272c0.796-2.518,1.007-5.117,0.633-7.803
		L478.622,537.424L478.622,537.424z"/>
	<path fill="#FFFFFF" d="M455.472,552.364l18.716,34.87l-9.628,5.167l-12.244-22.815c-0.924,2.018-1.923,3.776-2.994,5.287
		s-2.521,3.194-4.361,5.035l-4.165-7.759c2.676-2.794,4.522-5.41,5.521-7.837c1.003-2.441,1.431-5.017,1.285-7.724L455.472,552.364
		L455.472,552.364z"/>
	<path fill="#FFFFFF" d="M409.396,592.728c-2.215-7.054-2.494-12.39-0.839-16.004c1.657-3.617,5.089-6.242,10.284-7.872
		c2.497-0.784,4.652-1.119,6.444-1.009c1.801,0.11,3.357,0.504,4.679,1.172c1.329,0.665,2.45,1.452,3.371,2.359
		c0.93,0.906,1.796,2.029,2.605,3.371c1.561,2.548,2.813,5.327,3.758,8.335c2.113,6.734,2.52,12.02,1.217,15.857
		c-1.295,3.833-4.727,6.631-10.303,8.381c-3.121,0.979-5.802,1.271-8.043,0.882c-2.239-0.389-4.271-1.355-6.112-2.896
		c-1.319-1.086-2.605-2.734-3.851-4.944C411.369,598.137,410.296,595.598,409.396,592.728L409.396,592.728z M419.618,589.537
		c1.481,4.72,2.911,7.822,4.293,9.287c1.381,1.466,2.863,1.95,4.454,1.451c1.044-0.328,1.839-0.976,2.377-1.952
		s0.734-2.32,0.602-4.016c-0.137-1.705-0.732-4.234-1.784-7.588c-1.548-4.928-3.002-8.108-4.374-9.547
		c-1.371-1.432-2.89-1.885-4.559-1.362c-1.711,0.538-2.667,1.787-2.886,3.756C417.523,581.534,418.149,584.861,419.618,589.537
		L419.618,589.537z"/>
	<path fill="#FFFFFF" d="M408.622,613.544L377,620.843c-0.357-3.199,0.067-6.395,1.271-9.563c1.2-3.179,3.893-7.223,8.078-12.131
		c2.56-3.009,4.138-5.204,4.734-6.597c0.592-1.392,0.763-2.622,0.516-3.69c-0.267-1.156-0.917-2.047-1.964-2.671
		c-1.047-0.623-2.217-0.78-3.516-0.48c-1.341,0.309-2.347,0.988-3.007,2.032c-0.659,1.055-0.889,2.68-0.683,4.9l-10.738,1.577
		c-0.271-3.071-0.046-5.56,0.673-7.483c0.717-1.923,1.978-3.553,3.777-4.907c1.806-1.355,4.485-2.439,8.034-3.258
		c3.707-0.856,6.684-1.097,8.943-0.727c2.251,0.364,4.175,1.288,5.753,2.765c1.589,1.483,2.634,3.308,3.134,5.478
		c0.531,2.305,0.36,4.669-0.502,7.091c-0.867,2.413-2.795,5.295-5.791,8.637c-1.779,1.952-2.964,3.314-3.543,4.063
		c-0.578,0.756-1.242,1.709-1.993,2.886l16.465-3.801L408.622,613.544L408.622,613.544z"/>
	<polygon fill="#FFFFFF" points="321.595,584.027 353.772,583.591 353.887,591.908 333.774,592.182 333.858,598.377
		352.503,598.125 352.611,606.061 333.966,606.313 334.07,613.978 354.78,613.696 354.899,622.502 322.121,622.947 321.595,584.027
			"/>
	<path fill="#FFFFFF" d="M285.647,579.307l17.706,2.459c3.481,0.483,6.243,1.352,8.256,2.593c2.014,1.249,3.603,2.851,4.766,4.814
		c1.152,1.972,1.882,4.167,2.184,6.605c0.311,2.439,0.278,4.969-0.085,7.599c-0.573,4.119-1.483,7.249-2.742,9.389
		c-1.247,2.141-2.813,3.861-4.696,5.164c-1.884,1.304-3.811,2.079-5.792,2.325c-2.71,0.337-5.127,0.356-7.245,0.063l-17.707-2.459
		L285.647,579.307L285.647,579.307z M296.335,589.683l-2.925,21.053l2.927,0.406c2.493,0.346,4.309,0.314,5.444-0.085
		c1.127-0.411,2.086-1.257,2.879-2.546c0.792-1.299,1.397-3.482,1.826-6.57c0.567-4.083,0.291-6.966-0.837-8.659
		c-1.129-1.693-3.24-2.756-6.335-3.186L296.335,589.683L296.335,589.683z"/>
	<path fill="#FFFFFF" d="M243.501,595.039l11.202,2.313c-0.25,1.848-0.132,3.345,0.349,4.471c0.786,1.84,2.282,3.064,4.502,3.671
		c1.653,0.45,3.034,0.413,4.137-0.121c1.112-0.532,1.804-1.313,2.083-2.334c0.265-0.971,0.083-1.96-0.555-2.96
		c-0.638-1-2.418-2.255-5.333-3.793c-4.777-2.523-7.981-5.03-9.631-7.52c-1.671-2.483-2.105-5.194-1.305-8.132
		c0.524-1.922,1.58-3.588,3.166-4.995c1.589-1.417,3.634-2.306,6.147-2.673c2.514-0.365,5.724-0.016,9.631,1.05
		c4.799,1.309,8.21,3.196,10.238,5.674c2.031,2.471,2.751,5.72,2.169,9.749l-11.085-2.329c0.177-1.782-0.097-3.19-0.814-4.212
		c-0.723-1.033-1.903-1.769-3.537-2.215c-1.346-0.366-2.448-0.356-3.284,0.025c-0.837,0.382-1.369,0.988-1.593,1.811
		c-0.162,0.594-0.027,1.203,0.392,1.834c0.398,0.644,1.567,1.451,3.496,2.438c4.772,2.475,8.097,4.574,9.977,6.29
		c1.889,1.716,3.112,3.534,3.655,5.467c0.546,1.923,0.539,3.913-0.021,5.966c-0.656,2.404-1.925,4.443-3.81,6.118
		c-1.89,1.662-4.166,2.704-6.847,3.101c-2.672,0.397-5.822,0.103-9.459-0.89c-6.381-1.74-10.467-4.179-12.254-7.305
		C243.331,602.412,242.792,598.913,243.501,595.039L243.501,595.039z"/>
	<polygon fill="#FFFFFF" points="221.624,556.761 250.851,570.231 247.37,577.785 229.103,569.365 226.508,574.994 243.442,582.799
		240.121,590.007 223.187,582.202 219.978,589.163 238.788,597.832 235.103,605.831 205.332,592.11 221.624,556.761 	"/>
	<path fill="#FFFFFF" d="M190.745,537.456l15.138,9.508c2.977,1.869,5.138,3.794,6.466,5.751c1.323,1.966,2.114,4.078,2.37,6.346
		c0.243,2.271,0.006,4.572-0.72,6.92c-0.718,2.352-1.784,4.646-3.196,6.895c-2.211,3.521-4.327,6.003-6.351,7.438
		c-2.017,1.439-4.151,2.367-6.403,2.784c-2.25,0.415-4.327,0.33-6.235-0.259c-2.609-0.804-4.823-1.775-6.633-2.913l-15.138-9.508
		L190.745,537.456L190.745,537.456z M196.234,551.303l-11.305,18l2.501,1.571c2.133,1.339,3.801,2.056,5,2.156
		c1.197,0.088,2.418-0.289,3.67-1.141c1.256-0.858,2.704-2.603,4.362-5.242c2.192-3.49,3.123-6.233,2.79-8.241
		c-0.334-2.006-1.825-3.841-4.472-5.503L196.234,551.303L196.234,551.303z"/>
</g>
</svg>
