<svg x="0px" y="0px"
	 width="1920px" height="112.618px" viewBox="0 0 1920 112.618" enable-background="new 0 0 1920 112.618" xml:space="preserve">
<g>
	<path fill="#2F5EA1" d="M1921.422,112.298c-7.961-2.333-14.791-7.118-22.252-10.552c-40.216-18.511-82.576-28.779-126.246-34.198
		c-66.66-8.273-133.418-5.75-200.188-1.781c-70.736,4.205-141.492,7.727-212.355,9.122c-86.297,1.697-172.563,0.642-258.806-2.177
		c-74.391-2.431-148.714-6.414-222.986-11.418c-56.641-3.817-113.251-8.04-169.808-12.907
		c-56.547-4.868-113.052-10.225-169.551-15.637c-56.496-5.412-112.976-10.994-169.433-16.807
		c-46.483-4.788-92.971-9.33-139.767-8.846C167.333,7.747,107.068,19.194,50.94,48.728C28.86,60.345,8.404,74.379-10.576,90.629
		c0,8.222,0,16.445,0,24.667h1931.998C1921.422,114.296,1921.422,113.297,1921.422,112.298z"/>
	<path fill="#FDFDFD" d="M-10.689,1912.767c-0.005,4.875,0.77,6.345,6.042,6.343c640.052-0.148,1280.104-0.148,1920.158,0.003
		c5.308,0.001,6.027-1.519,6.023-6.363c-0.081-110.603-0.104-221.207-0.109-331.81h-1932
		C-10.576,1691.548-10.591,1802.158-10.689,1912.767z"/>
</g>
</svg>
