<svg x="0px" y="0px"
	 width="1920px" height="66.687px" viewBox="0 0 1920 66.687" enable-background="new 0 0 1920 66.687" xml:space="preserve">
<g>
	<path fill="#305FA4" d="M-11.911,24.484c2.058,1.458,4.131,2.865,7.915,3.958c32.99,9.532,69.875,16.598,110.533,21.405
		c73.334,8.671,149.127,12.636,226.118,14.266c27.645,0.586,55.365,0.519,83.069,0.571c21.691,0.041,43.32-0.404,64.961-0.659
		c20.72-0.245,41.44-0.777,62.142-1.278c14.919-0.361,29.848-0.669,44.764-1.029c24.711-0.596,49.422-1.183,74.138-1.755
		c14.475-0.335,28.951-0.682,43.414-1.071c21.361-0.574,42.729-1.114,64.097-1.647c20.481-0.511,40.963-1.037,61.432-1.593
		c24.918-0.677,49.831-1.402,74.745-2.105c28.701-0.811,57.391-1.669,86.076-2.536c30.909-0.934,61.793-1.987,92.673-3.04
		c40.665-1.386,81.326-2.784,121.929-4.363c54.149-2.107,108.269-4.301,162.304-6.749c67.339-3.05,134.597-6.293,201.619-10.083
		c80.708-4.563,161.426-9.146,241.143-15.559c33.562-2.7,66.582-6.034,98.632-10.456c4.173-0.576,8.383-1.142,10.208-2.762H-11.911
		C-11.911,6.828-11.911,15.656-11.911,24.484z"/>
</g>
</svg>
