<?xml version="1.0" encoding="utf-8"?>
<!-- Generator: Adobe Illustrator 24.1.0, SVG Export Plug-In . SVG Version: 6.00 Build 0)  -->
<svg version="1.1" id="Camada_1" xmlns="http://www.w3.org/2000/svg" xmlns:xlink="http://www.w3.org/1999/xlink" x="0px" y="0px"
	 viewBox="0 0 1440 54.8" style="enable-background:new 0 0 1440 54.8;" xml:space="preserve">
<style type="text/css">
	.st0{fill:#BAC529;}
	.st1{fill:#305FA4;}
</style>
<g>
	<polygon class="st0" points="730.8,15.8 726.3,20.2 741.3,35.1 740.7,35.7 726.3,50.1 730.8,54.4 749.4,35.8 750,35.1 	"/>
	<polygon class="st0" points="704.7,15.8 700.3,20.2 715.2,35.1 714.9,35.5 700.3,50.1 704.7,54.4 723.6,35.5 724,35.1 	"/>
	<polygon class="st0" points="678.4,15.8 674,20.2 688.9,35.1 688.8,35.2 674,50.1 678.4,54.4 697.5,35.3 697.7,35.1 	"/>
	<polygon class="st0" points="783.1,15.8 778.7,20.2 793.6,35.1 792.6,36.2 778.7,50.1 783.1,54.4 801.3,36.3 802.4,35.1 	"/>
	<polygon class="st0" points="757.1,15.8 752.7,20.2 767.6,35.1 766.8,35.9 752.7,50.1 757.1,54.4 775.5,36 776.4,35.1 	"/>
	<g>
		<path class="st1" d="M0,0v13.4c22.4,7.3,47.8,13,76.8,16.8c99.5,12.9,207.5,12.4,312.8,8.2c99.2-3.9,199.1-4,299.2-3.2l0.1-0.1
			L674,20.2l4.4-4.4l19.3,19.3l-0.2,0.2c5.8,0,11.6,0.1,17.4,0.1l0.3-0.3l-14.9-14.9l4.4-4.4L724,35.1l-0.4,0.4
			c5.7,0.1,11.4,0.1,17.1,0.2l0.6-0.6l-14.9-14.9l4.4-4.4L750,35.1l-0.6,0.6c5.8,0.1,11.6,0.1,17.4,0.2l0.8-0.8l-14.9-14.9l4.4-4.4
			l19.3,19.3l-0.9,0.9c5.7,0.1,11.4,0.1,17.1,0.2l1-1l-14.9-14.9l4.4-4.4l19.3,19.3l-1.1,1.1c164.9,1.5,329.5,2,490.4-12.3
			c51.5-4.6,103.1-10.7,148.5-20.4V0H0z"/>
	</g>
</g>
</svg>
