<?xml version="1.0" encoding="utf-8"?>
<!-- Generator: Adobe Illustrator 24.1.0, SVG Export Plug-In . SVG Version: 6.00 Build 0)  -->
<svg version="1.1" id="Camada_1" xmlns="http://www.w3.org/2000/svg" xmlns:xlink="http://www.w3.org/1999/xlink" x="0px" y="0px"
	 viewBox="0 0 1440 38.6" style="enable-background:new 0 0 1440 38.6;" xml:space="preserve">
<style type="text/css">
	.st0{fill:#305FA4;}
	.st200{fill:#BAC529;}
</style>
<g>
	<path class="st0" d="M722.1,20.5c-5.8,0-11.5,0-17.3,0l-18.1,18.1h26l-4.4-4.4L722.1,20.5z"/>
	<path class="st0" d="M669.7,20.5c-131.2,0.1-262.2-0.7-392.9-1.6c-64.6-0.5-131-0.9-193.1,3.7C51,25,23.4,28.4,0,32.4v6.2h660.4
		l-4.4-4.4L669.7,20.5z"/>
	<path class="st0" d="M748.5,20.4c-5.9,0-11.7,0-17.6,0.1l-18.2,18.2h26.3l-4.4-4.4L748.5,20.4z"/>
	<path class="st0" d="M696,20.5c-5.9,0-11.7,0-17.6,0l-18.1,18.1h26.3l-4.4-4.4L696,20.5z"/>
	<path class="st0" d="M774.7,20.3c-5.8,0-11.5,0.1-17.3,0.1l-18.3,18.3h26l-4.4-4.4L774.7,20.3z"/>
	<path class="st0" d="M1137.1,15.1c-117.8,3-235.8,4.5-353.7,5.1l-18.4,18.4h675V18.7C1353.7,9.1,1240.4,12.5,1137.1,15.1z"/>
	<polygon class="st200" points="732,19.3 712.8,0 708.3,4.4 723.3,19.3 722.1,20.5 708.3,34.2 712.8,38.6 730.9,20.4 	"/>
	<polygon class="st200" points="706,19.3 686.7,0 682.3,4.4 697.2,19.3 696,20.5 682.3,34.2 686.7,38.6 704.8,20.5 	"/>
	<polygon class="st200" points="679.7,19.3 660.4,0 656,4.4 670.9,19.3 669.7,20.5 656,34.2 660.4,38.6 678.5,20.5 	"/>
	<polygon class="st200" points="784.4,19.3 765.1,0 760.7,4.4 775.6,19.3 774.7,20.3 760.7,34.2 765.1,38.6 783.5,20.2 	"/>
	<polygon class="st200" points="758.4,19.3 739.1,0 734.7,4.4 749.6,19.3 748.5,20.4 734.7,34.2 739.1,38.6 757.3,20.3 	"/>
</g>
</svg>
