<svg width="459" height="475" viewBox="0 0 459 475" fill="none" xmlns="http://www.w3.org/2000/svg">
<path d="M238.514 383.417L297.852 407.275L371.287 224.169L321.142 204C318.707 203.021 315.985 203.051 313.572 204.083C311.159 205.114 309.255 207.062 308.277 209.499L238.514 383.417Z" fill="#7C9AF2"/>
<path d="M231.515 376.621L345.13 396.78L373.441 236.851L259.826 216.692L231.515 376.621Z" fill="#BED1F9"/>
<path d="M288.328 239.297L339.063 248.299L339.265 247.159L288.53 238.157L288.328 239.297Z" fill="#55769F"/>
<path d="M278.18 234.513L350.232 247.297L350.434 246.157L278.381 233.373L278.18 234.513Z" fill="#55769F"/>
<path d="M267.863 248.016L355.282 263.526L355.484 262.387L268.065 246.876L267.863 248.016Z" fill="#55769F"/>
<path d="M266.892 253.5L354.311 269.011L354.512 267.871L267.094 252.36L266.892 253.5Z" fill="#55769F"/>
<path d="M264.953 264.469L352.371 279.98L352.573 278.84L265.154 263.33L264.953 264.469Z" fill="#55769F"/>
<path d="M263.981 269.951L351.4 285.462L351.602 284.322L264.183 268.811L263.981 269.951Z" fill="#55769F"/>
<path d="M263.007 275.435L350.426 290.946L350.628 289.806L263.209 274.296L263.007 275.435Z" fill="#55769F"/>
<path d="M258.734 299.559L346.153 315.07L346.355 313.93L258.936 298.419L258.734 299.559Z" fill="#55769F"/>
<path d="M257.729 305.247L345.147 320.758L345.349 319.618L257.931 304.107L257.729 305.247Z" fill="#55769F"/>
<path d="M256.724 310.931L344.142 326.442L344.344 325.302L256.926 309.792L256.724 310.931Z" fill="#55769F"/>
<path d="M255.712 316.623L343.13 332.134L343.332 330.994L255.914 315.483L255.712 316.623Z" fill="#55769F"/>
<path d="M254.735 326.057L341.74 341.167L341.937 340.033L254.932 324.922L254.735 326.057Z" fill="#55769F"/>
<path d="M253.698 327.998L341.117 343.509L341.318 342.37L253.9 326.859L253.698 327.998Z" fill="#55769F"/>
<path d="M252.69 333.687L340.108 349.197L340.31 348.057L252.892 332.547L252.69 333.687Z" fill="#55769F"/>
<path d="M234.905 369.778L346.494 399.17L387.771 242.095L276.183 212.703L234.905 369.778Z" fill="#DDE8FE"/>
<path d="M302.747 237.566L352.577 250.691L352.871 249.572L303.041 236.447L302.747 237.566Z" fill="#92B5F9"/>
<path d="M293.025 231.969L363.792 250.609L364.086 249.489L293.319 230.85L293.025 231.969Z" fill="#92B5F9"/>
<path d="M278.888 245.514L365.005 267.735L365.294 266.612L279.177 244.391L278.888 245.514Z" fill="#92B5F9"/>
<path d="M280.221 249.969L366.08 272.584L366.374 271.465L280.515 248.85L280.221 249.969Z" fill="#92B5F9"/>
<path d="M277.391 260.74L363.25 283.354L363.544 282.235L277.685 259.62L277.391 260.74Z" fill="#92B5F9"/>
<path d="M275.976 266.128L361.835 288.742L362.129 287.623L276.27 265.008L275.976 266.128Z" fill="#92B5F9"/>
<path d="M274.557 271.515L360.416 294.13L360.71 293.01L274.851 270.395L274.557 271.515Z" fill="#92B5F9"/>
<path d="M268.331 295.205L354.189 317.819L354.484 316.7L268.625 294.085L268.331 295.205Z" fill="#92B5F9"/>
<path d="M266.858 300.793L352.717 323.408L353.011 322.288L267.152 299.674L266.858 300.793Z" fill="#92B5F9"/>
<path d="M265.392 306.375L351.251 328.99L351.545 327.871L265.686 305.256L265.392 306.375Z" fill="#92B5F9"/>
<path d="M263.919 311.963L349.778 334.578L350.072 333.458L264.214 310.844L263.919 311.963Z" fill="#92B5F9"/>
<path d="M262.451 317.548L348.31 340.163L348.604 339.044L262.745 316.429L262.451 317.548Z" fill="#55769F"/>
<path d="M260.981 323.137L346.84 345.751L347.134 344.632L261.275 322.017L260.981 323.137Z" fill="#55769F"/>
<path d="M259.515 328.719L345.374 351.334L345.668 350.214L259.809 327.6L259.515 328.719Z" fill="#55769F"/>
<path d="M261.029 392.465L380.489 440.496L450.174 266.81L349.778 204.813C348.453 203.997 346.967 203.481 345.422 203.3C343.878 203.119 342.312 203.278 340.835 203.765C339.358 204.253 338.005 205.057 336.87 206.122C335.736 207.187 334.847 208.487 334.266 209.931L261.029 392.465Z" fill="#92B5F9"/>
<path d="M404.81 374.238L426.453 367.89C430.262 352.123 432.553 338.692 432.553 338.692C406.435 339.744 386.339 347.746 370.88 359.121L367.68 384.878L360.778 367.609C324.282 402.454 320.014 456.242 320.014 456.242C320.014 456.242 393.467 427.46 407.466 415.609C412.872 411.032 417.844 398.521 421.909 384.887C414.6 380.945 404.81 374.238 404.81 374.238Z" fill="#9FA73C"/>
<path d="M432.553 338.68C432.553 338.68 346.591 406.186 320.014 456.229C320.014 456.229 393.467 427.447 407.466 415.597C412.872 411.02 417.844 398.509 421.909 384.875C414.6 380.933 404.81 374.238 404.81 374.238L426.453 367.891C430.262 352.133 432.553 338.68 432.553 338.68Z" fill="#BAC529"/>
<path d="M447.312 404.947C432.053 400.568 417.694 399.895 404.46 401.691C401.989 407.372 398.892 414.108 398.892 414.108L395.423 403.321C345.819 414.496 314.195 458.469 314.195 458.469C347.463 468.609 373.015 466.916 392.408 459.896C392.539 455.754 392.645 449.597 392.645 449.597L398.545 457.418C406.915 453.648 414.649 448.6 421.472 442.455C418.375 438.41 415.001 433.742 415.001 433.742L427.188 436.87C441.937 421.181 447.312 404.947 447.312 404.947Z" fill="#9FA73C"/>
<path d="M392.408 459.896C392.539 455.754 392.645 449.597 392.645 449.597L398.545 457.418C406.915 453.648 414.649 448.6 421.472 442.455C418.375 438.41 415 433.742 415 433.742L427.187 436.87C441.924 421.197 447.299 404.96 447.299 404.96C388.411 413.979 314.18 458.482 314.18 458.482C347.463 468.609 373.015 466.922 392.408 459.896Z" fill="#BAC529"/>
<path d="M72.0146 273.22H63.8462C65.271 272.258 66.9525 271.749 68.671 271.759H273.331C284.04 271.759 292.705 279.461 292.705 288.966V299.887C292.705 309.388 284.028 317.094 273.331 317.094L70.9709 317.034L72.0146 273.22Z" fill="#3D843C"/>
<path d="M275.544 299.887V288.96C275.544 279.455 266.863 271.753 256.169 271.753H260.563C271.272 271.753 279.937 279.455 279.937 288.96V299.887C279.937 309.388 271.259 317.094 260.563 317.094H256.226C266.894 317.069 275.544 309.379 275.544 299.887Z" fill="#DDE8FE"/>
<path d="M227.614 299.887V288.96C227.614 279.455 218.934 271.753 208.24 271.753H212.634C223.34 271.753 232.008 279.455 232.008 288.96V299.887C232.008 309.388 223.327 317.094 212.634 317.094H208.284C218.959 317.069 227.614 309.379 227.614 299.887Z" fill="#DDE8FE"/>
<path d="M188.198 271.8C198.438 271.8 206.738 279.167 206.738 288.252V300.603C206.738 309.676 198.438 317.056 188.198 317.056H60.7998V314.294H61.3248L93.7141 311.572L100.261 288.781C100.261 288.781 87.6237 276.186 86.8018 275.863C85.98 275.541 61.3248 274.553 61.3248 274.553H60.7998V271.806L188.198 271.8Z" fill="#3D843C"/>
<path d="M69.0618 294.346C69.0618 281.022 61.3027 274.562 61.3027 274.562H185.588C194.994 274.562 202.619 281.329 202.619 289.676V299.183C202.619 307.527 194.994 314.294 185.588 314.294H61.3027C61.3027 314.294 69.0618 311.124 69.0618 294.346Z" fill="#DDE8FE"/>
<g style="mix-blend-mode:multiply">
<path d="M202.619 289.676V299.183C202.618 300.408 202.451 301.626 202.122 302.806C197.931 293.705 189.897 284.936 174.604 282.117C138.896 275.547 61.3027 274.562 61.3027 274.562H185.588C194.994 274.562 202.619 281.329 202.619 289.676Z" fill="#DAEEF7"/>
</g>
<path d="M75.3832 363.842H66.1523C67.7256 362.651 69.6452 362.008 71.6177 362.012H303.242C315.361 362.012 325.185 371.654 325.185 383.549V397.226C325.185 409.115 315.361 418.763 303.242 418.763L74.2083 418.688L75.3832 363.842Z" fill="#3D843C"/>
<path d="M206.881 362.062C218.471 362.062 227.864 371.285 227.864 382.66V398.121C227.864 409.496 218.471 418.716 206.881 418.716H62.6899V415.274H63.2868L99.9415 411.867L107.351 383.339C107.351 383.339 93.0512 367.556 92.12 367.149C91.1888 366.742 63.2868 365.51 63.2868 365.51H62.6899V362.069L206.881 362.062Z" fill="#4951EC"/>
<path d="M72.0428 390.3C72.0428 373.619 63.2588 365.535 63.2588 365.535H203.928C214.574 365.535 223.202 374.004 223.202 384.45V396.338C223.202 406.787 214.574 415.256 203.928 415.256H63.2588C63.2588 415.256 72.0428 411.289 72.0428 390.3Z" fill="#DDE8FE"/>
<g style="mix-blend-mode:multiply">
<path d="M223.202 384.437V396.325C223.202 397.855 223.013 399.379 222.64 400.862C217.896 389.471 208.803 378.496 191.494 374.967C151.08 366.73 63.2588 365.51 63.2588 365.51H203.928C214.584 365.523 223.202 373.991 223.202 384.437Z" fill="#BED1F9"/>
</g>
<path d="M332.804 318.436H342.053C340.395 317.466 338.505 316.963 336.585 316.981H104.873C92.7481 316.981 82.9204 324.633 82.9204 334.072V344.937C82.9204 354.376 92.7481 362.025 104.873 362.025L333.994 361.965L332.804 318.436Z" fill="#305FA4"/>
<path d="M201.253 317.022C189.66 317.022 180.26 324.339 180.26 333.365V345.632C180.26 354.657 189.66 361.972 201.253 361.972H345.516V359.228H344.919L308.236 356.513L300.83 333.887C300.83 333.887 315.133 321.373 316.067 321.061C317.002 320.748 344.913 319.759 344.913 319.759H345.516V317.028L201.253 317.022Z" fill="#0B0754"/>
<path d="M336.141 339.415C336.141 326.182 344.925 319.765 344.925 319.765H204.206C193.56 319.765 184.926 326.485 184.926 334.782V344.223C184.926 352.514 193.56 359.24 204.206 359.24H344.932C344.932 359.24 336.141 356.08 336.141 339.415Z" fill="#DDE8FE"/>
<g style="mix-blend-mode:multiply">
<path d="M184.926 334.776V344.217C184.927 345.44 185.117 346.654 185.488 347.818C190.235 338.777 199.331 330.071 216.646 327.271C257.076 320.735 344.932 319.762 344.932 319.762H204.206C193.56 319.765 184.926 326.479 184.926 334.776Z" fill="#DAEEF7"/>
</g>
<path d="M125.369 344.937V334.085C125.369 324.646 135.197 316.994 147.321 316.994H125.316C113.194 316.994 103.367 324.646 103.367 334.085V344.937C103.367 354.376 113.194 362.025 125.316 362.025H147.027C135.04 361.884 125.369 354.285 125.369 344.937Z" fill="#162659"/>
<path d="M348.066 420.502H359.662C357.544 419.411 355.191 418.854 352.809 418.878H62.3152C47.1158 418.878 34.7944 427.429 34.7944 437.962V450.091C34.7944 460.634 47.1158 469.175 62.3152 469.175L349.559 469.106L348.066 420.502Z" fill="#92B5F9"/>
<path d="M183.144 418.926C168.611 418.926 156.827 427.1 156.827 437.184V450.889C156.827 460.972 168.611 469.147 183.144 469.147H363.987V466.081H363.24L317.264 463.062L307.973 437.769C307.973 437.769 325.907 423.794 327.079 423.434C328.251 423.074 363.24 421.979 363.24 421.979H363.987V418.932L183.144 418.926Z" fill="#7C9AF2"/>
<path d="M352.256 443.947C352.256 429.159 363.272 421.991 363.272 421.991H186.851C173.498 421.991 162.677 429.5 162.677 438.76V449.312C162.677 458.573 173.498 466.081 186.851 466.081H363.272C363.272 466.081 352.256 462.568 352.256 443.947Z" fill="#DDE8FE"/>
<g style="mix-blend-mode:multiply">
<path d="M162.677 438.76V449.312C162.679 450.683 162.918 452.043 163.383 453.332C169.32 443.234 180.735 433.504 202.444 430.376C253.129 423.074 363.272 421.991 363.272 421.991H186.851C173.498 421.991 162.677 429.5 162.677 438.76Z" fill="#BED1F9"/>
</g>
<path d="M423.969 474.396L3.07092 474.396C2.422 474.396 1.79965 474.138 1.34079 473.679C0.881927 473.219 0.624146 472.596 0.624146 471.947V471.29C0.624146 470.64 0.881927 470.017 1.34079 469.558C1.79965 469.098 2.422 468.84 3.07092 468.84L423.969 468.84C424.619 468.84 425.242 469.098 425.701 469.558C426.161 470.018 426.419 470.642 426.419 471.293V471.94C426.419 472.591 426.161 473.215 425.701 473.675C425.242 474.135 424.619 474.393 423.969 474.393V474.396Z" fill="#4951EC"/>
<path d="M428.997 285.984L347.666 239.411L336.672 261.213L419.894 305.29L428.997 285.984Z" fill="#7C9AF2"/>
<path d="M450.162 302.261C450.162 302.261 451.124 311.763 458.599 312.42C451.099 313.077 450.162 322.575 450.162 322.575C450.162 322.575 449.199 313.077 441.725 312.42C449.199 311.775 450.162 302.261 450.162 302.261Z" fill="#92B5F9"/>
<path d="M30.9292 339.666C30.9292 339.666 31.5042 345.341 35.979 345.735C31.5042 346.126 30.9292 351.804 30.9292 351.804C30.9292 351.804 30.3542 346.126 25.8794 345.735C30.3542 345.341 30.9292 339.666 30.9292 339.666Z" fill="#BAC529"/>
<path d="M296.524 133.277C296.524 133.277 297.38 141.724 304.024 142.293C297.377 142.878 296.524 151.313 296.524 151.313C296.524 151.313 295.671 142.866 289.024 142.293C295.671 141.711 296.524 133.277 296.524 133.277Z" fill="#BAC529"/>
<path d="M103.367 199.776C103.367 199.776 104.342 209.399 111.926 210.062C104.342 210.729 103.367 220.352 103.367 220.352C103.367 220.352 102.392 210.729 94.8047 210.062C102.401 209.412 103.367 199.776 103.367 199.776Z" fill="#92B5F9"/>
<path d="M232.883 266.475V271.105C232.883 271.288 232.956 271.464 233.085 271.594C233.215 271.724 233.39 271.796 233.573 271.796H244.373C244.542 271.796 244.707 271.74 244.842 271.639C244.977 271.537 245.075 271.394 245.123 271.231C245.17 271.069 245.164 270.895 245.105 270.737C245.046 270.578 244.937 270.443 244.795 270.351L238.736 266.472C238.736 266.472 236.358 268.221 232.883 266.475Z" fill="#4951EC"/>
<path d="M211.681 70.1634C211.645 70.1767 211.606 70.1803 211.569 70.1739C211.531 70.1674 211.496 70.1511 211.467 70.1267C211.438 70.1022 211.415 70.0704 211.402 70.0345C211.39 69.9987 211.386 69.96 211.393 69.9225C211.665 68.6335 212.49 64.5822 212.177 64.4382C211.809 64.2693 210.984 67.8796 210.615 67.9171C210.246 67.9547 211.131 64.4758 210.709 64.3475C210.287 64.2193 209.584 67.4416 209.371 67.4416C209.159 67.4416 209.524 64.3131 209.315 64.0847C209.106 63.8564 208.324 67.1819 208.09 67.2664C207.856 67.3509 207.637 64.8794 207.425 64.8731C207.212 64.8669 207.068 64.8293 205.971 70.5325C205.971 70.5325 205.909 72.6224 205.537 73.1104L206.359 74.7904L208.909 74.8749C208.909 74.8749 214.443 69.8693 214.399 69.5564C214.355 69.2436 214.112 69.2092 211.681 70.1634Z" fill="#FB9390"/>
<path d="M237.908 71.4242C237.933 71.4533 237.965 71.4751 238.002 71.4872C238.038 71.4994 238.077 71.5014 238.115 71.493C238.152 71.4847 238.187 71.4663 238.215 71.4398C238.243 71.4134 238.263 71.3799 238.273 71.3428C238.617 70.0727 239.73 66.0901 240.07 66.1058C240.476 66.1058 239.573 69.7066 239.886 69.9162C240.198 70.1258 240.995 66.6094 241.426 66.697C241.858 66.7846 241.026 69.9694 241.195 70.0695C241.364 70.1696 242.489 67.207 242.773 67.1037C243.058 67.0005 242.245 70.3167 242.417 70.495C242.589 70.6733 243.908 68.5804 244.101 68.6711C244.295 68.7618 244.439 68.7931 242.817 74.368C242.817 74.368 241.92 76.2608 242.026 76.8708L240.52 77.9846L238.211 76.8958C238.211 76.8958 235.567 69.9068 235.745 69.6566C235.924 69.4063 236.18 69.4689 237.908 71.4242Z" fill="#FB9390"/>
<path d="M217.659 117.09L217.699 126.842L208.237 125.381L209.815 114.419L217.659 117.09Z" fill="#FB9390"/>
<path opacity="0.6" d="M209.09 119.465L209.815 114.419L217.668 118.016V119.94C215.781 120.403 212.24 120.816 209.09 119.465Z" fill="#EF7F7F"/>
<path d="M200.566 265.959V271.04C200.566 271.241 200.486 271.435 200.343 271.577C200.201 271.72 200.008 271.8 199.806 271.8H187.932C187.746 271.8 187.564 271.74 187.416 271.628C187.267 271.516 187.158 271.359 187.106 271.18C187.054 271.002 187.061 270.811 187.126 270.636C187.192 270.462 187.312 270.314 187.469 270.214L194.135 265.959C194.135 265.959 196.744 267.874 200.566 265.959Z" fill="#4951EC"/>
<path d="M189.713 179.657C189.738 178.571 186.9 181.775 186.966 180.908C188.075 162.872 223.277 177.995 223.277 177.995L231.87 184.309L241.557 267.908C241.557 267.908 236.289 269.431 232.827 268.183L211.343 196.541L208.699 195.524C208.699 195.524 196.969 187.321 189.713 179.657Z" fill="#0B0754"/>
<path d="M186.929 181.631C186.929 181.84 186.907 182.056 186.897 182.279C186.907 182.069 186.916 181.853 186.929 181.631Z" fill="#06BFAD"/>
<path d="M186.897 182.3C186.897 182.529 186.897 182.76 186.875 182.998C186.882 182.76 186.888 182.529 186.897 182.3Z" fill="#06BFAD"/>
<path d="M186.872 183.089C186.872 183.336 186.857 183.586 186.851 183.843C186.857 183.586 186.863 183.336 186.872 183.089Z" fill="#06BFAD"/>
<path d="M186.966 180.905C186.966 181.102 186.944 181.306 186.935 181.512C186.944 181.318 186.954 181.102 186.966 180.905Z" fill="#06BFAD"/>
<path d="M186.972 176.807C194.225 184.472 208.715 195.528 208.715 195.528L211.359 196.544L208.715 195.528L200.55 267.905C200.55 267.905 194.728 269.012 191.403 267.21C191.403 267.21 186.497 198.315 186.972 176.807Z" fill="#0B0754"/>
<path d="M241.573 267.905C240.003 268.328 238.392 268.581 236.767 268.659C238.392 268.581 240.003 268.328 241.573 267.905Z" fill="#06BFAD"/>
<path d="M233.858 268.461C234.092 268.511 234.33 268.549 234.57 268.58C234.33 268.549 234.092 268.511 233.858 268.461Z" fill="#06BFAD"/>
<path d="M236.77 268.659C236.159 268.686 235.546 268.672 234.936 268.618C235.546 268.672 236.159 268.686 236.77 268.659Z" fill="#06BFAD"/>
<path d="M231.871 184.306L233.255 196.238C229.593 197.655 220.662 199.172 213.934 184.437C211.812 179.791 211.265 176.447 211.656 174.044C215.61 175.109 219.492 176.428 223.277 177.992L231.871 184.306Z" fill="#0B0754"/>
<path d="M199.584 135.608C199.99 135.608 206.087 121.771 206.087 121.771C211.302 125.434 218.383 122.891 218.383 122.891C218.383 122.891 246.87 175.08 227.758 183.217C208.646 191.354 190.635 181.453 190.635 181.453C190.635 181.453 186.572 170.875 186.572 170.465C186.572 170.056 199.165 135.608 199.584 135.608Z" fill="#DDE8FE"/>
<path d="M236.696 77.0086C236.696 77.0086 237.945 101.77 235.611 106.307C227.921 121.364 218.371 122.888 218.371 122.888C218.371 122.888 215.084 175.552 217.793 188.169C217.793 188.169 226.805 190.951 240.083 184.709C240.083 184.709 229.921 143.88 230.461 138.721C230.461 138.721 246.711 124.208 247.264 107.123C247.817 90.0387 243.333 74.8374 243.333 74.8374L236.696 77.0086Z" fill="#4951EC"/>
<path d="M192.866 186.27C192.866 186.27 193.882 166.667 198.353 148.084C202.825 129.501 206.075 121.77 206.075 121.77C200.078 115.157 201.075 109.181 201.603 101.435C202.213 92.4817 210.953 74.5775 210.953 74.5775L205.059 70.7107C176.811 104.67 192.46 131.741 192.46 131.741C192.46 131.741 181.892 169.179 180.47 180.573C184.445 182.797 188.59 184.702 192.866 186.27Z" fill="#4951EC"/>
<path d="M230.19 138.671C229.767 138.359 229.384 137.995 229.052 137.588C227.855 136.143 227.233 134.513 226.805 132.689C227.065 133.468 227.743 135.727 229.224 137.444C229.599 137.913 230.044 138.321 230.543 138.655L230.461 138.727C230.461 138.761 230.461 138.796 230.461 138.833C230.083 138.912 229.424 138.933 228.312 138.33C227.663 137.966 227.057 137.53 226.505 137.031C227.096 137.473 227.723 137.864 228.38 138.198C228.939 138.494 229.558 138.656 230.19 138.671Z" fill="white"/>
<path d="M192.675 131.616C193.159 131.282 193.594 130.882 193.966 130.427C195.163 129.019 195.822 127.352 196.385 125.672C195.956 127.483 195.338 129.113 194.135 130.571C193.803 130.977 193.422 131.34 193 131.65C193.268 131.662 193.536 131.631 193.794 131.559C194.147 131.468 194.489 131.34 194.816 131.178C195.473 130.843 196.1 130.453 196.691 130.011C196.14 130.511 195.534 130.947 194.885 131.309C194.555 131.49 194.207 131.636 193.847 131.744C193.473 131.868 193.073 131.889 192.688 131.803L192.472 131.744L192.675 131.616Z" fill="white"/>
<path d="M204.087 97.1965L203.516 103.888L204.572 104.552L206.525 96.405L204.087 97.1965Z" fill="#0B0754"/>
<path d="M205.522 103.197C205.812 104.711 205.066 106.128 203.853 106.363C202.641 106.598 201.425 105.553 201.135 104.039C200.844 102.524 201.591 101.107 202.803 100.873C204.016 100.638 205.209 101.68 205.522 103.197Z" fill="#EF7F7F"/>
<path d="M203.775 109.382C203.504 107.516 203.473 105.624 203.681 103.751C203.719 103.388 203.734 103.022 203.744 102.652C203.782 100.997 204.163 99.3672 204.864 97.8671C205.565 96.367 206.57 95.0293 207.815 93.939C209.06 92.8487 210.518 92.0297 212.096 91.5341C213.675 91.0384 215.339 90.8769 216.983 91.0599C218.627 91.2429 220.215 91.7663 221.646 92.5969C223.077 93.4275 224.32 94.5471 225.295 95.8845C226.271 97.222 226.958 98.748 227.312 100.366C227.667 101.983 227.682 103.657 227.355 105.28C227.736 105.142 228.143 105.095 228.545 105.143C228.947 105.191 229.331 105.334 229.668 105.559C230.933 106.457 231.046 108.468 229.924 110.048C228.802 111.628 226.868 112.185 225.605 111.284C225.434 111.16 225.281 111.014 225.149 110.849C223.418 116.48 217.843 119.947 212.237 118.727C207.981 117.81 204.469 114.275 203.775 109.382Z" fill="#FB9390"/>
<path d="M216.709 104.045C216.625 104.253 216.61 104.482 216.667 104.699C216.723 104.916 216.849 105.109 217.024 105.249C217.199 105.389 217.414 105.469 217.638 105.477C217.862 105.484 218.082 105.42 218.266 105.292C218.45 105.164 218.588 104.98 218.66 104.767C218.731 104.555 218.732 104.325 218.662 104.112C218.593 103.898 218.456 103.714 218.273 103.584C218.09 103.455 217.87 103.388 217.646 103.394C217.443 103.398 217.246 103.462 217.079 103.577C216.912 103.693 216.783 103.856 216.709 104.045Z" fill="#0B0754"/>
<path d="M207.85 102.703C207.766 102.911 207.751 103.14 207.808 103.357C207.865 103.574 207.99 103.767 208.165 103.907C208.34 104.047 208.555 104.127 208.779 104.134C209.003 104.142 209.223 104.077 209.407 103.949C209.592 103.822 209.73 103.638 209.801 103.425C209.872 103.213 209.873 102.983 209.804 102.769C209.734 102.556 209.597 102.371 209.414 102.242C209.231 102.113 209.011 102.046 208.787 102.052C208.585 102.058 208.388 102.122 208.222 102.238C208.055 102.353 207.926 102.515 207.85 102.703Z" fill="#0B0754"/>
<path d="M215.328 111.318C214.798 111.583 214.236 111.776 213.656 111.894C213.083 112.012 212.495 112.035 211.915 111.96C211.337 111.877 210.779 111.683 210.275 111.387C209.771 111.079 209.313 110.701 208.916 110.264C209.26 110.756 209.693 111.18 210.19 111.515C210.7 111.853 211.279 112.072 211.884 112.157C212.488 112.236 213.101 112.197 213.69 112.041C214.274 111.897 214.828 111.653 215.328 111.318Z" fill="#EF7F7F"/>
<path d="M215.865 101.914C216.381 101.818 216.903 101.762 217.428 101.749C217.916 101.737 218.403 101.795 218.874 101.921C219.345 102.045 219.794 102.24 220.206 102.499C220.64 102.783 221.058 103.09 221.459 103.419C221.266 102.882 220.946 102.399 220.526 102.011C220.107 101.624 219.6 101.344 219.049 101.195C218.489 101.044 217.9 101.033 217.334 101.164C216.789 101.285 216.283 101.544 215.865 101.914Z" fill="#0B0754"/>
<path d="M211.728 101.229C211.449 100.739 211.048 100.33 210.565 100.04C210.072 99.7363 209.512 99.557 208.934 99.5178C208.354 99.4775 207.774 99.5852 207.247 99.8306C206.734 100.06 206.285 100.41 205.938 100.851C206.429 100.672 206.93 100.519 207.437 100.394C207.91 100.279 208.396 100.238 208.881 100.272C209.369 100.307 209.849 100.412 210.306 100.585C210.796 100.762 211.272 100.977 211.728 101.229Z" fill="#0B0754"/>
<path d="M213.531 102.546C213.047 103.008 212.594 103.5 212.174 104.02C211.748 104.538 211.358 105.086 211.009 105.659C210.772 106.03 210.599 106.438 210.496 106.867C210.462 107.083 210.496 107.295 210.846 107.655C211.083 107.901 211.346 108.12 211.631 108.309C211.908 108.498 212.199 108.665 212.502 108.81C211.99 108.399 211.517 107.942 211.087 107.446C210.996 107.336 210.918 107.217 210.856 107.089C210.85 106.961 210.875 106.833 210.928 106.717C211.047 106.422 211.191 106.139 211.359 105.869C211.69 105.306 212.065 104.761 212.431 104.211C212.796 103.66 213.174 103.106 213.531 102.546Z" fill="#EF7F7F"/>
<path d="M205.331 90.051C205.331 90.051 201.822 89.3752 206.147 87.2541C210.471 85.133 221.071 83.8941 226.614 88.6494C226.614 88.6494 228.489 86.253 230.152 87.3073C231.814 88.3616 228.408 89.5191 228.408 89.5191C228.408 89.5191 230.749 89.9728 231.199 91.2742C231.533 92.2347 230.102 91.95 229.324 91.7372C230.596 92.2597 234.323 95.8043 229.477 105.459C228.617 105.055 223.058 97.1151 223.058 97.1151C223.058 97.1151 211.884 100.791 213.921 97.7408C213.921 97.7408 200.897 101.019 204.056 95.1097C204.065 95.1129 199.272 94.3902 205.331 90.051Z" fill="#0B0754"/>
<path d="M229.486 105.459C229.172 105.259 228.813 105.139 228.442 105.109C228.07 105.08 227.697 105.142 227.355 105.29C226.068 105.769 225.249 108.662 225.249 108.662C225.249 108.662 221.033 112.104 223.09 97.0495C225.108 82.2456 227.908 99.5147 227.908 99.5147L229.486 105.459Z" fill="#0B0754"/>
<path d="M235.639 59.1231L216.359 57.7435C215.89 57.709 215.455 57.4902 215.147 57.1348C214.84 56.7795 214.685 56.3166 214.718 55.8476C214.734 55.6155 214.796 55.3888 214.9 55.1805C215.004 54.9723 215.148 54.7866 215.323 54.634C215.499 54.4815 215.703 54.3651 215.923 54.2915C216.144 54.2179 216.377 54.1886 216.609 54.2052L235.892 55.5817C236.124 55.598 236.351 55.6599 236.559 55.7638C236.767 55.8678 236.952 56.0118 237.105 56.1876C237.257 56.3634 237.373 56.5675 237.447 56.7883C237.52 57.0091 237.549 57.2423 237.533 57.4744C237.517 57.7073 237.455 57.9347 237.352 58.1437C237.248 58.3527 237.104 58.5391 236.928 58.6923C236.752 58.8454 236.548 58.9623 236.326 59.0363C236.105 59.1102 235.872 59.1397 235.639 59.1231Z" fill="#BED1F9"/>
<path d="M230.086 0.99292L236.823 17.53L254.251 21.3468L240.626 32.8721L242.383 50.6449L227.224 41.2345L210.884 48.3987L215.14 31.0544L203.284 17.7115L221.074 16.4069L230.086 0.99292Z" fill="#FFE177"/>
<path d="M230.086 0.99292L228.361 25.2574L236.824 17.53L230.086 0.99292Z" fill="#FEB137"/>
<path d="M254.251 21.3469L228.361 25.2575L240.626 32.8722L254.251 21.3469Z" fill="#FEB137"/>
<path d="M228.361 25.2572L221.074 16.4067L203.284 17.7113L228.361 25.2572Z" fill="#FEB137"/>
<path d="M210.884 48.3989L228.361 25.2576L215.14 31.0546L210.884 48.3989Z" fill="#FEB137"/>
<path d="M242.383 50.6451L228.362 25.2576L227.224 41.2347L242.383 50.6451Z" fill="#FEB137"/>
<path d="M240.607 59.8775L211.314 57.7856L210.58 68.0928L239.873 70.1846L240.607 59.8775Z" fill="#FEB137"/>
<g style="mix-blend-mode:multiply">
<path d="M210.651 66.9345L210.57 68.061L239.863 70.1529L239.944 69.0264L210.651 66.9345Z" fill="#CDD6E0"/>
</g>
<g style="mix-blend-mode:multiply">
<path d="M211.361 57.4863L211.281 58.6128L240.575 60.6996L240.655 59.573L211.361 57.4863Z" fill="#CDD6E0"/>
</g>
<path d="M240.364 60.3464L211.509 58.2879C211.335 58.2756 211.165 58.2291 211.009 58.151C210.854 58.0729 210.715 57.9648 210.601 57.8329C210.486 57.701 210.399 57.5478 210.345 57.3821C210.29 57.2165 210.268 57.0416 210.281 56.8676C210.293 56.6938 210.34 56.5241 210.417 56.3683C210.495 56.2124 210.603 56.0734 210.734 55.9593C210.866 55.8451 211.018 55.758 211.183 55.7029C211.349 55.6478 211.523 55.6258 211.696 55.6381L240.552 57.6966C240.725 57.7089 240.895 57.7554 241.051 57.8335C241.207 57.9116 241.346 58.0197 241.46 58.1516C241.574 58.2836 241.661 58.4368 241.716 58.6024C241.771 58.7681 241.792 58.9429 241.78 59.117C241.767 59.2908 241.721 59.4604 241.643 59.6163C241.565 59.7721 241.458 59.9111 241.326 60.0253C241.195 60.1394 241.042 60.2266 240.877 60.2817C240.712 60.3368 240.538 60.3588 240.364 60.3464Z" fill="#92B5F9"/>
<path d="M240.264 72.5845L209.478 70.3945C209.431 70.3914 209.385 70.379 209.343 70.358C209.301 70.3371 209.264 70.3081 209.233 70.2726C209.202 70.2371 209.179 70.1959 209.164 70.1514C209.149 70.1068 209.143 70.0597 209.146 70.0129L209.271 68.0669C209.275 68.0201 209.287 67.9743 209.308 67.9322C209.329 67.8901 209.358 67.8526 209.393 67.8218C209.429 67.791 209.47 67.7675 209.514 67.7526C209.559 67.7378 209.606 67.7319 209.653 67.7353L240.442 69.9253C240.536 69.9325 240.623 69.9767 240.685 70.0482C240.746 70.1198 240.777 70.2128 240.77 70.3069L240.633 72.2435C240.629 72.3375 240.588 72.4262 240.518 72.4901C240.449 72.5539 240.358 72.5879 240.264 72.5845Z" fill="#FEB137"/>
<path d="M230.883 66.7877L219.743 65.993C219.413 65.9713 219.091 65.8842 218.795 65.7368C218.499 65.5894 218.235 65.3846 218.018 65.1344C217.802 64.8842 217.637 64.5934 217.533 64.279C217.43 63.9645 217.39 63.6326 217.415 63.3025C217.437 62.9725 217.524 62.65 217.671 62.3537C217.818 62.0575 218.022 61.7934 218.272 61.5766C218.521 61.3599 218.811 61.1949 219.125 61.091C219.439 60.9872 219.77 60.9467 220.099 60.9718L231.24 61.7665C231.57 61.7882 231.892 61.8753 232.188 62.0227C232.484 62.1701 232.748 62.3749 232.965 62.6251C233.181 62.8753 233.346 63.1661 233.449 63.4805C233.553 63.795 233.593 64.1269 233.568 64.457C233.546 64.787 233.459 65.1095 233.312 65.4058C233.165 65.702 232.961 65.9661 232.711 66.1829C232.461 66.3996 232.171 66.5647 231.858 66.6685C231.544 66.7723 231.213 66.8128 230.883 66.7877Z" fill="#BED1F9"/>
<g style="mix-blend-mode:multiply">
<path d="M219.802 65.1548C219.565 65.138 219.334 65.0709 219.125 64.958C218.916 64.8451 218.733 64.6889 218.589 64.4998C218.445 64.3107 218.342 64.0931 218.289 63.8613C218.235 63.6296 218.231 63.389 218.277 63.1557C218.369 62.7478 218.606 62.3871 218.943 62.1404C219.28 61.8937 219.695 61.7776 220.111 61.8136L231.108 62.5988C231.525 62.6218 231.92 62.7955 232.219 63.0878C232.517 63.3801 232.7 63.7711 232.733 64.1881C232.745 64.4254 232.707 64.6626 232.621 64.8841C232.535 65.1056 232.403 65.3063 232.234 65.4728C232.065 65.6393 231.862 65.768 231.639 65.8501C231.417 65.9323 231.179 65.9661 230.942 65.9494L219.802 65.1548Z" fill="#D9D9D9"/>
</g>
<path d="M229.271 56.1794L223.074 55.7383L223.115 55.1627C223.28 52.8226 223.54 47.9672 227.221 41.2222C230.018 48.9307 229.477 53.2668 229.311 55.6132L229.271 56.1794Z" fill="#BED1F9"/>
</svg>
