<svg width="208" height="69" viewBox="0 0 208 69" fill="none" xmlns="http://www.w3.org/2000/svg">
<path d="M245.056 40.5332L222.278 63.1965L199.487 40.5332L176.709 63.1965L153.931 40.5332L133.841 60.5229L113.737 40.5332L90.9453 63.1965L68.1674 40.5332L45.3757 63.1965L22.6116 40.5332L0 63.0164L2.50779 65.5376L22.6116 45.5479L45.3895 68.2112L68.1674 45.5479L90.9453 68.2112L113.737 45.5479L133.841 65.5515L153.931 45.5479L176.709 68.2112L199.487 45.5479L222.278 68.2112L245.056 45.5479L265.16 65.5376L267.668 63.0164L245.056 40.5332Z" fill="#305FA4"/>
<path d="M245.056 0L222.278 22.6771L199.486 0L176.708 22.6633L153.931 0L135.863 17.981L135.85 23.0235L153.931 5.02859L176.708 27.6919L199.486 5.02859L222.278 27.6919L245.056 5.02859L265.16 25.0183L267.668 22.4971L245.056 0Z" fill="#55769F"/>
</svg>
