<svg width="82" height="82" viewBox="0 0 82 82" fill="none" xmlns="http://www.w3.org/2000/svg">
<path d="M35.8779 1.7959H39.8948V74.6857H35.8779V1.7959Z" fill="#AEB6C8"/>
<path d="M42.6982 6.57903C21.2571 3.45725 3.10337 21.6109 6.22499 43.0521C8.24373 56.9171 19.2113 67.8847 33.0764 69.9035C54.5175 73.0253 72.6712 54.8714 69.5494 33.4304C67.5308 19.5654 56.5633 8.59777 42.6982 6.57903V6.57903Z" fill="#5E79BC"/>
<path d="M37.8865 6.22754C36.8013 6.22754 35.7288 6.28217 34.6714 6.38773C34.9551 6.41601 35.2373 6.44895 35.5188 6.48462C29.6578 7.76103 24.6463 13.7112 21.7901 22.0927C13.5537 24.8682 7.65157 29.7321 6.22412 35.4399C5.98761 36.3855 5.87305 37.3218 5.87305 38.2408C5.87305 45.106 12.2477 51.1031 21.7382 54.3372C24.5137 62.5736 29.3776 68.4758 35.0854 69.9032C35.2251 69.9381 35.3645 69.9696 35.5038 69.9993C35.2273 70.0342 34.95 70.0663 34.6712 70.0941C35.7286 70.1995 36.8011 70.2543 37.8863 70.2543C55.5668 70.2543 69.8996 55.9215 69.8996 38.241C69.8996 20.5605 55.5668 6.22754 37.8865 6.22754ZM13.5431 45.2462C12.2641 44.071 10.7978 42.3495 10.1845 40.2493H19.284C19.317 41.1761 19.3726 42.1107 19.4524 43.0516C19.6427 45.2963 19.9703 47.4643 20.4187 49.5312C17.6794 48.3503 15.3464 46.9029 13.5431 45.2462ZM19.2858 36.2324H10.1703C10.9419 33.4509 13.4391 30.7146 17.2287 28.5084C18.2294 27.9257 19.3102 27.3907 20.4523 26.9026C19.8062 29.8315 19.4036 32.9654 19.2858 36.2324ZM58.5443 47.9733C57.5436 48.5559 56.4628 49.091 55.3207 49.5791C55.9666 46.6501 56.3694 43.5163 56.4872 40.2493H63.4054C63.4045 40.2646 63.4035 40.28 63.4025 40.2952C63.2041 43.4283 61.4415 46.2531 58.7426 47.8568C58.6769 47.8957 58.6108 47.9346 58.5443 47.9733ZM63.4024 36.1869C63.4033 36.202 63.4043 36.2173 63.4053 36.2324H56.4889C56.456 35.3056 56.4004 34.3709 56.3206 33.43C56.1303 31.1854 55.8027 29.0175 55.3543 26.9504C56.5416 27.4623 58.1013 28.4365 59.4873 29.3758C61.7691 30.9225 63.2282 33.4358 63.4024 36.1869ZM60.6815 25.1555C58.7085 23.9908 56.475 22.9761 54.0346 22.1444C52.3572 17.1669 49.9163 13.0441 46.988 10.244C53.0129 13.5936 57.8446 18.8294 60.6815 25.1555ZM42.358 52.6725C41.5361 52.7422 40.7146 52.7904 39.8949 52.8216V40.2493H52.4667C52.3229 43.9447 51.7848 47.5416 50.8638 50.8766C50.8368 50.9743 50.8078 51.0695 50.7801 51.1666C48.1359 51.9088 45.2913 52.4237 42.358 52.6725ZM49.1769 55.7086C47.9959 58.448 46.5485 60.781 44.8918 62.5841C43.7166 63.8631 41.9951 65.3294 39.8949 65.9427V56.8431C40.8217 56.8102 41.7564 56.7546 42.6973 56.6747C44.9418 56.4847 47.1098 56.157 49.1769 55.7086ZM39.8949 36.2324V23.6606C43.5903 23.8044 47.1872 24.3425 50.5222 25.2635C50.6199 25.2905 50.7152 25.3196 50.8123 25.3472C51.5544 27.9915 52.0694 30.8361 52.3181 33.7694C52.3878 34.5912 52.436 35.4128 52.4672 36.2324H39.8949ZM39.8949 19.6401V10.5247C42.6764 11.2962 45.4127 13.7935 47.619 17.583C48.2016 18.5837 48.7366 19.6646 49.2248 20.8067C46.2958 20.1607 43.162 19.7579 39.8949 19.6401ZM30.8812 13.8976C32.0562 12.6186 33.7778 11.1523 35.878 10.539V19.6385C34.9513 19.6715 34.0166 19.7271 33.0757 19.8069C30.831 19.9972 28.6632 20.3248 26.5961 20.7732C27.7771 18.0337 29.2244 15.7007 30.8812 13.8976ZM24.9092 25.6051C24.9362 25.5074 24.9652 25.4121 24.9929 25.3151C27.6371 24.5729 30.4817 24.0579 33.415 23.8092C34.2369 23.7395 35.0584 23.6911 35.878 23.6601V36.2324H23.3063C23.4501 32.537 23.988 28.9401 24.9092 25.6051ZM24.9607 51.1345C24.2186 48.4902 23.7036 45.6456 23.4549 42.7123C23.3851 41.8904 23.3368 41.0689 23.3058 40.2493H35.878V52.8211C32.1827 52.6773 28.5858 52.1392 25.2508 51.2182C25.1531 51.1912 25.0578 51.1621 24.9607 51.1345ZM28.154 58.8987C27.5714 57.898 27.0364 56.8171 26.5482 55.675C29.4772 56.3209 32.6112 56.7237 35.878 56.8415V65.957C33.0966 65.1854 30.3603 62.6882 28.154 58.8987ZM46.8513 66.3134C49.8101 63.5197 52.2797 59.3866 53.9827 54.389C56.4316 53.5637 58.6719 52.5526 60.6517 51.3909C57.7895 57.7357 52.919 62.9789 46.8513 66.3134Z" fill="#305FA4"/>
<path d="M37.5903 0H35.8786C34.7693 0 33.8701 0.899144 33.8701 2.00845C33.8701 3.11776 34.7693 4.01691 35.8786 4.01691H37.887C42.509 4.01691 46.9906 4.92119 51.2074 6.7047C55.2823 8.42827 58.9428 10.8964 62.0871 14.0409C65.2316 17.1853 67.6997 20.8457 69.4233 24.9206C71.2068 29.1374 72.1111 33.6189 72.1111 38.241C72.1111 42.863 71.2068 47.3445 69.4233 51.5613C67.6997 55.6362 65.2316 59.2968 62.0871 62.4411C58.9427 65.5855 55.2823 68.0536 51.2074 69.7772C46.9906 71.5607 42.509 72.465 37.887 72.465H35.8786C34.7693 72.465 33.8701 73.3641 33.8701 74.4735C33.8701 75.5828 34.7693 76.4819 35.8786 76.4819H37.887C58.9597 76.4819 76.0515 59.4372 76.1277 38.3823C76.2041 17.2721 58.7007 0 37.5903 0V0Z" fill="#162659"/>
<path d="M54.8664 82H20.906C18.2698 82 16.1328 79.863 16.1328 77.2268C16.1328 74.5906 18.2698 72.4536 20.906 72.4536H54.8664C57.5026 72.4536 59.6396 74.5906 59.6396 77.2268C59.6396 79.863 57.5026 82 54.8664 82Z" fill="#C7CFE1"/>
<path d="M54.8666 72.4536H48.7324C51.3686 72.4536 53.5056 74.5906 53.5056 77.2268C53.5056 79.863 51.3686 82 48.7324 82H54.8666C57.5028 82 59.6398 79.863 59.6398 77.2268C59.6398 74.5906 57.5028 72.4536 54.8666 72.4536Z" fill="#AEB6C8"/>
<path d="M24.7612 29.3963C28.0492 29.3963 30.7147 26.7308 30.7147 23.4428C30.7147 20.1547 28.0492 17.4893 24.7612 17.4893C21.4731 17.4893 18.8076 20.1547 18.8076 23.4428C18.8076 26.7308 21.4731 29.3963 24.7612 29.3963Z" fill="#BAC529"/>
<path d="M30.7152 23.4429C30.7152 26.7303 28.0496 29.3959 24.7606 29.3959C22.7232 29.3959 20.9252 28.3724 19.8535 26.8123C20.0961 26.838 20.3436 26.8508 20.5926 26.8508C24.4167 26.8508 27.5178 23.7498 27.5178 19.9257C27.5178 19.2701 27.4262 18.6355 27.2559 18.0361C29.2981 18.9793 30.7152 21.0456 30.7152 23.4429V23.4429Z" fill="#A7B121"/>
<path d="M37.8862 60.7572C41.1742 60.7572 43.8397 58.0917 43.8397 54.8036C43.8397 51.5156 41.1742 48.8501 37.8862 48.8501C34.5981 48.8501 31.9326 51.5156 31.9326 54.8036C31.9326 58.0917 34.5981 60.7572 37.8862 60.7572Z" fill="#DBE5B1"/>
<path d="M43.8402 54.8037C43.8402 58.0912 41.1746 60.7568 37.8856 60.7568C35.8482 60.7568 34.0502 59.7333 32.9785 58.1731C33.2211 58.1988 33.4686 58.2117 33.7176 58.2117C37.5417 58.2117 40.6428 55.1106 40.6428 51.2865C40.6428 50.631 40.5512 49.9963 40.3809 49.397C42.4231 50.3401 43.8402 52.4064 43.8402 54.8037Z" fill="#C3D772"/>
<path d="M54.186 43.6034C57.474 43.6034 60.1395 40.9379 60.1395 37.6498C60.1395 34.3618 57.474 31.6963 54.186 31.6963C50.8979 31.6963 48.2324 34.3618 48.2324 37.6498C48.2324 40.9379 50.8979 43.6034 54.186 43.6034Z" fill="#FFD667"/>
<path d="M60.14 37.6499C60.14 40.9374 57.4744 43.603 54.1854 43.603C52.148 43.603 50.35 42.5795 49.2783 41.0193C49.5209 41.045 49.7684 41.0579 50.0174 41.0579C53.8415 41.0579 56.9426 37.9568 56.9426 34.1327C56.9426 33.4772 56.851 32.8425 56.6807 32.2432C58.7229 33.1863 60.14 35.2526 60.14 37.6499Z" fill="#FF901D"/>
</svg>
