<svg width="82" height="82" viewBox="0 0 82 82" fill="none" xmlns="http://www.w3.org/2000/svg">
<g clip-path="url(#clip0)">
<path d="M69.306 28.306C69.306 12.7841 56.8124 0.180208 41.3327 0.00189799C25.7891 -0.177216 12.9217 12.3437 12.6969 27.8869C12.5769 36.1766 16.0213 43.6637 21.5957 48.9143C23.89 51.0754 25.1528 54.1142 25.1528 57.266V65.0916H56.847V57.2181C56.847 54.0915 58.1017 51.0779 60.3802 48.9369C65.8745 43.7737 69.306 36.4406 69.306 28.306Z" fill="url(#paint0_linear)"/>
<path d="M53.1444 40.8782C52.1665 39.9003 50.8163 39.397 49.4351 39.4991C48.0558 39.6007 46.7922 40.2961 45.968 41.4068C45.3827 42.1955 45.0605 43.1708 45.0605 44.1529V44.4194L42.7057 42.0646L46.4399 38.3304C49.4392 35.3309 49.4392 30.4507 46.4399 27.4512C43.4403 24.4518 38.56 24.4518 35.5606 27.4512C32.5611 30.4507 32.5611 35.3309 35.5606 38.3304L39.2948 42.0646L36.9399 44.4194V44.1529C36.9399 43.1708 36.6177 42.1955 36.0325 41.4068C35.2085 40.2961 33.9447 39.6007 32.5653 39.4991C31.1872 39.3978 29.8341 39.9001 28.856 40.8782C27.8519 41.8823 27.2988 43.2173 27.2988 44.6371C27.2988 46.057 27.8518 47.392 28.856 48.3961C29.8601 49.4002 31.195 49.9533 32.615 49.9533C33.2797 49.9533 33.9259 49.8321 34.5282 49.6002V59.1352C34.5282 59.8012 35.0681 60.3411 35.7341 60.3411C36.4 60.3411 36.9399 59.8012 36.9399 59.1352V47.8302L41.0002 43.77L45.0605 47.8302V59.1352C45.0605 59.8012 45.6003 60.3411 46.2664 60.3411C46.9325 60.3411 47.4723 59.8012 47.4723 59.1352V49.6002C48.0746 49.8321 48.7208 49.9533 49.3855 49.9533C50.8053 49.9533 52.1403 49.4004 53.1443 48.3961C54.1484 47.392 54.7015 46.0572 54.7015 44.6371C54.7015 43.2171 54.1484 41.8823 53.1444 40.8782ZM34.5282 46.8224C33.9985 47.2875 33.3263 47.5414 32.615 47.5414C31.8392 47.5414 31.1099 47.2393 30.5615 46.6907C30.013 46.1421 29.7108 45.4128 29.7108 44.6371C29.7108 43.8615 30.0129 43.132 30.5615 42.5834C31.0022 42.1427 31.5972 41.898 32.2156 41.898C32.2729 41.898 32.3306 41.9001 32.3881 41.9045C33.0674 41.9546 33.6897 42.2969 34.0957 42.8441C34.3746 43.22 34.5282 43.6848 34.5282 44.153V46.8224ZM37.266 29.1565C38.2635 28.159 39.5897 27.6098 41.0002 27.6098C42.4108 27.6098 43.7369 28.1592 44.7344 29.1565C46.7936 31.2155 46.7936 34.5659 44.7344 36.6249L41.0002 40.3593L37.266 36.6251C35.207 34.5659 35.207 31.2157 37.266 29.1565ZM51.439 46.6908C50.8906 47.2394 50.1612 47.5416 49.3856 47.5416C48.6743 47.5416 48.0021 47.2875 47.4724 46.8225V44.153C47.4724 43.6848 47.626 43.22 47.9049 42.8439C48.3108 42.2969 48.9332 41.9545 49.6125 41.9045C50.2897 41.8541 50.9574 42.1019 51.439 42.5836C51.9876 43.1322 52.2897 43.8615 52.2897 44.6373C52.2897 45.4131 51.9876 46.1423 51.439 46.6908Z" fill="#305FA4"/>
<path d="M41.333 0.00189006C40.1363 -0.0119374 38.9555 0.0502862 37.7949 0.182612C51.9073 1.78531 62.8717 13.765 62.8717 28.306C62.8717 36.4406 59.44 43.7737 53.9459 48.9369C51.6674 51.0781 50.4126 54.0917 50.4126 57.2181V65.0916H56.8472V57.2181C56.8472 54.0915 58.102 51.0779 60.3805 48.9369C65.8748 43.7737 69.3062 36.4408 69.3062 28.306C69.3062 12.7841 56.8127 0.1802 41.333 0.00189006Z" fill="url(#paint1_linear)"/>
<path d="M40.9997 82.0002C32.2307 82.0002 25.1221 74.8916 25.1221 66.1226V65.0918H56.8775V66.1226C56.8773 74.8916 49.7687 82.0002 40.9997 82.0002Z" fill="#305FA4"/>
<path d="M50.4435 65.0918V66.1226C50.4435 73.7893 45.0097 80.1865 37.7832 81.6738C38.8222 81.8876 39.8982 82.0002 41.0005 82.0002C49.7695 82.0002 56.8781 74.8916 56.8781 66.1226V65.0918H50.4435Z" fill="#162659"/>
<path d="M55.4282 55.7402H26.5723C23.9899 55.7402 21.8965 57.8336 21.8965 60.416C21.8965 61.7306 22.439 62.9185 23.3124 63.768C24.6039 65.0244 25.2411 66.8318 24.8901 68.599C24.816 68.9725 24.772 69.364 24.772 69.7675C24.772 72.3499 26.8654 74.4433 29.4477 74.4433H52.5529C55.1353 74.4433 57.2287 72.3499 57.2287 69.7675C57.2287 69.364 57.1848 68.9725 57.1105 68.599C56.7595 66.8316 57.3967 65.0242 58.6883 63.768C59.5617 62.9186 60.1042 61.7306 60.1042 60.416C60.104 57.8336 58.0106 55.7402 55.4282 55.7402Z" fill="url(#paint2_linear)"/>
<path d="M60.1036 60.3556C60.0712 57.7811 57.9068 55.7402 55.332 55.7402H48.9938C51.5761 55.7402 53.6695 57.8336 53.6695 60.416C53.6695 61.4069 53.361 62.3256 52.8352 63.082H31.7951C30.6885 63.082 29.7394 63.9476 29.7191 65.0542C29.6985 66.1814 30.606 67.1016 31.7286 67.1016H48.9085C49.7787 67.1016 50.5063 67.7299 50.673 68.584C50.674 68.589 50.6749 68.594 50.6759 68.599C50.75 68.9725 50.7941 69.364 50.7941 69.7675C50.7941 72.3499 48.7007 74.4433 46.1183 74.4433H52.4958C55.0769 74.4433 57.2161 72.3753 57.2287 69.7944C57.2306 69.3815 57.1864 68.9808 57.1106 68.599C56.7596 66.8316 57.3968 65.0242 58.6884 63.768C59.5748 62.9054 60.1205 61.6941 60.1036 60.3556Z" fill="url(#paint3_linear)"/>
<path d="M80.3893 31.073H72.8095C71.9202 31.073 71.1992 30.3521 71.1992 29.4628C71.1992 28.5735 71.9202 27.8525 72.8095 27.8525H80.3893C81.2786 27.8525 81.9996 28.5735 81.9996 29.4628C81.9996 30.3521 81.2786 31.073 80.3893 31.073Z" fill="url(#paint4_linear)"/>
<path d="M9.19027 31.073H1.61025C0.720957 31.073 0 30.3521 0 29.4628C0 28.5735 0.720957 27.8525 1.61025 27.8525H9.19027C10.0796 27.8525 10.8005 28.5735 10.8005 29.4628C10.8005 30.3521 10.0796 31.073 9.19027 31.073Z" fill="url(#paint5_linear)"/>
<path d="M68.853 58.9264C68.4409 58.9264 68.0288 58.7691 67.7143 58.4548L62.3544 53.0949C61.7256 52.4661 61.7256 51.4465 62.3544 50.8177C62.9834 50.189 64.0026 50.189 64.6316 50.8177L69.9915 56.1776C70.6204 56.8064 70.6204 57.826 69.9915 58.4548C69.677 58.7691 69.2651 58.9264 68.853 58.9264Z" fill="url(#paint6_linear)"/>
<path d="M18.5072 8.5803C18.0951 8.5803 17.683 8.42305 17.3686 8.10872L12.0087 2.74881C11.3799 2.11998 11.3799 1.10045 12.0087 0.471621C12.6376 -0.157207 13.6571 -0.157207 14.2859 0.471621L19.6458 5.83137C20.2747 6.46019 20.2747 7.47973 19.6458 8.10855C19.3313 8.42305 18.9192 8.5803 18.5072 8.5803Z" fill="url(#paint7_linear)"/>
<path d="M13.1474 58.9259C12.7353 58.9259 12.3232 58.7686 12.0087 58.4543C11.3799 57.8255 11.3799 56.8059 12.0087 56.1771L17.3686 50.8172C17.9975 50.1885 19.017 50.1885 19.6458 50.8172C20.2747 51.446 20.2747 52.4656 19.6458 53.0944L14.2859 58.4543C13.9716 58.7686 13.5595 58.9259 13.1474 58.9259Z" fill="url(#paint8_linear)"/>
<path d="M63.4931 8.58007C63.081 8.58007 62.6689 8.42283 62.3544 8.10849C61.7256 7.47967 61.7256 6.46013 62.3544 5.83131L67.7143 0.47156C68.3435 -0.157267 69.3627 -0.157106 69.9915 0.47156C70.6204 1.10039 70.6204 2.11992 69.9915 2.74875L64.6316 8.10849C64.3171 8.42283 63.905 8.58007 63.4931 8.58007Z" fill="url(#paint9_linear)"/>
</g>
<defs>
<linearGradient id="paint0_linear" x1="14.4388" y1="32.5458" x2="81.1219" y2="32.5458" gradientUnits="userSpaceOnUse">
<stop stop-color="#FFE177"/>
<stop offset="0.5725" stop-color="#FEB137"/>
<stop offset="1" stop-color="#FE646F"/>
</linearGradient>
<linearGradient id="paint1_linear" x1="0.981424" y1="32.5458" x2="70.4472" y2="32.5458" gradientUnits="userSpaceOnUse">
<stop stop-color="#FFE177"/>
<stop offset="0.5725" stop-color="#FEB137"/>
<stop offset="1" stop-color="#FE646F"/>
</linearGradient>
<linearGradient id="paint2_linear" x1="23.0741" y1="65.0918" x2="68.0786" y2="65.0918" gradientUnits="userSpaceOnUse">
<stop stop-color="#F9F3F1"/>
<stop offset="0.5725" stop-color="#EFE2DD"/>
<stop offset="1" stop-color="#CDBFBA"/>
</linearGradient>
<linearGradient id="paint3_linear" x1="7.07471" y1="65.0918" x2="61.2359" y2="65.0918" gradientUnits="userSpaceOnUse">
<stop stop-color="#F9F3F1"/>
<stop offset="0.5725" stop-color="#EFE2DD"/>
<stop offset="1" stop-color="#CDBFBA"/>
</linearGradient>
<linearGradient id="paint4_linear" x1="0.321021" y1="29.4628" x2="89.1445" y2="29.4628" gradientUnits="userSpaceOnUse">
<stop stop-color="#FFE177"/>
<stop offset="0.5725" stop-color="#FEB137"/>
<stop offset="1" stop-color="#FE646F"/>
</linearGradient>
<linearGradient id="paint5_linear" x1="0.321569" y1="29.4628" x2="89.1449" y2="29.4628" gradientUnits="userSpaceOnUse">
<stop stop-color="#FFE177"/>
<stop offset="0.5725" stop-color="#FEB137"/>
<stop offset="1" stop-color="#FE646F"/>
</linearGradient>
<linearGradient id="paint6_linear" x1="0.321767" y1="54.6362" x2="89.1451" y2="54.6362" gradientUnits="userSpaceOnUse">
<stop stop-color="#FFE177"/>
<stop offset="0.5725" stop-color="#FEB137"/>
<stop offset="1" stop-color="#FE646F"/>
</linearGradient>
<linearGradient id="paint7_linear" x1="0.32164" y1="4.29009" x2="89.145" y2="4.29009" gradientUnits="userSpaceOnUse">
<stop stop-color="#FFE177"/>
<stop offset="0.5725" stop-color="#FEB137"/>
<stop offset="1" stop-color="#FE646F"/>
</linearGradient>
<linearGradient id="paint8_linear" x1="0.321801" y1="54.6357" x2="89.1452" y2="54.6357" gradientUnits="userSpaceOnUse">
<stop stop-color="#FFE177"/>
<stop offset="0.5725" stop-color="#FEB137"/>
<stop offset="1" stop-color="#FE646F"/>
</linearGradient>
<linearGradient id="paint9_linear" x1="0.321712" y1="4.29003" x2="89.1451" y2="4.29003" gradientUnits="userSpaceOnUse">
<stop stop-color="#FFE177"/>
<stop offset="0.5725" stop-color="#FEB137"/>
<stop offset="1" stop-color="#FE646F"/>
</linearGradient>
<clipPath id="clip0">
<rect width="82" height="82" fill="white"/>
</clipPath>
</defs>
</svg>
