<svg width="85" height="82" viewBox="0 0 85 82" fill="none" xmlns="http://www.w3.org/2000/svg">
<path d="M1.54396 52C1.44587 52 1.35161 51.9976 1.26117 51.9932C0.556604 51.9596 0 51.3569 0 50.6182V50.6118C0 49.8628 0.572232 49.2617 1.28694 49.2362C2.50771 49.1927 4.38783 48.7291 5.98383 46.633C6.07327 46.5157 6.15473 46.3985 6.22905 46.2822C3.52815 45.6744 1.90073 44.7078 1.26765 43.3413C0.892429 42.5316 0.697085 41.2178 1.89641 39.558C2.72334 38.4132 3.91552 37.8563 5.16788 38.0318C6.75722 38.2538 8.2553 39.6245 8.98464 41.5235C9.31531 42.3842 9.4671 43.2715 9.44515 44.1505C10.2028 44.2327 10.973 44.2846 11.7173 44.3017C12.4044 44.3173 12.9916 44.8821 12.9999 45.602C13.0085 46.3494 12.4312 46.9465 11.7188 46.936C11.6528 46.9347 10.438 46.9078 8.8676 46.722C8.63202 47.2605 8.32562 47.7813 7.94973 48.275C5.56771 51.4032 3.08859 52 1.54396 52ZM4.70869 40.6326C4.4939 40.6326 4.20961 40.7198 3.90105 41.1468C3.70637 41.4164 3.39931 41.9102 3.52948 42.1913C3.82291 42.8253 5.17502 43.3699 6.91499 43.7479C6.88424 43.2046 6.75307 42.7691 6.65199 42.5061C6.2229 41.3892 5.41326 40.7229 4.83521 40.6421C4.79647 40.6366 4.75408 40.6326 4.70869 40.6326Z" fill="#305FA4"/>
<path d="M82.5863 44.8082L79.0664 43.6751C78.224 43.404 77.5698 42.7357 77.3045 41.8878C73.2538 28.9442 58.2125 23 43.0723 23C25.3592 23 11 31.1339 11 49.0965C11 59.449 16.0529 66.7 23.8595 70.8877C24.0515 70.9908 24.1882 71.1738 24.2293 71.3885L25.9783 80.5174C26.1402 81.3774 26.8882 82 27.7592 82H33.6652C34.5362 82 35.284 81.3774 35.4461 80.5174L36.4021 75.4419C36.4726 75.0675 36.8199 74.8151 37.1965 74.8592C39.1015 75.0814 41.0653 75.1929 43.0723 75.1929C45.7549 75.1929 48.4343 74.9938 51.0503 74.5966C51.4347 74.5382 51.7969 74.7922 51.8693 75.176L52.8755 80.5174C53.0374 81.3774 53.7853 82 54.6564 82H60.5624C61.4334 82 62.1811 81.3774 62.3432 80.5174L64.1599 70.8518C64.2009 70.6336 64.3405 70.4476 64.5366 70.3452C69.1727 67.923 73.008 64.5906 75.4542 60.3424C75.7802 59.7763 76.2956 59.3448 76.9155 59.1453L82.5868 57.3198C84.0245 56.8571 85 55.5138 85 53.9967V48.1313C84.9995 46.6143 84.0241 45.2709 82.5863 44.8082Z" fill="#5E79BC"/>
<path d="M84.5556 46.0373C84.402 45.7621 84.2132 45.5079 83.9916 45.2836C83.9868 45.2788 83.9826 45.2735 83.9778 45.2689C83.5943 44.8854 83.1184 44.5884 82.5773 44.415L79.9581 43.5762V46.6572C79.9581 50.485 77.5192 53.8873 73.8943 55.1167C72.2459 55.6446 70.8207 56.6892 69.7763 58.0696C68.4975 59.7599 66.9779 61.279 65.2655 62.627C63.2466 64.2163 61.8848 66.4907 61.4955 69.0303C61.2179 70.8414 61.0029 72.7736 60.8658 74.1429C60.7604 75.1961 59.875 75.9981 58.8167 75.9981H54.5436C53.6694 75.9981 52.9188 75.3762 52.7561 74.5173L51.7463 69.1822C51.6737 68.7989 51.3102 68.5451 50.9243 68.6035C48.2988 69.0003 45.6096 69.1992 42.9168 69.1992C40.9022 69.1992 38.9313 69.0878 37.0193 68.8658C36.6411 68.822 36.2927 69.074 36.2218 69.448L35.2622 74.5175C35.0997 75.3764 34.349 75.9983 33.4747 75.9983H27.5468C26.6726 75.9983 25.9221 75.3764 25.7594 74.5175L24.0039 65.3994C23.9626 65.1849 23.8255 65.0022 23.6327 64.8992C16.5125 61.0982 11.6757 54.7702 10.8516 45.8878C10.8516 45.8879 10.8516 45.8881 10.8516 45.8883C10.832 46.1062 10.8147 46.3259 10.7996 46.547C10.7993 46.5513 10.7991 46.5556 10.7988 46.5601C10.7973 46.5819 10.796 46.6038 10.7946 46.6257C10.7815 46.8244 10.7701 47.0245 10.7606 47.2257C10.7568 47.3092 10.7541 47.3937 10.751 47.4777C10.745 47.6311 10.739 47.7845 10.7352 47.9395C10.7294 48.1909 10.7256 48.4436 10.7256 48.6987C10.7256 49.9913 10.8048 51.2354 10.9588 52.4312C11.1474 53.8963 11.4494 55.2878 11.8542 56.608C11.8762 56.6802 11.8993 56.7517 11.9221 56.8235C11.9783 57.0009 12.0368 57.1779 12.0972 57.354C12.1213 57.4243 12.1452 57.4948 12.1699 57.5646C12.3364 58.0345 12.5165 58.4949 12.71 58.9455C12.7305 58.9933 12.751 59.0413 12.7717 59.0887C12.867 59.3067 12.9651 59.5229 13.0667 59.7364C13.0835 59.7717 13.1011 59.8066 13.118 59.8418C13.2126 60.0382 13.3104 60.2331 13.4107 60.4268C13.428 60.46 13.4447 60.4935 13.462 60.5267C13.5712 60.7346 13.6838 60.94 13.799 61.1433C13.8241 61.1875 13.8495 61.2315 13.8747 61.2755C14.2477 61.9234 14.6512 62.5481 15.0835 63.1493C15.1248 63.2067 15.167 63.2637 15.2088 63.3206C15.3137 63.4635 15.4203 63.6053 15.5286 63.7458C15.5712 63.8011 15.6136 63.8565 15.6565 63.9113C15.803 64.0974 15.9512 64.282 16.1033 64.4633C16.1046 64.4649 16.1061 64.4666 16.1074 64.4683C16.2597 64.6497 16.4157 64.828 16.5736 65.0047C16.6214 65.0583 16.6702 65.1111 16.7185 65.1642C16.8364 65.2937 16.9559 65.4219 17.0768 65.5485C17.1256 65.5997 17.1741 65.6511 17.2234 65.7018C17.3889 65.8723 17.5564 66.0411 17.7274 66.2068C17.7277 66.2071 17.7282 66.2076 17.7286 66.2079C17.9192 66.3925 18.1131 66.5742 18.3103 66.7528C18.7046 67.1101 19.112 67.4552 19.5318 67.7884C19.9517 68.1216 20.384 68.4428 20.8284 68.7521C21.0505 68.9068 21.2756 69.0584 21.5037 69.207C21.7091 69.3408 21.9175 69.4714 22.1275 69.6004C22.1879 69.6376 22.2488 69.674 22.3096 69.7107C22.4683 69.8065 22.6278 69.9006 22.7882 69.9934C22.8518 70.0301 22.9152 70.0671 22.9791 70.1033C23.1951 70.2258 23.4124 70.3467 23.6327 70.4642C23.6809 70.4899 23.7255 70.5207 23.7662 70.5557C23.8027 70.5872 23.8348 70.6231 23.8641 70.6608C23.8729 70.6719 23.8804 70.6837 23.8884 70.6955C23.9085 70.7247 23.9264 70.7552 23.942 70.7873C23.9483 70.8001 23.9548 70.8125 23.9603 70.8256C23.9789 70.8703 23.9945 70.9163 24.0038 70.9646L25.7592 80.0826C25.7794 80.19 25.809 80.2936 25.8469 80.3929C25.8658 80.4425 25.8867 80.491 25.9096 80.5383C25.9325 80.5856 25.9574 80.6316 25.9841 80.6764C26.0109 80.7212 26.0394 80.7647 26.0698 80.8067C26.1002 80.8491 26.1324 80.8899 26.1663 80.9293C26.2046 80.9739 26.2455 81.0159 26.2878 81.0564C26.3012 81.0692 26.3153 81.0812 26.329 81.0936C26.3595 81.1212 26.3907 81.1477 26.4229 81.1731C26.4392 81.1859 26.4556 81.1984 26.4722 81.2107C26.5054 81.2349 26.5395 81.258 26.5742 81.2799C26.5898 81.2899 26.6052 81.3001 26.6211 81.3096C26.6714 81.3395 26.7231 81.3675 26.7764 81.3924C26.7772 81.3928 26.7779 81.3931 26.7787 81.3934C26.832 81.4183 26.8869 81.4399 26.9427 81.4595C26.9603 81.4657 26.9784 81.4708 26.9962 81.4764C27.0358 81.4891 27.0762 81.5007 27.117 81.5105C27.1376 81.5155 27.1584 81.5201 27.1791 81.5244C27.2205 81.5329 27.2623 81.5397 27.3045 81.5453C27.3235 81.548 27.3425 81.551 27.3616 81.553C27.4223 81.5591 27.4838 81.5631 27.5458 81.5633C27.5462 81.5633 27.5465 81.5633 27.5468 81.5633H33.4747C33.748 81.5633 34.009 81.5025 34.2439 81.3928C34.3378 81.349 34.4276 81.2972 34.5121 81.2384C34.5968 81.1796 34.6763 81.1137 34.7499 81.0415C34.8601 80.9333 34.9569 80.8106 35.0371 80.6763C35.144 80.4971 35.2214 80.2972 35.262 80.0824L36.2216 75.013V75.0128C36.2296 74.9707 36.2422 74.9307 36.2568 74.892C36.2611 74.8804 36.2663 74.8696 36.2712 74.8583C36.2835 74.8304 36.2971 74.8037 36.3126 74.7779C36.3187 74.7676 36.3245 74.7573 36.3312 74.7474C36.3536 74.714 36.3777 74.682 36.405 74.6531C36.4794 74.5744 36.5722 74.516 36.6738 74.4769C36.6836 74.4731 36.6932 74.4695 36.7032 74.4662C36.7276 74.458 36.752 74.4509 36.7774 74.4452C36.7967 74.4409 36.8163 74.4381 36.836 74.4353C36.8551 74.4326 36.8737 74.4293 36.8931 74.4283C36.9345 74.4258 36.9765 74.426 37.019 74.431C37.3375 74.468 37.6584 74.5007 37.9804 74.5316C38.0609 74.5394 38.1416 74.5468 38.2222 74.5541C38.544 74.5834 38.8669 74.6108 39.1916 74.6338C39.1933 74.634 39.1948 74.634 39.1964 74.6342C39.5211 74.6572 39.8479 74.6762 40.1754 74.6931C40.2579 74.6974 40.3404 74.7014 40.4231 74.7054C40.7521 74.7208 41.082 74.7343 41.4139 74.7436C41.9117 74.7575 42.4128 74.7645 42.9163 74.7645C43.5895 74.7645 44.2623 74.752 44.9342 74.7273C45.2782 74.7145 45.6218 74.6984 45.9652 74.6792C46.0002 74.6772 46.0349 74.6743 46.0699 74.6723C46.3817 74.6542 46.6933 74.6342 47.0042 74.6106C47.0115 74.6101 47.0187 74.6093 47.026 74.6088C47.708 74.5568 48.3876 74.4922 49.0641 74.4147C49.0663 74.4145 49.0683 74.4142 49.0703 74.4139C49.3797 74.3783 49.6884 74.3405 49.9965 74.2998C50.1454 74.2801 50.2937 74.2578 50.4421 74.2369C50.6054 74.2138 50.7693 74.1922 50.9321 74.1675C51.2623 74.1175 51.574 74.3033 51.6996 74.5993C51.7013 74.6031 51.7038 74.6064 51.7054 74.6104C51.723 74.6539 51.7366 74.6997 51.7458 74.7475L52.2506 77.4151L52.7555 80.0826C52.918 80.9416 53.6687 81.5634 54.543 81.5634H60.4708C60.4712 81.5634 60.4715 81.5634 60.4718 81.5634C60.5341 81.5634 60.5953 81.5595 60.6561 81.5531C60.6754 81.5512 60.6941 81.548 60.7132 81.5455C60.7554 81.5399 60.7972 81.5331 60.8386 81.5246C60.8593 81.5203 60.8801 81.5156 60.9005 81.5106C60.9413 81.5007 60.9817 81.4892 61.0213 81.4764C61.0391 81.4708 61.0572 81.4657 61.0748 81.4595C61.1309 81.4398 61.186 81.418 61.2395 81.3931C61.2398 81.3929 61.24 81.3928 61.2403 81.3928C61.2938 81.3677 61.3456 81.3395 61.3962 81.3096C61.4121 81.3001 61.4274 81.2899 61.4432 81.2799C61.478 81.2578 61.5121 81.2349 61.5453 81.2105C61.5619 81.1984 61.5782 81.1859 61.5943 81.1733C61.6266 81.1479 61.6578 81.1212 61.6886 81.0936C61.7023 81.0812 61.7163 81.0694 61.7297 81.0566C61.7721 81.0161 61.8129 80.9739 61.8513 80.9294C61.8662 80.912 61.8796 80.8932 61.8939 80.8751C61.9441 80.8121 61.9915 80.7465 62.0332 80.6766C62.0867 80.5871 62.1326 80.4923 62.1705 80.393C62.2083 80.2938 62.2377 80.1902 62.2581 80.0828L62.6577 77.9672L63.0729 75.7687L63.3334 74.39L64.0815 70.4285L64.1486 70.0732C64.2712 70.0123 64.3209 69.9877 64.4437 69.927C64.4484 69.9285 64.4512 69.9278 64.4537 69.9265C64.4559 69.9253 64.4575 69.9235 64.4597 69.9225C64.6019 69.8486 64.7409 69.7711 64.8815 69.6956C65.0286 69.6164 65.1773 69.539 65.3228 69.4582C65.4489 69.3879 65.5718 69.3144 65.6966 69.2428C65.8535 69.1529 66.0119 69.0642 66.1668 68.9721C66.2943 68.896 66.4185 68.8169 66.5445 68.7393C66.6931 68.648 66.8433 68.5582 66.9897 68.4649C67.1212 68.3811 67.249 68.2939 67.3787 68.2084C67.5163 68.1178 67.6558 68.0286 67.7916 67.9361C67.9197 67.8487 68.0444 67.7577 68.1708 67.6685C68.3042 67.5744 68.4394 67.4821 68.5709 67.3861C68.6934 67.2967 68.8121 67.2039 68.9328 67.1127C69.0644 67.0134 69.1979 66.9158 69.3272 66.8145C69.4444 66.7229 69.5576 66.6279 69.673 66.5346C69.8018 66.4306 69.9327 66.328 70.0592 66.2219C70.1757 66.1243 70.2881 66.0232 70.4027 65.9237C70.524 65.8185 70.6474 65.7149 70.7664 65.6076C70.8775 65.5077 70.9844 65.4043 71.0936 65.3027C71.2118 65.1926 71.3322 65.084 71.448 64.972C71.554 64.8695 71.6554 64.7638 71.7593 64.6597C71.874 64.5448 71.9906 64.4317 72.1028 64.3149C72.2049 64.2085 72.3027 64.0987 72.4026 63.9908C72.5119 63.8728 72.6233 63.7564 72.73 63.6365C72.8275 63.5271 72.9203 63.4142 73.0154 63.3032C73.12 63.1812 73.2267 63.0606 73.3288 62.9366C73.4216 62.8239 73.5096 62.7077 73.6003 62.5931C73.6999 62.4673 73.8016 62.3431 73.8984 62.2153C73.9874 62.0977 74.0716 61.9769 74.1582 61.8577C74.2515 61.7294 74.3472 61.6029 74.4376 61.4725C74.5223 61.3507 74.602 61.2255 74.6843 61.1022C74.7717 60.971 74.8615 60.8415 74.9461 60.7084C75.0512 60.5432 75.1474 60.3719 75.2524 60.2067C75.3149 60.1087 75.3731 60.0085 75.4316 59.908C75.7516 59.3568 76.2568 58.9372 76.8639 58.7428L76.8845 58.7361H76.8847L79.7886 57.8059L82.5768 56.9128C84.0198 56.4506 84.999 55.1089 84.999 53.5937V47.735C84.999 47.2174 84.8824 46.7212 84.6743 46.2721C84.6377 46.1917 84.5981 46.1137 84.5556 46.0373Z" fill="#305FA4"/>
<path d="M56.7253 25.7972C56.9056 24.9414 57.4976 24.2299 58.2928 23.8658C61.3481 22.4673 69.1325 19.102 71.1337 20.1502C73.6397 21.4629 72.327 35.6339 68.5083 37.7969C64.8198 39.8862 54.117 38.1759 56.7253 25.7972Z" fill="#305FA4"/>
<path d="M68.328 48.3743C66.0649 48.3743 64.2236 46.533 64.2236 44.2699C64.2236 43.5766 64.7856 43.0146 65.4789 43.0146C66.1721 43.0146 66.7341 43.5766 66.7341 44.2699C66.7341 45.1488 67.4491 45.8636 68.3278 45.8636C69.2067 45.8636 69.9218 45.1488 69.9218 44.2699C69.9218 43.5766 70.4837 43.0146 71.177 43.0146C71.8703 43.0146 72.4322 43.5766 72.4322 44.2699C72.4326 46.533 70.5913 48.3743 68.328 48.3743Z" fill="#305FA4"/>
<path d="M49.8765 33.0766C49.7445 33.0766 49.6104 33.0557 49.4784 33.0116C42.6326 30.7229 35.0921 30.7229 28.2463 33.0116C27.5889 33.2312 26.8775 32.8766 26.6579 32.219C26.4381 31.5614 26.7929 30.8502 27.4504 30.6304C34.8097 28.1701 42.9154 28.1701 50.2746 30.6304C50.9322 30.8502 51.287 31.5614 51.0672 32.219C50.8914 32.7446 50.4016 33.0766 49.8765 33.0766Z" fill="#305FA4"/>
<path d="M39 31C47.8366 31 55 24.0604 55 15.5C55 6.93959 47.8366 0 39 0C30.1634 0 23 6.93959 23 15.5C23 24.0604 30.1634 31 39 31Z" fill="#FFC957"/>
<path d="M69.8963 22C68.1551 22 63.9386 23.4114 58.8927 25.6836C58.6171 25.8076 58.4182 26.0418 58.3608 26.3096C57.6254 29.7424 58.0188 32.5054 59.4985 34.2993C59.6715 34.509 59.8613 34.7065 60.0656 34.8912C60.3037 35.1062 60.6874 34.9857 60.7665 34.6776C62.5201 27.8455 71.0309 22 69.8963 22Z" fill="#305FA4"/>
<path d="M50.5287 4L28 26.5288C34.2369 32.5545 44.1772 32.49 50.3336 26.3336C56.4901 20.1771 56.5544 10.2369 50.5287 4Z" fill="#FF901D"/>
<path d="M38.6324 22.8147C35.8708 22.7707 34 21.3 34 20.2245C34 19.6976 34.4676 18.9731 35.0244 18.9731C35.7594 18.9731 36.3606 20.5097 38.6324 20.6854V15.5268C36.628 14.8245 34.4008 14.0342 34.4008 11.2244C34.4008 8.45853 36.5166 7.36095 38.6324 7.14137V6.50484C38.6324 6.24148 38.8996 6 39.2784 6C39.6124 6 39.9466 6.24148 39.9466 6.50484V7.09758C41.461 7.14153 43.5992 7.60243 43.5992 8.67812C43.5992 9.09523 43.2874 9.92928 42.6192 9.92928C42.0848 9.92928 41.5056 9.22691 39.9466 9.11712V13.5731C41.8842 14.2755 44 15.2414 44 18.2268C44 20.9268 42.352 22.4195 39.9466 22.7488V23.4952C39.9466 23.7585 39.6126 24 39.2784 24C38.8998 24 38.6324 23.7585 38.6324 23.4952V22.8147ZM38.766 13.1562V9.16107C37.5188 9.31464 36.628 9.86343 36.628 11.005C36.628 12.2561 37.5856 12.7172 38.766 13.1562ZM39.8128 16.0098V20.6414C41.0154 20.4218 41.7726 19.7195 41.7726 18.4681C41.7726 17.0855 40.9042 16.4708 39.8128 16.0098Z" fill="#DD7219"/>
</svg>
