<svg width="73" height="82" viewBox="0 0 73 82" fill="none" xmlns="http://www.w3.org/2000/svg">
<path d="M11.8381 28.9671C11.4017 29.5981 10.9372 30.1707 10.468 30.7477C7.96569 33.8448 5.1833 37.4318 4.86651 48.5747C1.36421 49.6407 0 53.0003 0 55.414C0 56.7278 1.05575 57.7835 2.37416 57.7999C3.85688 57.7834 4.7765 56.7558 4.80469 55.4421C4.83287 54.3325 5.27394 53.0117 7.20703 53.0117C9.14011 53.0117 9.58118 54.3301 9.60937 55.4374C9.62347 56.7536 10.6933 57.8164 12.0117 57.8164C13.3396 57.8164 14.4141 56.7419 14.4141 55.414C14.4141 53.0275 13.0766 49.7197 9.66222 48.6143C9.92728 39.187 11.9978 36.5031 14.2076 33.7672C14.7472 33.0985 15.2821 32.4346 15.7888 31.7026C16.5443 30.6116 16.2722 29.1149 15.1788 28.3595C14.0997 27.604 12.5936 27.8715 11.8381 28.9671Z" fill="#5E79BC"/>
<path d="M67.2041 48.5751C66.8873 37.4323 64.105 33.8452 61.6027 30.7481C61.1334 30.1709 60.669 29.5985 60.2325 28.9675C59.4771 27.8719 57.9663 27.6068 56.8918 28.3599C55.7986 29.1153 55.5265 30.6122 56.2818 31.703C56.7885 32.4349 57.3235 33.0989 57.863 33.7676C60.073 36.5037 62.1434 39.1876 62.4084 48.6147C58.994 49.7201 57.6566 53.0279 57.6566 55.4144C57.6566 56.7282 58.7123 57.7839 60.0307 57.8003C61.4571 57.7838 62.4284 56.7562 62.4613 55.4425C62.4895 54.3327 62.9305 53.0119 64.8636 53.0119C66.7967 53.0119 67.2378 54.3327 67.266 55.4143C67.266 56.7421 68.3404 57.8166 69.6683 57.8166C70.9962 57.8166 72.0706 56.7421 72.0706 55.4143C72.0706 53.0007 70.7064 49.6411 67.2041 48.5751Z" fill="#305FA4"/>
<path d="M16.8164 33.793C12.8423 33.793 9.60938 30.5601 9.60938 26.5859C9.60938 22.6118 12.8423 19.3789 16.8164 19.3789C20.7905 19.3789 24.0234 22.6118 24.0234 26.5859C24.0234 30.5601 20.7905 33.793 16.8164 33.793Z" fill="#C7CFE1"/>
<path d="M55.2539 33.793C51.2798 33.793 48.0469 30.5601 48.0469 26.5859C48.0469 22.6118 51.2798 19.3789 55.2539 19.3789C59.228 19.3789 62.4609 22.6118 62.4609 26.5859C62.4609 30.5601 59.228 33.793 55.2539 33.793Z" fill="#C7CFE1"/>
<path d="M24.0234 57.8166C22.6956 57.8166 21.6211 56.7421 21.6211 55.4143V44.165C21.6211 42.8372 22.6956 41.7627 24.0234 41.7627C25.3513 41.7627 26.4258 42.8372 26.4258 44.165V55.4143C26.4258 56.7421 25.3513 57.8166 24.0234 57.8166Z" fill="#5E79BC"/>
<path d="M48.0469 57.8166C46.719 57.8166 45.6445 56.7421 45.6445 55.4143V44.165C45.6445 42.8372 46.719 41.7627 48.0469 41.7627C49.3747 41.7627 50.4492 42.8372 50.4492 44.165V55.4143C50.4492 56.7421 49.3747 57.8166 48.0469 57.8166Z" fill="#305FA4"/>
<path d="M31.2305 81.9996H16.8164C15.4886 81.9996 14.4141 80.9251 14.4141 79.5973C14.4141 59.6677 21.8416 53.9803 22.6909 53.4149C23.498 52.8754 24.5491 52.8754 25.3561 53.4149C26.2052 53.9803 33.6328 59.6677 33.6328 79.5973C33.6328 80.9251 32.5583 81.9996 31.2305 81.9996Z" fill="#C7CFE1"/>
<path d="M55.2539 81.9996H40.8398C39.512 81.9996 38.4375 80.9251 38.4375 79.5973C38.4375 59.6677 45.8651 53.9803 46.7144 53.4149C47.5214 52.8754 48.5725 52.8754 49.3795 53.4149C50.2287 53.9803 57.6562 59.6677 57.6562 79.5973C57.6562 80.9251 56.5818 81.9996 55.2539 81.9996Z" fill="#C7CFE1"/>
<path d="M52.8516 26.5859V36.1953C52.8516 45.4684 45.3082 53.0117 36.0352 53.0117C26.7621 53.0117 19.2188 45.4684 19.2188 36.1953V26.5859C19.2188 22.1655 20.9484 17.9375 24.0234 14.8145L36.0352 9.84961L48.0469 14.8145C51.1219 17.9375 52.8516 22.1655 52.8516 26.5859Z" fill="#F0F7FF"/>
<path d="M52.8516 36.1953V26.5859C52.8516 22.1655 51.1219 17.9375 48.0469 14.8145L36.0352 9.84961V53.0117C45.3082 53.0117 52.8516 45.4684 52.8516 36.1953Z" fill="#DFE7F4"/>
<path d="M36.0352 0C29.4047 0 24.0234 5.38125 24.0234 12.0117V14.8145H48.0469V12.0117C48.0469 5.38125 42.6656 0 36.0352 0Z" fill="#C7CFE1"/>
<path d="M48.0469 14.8145V12.0117C48.0469 5.38125 42.6656 0 36.0352 0V14.8145H48.0469Z" fill="#C7CFE1"/>
<path d="M40.8398 38.5977H31.2305C29.9026 38.5977 28.8281 37.5232 28.8281 36.1953V26.5859C28.8281 25.2581 29.9026 24.1836 31.2305 24.1836H40.8398C42.1677 24.1836 43.2422 25.2581 43.2422 26.5859V36.1953C43.2422 37.5232 42.1677 38.5977 40.8398 38.5977Z" fill="#5E79BC"/>
<path d="M36.0352 38.5977H40.8398C42.1677 38.5977 43.2422 37.5232 43.2422 36.1953V26.5859C43.2422 25.2581 42.1677 24.1836 40.8398 24.1836H36.0352V38.5977Z" fill="#305FA4"/>
</svg>
