<svg version="1.1" id="Layer_1" xmlns="http://www.w3.org/2000/svg" xmlns:xlink="http://www.w3.org/1999/xlink" x="0px" y="0px"
	 width="1440px" height="397px" viewBox="0 204 1440 397" enable-background="new 0 204 1440 397" xml:space="preserve">
<path fill="#305FA4" d="M345.365,597.667h2.817c5.891,0.427,49.085,0.683,119.513-79.019
	c68.292-77.737,168.938-22.527,180.207-15.957l3.244,1.707c31.573,14.201,66.646,18.74,100.798,13.045
	c34.15-5.693,65.852-21.367,91.104-45.045c78.879-70.485,127.452-71.254,128.049-71.254c44.813-3.203,89.514,7.463,128.054,30.551
	c70.68,42.666,113.02,41.813,114.81,41.813c21.17-0.019,41.66-7.433,57.93-20.959c16.28-13.525,27.311-32.313,31.2-53.109
	c15.53-71.34,140.34-192.938,141.62-194.133l-5.979-5.973c-5.211,5.035-128.051,124.586-144.44,198.399
	c-3.19,19.021-13.09,36.272-27.9,48.636c-14.81,12.362-33.56,19.022-52.85,18.776c-0.69,0-42.69,0.513-110.47-40.533
	c-39.78-24.191-86.141-35.321-132.57-31.828c-1.452,0-51.22,0-133.171,73.471c-24.029,22.559-54.213,37.487-86.731,42.895
	c-32.518,5.408-65.91,1.052-95.951-12.516L652,495.268c-11.781-6.912-117.976-65.108-190.878,17.75
	c-70.427,79.871-112.086,76.116-112.427,76.116H347.5c0,0-32.354,3.84-89.037-43.435C157.304,461.221-7.195,508.665-8.903,509.177
	l2.476,8.533c1.537-0.512,162.195-46.592,259.427,34.816C302.939,593.742,334.951,597.667,345.365,597.667z"/>
</svg>
