<?xml version="1.0" encoding="utf-8"?>
<!-- Generator: Adobe Illustrator 25.3.1, SVG Export Plug-In . SVG Version: 6.00 Build 0)  -->
<svg version="1.1" id="Camada_1" xmlns="http://www.w3.org/2000/svg" xmlns:xlink="http://www.w3.org/1999/xlink" x="0px" y="0px"
	 viewBox="0 0 185 185" style="enable-background:new 0 0 185 185;" xml:space="preserve">
<style type="text/css">
	.st0{fill:#4A6EAE;}
	.st1{clip-path:url(#SVGID_2_);}
	.st2{fill:#003D78;}
	.st3{fill-rule:evenodd;clip-rule:evenodd;fill:#3D843C;}
	.st4{fill-rule:evenodd;clip-rule:evenodd;fill:#BAC529;}
	.st5{fill-rule:evenodd;clip-rule:evenodd;fill:#2A190A;}
	.st6{fill:#001D7E;}
	.st7{clip-path:url(#SVGID_4_);}
	.st8{fill:#305FA4;}
	.st9{fill-rule:evenodd;clip-rule:evenodd;fill:#FFFFFF;}
</style>
<g>
	<g>
		
			<ellipse transform="matrix(0.7071 -0.7071 0.7071 0.7071 -38.285 92.4282)" class="st0" cx="92.4" cy="92.4" rx="61.9" ry="61.9"/>
		<g>
			<defs>
				
					<ellipse id="SVGID_1_" transform="matrix(0.7071 -0.7071 0.7071 0.7071 -38.285 92.4282)" cx="92.4" cy="92.4" rx="61.9" ry="61.9"/>
			</defs>
			<clipPath id="SVGID_2_">
				<use xlink:href="#SVGID_1_"  style="overflow:visible;"/>
			</clipPath>
			<g class="st1">
				<path class="st2" d="M91.2,157.2c36.3,0,65.7-29.4,65.7-65.7c0-12.1-3.2-23.3-8.9-33.1c-23.2,19.3-62.1,47.4-112.5,67.9
					C47.1,144.9,67.7,157.2,91.2,157.2z"/>
			</g>
		</g>
		<g>
			<path class="st3" d="M93,32.4c0.6,0.2,0.9,0.6,1.3,1.1c1,1.2,2,2.7,2.7,4.1c0.7,1.4,1.2,2.9,1,4.4c-0.1,1.8-0.7,3.6-2.3,4.6
				c-1.2,0.8-2.7,0.9-4.1,0.6c-1.3-0.4-2.4-1.2-3-2.4c-0.9-1.8-0.9-4-0.2-5.8C89.5,36.5,91.2,34.3,93,32.4z"/>
			<path class="st3" d="M113.2,43.2c2.1-1.9,4.6-3,7.2-3.9c0.3,0.6,0.5,1.2,0.6,1.9c0.4,1.9,0.6,3.8,0.4,5.8c-0.2,2.5-1.6,5-3.9,6
				c-2.7,1.2-6.3-0.9-6.6-3.8C110.6,46.9,111.5,44.6,113.2,43.2z"/>
			<path class="st3" d="M62,41.1c0.4,0,0.8,0,1.1,0.1c2.4,0.7,4.7,1.6,6.6,3.1c1.4,1,2.3,2.6,2.7,4.3c0.3,1.3,0.1,2.8-0.8,3.9
				c-1,1.3-2.7,2.1-4.4,2c-1-0.1-2.1-0.6-2.9-1.3c-1.3-1.1-2.2-2.7-2.5-4.4C61.4,46.2,61.6,43.6,62,41.1z"/>
			<path class="st3" d="M106.4,57c1.4-0.7,2.9-1.4,4.4-1.9c0.8,2.3,1.1,4.8,1,7.3c-0.1,1.7-0.7,3.4-1.8,4.7
				c-0.8,0.8-1.7,1.6-2.9,1.8c-1,0.3-2.1,0.1-3-0.3c-1.2-0.6-2.3-1.6-2.7-2.9c-0.5-1.5-0.2-3.3,0.6-4.7
				C102.8,59.3,104.7,58.1,106.4,57z"/>
			<path class="st3" d="M72.1,56.1c2.5,0.3,4.9,1.4,7,2.7c2.2,1.4,3.9,4.2,3.4,6.9c-0.3,1.7-1.7,2.9-3.1,3.5
				c-0.9,0.2-1.8,0.4-2.7,0.2c-1.6-0.3-2.8-1.4-3.7-2.7c-1-1.4-1.2-3-1.4-4.6C71.6,60.1,71.7,58,72.1,56.1z"/>
			<path class="st3" d="M136,59.6c1.8-0.2,3.6-0.1,5.4,0.2c0,0.6-0.1,1.2-0.2,1.8c-0.6,2.2-1.4,4.4-2.7,6.2c-1,1.3-2.4,2.3-3.9,2.8
				c-1.2,0.3-2.5,0.2-3.5-0.3c-1.4-0.8-2.4-2.3-2.7-3.8c-0.1-1.2,0.3-2.4,0.8-3.4c0.8-0.9,1.7-1.9,2.8-2.4
				C133.2,60,134.6,59.7,136,59.6z"/>
			<path class="st3" d="M41.1,62.9c1.6-0.8,3.5-1,5.3-1.2c1.6,0,3.3,0,4.8,0.7c1.5,0.7,2.9,1.9,3.3,3.5c0.4,1.2,0.1,2.5-0.5,3.6
				c-0.7,1.2-2,2.2-3.5,2.4c-2.1,0.2-4.3-0.8-5.7-2.4C43.1,67.6,41.9,65.3,41.1,62.9z"/>
			<path class="st3" d="M70.6,83.2c2.4-0.9,5-1.2,7.5-1c2.3,0.2,4.7,1.4,5.9,3.5c0.6,1,0.7,2.3,0.4,3.5c-0.5,1.4-1.5,2.8-3,3.3
				c-1.8,0.6-3.8,0.1-5.4-0.8c-1.7-1-2.8-2.8-3.9-4.5C71.6,85.9,70.9,84.6,70.6,83.2z"/>
			<path class="st3" d="M119.6,84.1c1.9-1,4.3-1,6.3-0.2c2.4,1,4.5,2.6,6.4,4.4c-0.6,1-1.6,1.6-2.5,2.3c-1.7,1.2-3.5,2.3-5.6,2.7
				c-1.9,0.3-4-0.2-5.5-1.4c-1.2-1.2-1.7-3-1.4-4.6C117.6,86,118.4,84.7,119.6,84.1z"/>
			<path class="st3" d="M39.7,83.9c1.5-0.9,3.4-1.4,5.2-1.2c1.4,0.2,2.9,0.8,3.8,2c1,1.3,1,3.1,0.5,4.6c-0.5,1.1-1.3,2-2.4,2.5
				c-1.6,0.7-3.4,0.8-5.1,0.2c-2.1-0.7-3.9-2-5.6-3.4c-0.4-0.3-0.7-0.7-1.1-1C36.2,86,37.9,84.8,39.7,83.9z"/>
			<path class="st3" d="M137.1,84.4c1.9-1.1,4.2-1.2,6.2-0.4c2.5,1,4.6,2.7,6.6,4.5c-0.5,1-1.5,1.6-2.3,2.2c-1.8,1.3-3.7,2.5-6,2.8
				c-1.9,0.2-4-0.2-5.4-1.5c-1-0.9-1.4-2.3-1.4-3.6C134.9,86.8,135.7,85.2,137.1,84.4z"/>
			<path class="st3" d="M55.8,85.7c1.6-0.9,3.3-1.6,5.1-1.6c1.6,0,3.3,0.5,4.4,1.7c0.9,0.9,1.2,2.3,1.2,3.5
				c-0.1,1.2-0.6,2.5-1.5,3.4c-0.8,0.7-1.8,1-2.8,1.4c-1,0-2.2,0.1-3.2-0.2c-2.5-0.7-4.7-2.3-6.7-3.9c-0.3-0.3-0.6-0.6-0.8-0.9
				C52.6,87.7,54.2,86.6,55.8,85.7z"/>
			<path class="st3" d="M130.4,108.2c0.8-0.8,2-1.4,3.2-1.4c1.5-0.1,2.9,0.5,4.1,1.3c1.7,1.4,2.9,3.3,3.8,5.3
				c0.5,1.1,0.9,2.2,1.2,3.3c-1.8,0.6-3.6,0.8-5.5,0.8c-1.9,0-3.8-0.2-5.4-1.2c-1-0.6-1.8-1.4-2.4-2.4c-0.4-0.8-0.6-1.7-0.6-2.6
				C129,110.1,129.6,109.1,130.4,108.2z"/>
			<path class="st3" d="M46.2,107c1.5-1,3.3-1.7,5.2-1.2c1.3,0.3,2.3,1.3,2.9,2.5c0.5,1.1,0.7,2.5,0.2,3.7c-0.5,1.4-1.7,2.4-3,3.1
				c-1.2,0.6-2.5,0.8-3.8,0.9c-2.1,0-4.1-0.2-6.1-0.8c0.1-1.1,0.6-2.2,1-3.2C43.4,110.2,44.5,108.3,46.2,107z"/>
			<path class="st3" d="M103.1,111.3c0.6-2.2,2.8-3.9,5.1-3.7c1.1,0.1,2.2,0.6,3.1,1.2c1.7,1.3,2.6,3.4,3,5.5
				c0.4,1.9,0.5,3.8,0.4,5.7c-1.4,0.4-2.8-0.2-4.1-0.4c-2.2-0.7-4.5-1.4-6-3.3C103.4,115,102.7,113.1,103.1,111.3z"/>
			<path class="st3" d="M77.2,109.2c1-0.2,2.2-0.2,3.2,0.1c0.9,0.4,1.8,1,2.4,1.9c0.7,0.9,1,2.1,0.9,3.2c-0.3,2.2-1.7,4.2-3.5,5.4
				c-2.2,1.3-4.5,2.3-7,2.7c-0.5-0.7-0.4-1.7-0.5-2.5c-0.1-1.9,0-3.7,0.4-5.4C73.5,112.1,75.1,110.1,77.2,109.2z"/>
			<path class="st3" d="M114.6,125.8c1-1,2.3-1.7,3.7-1.7c1.5,0,2.9,0.8,4,1.8c1.9,1.8,2.4,4.5,2.7,7c0.1,1.2,0.2,2.5,0.1,3.8
				c-1.6,0.1-3.1-0.3-4.7-0.7c-1.9-0.6-3.8-1.3-5.2-2.8c-1-1.2-1.8-2.6-1.8-4.1C113.4,127.8,113.8,126.7,114.6,125.8z"/>
			<path class="st3" d="M64.8,125.8c1-0.8,2.3-1.3,3.6-1.2c0.9,0.1,1.8,0.6,2.5,1c0.8,0.8,1.6,1.7,1.8,2.9c0.3,1.6-0.3,3.1-1.1,4.4
				c-1.4,2.1-3.8,3.2-6,4c-1.2,0.4-2.3,0.8-3.5,0.9c-0.4-1.9-0.4-3.8-0.4-5.6c0.2-1.2,0.3-2.4,0.8-3.5
				C62.9,127.7,63.7,126.7,64.8,125.8z"/>
			<path class="st4" d="M107,34.5c0.2-0.1,0.4-0.2,0.6-0.3c1,1.4,1.7,3,2.2,4.7c0.6,1.9,1,4,0.4,6c-0.5,1.6-1.5,3.1-3.1,3.8
				c-2.4,1-5.5-0.2-6.4-2.6c-0.8-2.1-0.3-4.6,1-6.4C103,37.6,105,35.9,107,34.5z"/>
			<path class="st4" d="M76.5,34.5c0.3,0.1,0.5,0.2,0.8,0.2c2.1,1.1,4.2,2.6,5.8,4.5c1.2,1.4,1.9,3.5,1.8,5.4
				c-0.1,1.3-0.8,2.5-1.8,3.3c-1.3,1-3.1,1.3-4.7,0.8c-2.6-1-3.9-4-3.8-6.7C74.7,39.4,75.4,36.8,76.5,34.5z"/>
			<path class="st4" d="M123.7,51.5c2.6-1.8,5.8-2.6,8.9-2.9c0.3,2.7,0,5.5-0.8,8c-0.7,2.1-2.3,3.7-4.3,4.5
				c-0.9,0.2-1.9,0.3-2.7,0.1c-2.1-0.6-3.8-2.7-3.7-5C121.2,54.4,122.4,52.7,123.7,51.5z"/>
			<path class="st4" d="M50.5,50c1.5-0.2,3.1-0.1,4.6,0.1c1.7,0.3,3.3,0.6,4.8,1.5c1,0.6,1.9,1.6,2.5,2.7c0.5,0.8,0.8,1.9,0.7,2.9
				c0,1.2-0.8,2.4-1.7,3.2c-1.1,1-2.7,1.5-4.2,1.2c-2.1-0.5-3.9-2-4.8-3.9C51.2,55.3,50.6,52.6,50.5,50z"/>
			<path class="st4" d="M91.8,50c0.2-0.1,0.3-0.2,0.5-0.2c0.8,0.8,1.5,1.7,2.2,2.6c1.2,1.7,2.3,3.6,2.6,5.6c0.2,2-0.2,4.3-1.8,5.7
				c-1,0.9-2.4,1.2-3.7,1.1c-1.3-0.2-2.6-0.8-3.4-1.9c-1.3-1.9-1.4-4.5-0.6-6.6C88.5,54,90.1,51.9,91.8,50z"/>
			<path class="st4" d="M117.7,67.6c2-0.8,4.1-1.3,6.2-1.4c0.1,0.2,0.2,0.4,0.2,0.6c0,3.1-0.2,6.3-1.8,9.1c-0.4,0.6-1,1.1-1.4,1.6
				c-0.7,0.5-1.5,1-2.3,1.3c-1.1,0.2-2.3,0.1-3.4-0.3c-1.4-0.8-2.6-2.2-2.7-3.9c-0.2-1.9,0.8-3.6,1.9-5
				C115.4,68.7,116.5,68,117.7,67.6z"/>
			<path class="st4" d="M58.7,70.9c1.2-0.4,2.4-0.6,3.6-0.8c1.6-0.2,3.2-0.3,4.8,0.1c1,0.2,1.9,0.7,2.8,1.3c1,0.8,1.9,1.9,2.1,3.2
				c0.3,1.5-0.2,3.1-1.2,4.3c-0.8,0.9-2.1,1.6-3.3,1.6c-1.9,0-3.8-0.7-5.2-2.1c-1.2-1.1-2-2.5-2.9-3.8c-0.5-1-1-2.1-1.4-3.1
				C58.1,71.2,58.4,71,58.7,70.9z"/>
			<path class="st4" d="M137.3,71.7c1.9-0.6,3.8-0.4,5.6,0c1.6,0.4,3.1,0.7,4.5,1.5c-0.2,0.7-0.6,1.4-0.9,2c-1.2,2.1-2.7,4-4.6,5.4
				c-1.4,0.9-3.2,1.4-4.9,1.1c-1-0.1-2.1-0.7-2.8-1.4c-1.2-1.6-1.7-3.9-0.7-5.7C134.4,73.1,135.8,72.2,137.3,71.7z"/>
			<path class="st4" d="M98.1,73.8c1.4-0.5,2.9-1.1,4.5-1.2c0.4,1.7,0.4,3.5,0.3,5.2c-0.1,2.3-0.7,4.8-2.5,6.4c-1,1-2.3,1.7-3.7,1.7
				c-2.1,0-3.9-1.5-4.6-3.4c-0.6-1.9,0.2-4,1.3-5.6C94.6,75.4,96.4,74.5,98.1,73.8z"/>
			<path class="st4" d="M41.4,72.6c1.9-0.5,4-0.7,5.9,0.1c1.6,0.6,3.1,1.9,3.4,3.7c0.1,0.9,0,1.8-0.3,2.7c-0.4,1-1.2,1.9-2.2,2.4
				c-1.6,0.8-3.5,0.6-5.2,0c-1.8-0.9-3.3-2.4-4.5-3.9c-0.7-1-1.4-1.9-2-2.9C38,73.6,39.7,73.1,41.4,72.6z"/>
			<path class="st4" d="M100.1,93.4c1.2-0.8,2.7-0.9,3.9-0.5c1.7,0.5,3.2,1.7,4.1,3.2c1.2,2,1.9,4.2,2.4,6.5c0,0.4,0.1,0.7,0.2,1.1
				c-1.7,0.4-3.3,0.3-5,0.2c-2.1-0.2-4.2-0.6-5.8-2.1c-0.4-0.4-0.8-0.8-1.2-1.2c-0.7-0.9-1.1-2-1.1-3.2
				C97.6,95.9,98.7,94.3,100.1,93.4z"/>
			<path class="st4" d="M41.7,95.8c1.4-0.9,3.3-1.3,5-1c1.3,0.2,2.5,1,3.2,2.2c0.4,0.8,0.6,1.7,0.6,2.6c0,1.4-0.7,2.7-1.7,3.5
				c-1.5,1.2-3.5,1.7-5.4,1.4c-2.5-0.3-4.9-1.3-7.1-2.5c0.3-0.9,0.9-1.7,1.5-2.4C38.9,98.1,40.2,96.7,41.7,95.8z"/>
			<path class="st4" d="M136.9,96.3c0.6,0,1.3-0.1,1.9-0.1c1.1,0.2,2.3,0.4,3.3,1.1c1.9,1.2,3.3,3,4.6,4.9c0.4,0.6,0.8,1.3,1.1,2
				c-1.5,0.9-3.2,1.5-5,1.9c-2.1,0.5-4.3,0.7-6.2-0.2c-1.7-0.7-3.1-2.1-3.4-3.9C132.8,99.5,134.4,96.8,136.9,96.3z"/>
			<path class="st4" d="M112.9,102.8c-0.3-2.5,1.6-4.8,3.9-5.3c1.3-0.3,2.7,0,3.8,0.7c1.5,0.9,2.6,2.3,3.2,3.9
				c0.8,1.9,1.2,3.8,1.4,5.8c0,0.4,0,0.9,0,1.4c-2.2,0.2-4.4-0.2-6.5-0.8c-1.1-0.4-2.3-0.8-3.2-1.6
				C114.2,106,113.2,104.5,112.9,102.8z"/>
			<path class="st4" d="M65.9,98.9c1.2-0.2,2.4,0,3.4,0.7c1.4,1,2.3,2.7,2.3,4.4c0,0.2-0.1,0.5-0.1,0.7c-0.4,1.9-2,3.3-3.7,4.2
				c-2.1,0.8-4.3,0.9-6.6,0.8c-1.1-0.1-2.2-0.2-3.3-0.5c0.1-1.2,0.5-2.3,1-3.4c0.5-1.3,1.2-2.5,2-3.7
				C62.1,100.4,63.9,99.2,65.9,98.9z"/>
			<path class="st4" d="M122.4,119.8c0.8-1.7,2.6-3,4.6-3c1.9,0.1,3.7,1.2,4.9,2.7c1.2,1.8,1.9,3.9,2.2,6c0.2,1.1,0.4,2.1,0.3,3.2
				c-1.9,0.2-3.7-0.1-5.5-0.4c-1.9-0.5-3.8-1.2-5.2-2.7C122.4,124.2,121.5,121.8,122.4,119.8z"/>
			<path class="st4" d="M52.5,117.6c1.3-1.4,3-2.4,5-2.3c1.5,0.1,2.8,1.1,3.6,2.4c0.4,0.8,0.7,1.7,0.7,2.6c-0.1,1.1-0.6,2.1-1.2,3
				c-1.2,1.7-3.1,2.6-5,3c-1.8,0.4-3.7,0.7-5.6,0.6c0-1.2,0.1-2.4,0.3-3.6C50.6,121.3,51.2,119.2,52.5,117.6z"/>
			<path class="st4" d="M102.8,133.4c0.5-2.8,3.7-4.5,6.4-3.6c1.5,0.5,2.7,1.9,3.4,3.3c1.1,2.3,0.8,5,0.4,7.5
				c-0.2,1-0.5,2.1-0.8,3.1c-2.3-0.6-4.4-1.9-6.3-3.3C103.8,138.7,102.5,136.1,102.8,133.4z"/>
			<path class="st4" d="M77.5,130.4c2.4-0.8,5.3,0.6,6.2,3c0.7,2.4,0,5-1.7,6.8c-1.7,1.9-3.8,3.5-6.1,4.5c-0.8-1.4-1.4-3.1-1.8-4.7
				c-0.5-2.3-0.7-4.8,0.5-6.9C75.2,132,76.2,130.9,77.5,130.4z"/>
			<path class="st5" d="M87.1,68c0.4-0.2,0.9,0,1,0.5c0.1,0.9,0,1.9,0,2.9c0.1,4.2,1.1,8.3,2.5,12.2c0.6,1.8,1.2,3.5,1.9,5.2
				c3.7,0.4,7.4-0.6,10.7-2.3c2.9-1.5,5.3-3.7,7.2-6.3c-0.3,1.7-0.9,3.2-1.7,4.7c-0.2,0.3-0.4,0.6-0.6,0.8c-0.2,0.2-0.4,0.5-0.6,0.7
				c-2.3,2.8-5.8,4.3-9.2,5.4c-0.7,0.2-1.3,0.3-2,0.5c-0.7,0.2-1.4,0.3-2.1,0.6c0.1,0.2,0.2,0.4,0.2,0.6c1,2.1,1.7,4.4,2.4,6.7
				c0.8,3.7,1.4,7.4,1.8,11.1c0.3,2.9,0.5,5.8,0.6,8.6c0,0.7,0,1.3,0,2c0,3.8,0.1,7.6-0.1,11.4c-0.1,2.3-0.2,4.7-0.5,7
				c-0.4,3.4-1.9,10.9-3.2,14c-3,0.1-5.3,0.1-8.2-0.1c0.7-3.1,2-9.9,2.2-13.1c0.3-2.6,0.5-5.2,0.7-7.8c0.2-2.8,0.4-5.7,0.5-8.5
				c0.1-1.6,0.2-3.1,0.2-4.7c0-1.8,0.1-3.7,0-5.5c0-2.3,0.1-4.5-0.2-6.8c-0.1-1.1-0.3-2.1-0.6-3.2c-0.5-0.9-1.3-1.6-2.2-2.3
				c-1.7-1.2-3.6-2.2-5.5-3c-3-1.2-6.1-2.1-9.3-2.8c-3.9-0.9-8-1.4-12-1.9c0.4-0.1,0.8-0.2,1.2-0.3c1,0,2-0.1,3-0.2
				c4.1-0.2,8.2-0.1,12.3,0.3c2.7,0.2,5.3,0.7,7.8,1.4c1.1,0.3,2.2,0.7,3.3,0.9c-0.1-1.2-0.4-2.3-0.6-3.4c-0.3-1.3-0.5-2.7-0.8-4
				c-0.6-3.2-1.1-6.4-1.6-9.6c-0.3-2.3-0.6-4.6-0.7-7c0-0.6,0-1.2,0.1-1.8C85.6,69.8,86,68.6,87.1,68z"/>
		</g>
	</g>
	<g>
		<g>
			<path class="st0" d="M92.4,6.4c-47.5,0-86,38.5-86,86s38.5,86,86,86s86-38.5,86-86S140,6.4,92.4,6.4z M151.8,117.5
				c-3.2,7.7-7.9,14.6-13.8,20.5c-5.9,5.9-12.8,10.6-20.5,13.8c-7.9,3.4-16.4,5.1-25.1,5.1c-8.7,0-17.1-1.7-25.1-5.1
				c-7.7-3.2-14.6-7.9-20.5-13.8c-5.9-5.9-10.6-12.8-13.8-20.5c-3.4-7.9-5.1-16.4-5.1-25.1s1.7-17.1,5.1-25.1
				c3.2-7.7,7.9-14.6,13.8-20.5c5.9-5.9,12.8-10.6,20.5-13.8c7.9-3.4,16.4-5.1,25.1-5.1c8.7,0,17.1,1.7,25.1,5.1
				c7.7,3.2,14.6,7.9,20.5,13.8c5.9,5.9,10.6,12.8,13.8,20.5c3.4,7.9,5.1,16.4,5.1,25.1S155.1,109.6,151.8,117.5z"/>
		</g>
		<g>
			<path class="st6" d="M92.4,185c-12.5,0-24.6-2.4-36-7.3c-11-4.7-20.9-11.3-29.4-19.8c-8.5-8.5-15.2-18.4-19.8-29.4
				c-4.8-11.4-7.3-23.5-7.3-36s2.4-24.6,7.3-36C11.8,45.4,18.5,35.5,27,27c8.5-8.5,18.4-15.2,29.4-19.8c11.4-4.8,23.5-7.3,36-7.3
				c12.5,0,24.6,2.4,36,7.3c11,4.7,20.9,11.3,29.4,19.8c8.5,8.5,15.2,18.4,19.8,29.4c4.8,11.4,7.3,23.5,7.3,36s-2.4,24.6-7.3,36
				c-4.7,11-11.3,20.9-19.8,29.4c-8.5,8.5-18.4,15.2-29.4,19.8C117,182.6,104.9,185,92.4,185z M92.4,2.4c-49.6,0-90,40.4-90,90
				s40.4,90,90,90s90-40.4,90-90S142.1,2.4,92.4,2.4z"/>
		</g>
		<g>
			<defs>
				<path id="SVGID_3_" d="M92.4,6.4c-47.5,0-86,38.5-86,86s38.5,86,86,86s86-38.5,86-86S140,6.4,92.4,6.4z M151.8,117.5
					c-3.2,7.7-7.9,14.6-13.8,20.5c-5.9,5.9-12.8,10.6-20.5,13.8c-7.9,3.4-16.4,5.1-25.1,5.1c-8.7,0-17.1-1.7-25.1-5.1
					c-7.7-3.2-14.6-7.9-20.5-13.8c-5.9-5.9-10.6-12.8-13.8-20.5c-3.4-7.9-5.1-16.4-5.1-25.1s1.7-17.1,5.1-25.1
					c3.2-7.7,7.9-14.6,13.8-20.5c5.9-5.9,12.8-10.6,20.5-13.8c7.9-3.4,16.4-5.1,25.1-5.1c8.7,0,17.1,1.7,25.1,5.1
					c7.7,3.2,14.6,7.9,20.5,13.8c5.9,5.9,10.6,12.8,13.8,20.5c3.4,7.9,5.1,16.4,5.1,25.1S155.1,109.6,151.8,117.5z"/>
			</defs>
			<clipPath id="SVGID_4_">
				<use xlink:href="#SVGID_3_"  style="overflow:visible;"/>
			</clipPath>
			<g class="st7">
				<path class="st8" d="M167.1,40.6c0,0-7.9,8.4-22.5,20.5c5.3,9.1,8.3,19.7,8.3,30.9c0,34-27.5,61.5-61.6,61.5
					c-22,0-41.3-11.6-52.1-28.9c-9,3.7-18.4,7-28.1,10.1c0,0,24.3,47.5,80.3,48.3C141.5,183.7,217.6,126.2,167.1,40.6z"/>
			</g>
		</g>
		<g>
			<path class="st9" d="M30.2,54l2.6-2.4c0.7,0.6,1.2,1.4,1.5,2.1c0.3,0.8,0.4,1.5,0.3,2.3c-0.1,0.8-0.4,1.7-1,2.6
				c-0.6,1.2-1.4,2.1-2.1,2.6c-0.8,0.5-1.8,0.8-2.9,0.9c-1.1,0-2.4-0.3-3.7-1.1c-1.8-1-2.9-2.3-3.3-3.8c-0.4-1.5-0.1-3.1,0.9-4.9
				c0.8-1.4,1.7-2.3,2.7-2.7c1-0.4,2.2-0.6,3.5-0.3l-1,3.3c-0.4-0.1-0.7-0.1-0.9-0.1c-0.4,0-0.7,0.2-1,0.4c-0.3,0.2-0.6,0.4-0.7,0.8
				c-0.4,0.7-0.5,1.5-0.1,2.3c0.3,0.6,0.9,1.1,1.9,1.7c1.2,0.7,2.1,1,2.7,0.8c0.6-0.1,1.2-0.5,1.5-1.2c0.4-0.6,0.5-1.2,0.3-1.7
				C31.1,55.1,30.8,54.5,30.2,54z M30.2,54L30.2,54L30.2,54z M32,48.7c1.1,1,2.2,1.5,3.3,1.7c1.1,0.2,2.1,0.1,3.1-0.3
				c1-0.4,1.9-1.2,2.8-2.2c0.9-1,1.4-2.1,1.7-3.1c0.2-1,0.2-2.1-0.2-3.1c-0.4-1-1.1-1.9-2.2-2.9c-1.5-1.3-3.1-1.9-4.6-1.8
				c-1.6,0.1-3,1-4.4,2.5c-1.3,1.5-1.9,3.1-1.8,4.7C29.7,45.9,30.5,47.3,32,48.7z M32,48.7L32,48.7L32,48.7z M34.6,45.8
				c-1-0.8-1.5-1.6-1.6-2.3c-0.1-0.7,0.1-1.4,0.6-2c0.5-0.6,1.2-0.9,1.9-0.9c0.7,0,1.5,0.4,2.4,1.2c1.1,0.9,1.7,1.7,1.8,2.4
				c0.1,0.7-0.1,1.4-0.6,2c-0.6,0.6-1.2,0.9-1.9,0.9C36.3,47,35.5,46.6,34.6,45.8z M34.6,45.8L34.6,45.8L34.6,45.8z M38.6,32.2
				l3-2.4l5.8,7.4l4.8-3.7l1.9,2.4l-7.8,6.1L38.6,32.2z M38.6,32.2L38.6,32.2L38.6,32.2z M49,24.5l6.2,10.8l9.1-5.2l-1.4-2.5
				l-5.8,3.3l-1.2-2.1l5.2-3l-1.2-2.2l-5.2,2.9l-1-1.7l5.6-3.2l-1.3-2.3L49,24.5z M49,24.5L49,24.5L49,24.5z M51.6,19.2l2.6-1.5
				l-1.1,3.6l-1.4,0.8L51.6,19.2z M51.6,19.2L51.6,19.2L51.6,19.2z M70.2,23.2l-0.8-2.5l5.6-1.9l1.7,5c-0.8,1.1-1.6,1.9-2.3,2.5
				c-0.8,0.5-1.7,1-2.8,1.4c-1.4,0.5-2.6,0.6-3.7,0.4c-1-0.2-2-0.6-2.8-1.4c-0.8-0.8-1.4-1.8-1.8-3c-0.4-1.3-0.6-2.5-0.4-3.6
				c0.2-1.1,0.8-2.1,1.6-2.9c0.6-0.6,1.7-1.2,3-1.7c1.3-0.4,2.3-0.6,3.1-0.6c0.7,0,1.4,0.2,2,0.5c0.6,0.4,1.1,0.9,1.6,1.6L71,18.7
				c-0.3-0.4-0.7-0.6-1.1-0.8c-0.4-0.1-0.9-0.1-1.4,0.1c-0.8,0.3-1.3,0.8-1.7,1.5c-0.3,0.7-0.2,1.7,0.2,2.9c0.4,1.3,1,2.1,1.7,2.5
				c0.6,0.4,1.4,0.4,2.3,0.1c0.4-0.1,0.8-0.3,1.1-0.5c0.3-0.3,0.7-0.6,1-1l-0.4-1.1L70.2,23.2z M70.2,23.2L70.2,23.2L70.2,23.2z
				 M77,13.2l3.8-0.7L83,24.7l-3.8,0.7L77,13.2z M77,13.2L77,13.2L77,13.2z M84.7,18.2c-0.1-2,0.4-3.6,1.6-4.8
				c1.1-1.1,2.7-1.7,4.7-1.8c2.1,0,3.7,0.5,4.8,1.6c1.2,1.1,1.8,2.6,1.8,4.6c0,1.4-0.2,2.7-0.6,3.6c-0.5,0.9-1.2,1.7-2.1,2.2
				c-0.9,0.6-2.1,0.8-3.5,0.9c-1.4,0-2.6-0.2-3.5-0.6c-0.9-0.4-1.7-1.1-2.3-2.1C85,20.9,84.7,19.7,84.7,18.2z M84.7,18.2L84.7,18.2
				L84.7,18.2z M88.5,18.1c0,1.2,0.3,2.2,0.8,2.7c0.5,0.5,1.1,0.8,1.9,0.8c0.8,0,1.4-0.3,1.9-0.8c0.4-0.6,0.6-1.5,0.6-2.9
				c0-1.2-0.3-2.1-0.8-2.6c-0.5-0.5-1.1-0.8-1.9-0.8c-0.8,0-1.4,0.3-1.9,0.9C88.7,16,88.5,16.9,88.5,18.1z M88.5,18.1L88.5,18.1
				L88.5,18.1z M112.9,25.3l-4.2-1.2l-1.1,1.8l-3.8-1l7.9-10.7l4.1,1.2l1.1,13.2l-3.9-1.1V25.3z M112.9,25.3L112.9,25.3L112.9,25.3z
				 M112.9,22.4l-0.1-4.7l-2.5,3.9L112.9,22.4z M112.9,22.4L112.9,22.4L112.9,22.4z M114.5,11.5l2.9,0.8L114,14l-1.6-0.4L114.5,11.5
				z M114.5,11.5L114.5,11.5L114.5,11.5z M122.5,17.5l3.5,1.6l-3.9,8.5l5.5,2.5l-1.2,2.8l-9-4.1L122.5,17.5z M122.5,17.5L122.5,17.5
				L122.5,17.5z M134.7,36.5l-0.7,2l3.3,2.3l3.4-12.8l-3.5-2.5l-11,7.4l3.2,2.3l1.7-1.3L134.7,36.5z M134.7,36.5L134.7,36.5
				L134.7,36.5z M135.6,33.8l-2.3-1.6l3.7-2.9L135.6,33.8z M135.6,33.8L135.6,33.8L135.6,33.8z M146.8,32.8l3.5,3.7l-4.1,6.6
				l6.8-3.8l3.5,3.7l-9,8.6l-2.1-2.3l6.8-6.6l-8.5,4.8l-2-2.1l5.2-8.3l-6.8,6.5l-2.2-2.3L146.8,32.8z M146.8,32.8L146.8,32.8
				L146.8,32.8z M153.6,49.7c-1.2,0.8-2.2,1.6-2.7,2.6c-0.6,1-0.8,2-0.8,3c0.1,1,0.5,2.2,1.2,3.4c0.7,1.2,1.5,2.1,2.4,2.6
				c0.9,0.5,1.9,0.8,2.9,0.8c1-0.1,2.2-0.4,3.5-1.2c1.7-1,2.8-2.3,3.2-3.8c0.4-1.5,0.1-3.2-1-5c-1-1.7-2.3-2.8-3.8-3.3
				C157,48.4,155.4,48.7,153.6,49.7z M153.6,49.7L153.6,49.7L153.6,49.7z M155.5,53c1.1-0.6,2-0.9,2.7-0.7c0.7,0.1,1.2,0.5,1.7,1.2
				c0.4,0.7,0.5,1.4,0.2,2.1c-0.2,0.7-0.8,1.3-1.9,1.9c-1.2,0.7-2.2,1-2.9,0.8c-0.7-0.1-1.2-0.6-1.7-1.3c-0.4-0.7-0.5-1.4-0.2-2.1
				C153.8,54.3,154.4,53.6,155.5,53z"/>
		</g>
		<g>
			<path class="st9" d="M49.3,145.7l3.3,2.3l-2.9,8.9l7.4-5.7l3.2,2.3l-11,7.4l-3.4-2.4L49.3,145.7z M49.3,145.7L49.3,145.7
				L49.3,145.7z M62.4,165.4l-0.3,2.1l3.7,1.7l0.8-13.2l-3.8-1.7l-9.4,9.5l3.6,1.6l1.4-1.6L62.4,165.4z M62.4,165.4L62.4,165.4
				L62.4,165.4z M62.8,162.5l-2.5-1.1l3.1-3.5L62.8,162.5z M62.8,162.5L62.8,162.5L62.8,162.5z M71,157.7l3.7,0.8l-2.1,9.2l5.9,1.4
				l-0.7,3l-9.6-2.3L71,157.7z M71,157.7L71,157.7L71,157.7z M82.2,160.1l3.9,0.4l-1.5,12.4l-3.8-0.4L82.2,160.1z M82.2,160.1
				L82.2,160.1L82.2,160.1z M88.1,161l3.6-0.1l4.9,6.7l-0.2-6.9l3.6-0.1l0.4,12.4l-3.6,0.1l-4.9-6.7l0.2,6.8l-3.6,0.1L88.1,161z
				 M88.1,161L88.1,161L88.1,161z M101.3,160.6l3.7-0.9l1,4.2l4.1-0.9l-1-4.2l3.7-0.9l2.8,12.1l-3.8,0.9l-1.1-4.9l-4.1,0.9l1.2,4.9
				l-3.7,0.9L101.3,160.6z M101.3,160.6L101.3,160.6L101.3,160.6z M116.4,163.5c0.6,1.3,1.3,2.3,2.3,2.9c0.9,0.6,1.9,1,2.9,1
				c1,0,2.1-0.2,3.4-0.8c1.2-0.6,2.2-1.3,2.8-2.1c0.6-0.8,1-1.8,1-2.9c0.1-1-0.2-2.3-0.8-3.6c-0.8-1.8-2-3-3.4-3.5
				c-1.5-0.6-3.2-0.4-5.1,0.4c-1.9,0.8-3,2-3.6,3.5C115.4,160,115.5,161.7,116.4,163.5z M116.4,163.5L116.4,163.5L116.4,163.5z
				 M119.9,161.9c-0.5-1.2-0.7-2.1-0.5-2.8c0.2-0.7,0.6-1.2,1.4-1.5c0.7-0.3,1.4-0.4,2.1,0c0.6,0.3,1.2,1,1.7,2.1
				c0.6,1.2,0.8,2.2,0.6,2.9c-0.2,0.7-0.6,1.2-1.4,1.5c-0.7,0.3-1.4,0.3-2.1,0C121,163.8,120.3,163.1,119.9,161.9z M119.9,161.9
				L119.9,161.9L119.9,161.9z M130.5,159.5l2.8-2.3c0.4,0.4,0.8,0.7,1.2,0.8c0.6,0.2,1.2,0,1.8-0.4c0.4-0.3,0.7-0.6,0.8-1
				c0.1-0.4,0-0.7-0.2-1c-0.2-0.3-0.5-0.4-0.8-0.5c-0.4,0-1,0.2-2.1,0.6c-1.6,0.7-2.8,1-3.8,0.9c-1-0.1-1.7-0.5-2.3-1.3
				c-0.4-0.5-0.6-1.1-0.6-1.8c0-0.7,0.2-1.4,0.6-2.1c0.4-0.7,1.1-1.4,2.2-2.2c1.3-1,2.5-1.4,3.5-1.4c1,0,2,0.4,2.9,1.4l-2.8,2.3
				c-0.4-0.4-0.8-0.6-1.2-0.6c-0.4,0-0.8,0.1-1.3,0.4c-0.4,0.2-0.6,0.5-0.6,0.8c-0.1,0.3,0,0.5,0.1,0.8c0.1,0.2,0.3,0.2,0.5,0.3
				c0.2,0,0.7-0.1,1.3-0.4c1.6-0.7,2.8-1.1,3.5-1.2c0.8-0.1,1.5-0.1,2.1,0.2c0.6,0.2,1,0.6,1.4,1.2c0.5,0.6,0.7,1.4,0.8,2.2
				c0,0.8-0.2,1.6-0.6,2.3c-0.4,0.8-1.2,1.5-2.1,2.2c-1.7,1.2-3.1,1.7-4.3,1.6C132.3,161,131.3,160.5,130.5,159.5z"/>
		</g>
		<g>
			<g>
				<path class="st9" d="M18.1,89c1.9,0,3.4,1.5,3.4,3.5c0,1.9-1.5,3.4-3.4,3.4c-1.9,0-3.4-1.6-3.4-3.4C14.6,90.5,16.2,89,18.1,89z"
					/>
			</g>
			<g>
				<path class="st9" d="M166.8,89c1.9,0,3.5,1.5,3.5,3.5c0,1.9-1.6,3.4-3.5,3.4c-1.9,0-3.4-1.6-3.4-3.4
					C163.3,90.5,164.9,89,166.8,89z"/>
			</g>
		</g>
	</g>
</g>
</svg>
