<svg width="604" height="321" viewBox="0 0 604 321" fill="none" xmlns="http://www.w3.org/2000/svg">
<path d="M466.454 306.909C462.139 312.519 457.064 316.678 458.169 318.56C458.169 318.56 460.465 320.234 466.816 320.234C477.69 320.234 488.391 319.405 486.631 318.301C484.197 316.782 477.155 316.212 470.424 313.899C468.767 313.33 474.066 310.102 472.616 309.567C469.612 308.48 467.282 307.548 466.454 306.909Z" fill="#002E4F"/>
<path d="M578.545 318.249C578.545 318.249 579.977 320.251 585.466 320.251C594.873 320.251 604.676 318.974 603.157 318.025C601.052 316.713 584.568 313.261 584.568 313.261L580.875 308.67L574.609 312.139L578.545 318.249Z" fill="#002E4F"/>
<path d="M548.748 179.6C542 179.6 536.891 178.254 536.476 178.133C532.955 177.166 530.884 173.542 531.851 170.02C532.8 166.499 536.425 164.428 539.946 165.378C540.17 165.447 555.031 169.244 563.695 161.805C569.495 156.817 571.704 147.444 570.254 133.913L569.788 129.598L583.148 122.02C586.323 120.225 590.362 121.33 592.157 124.506C593.952 127.682 592.848 131.703 589.672 133.516L583.769 136.864C584.701 152.795 580.835 164.566 572.239 171.885C564.973 178.081 555.928 179.6 548.748 179.6Z" fill="#F5D4C1"/>
<path d="M571.606 142.939C571.347 152.553 568.81 159.492 563.96 163.651C554.45 171.815 538.156 167.656 537.88 167.586C534.014 166.551 530.044 168.829 528.991 172.678C527.938 176.544 530.217 180.531 534.083 181.584C534.549 181.705 540.158 184.501 547.563 184.242C575.662 183.241 592.629 158.991 592.94 144.872L571.606 142.939Z" fill="#E1F3F6"/>
<path d="M532.959 109.334C530.439 108.213 527.971 106.987 525.537 105.693C502.253 118.948 472.497 135.949 471.91 136.536C471.91 136.536 486.702 160.079 487.651 161.028C488.255 161.632 524.933 135.328 551.306 116.273C545.196 113.908 538.931 111.993 532.959 109.334Z" fill="#658CC5"/>
<path d="M533.337 108.644C539.43 111.337 545.851 113.287 552.047 115.721C566.58 105.227 577.799 97.0626 577.799 97.0626L552.979 90.0896C552.979 90.0896 541.035 96.8728 526.312 105.244C528.625 106.452 530.955 107.591 533.337 108.644Z" fill="#658CC5"/>
<path d="M490.551 77.7315L505.17 117.309L533.735 127.785L497.541 61.6797L490.551 77.7315Z" fill="#006091"/>
<path d="M535.286 137.502H514.125L532.956 170.417L561.676 182.534L535.286 137.502Z" fill="#006091"/>
<path d="M561.682 182.534L544.836 153.779L472.741 196.049L458.57 171.867L467.476 28.0917L499.874 9.10571L558.195 108.575L577.82 97.0799L594.13 124.92L574.506 136.415L591.351 165.153L561.682 182.534ZM496.283 70.9655L494.454 72.0356L489.5 148.825L528.508 125.956L496.283 70.9655Z" fill="#305FA4"/>
<path d="M434.594 165.291L458.568 171.867L472.738 196.049L447.418 189.645L434.594 165.291Z" fill="#3A6AB0"/>
<path d="M434.594 165.291L458.568 171.867L467.474 28.0915L445.485 22.8271L434.594 165.291Z" fill="#4376C0"/>
<path d="M445.484 22.8272L467.474 28.0915L499.871 9.08822L477.588 2.61572L445.484 22.8272Z" fill="#7095CB"/>
<path d="M493.69 222.577C493.69 222.577 497.211 260.566 497.211 273.874C497.211 273.874 469.543 295.432 462.777 306.72C465.694 308.929 471.442 311.88 475.205 311.759C493.673 294.137 513.919 281.554 513.919 281.554C513.919 281.554 522.652 256.2 525.379 234.728L493.69 222.577Z" fill="#002E4F"/>
<path d="M513.42 224.372C519.65 224.424 526.019 223.337 531.37 220.437C529.575 212.843 533.407 190.457 538.205 178.495C538.205 178.495 542.002 170.159 539.344 167.604C529.506 158.146 521.135 158.905 518.529 158.802C509.502 166.431 492.69 188.938 493.363 218.677C497.989 223.561 507.43 224.338 513.42 224.372Z" fill="#E1F3F6"/>
<path d="M574.433 313.175C578.041 312.174 581.493 310.517 583.702 307.565C573.018 290.236 533.838 226.599 531.715 221.611C531.663 221.49 531.611 221.334 531.56 221.196C525.812 224.303 518.943 225.391 512.28 225.132C506.481 224.907 498.093 224.096 493.363 219.798C493.381 220.109 493.381 220.402 493.398 220.713C494.209 237.334 549.32 292.722 571.016 313.9C572.224 313.727 573.381 313.468 574.433 313.175Z" fill="#00396A"/>
<path d="M460.689 207.147C459.153 207.147 457.686 206.922 456.288 206.456C453.371 205.49 449.522 203.022 447.692 196.894C446.657 193.391 448.642 189.714 452.145 188.679C455.649 187.643 459.326 189.645 460.361 193.132C460.482 193.546 460.603 193.805 460.672 193.943C461.38 193.977 463.986 193.736 470.355 190.008C476.051 186.659 482.782 181.688 489.289 176.873C500.284 168.743 510.674 161.045 519.252 158.336C522.722 157.231 526.45 159.164 527.537 162.633C528.642 166.12 526.709 169.831 523.239 170.918C516.767 172.972 506.791 180.342 497.142 187.47C483.024 197.947 470.579 207.147 460.689 207.147Z" fill="#F5D4C1"/>
<path d="M473.047 202.21C472.236 198.327 471.39 194.029 468.922 190.836C463.589 193.787 461.328 193.977 460.672 193.96C460.586 193.805 460.482 193.546 460.361 193.149C459.326 189.645 455.649 187.66 452.145 188.696C448.642 189.731 446.657 193.408 447.692 196.912C449.505 203.056 453.371 205.507 456.288 206.474C457.686 206.94 459.17 207.164 460.689 207.164C464.521 207.164 468.75 205.783 473.306 203.47C473.203 203.039 473.134 202.625 473.047 202.21Z" fill="#F5D4C1"/>
<path d="M527.536 162.65C526.431 159.181 522.72 157.248 519.251 158.353C510.673 161.063 500.282 168.743 489.287 176.89C482.78 181.706 476.049 186.676 470.353 190.025C470.094 190.18 469.853 190.318 469.594 190.456C472.062 193.718 476.342 209.805 476.411 210.185C483.419 206.525 517.007 180.946 524.291 173.231C526.811 170.556 528.64 166.12 527.536 162.65Z" fill="#E1F3F6"/>
<path d="M451.336 201.813C450.939 201.813 450.559 201.693 450.214 201.451C445.036 197.74 442.326 190.612 442.222 190.318C441.843 189.317 442.36 188.195 443.362 187.816C444.363 187.453 445.485 187.954 445.864 188.955C445.882 189.024 448.281 195.289 452.475 198.292C453.355 198.914 453.545 200.122 452.924 201.002C452.544 201.537 451.957 201.813 451.336 201.813Z" fill="#F5D4C1"/>
<path d="M451.355 197.084C450.751 197.084 450.146 196.791 449.767 196.256C447.281 192.735 445.296 184.398 445.089 183.466C444.848 182.413 445.503 181.377 446.539 181.136C447.592 180.894 448.628 181.55 448.869 182.586C449.421 184.933 451.217 191.578 452.943 194.029C453.564 194.909 453.357 196.118 452.477 196.739C452.131 196.963 451.734 197.084 451.355 197.084Z" fill="#F5D4C1"/>
<path d="M454.027 195.98C453.267 195.98 452.525 195.531 452.232 194.771C450.454 190.405 449.763 181.257 449.729 180.877C449.643 179.807 450.454 178.875 451.524 178.789C452.594 178.702 453.526 179.513 453.612 180.584C453.802 183.052 454.544 190.163 455.839 193.304C456.253 194.305 455.77 195.427 454.769 195.841C454.51 195.945 454.268 195.98 454.027 195.98Z" fill="#F5D4C1"/>
<path d="M456.944 195.047C456.081 195.047 455.287 194.46 455.063 193.597C453.837 188.851 454.959 184.018 455.011 183.811C455.253 182.758 456.306 182.119 457.341 182.361C458.377 182.603 459.033 183.656 458.791 184.691C458.774 184.777 457.859 188.851 458.825 192.614C459.102 193.649 458.463 194.719 457.427 194.978C457.255 195.03 457.099 195.047 456.944 195.047Z" fill="#F5D4C1"/>
<path d="M535.048 173.214C534.151 173.214 533.253 173.024 532.39 172.61C529.283 171.142 527.954 167.432 529.421 164.342C530.958 161.097 533.719 157.766 534.03 157.404C536.239 154.78 540.157 154.452 542.798 156.661C545.421 158.871 545.749 162.789 543.54 165.412C542.763 166.344 541.296 168.312 540.658 169.658C539.605 171.885 537.378 173.214 535.048 173.214Z" fill="#F5D4C1"/>
<path d="M535.947 170.003C536.689 170.815 537.449 171.574 538.26 172.316C539.278 171.712 540.141 170.797 540.676 169.658C541.315 168.312 542.782 166.344 543.559 165.412C545.768 162.789 545.44 158.871 542.817 156.661C540.193 154.452 536.275 154.78 534.048 157.404C533.928 157.559 533.427 158.163 532.754 159.043C532.823 162.944 533.22 167.017 535.947 170.003Z" fill="#F2C2A6"/>
<path d="M556.365 163.151C553.897 169.158 547.027 172.006 541.021 169.537C535.014 167.069 532.166 160.2 534.635 154.193L537.741 146.65C540.21 140.644 547.096 137.796 553.086 140.264C559.092 142.732 561.94 149.602 559.472 155.608L556.365 163.151Z" fill="#F5D4C1"/>
<path d="M535.946 153.313C534.997 157.352 529.18 156.057 527.005 153.951C524.002 151.052 522.207 142.836 528.869 143.267C524.071 136.035 540.33 128.199 542.039 136.553C543.316 134.396 544.61 132.463 547.441 132.273C549.478 132.135 553.033 133.723 552.74 136.208C555.76 133.826 560.162 133.999 563.148 136.415C564.097 137.192 565.823 138.901 564.96 140.161C564.494 140.851 562.043 141.058 561.214 141.317C562.63 140.678 568.412 141.973 567.273 144.372C566.738 145.494 563.907 144.493 563.079 144.251V144.51C566.168 146.202 567.445 147.928 567.083 151.777C566.91 153.554 566.082 156.885 563.976 157.144C562.889 157.265 561.646 156.592 561.663 155.47C564.252 158.042 560.593 164.946 557.331 161.546C556.054 160.217 556.675 157.973 557.883 156.816C555.95 155.712 551.773 149.843 554.742 148.273C553.344 148.307 546.906 146.115 548.96 144.268C549.495 146.426 546.837 149.205 544.714 148.1C546.026 150.965 542.159 153.106 539.778 153.209C541.227 155.039 536.74 157.213 535.376 154.555L535.946 153.313Z" fill="#00396A"/>
<path d="M315.102 129.856C315.102 129.856 311.322 115.41 330.049 111.975L328.616 129.321L315.102 129.856Z" fill="#F5D4C1"/>
<path d="M240.127 166.31C236.036 166.31 232.222 165.481 228.701 163.824C211.699 155.798 209.818 131.651 209.732 130.633C209.473 126.991 212.217 123.833 215.859 123.574C219.484 123.315 222.642 126.059 222.901 129.684C223.264 134.534 226.042 147.979 234.362 151.88C241.231 155.108 251.863 151.828 265.154 142.387C268.122 140.281 272.248 140.972 274.371 143.941C276.476 146.909 275.786 151.034 272.8 153.157C260.493 161.926 249.551 166.31 240.127 166.31Z" fill="#CDE5E8"/>
<path d="M275.268 178.719C277.097 173.904 278.806 169.002 280.791 164.238C279.462 164.135 278.098 163.962 276.735 163.703C270.331 162.478 264.895 159.872 260.459 155.884C256.006 151.897 252.588 146.84 250.155 140.73C247.738 134.62 246.323 127.664 245.926 119.863C245.529 112.079 246.15 103.846 247.807 95.1811C249.499 86.3439 251.95 78.4216 255.177 71.414C258.405 64.4065 262.271 58.5036 266.776 53.7053C271.281 48.907 276.338 45.4723 281.93 43.4011C287.522 41.3299 293.529 40.8983 299.95 42.1238C305.024 43.0904 309.494 45.0062 313.378 47.8369C315.242 44.1087 317.261 40.4323 319.177 36.7732C321.438 32.441 323.544 28.0397 325.563 23.5866C326.426 21.688 327.169 19.7203 327.945 17.7872C321.456 14.0763 314.172 11.4528 306.111 9.91666C294.685 7.7419 283.915 8.13889 273.835 11.1594C263.738 14.1626 254.659 19.2025 246.582 26.2791C238.504 33.3557 231.635 42.2274 226.008 52.9113C220.381 63.5952 216.308 75.5219 213.788 88.674C211.268 101.843 210.664 114.426 211.958 126.422C213.253 138.417 216.359 149.205 221.261 158.75C226.163 168.312 232.756 176.338 241.024 182.845C248.722 188.92 257.801 193.097 268.243 195.41C270.728 189.904 273.11 184.363 275.268 178.719Z" fill="#7095CB"/>
<path d="M364.722 79.4051C363.428 67.4094 360.321 56.6219 355.419 47.0772C350.517 37.5151 343.924 29.4892 335.656 22.9822C333.43 21.2217 331.083 19.6338 328.632 18.2012C327.855 20.1343 327.113 22.1019 326.25 23.9833C324.196 28.4191 322.142 32.8377 319.864 37.1699C317.93 40.8463 315.894 44.5399 314.012 48.3026C314.686 48.8204 315.341 49.3382 315.963 49.9078C320.399 53.8949 323.885 58.952 326.388 65.0966C328.891 71.2239 330.358 78.1452 330.772 85.8604C331.186 93.5756 330.548 101.843 328.856 110.663C327.199 119.327 324.748 127.198 321.521 134.309C318.276 141.403 314.358 147.34 309.766 152.122C305.175 156.903 300.084 160.32 294.474 162.391C290.349 163.91 286.051 164.549 281.581 164.307C279.389 169.52 277.525 174.887 275.523 180.169C273.538 185.399 271.311 190.508 269.016 195.599C269.533 195.703 270.051 195.824 270.569 195.91C281.995 198.102 292.748 197.688 302.845 194.667C312.925 191.664 322.021 186.624 330.099 179.548C338.176 172.471 345.029 163.599 350.673 152.915C356.299 142.232 360.373 130.322 362.893 117.153C365.413 103.983 366.017 91.4008 364.722 79.4051Z" fill="#3A6AB0"/>
<path d="M290.768 202.763C279.342 200.571 269.487 196.221 261.219 189.714C252.952 183.207 246.358 175.164 241.457 165.619C236.555 156.057 233.448 145.287 232.153 133.291C230.859 121.295 231.463 108.713 233.983 95.5435C236.503 82.3914 240.559 70.4647 246.203 59.7808C251.83 49.0969 258.682 40.2252 266.777 33.1486C274.855 26.072 283.933 21.0321 294.031 18.0288C304.11 15.0256 314.881 14.6114 326.307 16.7861C337.733 18.9609 347.588 23.3277 355.856 29.8347C364.123 36.359 370.717 44.3849 375.619 53.9297C380.52 63.4917 383.627 74.2619 384.922 86.2749C386.216 98.2878 385.612 110.87 383.092 124.023C380.572 137.192 376.499 149.101 370.872 159.785C365.245 170.469 358.393 179.341 350.298 186.417C342.221 193.494 333.124 198.534 323.045 201.537C312.948 204.523 302.195 204.955 290.768 202.763ZM296.93 170.555C303.161 171.746 309.081 171.315 314.691 169.226C320.283 167.155 325.392 163.738 329.983 158.957C334.574 154.176 338.492 148.238 341.737 141.144C344.982 134.051 347.433 126.163 349.073 117.498C350.764 108.661 351.403 100.394 350.989 92.6956C350.574 84.9976 349.107 78.0591 346.605 71.9318C344.102 65.8045 340.615 60.7301 336.179 56.743C331.726 52.756 326.393 50.167 320.162 48.976C313.759 47.7506 307.752 48.1821 302.143 50.2533C296.533 52.3245 291.493 55.7592 286.989 60.5575C282.484 65.3558 278.617 71.2587 275.39 78.2662C272.162 85.2738 269.711 93.1962 268.02 102.033C266.363 110.698 265.741 118.914 266.138 126.715C266.535 134.517 267.933 141.455 270.367 147.582C272.784 153.692 276.218 158.75 280.671 162.737C285.09 166.724 290.51 169.33 296.93 170.555Z" fill="#305FA4"/>
<path d="M407.288 105.762L407.789 130.046C407.789 130.046 400.85 136.26 394.637 130.046L396.932 102.707L407.288 105.762Z" fill="#00396A"/>
<path d="M378.688 299.47C378.291 299.16 375.581 297.9 375.219 297.589C373.769 299.764 372.751 300.972 371.007 302.767C375.288 306.495 374.183 311.034 374.183 311.034C374.183 311.034 371.163 313.641 369.972 314.227C366.192 316.092 359.219 318.681 359.219 318.681L376.772 320.061L389.786 306.737C385.16 304.148 381.639 301.8 378.688 299.47Z" fill="#002E4F"/>
<path d="M309.943 300.419C307.147 299.936 303.626 302.076 301.348 300.419C300.813 305.304 300.916 307.962 300.916 307.962L274.957 318.663H308.114C308.407 315.125 307.786 311.742 308.252 308.463C308.493 306.806 309.632 302.042 309.943 300.419Z" fill="#002E4F"/>
<path d="M340.166 182.585L310.824 238.335C310.824 238.335 322.716 248.398 334.419 251.746L356.408 186.072L340.166 182.585Z" fill="#CDE5E8"/>
<path d="M372.286 304.165C374.046 302.37 375.496 300.212 376.946 298.038C369.351 291.531 365.641 284.834 355.336 273.304C351.073 268.523 362.378 241.201 365.123 236.609C370.059 228.376 370.819 222.404 374.668 208.303L346.016 219.004C339.198 243.427 331.259 267.867 339.216 279.518C347.638 291.841 362.568 301.766 369.783 306.72C370.042 306.909 372.044 303.992 372.286 304.165Z" fill="#002E4F"/>
<path d="M324.049 126.974C323.652 126.974 323.255 126.853 322.909 126.611C322.046 125.99 321.839 124.765 322.461 123.902C324.774 120.691 325.274 118.033 325.274 118.016C325.464 116.963 326.465 116.256 327.535 116.445C328.588 116.635 329.296 117.636 329.106 118.689C329.089 118.827 328.484 122.176 325.619 126.163C325.24 126.698 324.653 126.974 324.049 126.974Z" fill="#F5D4C1"/>
<path d="M372.629 214.206C381.155 190.784 388.439 154.038 391.166 139.384C389.647 138.745 388.146 138.279 386.955 137.951C384.418 137.261 381.397 136.432 378.791 137.244C377.479 137.658 376.305 138.331 375.149 139.056C374.079 142.232 373.647 144.924 373.647 144.924C373.647 144.924 355.335 179.945 343.391 203.833C353.539 206.077 363.447 209.408 372.629 214.206Z" fill="#F6EE9E"/>
<path d="M343.065 204.523C343.065 204.523 343.047 204.523 343.065 204.523C341.995 206.629 340.993 208.666 340.061 210.564C337.714 214.724 335.177 218.573 332.726 222.266C309.149 257.805 300.26 286.128 298.672 299.539C300.916 301.3 309.442 302.284 312.273 302.784C316.622 280.553 327.945 266.383 348.208 249.624C354.991 244.014 360.066 236.886 364.536 230.966C367.194 227.444 369.835 221.783 372.372 214.931C363.173 210.115 353.214 206.784 343.065 204.523Z" fill="#00396A"/>
<path d="M320.194 214.292C317.45 214.292 314.895 212.583 313.946 209.856C312.755 206.404 314.584 202.642 318.019 201.451C326.028 198.672 338.317 187.712 346.619 175.958C363.43 152.104 375.236 138.883 375.737 138.331C378.17 135.621 382.347 135.397 385.057 137.83C387.767 140.264 387.991 144.441 385.558 147.151C385.437 147.289 373.735 160.407 357.407 183.569C349.225 195.168 334.761 209.615 322.351 213.93C321.627 214.171 320.902 214.292 320.194 214.292Z" fill="#F5D4C1"/>
<path d="M386.526 141.576C386.371 141.576 386.216 141.576 386.06 141.558C382.643 141.299 380.071 138.331 380.313 134.896C380.571 131.323 381.97 127.215 382.125 126.767C383.247 123.522 386.785 121.796 390.03 122.918C393.275 124.039 395.001 127.578 393.879 130.823C393.482 131.962 392.826 134.326 392.723 135.811C392.481 139.073 389.754 141.558 386.526 141.576Z" fill="#F5D4C1"/>
<path d="M388.335 135.017C389.44 136.277 390.631 137.399 391.908 138.435C392.357 137.658 392.633 136.76 392.719 135.811C392.823 134.327 393.496 131.962 393.876 130.823C394.998 127.578 393.272 124.04 390.027 122.918C387.334 121.986 384.452 123.021 382.898 125.248C383.468 128.752 386.333 132.704 388.335 135.017Z" fill="#F2C2A6"/>
<path d="M404.358 121.554C404.22 128.044 398.834 133.188 392.345 133.032C385.855 132.877 380.711 127.509 380.867 121.019L381.057 112.855C381.195 106.366 386.58 101.222 393.07 101.36C399.559 101.498 404.703 106.883 404.565 113.373L404.358 121.554Z" fill="#F5D4C1"/>
<path d="M310.856 212.48C308.146 212.48 305.039 211.755 301.57 210.288C300.586 209.874 300.12 208.735 300.534 207.751C300.948 206.767 302.088 206.301 303.071 206.715C308.18 208.873 312.254 209.166 314.843 207.613C315.757 207.06 316.948 207.354 317.518 208.269C318.07 209.183 317.777 210.374 316.862 210.927C315.153 211.945 313.151 212.48 310.856 212.48Z" fill="#F5D4C1"/>
<path d="M313.191 215.293C310.102 215.293 307.616 214.689 304.803 214.016L303.923 213.809C302.887 213.567 302.231 212.514 302.49 211.462C302.732 210.426 303.785 209.77 304.838 210.029L305.718 210.236C310.43 211.375 313.537 212.135 320.441 210.357C321.493 210.098 322.546 210.719 322.805 211.755C323.081 212.791 322.443 213.861 321.407 214.12C318.076 214.965 315.47 215.293 313.191 215.293Z" fill="#F5D4C1"/>
<path d="M310.716 208.648C304.623 208.648 300.446 204.903 300.222 204.696C299.428 203.971 299.376 202.746 300.101 201.952C300.826 201.158 302.051 201.106 302.845 201.831C303.035 202.003 307.505 205.939 313.512 204.403C314.565 204.126 315.618 204.765 315.876 205.801C316.153 206.836 315.514 207.906 314.478 208.165C313.184 208.493 311.907 208.648 310.716 208.648Z" fill="#F5D4C1"/>
<path d="M314.795 206.56C314.726 206.56 314.64 206.56 314.571 206.542C307.96 205.766 305.268 201.002 305.147 200.795C304.629 199.863 304.974 198.672 305.923 198.154C306.856 197.636 308.029 197.982 308.547 198.914C308.633 199.069 310.48 202.141 315.019 202.676C316.09 202.797 316.849 203.764 316.728 204.834C316.607 205.835 315.779 206.56 314.795 206.56Z" fill="#F5D4C1"/>
<path d="M338.006 129.787C337.902 129.787 337.799 129.787 337.695 129.753C334.485 129.218 325.682 127.837 323.646 127.837C322.576 127.837 321.695 126.974 321.695 125.887C321.695 124.817 322.558 123.936 323.646 123.936C326.373 123.936 337.126 125.697 338.334 125.904C339.387 126.077 340.112 127.078 339.939 128.13C339.767 129.114 338.955 129.787 338.006 129.787Z" fill="#F5D4C1"/>
<path d="M336.762 133.861C336.59 133.861 336.417 133.844 336.245 133.792C336.158 133.774 326.907 131.255 322.609 131.013C321.539 130.944 320.728 130.029 320.78 128.959C320.849 127.889 321.764 127.043 322.834 127.129C327.546 127.406 336.866 129.943 337.263 130.046C338.299 130.322 338.903 131.393 338.627 132.428C338.402 133.291 337.625 133.861 336.762 133.861Z" fill="#F5D4C1"/>
<path d="M335.832 138.141C335.624 138.141 335.435 138.106 335.227 138.055C326.477 135.224 324.319 135.051 323.163 134.965C322.662 134.931 322.196 134.879 321.54 134.724C320.505 134.447 319.883 133.395 320.159 132.342C320.436 131.306 321.506 130.685 322.541 130.961C322.852 131.047 323.076 131.064 323.473 131.099C324.889 131.22 327.236 131.41 336.418 134.361C337.437 134.689 338.006 135.794 337.678 136.812C337.419 137.606 336.66 138.141 335.832 138.141Z" fill="#F5D4C1"/>
<path d="M332.003 141.248C331.951 141.248 331.917 141.248 331.865 141.248C323.097 140.627 322.734 135.863 322.734 135.328L326.618 135.241C326.618 135.241 326.618 135.19 326.601 135.121C326.601 135.138 326.998 137.019 332.141 137.382C333.211 137.451 334.022 138.383 333.936 139.453C333.85 140.471 333.004 141.248 332.003 141.248Z" fill="#F5D4C1"/>
<path d="M324.666 138.918C324.666 138.918 322.975 138.141 320.351 138.141C318.142 138.141 315.138 134.396 315.138 130.495C315.138 130.495 314.051 119.017 326.168 124.212L324.666 138.918Z" fill="#F5D4C1"/>
<path d="M362.792 173.006L345.809 256.596C345.809 256.596 372.096 262.931 388.234 253.645L392.307 137.502C392.307 137.502 374.27 131.203 362.792 173.006Z" fill="#CDE5E8"/>
<path d="M366.73 219.004L382.989 218.124C382.989 218.124 383.386 242.996 373.668 242.029C373.668 242.029 360.361 244.929 366.73 219.004Z" fill="#E1F3F6"/>
<path d="M387.147 135.518C385.369 133.912 383.056 133.032 380.657 133.032C377.895 133.032 375.254 134.206 373.425 136.26C372.924 136.812 361.049 150.102 344.083 174.163C342.978 175.733 341.753 177.339 340.441 178.944L338.715 181.067L340.596 183.052C342.598 185.175 344.704 187.229 346.724 189.231C347.828 190.318 348.933 191.388 350.02 192.493L352.419 194.892L354.594 192.286C356.544 189.956 358.34 187.643 359.945 185.382C376.169 162.374 387.768 149.377 387.871 149.257C391.462 145.252 391.116 139.09 387.147 135.518Z" fill="#E1F3F6"/>
<path d="M342.54 173.564L335.977 180.87L353.066 196.223L359.63 188.917L342.54 173.564Z" fill="#F8FDFF"/>
<path d="M369.059 126.214L383.989 132.066C383.989 132.066 390.34 101.153 385.697 96.5273C385.715 96.5273 369.059 94.9566 369.059 126.214Z" fill="#00396A"/>
<path d="M386.576 101.912C387.111 102.706 398.693 110.439 407.789 108.299C407.789 108.299 406.235 94.646 384.988 96.6136L386.576 101.912Z" fill="#00396A"/>
<path d="M395.534 116.48C395.534 120.07 392.617 122.97 389.044 122.97C385.454 122.97 382.555 120.07 382.555 116.48C382.555 112.89 385.454 109.99 389.044 109.99C392.617 109.99 395.534 112.89 395.534 116.48Z" stroke="#BAC529" stroke-width="0.8679" stroke-miterlimit="10"/>
<path d="M410.186 117.757C410.186 120.881 407.667 123.401 404.542 123.401C401.418 123.401 398.898 120.864 398.898 117.757C398.898 114.633 401.436 112.113 404.542 112.113C407.667 112.113 410.186 114.633 410.186 117.757Z" stroke="#BAC529" stroke-width="0.755" stroke-miterlimit="10"/>
<path d="M395.535 116.48C395.535 116.48 397.693 115.634 398.97 116.929" stroke="#BAC529" stroke-width="0.8679" stroke-miterlimit="10"/>
<path d="M206.554 127.854C206.398 127.854 206.243 127.854 206.088 127.837C202.67 127.595 200.098 124.609 200.34 121.192C200.599 117.619 201.997 113.511 202.152 113.062C203.274 109.817 206.812 108.091 210.057 109.213C213.302 110.335 215.028 113.873 213.906 117.118C213.509 118.257 212.853 120.622 212.75 122.106C212.508 125.369 209.781 127.854 206.554 127.854Z" fill="#F5D4C1"/>
<path d="M202.859 300.385C213.164 305.132 221.604 305.046 222.294 305.132C229.008 293.188 249.237 260.826 230.838 234.28L204.81 220.299C204.793 220.299 230.821 247.466 202.859 300.385Z" fill="#002E4F"/>
<path d="M216.324 310.966C216.324 310.966 218.723 306.081 220.605 302.819C219.189 302.647 212.889 302.388 210.3 301.404C207.867 306.375 202.568 313.641 198.84 318.629H233.809L216.324 310.966Z" fill="#002E4F"/>
<path d="M259.576 235.85C255.227 227.41 223.641 201.986 220.776 187.384C220.517 186.09 220.31 184.761 220.12 183.414C215.045 186.09 208.469 186.832 203.24 187.091C197.319 187.384 193.781 187.764 188.051 184.968C188.534 194.029 187.067 202.78 192.349 211.962C202.843 230.172 237.691 245.775 241.591 251.781C249.255 263.656 251.913 289.425 254.519 305.149C258.627 305.149 268.362 304.976 272.349 303.544C271.02 295.483 273.212 262.292 259.576 235.85Z" fill="#00396A"/>
<path d="M270.472 309.55C270.472 309.55 269.333 304.959 269.005 302.801C265 304.199 262.67 302.784 258.562 302.801C259.184 306.702 258.718 313.986 259.08 318.267H292.237L270.472 309.55Z" fill="#002E4F"/>
<path d="M203.499 191.854C208.556 191.63 219.154 190.215 223.417 185.969C222.554 179.03 219.447 167.88 220.535 158.905C224.228 128.476 209.385 119.363 209.385 119.363C209.385 119.363 202.55 114.581 197.009 120.295C188.655 128.907 180.491 153.244 181.32 189.231C187.05 192.2 197.441 192.131 203.499 191.854Z" fill="#CDE5E8"/>
<path d="M279.682 201.451C279.181 201.451 278.681 201.399 278.18 201.278C254.241 195.721 233.96 181.378 219.548 159.785C208.743 143.613 205.015 129.097 204.86 128.493C203.962 124.955 206.12 121.364 209.658 120.467C213.196 119.569 216.786 121.71 217.667 125.248C217.736 125.507 221.17 138.573 230.784 152.812C243.453 171.608 260.42 183.57 281.166 188.402C284.722 189.231 286.931 192.769 286.103 196.325C285.412 199.397 282.685 201.451 279.682 201.451Z" fill="#F5D4C1"/>
<path d="M265.133 181.619C251.947 175.371 240.71 165.464 231.752 152.191C222.259 138.124 218.825 125.11 218.807 124.989C217.927 121.537 214.838 119.121 211.282 119.121C210.643 119.121 210.005 119.207 209.383 119.362C207.364 119.863 205.673 121.123 204.62 122.918C203.55 124.696 203.256 126.784 203.757 128.803L203.791 128.942C204.81 133.395 208.9 149.032 218.618 163.565C230.251 180.98 246.026 193.994 264.236 201.244C264.374 201.295 264.529 201.33 264.667 201.33C264.892 201.33 265.133 201.261 265.323 201.123C265.634 200.898 265.841 200.553 265.841 200.156V182.672C265.806 182.206 265.548 181.809 265.133 181.619Z" fill="#E1F3F6"/>
<path d="M284.588 201.934C282.465 201.934 280.222 201.692 277.857 201.226C276.804 201.019 276.131 200.001 276.338 198.948C276.545 197.895 277.564 197.205 278.634 197.429C284.416 198.586 289.249 198.171 292.977 196.169C293.926 195.669 295.1 196.031 295.6 196.963C296.101 197.912 295.738 199.086 294.806 199.587C291.855 201.157 288.437 201.934 284.588 201.934Z" fill="#F5D4C1"/>
<path d="M284.86 197.585C283.928 197.585 282.979 197.516 282.012 197.378C280.942 197.222 280.217 196.238 280.373 195.168C280.528 194.098 281.512 193.373 282.582 193.529C288.795 194.443 294.543 191.216 294.612 191.181C295.544 190.646 296.735 190.974 297.27 191.906C297.805 192.838 297.477 194.012 296.562 194.564C296.303 194.685 291.195 197.585 284.86 197.585Z" fill="#F5D4C1"/>
<path d="M283.135 193.753C282.842 193.753 282.531 193.736 282.203 193.718C281.133 193.649 280.322 192.735 280.391 191.664C280.46 190.594 281.375 189.783 282.445 189.852C287.036 190.128 289.452 187.349 289.47 187.315C290.143 186.486 291.368 186.348 292.197 187.039C293.025 187.712 293.163 188.937 292.473 189.766C292.369 189.938 289.193 193.753 283.135 193.753Z" fill="#F5D4C1"/>
<path d="M276.423 190.491C275.353 190.491 274.473 189.628 274.473 188.54C274.473 187.47 275.336 186.607 276.406 186.59C276.578 186.59 280.41 186.504 282.602 183.345C283.206 182.465 284.432 182.24 285.312 182.862C286.192 183.466 286.417 184.674 285.795 185.572C282.429 190.422 276.665 190.491 276.423 190.491Z" fill="#F5D4C1"/>
<path d="M270.07 146.633C269.465 146.633 268.861 146.357 268.482 145.822C265.616 141.835 265.012 138.486 264.995 138.331C264.805 137.278 265.53 136.277 266.583 136.087C267.636 135.897 268.637 136.605 268.827 137.675C268.827 137.692 269.345 140.333 271.64 143.544C272.262 144.424 272.072 145.632 271.191 146.253C270.863 146.512 270.467 146.633 270.07 146.633Z" fill="#F5D4C1"/>
<path d="M270.484 147.496C270.363 147.496 270.242 147.479 270.121 147.462C265.875 146.65 257.435 146.633 257.349 146.633C256.279 146.633 255.398 145.77 255.398 144.683C255.398 143.613 256.261 142.732 257.349 142.732C257.711 142.732 266.238 142.75 270.846 143.63C271.899 143.837 272.589 144.855 272.382 145.908C272.21 146.84 271.398 147.496 270.484 147.496Z" fill="#F5D4C1"/>
<path d="M256.281 151.535C255.315 151.535 254.486 150.81 254.348 149.826C254.21 148.756 254.97 147.789 256.04 147.651C257.265 147.496 268.191 146.167 271.712 146.788C272.765 146.978 273.472 147.979 273.282 149.032C273.093 150.085 272.092 150.793 271.039 150.603C268.812 150.206 260.959 150.948 256.523 151.483C256.437 151.535 256.35 151.535 256.281 151.535Z" fill="#F5D4C1"/>
<path d="M258.799 155.936C257.884 155.936 257.073 155.297 256.9 154.365C256.693 153.313 257.383 152.294 258.436 152.087C263.148 151.172 264.391 150.775 266.669 150.05C267.739 149.705 269.068 149.274 271.053 148.704C272.089 148.411 273.159 148.998 273.452 150.033C273.746 151.069 273.159 152.139 272.123 152.432C270.19 152.985 268.948 153.399 267.86 153.744C265.513 154.504 264.097 154.952 259.161 155.902C259.04 155.919 258.919 155.936 258.799 155.936Z" fill="#F5D4C1"/>
<path d="M262.996 159.026C262.064 159.026 261.253 158.353 261.081 157.404C260.908 156.351 261.616 155.332 262.669 155.16C268.968 154.072 270.211 151.742 270.228 151.708C270.574 150.689 271.661 150.137 272.679 150.465C273.698 150.81 274.25 151.898 273.922 152.916C273.68 153.675 271.989 157.49 263.342 158.974C263.204 159.009 263.1 159.026 262.996 159.026Z" fill="#F5D4C1"/>
<path d="M270.48 156.678L268.996 140.851C268.996 140.851 275.935 141.351 275.935 148.635C275.917 151.069 275.21 153.761 270.48 156.678Z" fill="#F5D4C1"/>
<path d="M226.767 105.105C228.528 111.733 224.575 118.534 217.93 120.277C211.302 122.037 204.502 118.085 202.741 111.457L200.532 103.121C198.771 96.4927 202.724 89.6923 209.369 87.949C215.997 86.1885 222.797 90.141 224.558 96.7689L226.767 105.105Z" fill="#F5D4C1"/>
<path d="M225.592 100.687C224.643 103.31 223.314 105.917 221.26 107.694C216.255 112.009 208.591 113.166 202.516 110.577L202.74 111.44C204.501 118.068 211.284 122.02 217.929 120.26C224.557 118.499 228.509 111.716 226.766 105.088L225.592 100.687Z" fill="#00396A"/>
<path d="M202.703 110.991C198.043 108.005 193.003 96.6135 200.373 94.1281C204.929 92.5919 203.1 106.642 203.1 110.611L202.703 110.991Z" fill="#00396A"/>
<path d="M198.96 95.0602C193.316 90.9696 200.306 79.4226 214.235 79.4226C222.848 79.4226 222.779 86.0159 216.824 89.5715C211.888 92.523 204.224 90.797 200.513 95.8369L198.96 95.0602Z" fill="#00396A"/>
<path d="M225.592 103.241C223.625 100.255 219.724 94.18 218.222 90.7797C217.256 88.605 215.944 84.9114 220.293 87.5349C223.935 89.7269 225.903 97.4766 225.558 101.412L225.592 103.241Z" fill="#00396A"/>
<path d="M127.173 130.857C125.033 132.842 122.668 134.689 120.735 136.898L92.6875 195.479L113.572 168.536L135.751 122.693C132.903 125.455 130.055 128.182 127.173 130.857Z" fill="#006091"/>
<path d="M110.535 121.244C112.571 118.465 114.522 115.185 116.835 112.32L67.7472 88.3459L21.1797 93.0062L102.785 130.633C105.46 127.595 108.153 124.506 110.535 121.244Z" fill="#3A6AB0"/>
<path d="M117.542 112.665C114.936 115.927 112.813 119.776 110.31 122.814C108.066 125.558 105.805 128.285 103.492 130.978L140.584 148.083L154.047 130.495L117.542 112.665Z" fill="#7095CB"/>
<path d="M61.671 180.653L76.0658 150.603L0.691406 114.512L12.7907 89.2264L136.925 16.1304L170.806 32.3548L121.011 136.363L141.533 146.184L127.604 175.285L107.082 165.464L92.6872 195.513L61.671 180.653ZM117.507 64.0096L115.591 63.0948L49.192 101.964L89.9774 121.485L117.507 64.0096Z" fill="#305FA4"/>
<path d="M141.516 146.15L154.064 130.495L144.226 152.329L127.121 176.199L141.516 146.15Z" fill="#006091"/>
<path d="M136.716 121.83L185.665 14.5249L170.787 32.32L120.992 136.329C122.39 135 135.922 122.624 136.716 121.83Z" fill="#006091"/>
<path d="M12.7891 89.2262L34.8991 69.9641L156.202 0.354492L136.923 16.1129L12.7891 89.2262Z" fill="#4376C0"/>
<path d="M136.926 16.1129L170.79 32.3373L185.668 14.525L156.205 0.354492L136.926 16.1129Z" fill="#7095CB"/>
<path d="M95.345 94.4907C91.1853 91.5219 88.3029 92.8337 86.3007 93.1271C84.1087 93.4723 82.4863 92.2641 82.4863 92.2641C81.5887 91.6773 80.3805 91.9362 79.7937 92.8337C79.2069 93.7312 79.4658 94.9394 80.3633 95.5262C80.4496 95.578 82.1583 96.6654 85.1098 97.4421C81.8822 100.394 78.5855 103.949 78.3956 104.139C77.6707 104.933 77.7225 106.158 78.4992 106.883C78.8789 107.229 79.3449 107.401 79.811 107.401C80.3288 107.401 80.8638 107.194 81.2435 106.78C81.2781 106.745 83.5736 104.26 86.1454 101.792C83.7635 104.778 81.537 107.867 81.1227 108.437C80.5014 109.317 80.6912 110.525 81.5715 111.147C81.9167 111.388 82.3137 111.509 82.7106 111.509C83.3147 111.509 83.9188 111.233 84.2986 110.698C85.5758 108.92 87.3708 106.521 89.0796 104.381C88.441 105.641 87.6297 107.073 86.0073 109.679C85.4377 110.594 85.7139 111.785 86.6287 112.355C86.9393 112.545 87.3018 112.648 87.647 112.648C88.3029 112.648 88.9242 112.32 89.304 111.733C89.9771 110.663 90.5122 109.766 90.9609 109.006C90.6157 109.852 90.9091 110.836 91.7031 111.354C92.031 111.561 92.3935 111.664 92.756 111.664C93.3946 111.664 94.016 111.354 94.3784 110.784C96.1907 107.988 97.0882 105.692 97.4679 103.897L97.5542 103.949C98.6416 98.495 97.3299 95.906 95.345 94.4907ZM91.4615 108.161C92.1001 107.039 92.5488 106.176 92.9631 105.33C92.6006 106.158 92.1173 107.09 91.4615 108.161Z" fill="#F5D4C1"/>
<path d="M35.8503 116.532C29.7057 116.187 20.7823 128.217 29.9128 131.496C21.6453 131.306 19.6259 142.991 27.203 146.219C13.9301 143.63 15.4835 160.838 21.7488 167.052C17.5029 166.379 13.1879 170.435 13.8438 174.871C14.4997 179.324 16.2602 185.503 27.2893 188.817C38.3184 192.131 45.0498 185.934 50.5385 180.083C54.0596 187.263 71.4059 177.563 69.49 168.968C76.0488 171.298 81.9172 163.859 82.038 157.921C82.1588 152.122 78.1027 147.703 74.2365 143.923C76.9636 141.438 77.4814 136.812 76.7565 133.291C75.5655 127.423 68.23 126.836 68.23 122.176C68.23 120.536 68.5407 115.462 67.1426 113.235C64.9334 109.697 61.0671 106.176 56.2171 107.919C35.8503 98.2362 35.8503 116.532 35.8503 116.532Z" fill="#00396A"/>
<path d="M47.7271 305.149C42.1176 304.165 41.2201 304.458 35.6797 303.095L22.8555 318.767H72.5815L43.7056 311L47.7271 305.149Z" fill="#002E4F"/>
<path d="M140.344 309.637L137.41 305.77C134.751 307.479 131.99 308.946 129.004 309.999L136.857 318.767H165.992L140.344 309.637Z" fill="#002E4F"/>
<path d="M30.4102 305.201C35.9851 306.564 41.5601 307.98 47.1869 308.946L88.2484 258.426L81.2581 238.353L52.503 205.196L60.7878 252.178L30.4102 305.201Z" fill="#002E4F"/>
<path d="M86.2677 191.267C74.9969 188.281 59.7218 192.061 48.7617 196.204C48.7617 196.204 55.4931 222.974 59.8944 230.965C72.7531 254.215 128.348 312.243 128.348 312.243C131.403 311.207 137.288 306.892 139.981 305.149L86.2677 191.267Z" fill="#00396A"/>
<path d="M47.2771 206.663C58.1509 202.573 79.9848 195.686 91.1865 198.482C91.1865 198.482 76.3602 163.634 69.6288 155.954C65.0894 150.776 40.2695 136.174 40.2695 155.263C40.2695 181.412 47.2771 206.663 47.2771 206.663Z" fill="#CDE5E8"/>
<path d="M56.9405 153.641C56.8024 153.692 56.6471 153.727 56.4917 153.779C53.1778 154.676 49.7603 152.709 48.8628 149.395C47.9308 145.925 47.879 141.593 47.879 141.127C47.8617 137.692 50.6406 134.896 54.0753 134.879C57.5101 134.862 60.3062 137.641 60.3235 141.058C60.3235 142.266 60.4961 144.717 60.8758 146.15C61.7388 149.326 59.9955 152.571 56.9405 153.641Z" fill="#F5D4C1"/>
<path d="M61.1024 147.496C61.0852 147.047 61.0161 146.599 60.8953 146.15C60.5156 144.717 60.3602 142.266 60.343 141.058C60.3257 137.623 57.5296 134.862 54.0949 134.879C50.6601 134.896 47.8813 137.692 47.8985 141.127C47.8985 141.196 47.8985 141.386 47.8985 141.645C50.9708 145.097 56.028 146.737 61.1024 147.496Z" fill="#F2C2A6"/>
<path d="M67.1784 128.855C69.1805 135.034 65.7976 141.662 59.6358 143.664C53.4567 145.666 46.8289 142.283 44.8267 136.121L42.3067 128.354C40.3046 122.175 43.6876 115.548 49.8494 113.545C56.0284 111.543 62.6563 114.909 64.6584 121.088L67.1784 128.855Z" fill="#F5D4C1"/>
<path d="M136.406 122.607C136.164 122.4 135.871 122.279 135.578 122.21C135.854 121.9 136.164 121.572 136.51 121.192C137.234 120.398 137.183 119.172 136.389 118.448C136.285 118.361 136.182 118.275 136.078 118.223C136.613 117.446 136.527 116.376 135.819 115.703C135.267 115.185 134.49 115.065 133.834 115.306C134.715 114.409 135.267 113.787 135.336 113.718C136.044 112.907 135.975 111.682 135.163 110.974C134.352 110.266 133.127 110.335 132.419 111.147C132.367 111.198 128.156 115.962 123.806 118.43C121.925 115.582 119.388 114.581 119.25 114.53C118.248 114.15 117.161 114.65 116.764 115.651C116.384 116.635 116.868 117.757 117.852 118.171C117.938 118.206 119.422 118.827 120.579 120.605C120.423 121.037 120.233 121.675 120.13 122.4C91.5473 161.097 53.6271 147.358 51.9183 146.702C48.5181 145.408 44.7036 147.082 43.3919 150.482C42.0801 153.882 43.7543 157.714 47.1546 159.026C47.6206 159.198 56.8892 162.737 70.1276 162.737C72.7857 162.737 75.6163 162.599 78.5505 162.253C92.8245 160.596 113.933 152.381 130.797 130.633C131.073 130.478 131.47 130.236 131.987 129.856C132.333 129.632 132.678 129.39 133.04 129.097L132.989 129.062C133.99 128.217 135.215 127.043 136.613 125.369C137.338 124.523 137.217 123.298 136.406 122.607Z" fill="#F5D4C1"/>
<path d="M83.7645 146.789L82.1593 147.134C78.2413 147.979 74.1679 148.411 70.0773 148.411C60.0493 148.411 53.0935 145.891 52.3341 145.598C51.4365 145.252 50.5045 145.08 49.5552 145.08C46.3276 145.08 43.4797 147.03 42.306 150.051C41.5638 151.984 41.4257 154.193 42.4441 155.988C46.2413 162.72 56.6491 165.447 70.1464 165.447C73.0115 165.447 75.8939 165.274 78.7073 164.963C80.4333 164.756 82.2284 164.463 84.0752 164.083L85.2144 163.79C85.2144 163.79 83.5919 158.888 83.2467 153.9C83.1086 151.984 83.7645 146.789 83.7645 146.789Z" fill="#E1F3F6"/>
<path d="M42.0308 134.603C46.1041 132.014 47.5194 127.147 47.0707 122.296C50.6435 124.696 53.4741 123.229 55.7179 119.103C62.5011 128.596 72.8226 114.478 58.7384 109.351C47.4676 105.261 36.4213 116.411 39.3037 127.613L42.0308 134.603Z" fill="#00396A"/>
</svg>
