<?xml version="1.0" encoding="utf-8"?>
<!-- Generator: Adobe Illustrator 24.1.0, SVG Export Plug-In . SVG Version: 6.00 Build 0)  -->
<svg version="1.1" id="Camada_1" xmlns="http://www.w3.org/2000/svg" xmlns:xlink="http://www.w3.org/1999/xlink" x="0px" y="0px"
	 viewBox="0 0 660.1 637" style="enable-background:new 0 0 660.1 637;" xml:space="preserve">
<path style="fill:#F7C29E;" d="M59.8,636.3H217l13-35.1c2.3-6.2,5.8-11.8,10.3-16.6c4.5-4.8,9.9-8.6,15.9-11.3
	c11.4-5.2,26.7-14.5,41.6-31.2c28.9-32.5,44.2-67.3,44.2-67.3l-97.4-0.5c0,0,8.8-54.5-39.6-127c-5.2-7.8-7.6-17.1-6.7-26.4l4.6-52.9
	c0,0,32.9-36.8,12.7-82.5c0,0-19.3-26.7-27-17c0,0-58.3,139-63.6,159.6c-5.3,20.7-12.4,33.7-5.3,98.6c1.9,17.2,2.5,31.5,2.5,43.3
	c-0.1,22.6-5.1,45-14.8,65.4L59.8,636.3z"/>
<g style="opacity:0.2;">
	<path style="fill:#F7C29E;" d="M206.4,546.1c-14.6-16.2-34.9-13.7-56.2-21c-21.3-7.4-28.2-60.7-28.2-60.7c0,2,0.1,4,0,5.8
		c-0.1,22.6-5.1,45-14.8,65.4L59.8,636.3H217l13-35.1c2.3-6.2,5.8-11.8,10.3-16.6c4.5-4.8,9.9-8.6,15.9-11.3
		c9.7-4.4,22.2-11.8,34.9-24.2C247.8,567.2,221,562.4,206.4,546.1z"/>
</g>
<path style="fill:#3D843C;" d="M136.9,6.7c36.1,57.1,125.2,107.9,125.2,107.9s-70.8-5.8-105.9-51.6l12.7-10.6c0,0-10.1,1-18.6,2
	C142.5,41.5,137.4,25.8,136.9,6.7z"/>
<path style="fill:#7FBF43;" d="M231.7,30.3c-5.5,2.5-13.6,6.3-13.6,6.3l7.8-11.3c-9.1-7.1-19.2-11.8-29.1-14.9
	c-4,5.9-8.8,12.4-8.8,12.4l-0.9-15c-26.7-5.7-50.2-1.2-50.2-1.2c36.1,57.1,125.2,107.9,125.2,107.9C261.7,72.7,249,46.5,231.7,30.3z
	"/>
<path style="fill:#7FBF43;" d="M123.6,87.2c9.8-5.8,20.6-9.5,31.9-11c3.2,3.6,7,7.8,7,7.8l0.2-8.5c40.3-1.9,74.2,23.5,74.2,23.5
	c-23,14-42.9,18-59.2,16.8c-1-3-2.5-7.4-2.5-7.4l-2.7,6.8c-7.2-1-14.2-3.1-20.8-6.2c1.5-3.5,3-7.6,3-7.6l-8.6,4.7
	C131.4,97.9,123.6,87.2,123.6,87.2z"/>
<path style="fill:#3D843C;" d="M177.8,115.9c-1-3-2.5-7.4-2.5-7.4l-2.7,6.8c-7.2-1-14.2-3.1-20.8-6.2c1.5-3.5,3-7.6,3-7.6l-8.6,4.7
	c-14.7-8.4-22.5-19-22.5-19C170.5,81.9,237,99.1,237,99.1C214,113.1,194.1,117,177.8,115.9z"/>
<path style="fill:#0B315E;" d="M520.3,81.4l-3.4,25.6l18.2-13.3l55.7-28.5l-43.1,3.9c0,0-21.9,5.3-23.1,6.4
	C523.3,76.7,520.3,81.4,520.3,81.4z"/>
<path style="fill:#305FA4;" d="M501.2,65.9l89.5-0.7l-70.5,16.1L501.2,65.9z"/>
<path style="fill:#305FA4;" d="M549,107.2l-23.5-18.9l65.1-23.1L549,107.2z"/>
<path style="fill:#292929;" d="M511,94.7c1.9-0.8,3.9-1.3,6-1.6l-0.2-1.6c-2.2,0.3-4.3,0.9-6.4,1.7L511,94.7z"/>
<path style="fill:#292929;" d="M454.6,237.5c3.6-1.8,7-3.8,10.4-6l0.9,1.3c-3.4,2.2-6.9,4.3-10.5,6.1L454.6,237.5z M474.4,224.1
	c2.9-2.7,5.6-5.6,8-8.8l1.3,1c-2.5,3.3-5.2,6.3-8.2,9L474.4,224.1z M488.6,205.1c0.8-1.6,1.5-3.4,2.1-5.1c0.7-2,1.4-4,1.9-6.1
	l1.5,0.4c-0.6,2.1-1.2,4.2-1.9,6.3c-0.7,1.8-1.4,3.5-2.2,5.2L488.6,205.1z M495.1,170.1l1.6,0c0.1,4.1,0,8.1-0.4,12.2l-1.6-0.2
	C495.1,178.1,495.2,174.1,495.1,170.1L495.1,170.1z M492.8,146.1l1.6-0.2c0.7,4.7,1.2,8.5,1.5,12l-1.6,0.2
	C493.9,154.6,493.5,150.8,492.8,146.1L492.8,146.1z M491,134.1c-0.6-4-0.8-8.1-0.6-12.1l1.6,0.1c-0.2,3.9,0,7.9,0.6,11.8v0.1
	L491,134.1L491,134.1z M493,109.9c1.6-3.9,3.9-7.3,6.9-10.2l1.1,1.2c-2.9,2.7-5.1,6-6.6,9.7L493,109.9z"/>
<path style="fill:#292929;" d="M438.2,246.1c2.1-0.7,4.1-1.5,6-2.2l-0.6-1.5c-1.9,0.8-3.9,1.5-6,2.2L438.2,246.1z"/>
<path style="fill:#F19C61;" d="M429.9,76c0,0,33.3-22.3,40.9-7.6c7.6,14.7-43.3,66.7-43.3,66.7L429.9,76z"/>
<path style="fill:#F19C61;" d="M429.9,173.2c0,0,33.3-22.3,40.9-7.6s-43.3,66.7-43.3,66.7L429.9,173.2z"/>
<path style="fill:#F19C61;" d="M429.9,239.4c0,0,33.3-22.3,40.9-7.6s-43.3,66.7-43.3,66.7L429.9,239.4z"/>
<path style="fill:#292929;" d="M406.9,51H224.1c-6.5,0-12.8,2.6-17.4,7.2c-4.6,4.6-7.2,10.9-7.2,17.4v373.9c0,6.5,2.6,12.8,7.2,17.4
	c4.6,4.6,10.9,7.2,17.4,7.2h182.8c3.2,0,6.4-0.6,9.4-1.9c3-1.2,5.7-3.1,8-5.3c2.3-2.3,4.1-5,5.3-8c1.2-3,1.9-6.2,1.9-9.4V75.7
	c0-6.5-2.6-12.8-7.2-17.4C419.7,53.6,413.4,51,406.9,51z"/>
<g style="opacity:0.2;">
	<path style="fill:#F7C29E;" d="M216.1,365.4c0,0-33.1,81-29.9,96.3c3.2,15.3,23.3,35.8,72.5,29c49.2-6.8,83.2-16,83.2-16
		s2.1-109.3,0-114.9c-2.1-5.5-90.6-44.9-94-44.9S216.1,365.4,216.1,365.4z"/>
</g>
<path style="fill:#FFFFFF;" d="M419.6,84.6H211.4v356h208.2V84.6z"/>
<g style="opacity:0.3;">
	<path style="fill:#3E82D7;" d="M369,292.3H188.2c-1.5,0-3,0.3-4.3,0.9c-1.4,0.6-2.6,1.4-3.7,2.5c-1.1,1.1-1.9,2.3-2.5,3.7
		c-0.6,1.4-0.9,2.8-0.9,4.3v74.7c0,1.5,0.3,3,0.9,4.3c0.6,1.4,1.4,2.6,2.5,3.7c1.1,1.1,2.3,1.9,3.7,2.5c1.4,0.6,2.8,0.9,4.3,0.9
		h142.3c5.8,8,16.2,22.5,17.1,22.5c0.9,0-0.8-13.6-2-22.5H369c1.5,0,3-0.3,4.3-0.9c1.4-0.6,2.6-1.4,3.7-2.5c1-1.1,1.9-2.3,2.5-3.7
		c0.6-1.4,0.9-2.8,0.9-4.3v-74.7c0-1.5-0.3-3-0.9-4.3c-0.6-1.4-1.4-2.6-2.5-3.7s-2.3-1.9-3.7-2.5C371.9,292.6,370.5,292.3,369,292.3
		z"/>
</g>
<g style="opacity:0.3;">
	<path style="fill:#3E82D7;" d="M433.7,123.1H241.2c-3,0-5.9,1.2-8,3.3c-2.1,2.1-3.3,5-3.3,8v80.3c0,1.5,0.3,3,0.9,4.3
		c0.6,1.4,1.4,2.6,2.5,3.7c1.1,1.1,2.3,1.9,3.7,2.5c1.4,0.6,2.8,0.9,4.3,0.9h20c-1.2,8.8-2.7,21.5-1.8,21.5
		c0.8,0,10.6-13.3,16.4-21.5h157.9c3,0,5.9-1.2,8-3.3c2.1-2.1,3.3-5,3.3-8v-80.3c0-3-1.2-5.9-3.3-8
		C439.6,124.3,436.7,123.1,433.7,123.1z"/>
</g>
<path style="fill:#FFFFFF;" d="M358.4,69h-85.5c-1,0-1.8,0.8-1.8,1.8v0.9c0,1,0.8,1.8,1.8,1.8h85.5c1,0,1.8-0.8,1.8-1.8v-0.9
	C360.2,69.8,359.4,69,358.4,69z"/>
<path style="fill:#F7C29E;" d="M195.3,300c0,0,1.3,4.7,4.1,7l3.4-38.8c0,0,24.2-27,18.4-63.6c-2-12.5-8.2-24-17.7-32.4
	c-5.4-4.8-11.4-8-14.9-3.5c0,0-27.4,65.4-46.4,113.1L195.3,300z"/>
<path style="fill:#305FA4;" d="M361.5,272.9H180.7c-3,0-5.9,1.2-8,3.3c-2.1,2.1-3.3,5-3.3,8v74.7c0,3,1.2,5.9,3.3,8
	c2.1,2.1,5,3.3,8,3.3h142.3c5.8,8,16.2,22.5,17.1,22.5c0.9,0-0.8-13.6-2-22.5h23.3c3,0,5.9-1.2,8-3.3c2.1-2.1,3.3-5,3.3-8v-74.7
	c0-3-1.2-5.9-3.3-8C367.4,274.1,364.5,272.9,361.5,272.9z"/>
<path style="opacity:0.3;fill:#3E82D7;enable-background:new    ;" d="M325.6,457.8c0,2-0.6,4-1.7,5.7c-1.1,1.7-2.7,3-4.6,3.8
	c-1.9,0.8-3.9,1-5.9,0.6c-2-0.4-3.8-1.4-5.2-2.8c-1.4-1.4-2.4-3.3-2.8-5.2c-0.4-2-0.2-4,0.6-5.9c0.8-1.9,2.1-3.5,3.8-4.6
	c1.7-1.1,3.7-1.7,5.7-1.7c2.7,0,5.3,1.1,7.2,3C324.5,452.5,325.6,455.1,325.6,457.8z"/>
<path style="fill:#3E82D7;" d="M318.4,462h-6.1c-0.3,0-0.6-0.1-0.9-0.4c-0.2-0.2-0.4-0.5-0.4-0.9v-6.1c0-0.3,0.1-0.6,0.4-0.9
	c0.2-0.2,0.5-0.4,0.9-0.4h6.1c0.3,0,0.6,0.1,0.9,0.4c0.2,0.2,0.4,0.5,0.4,0.9v6.1c0,0.3-0.1,0.6-0.4,0.9
	C319,461.9,318.7,462,318.4,462z M312.3,453.8c-0.2,0-0.5,0.1-0.6,0.3c-0.2,0.2-0.3,0.4-0.3,0.6v6.1c0,0.2,0.1,0.5,0.3,0.6
	c0.2,0.2,0.4,0.3,0.6,0.3h6.1c0.2,0,0.5-0.1,0.6-0.3c0.2-0.2,0.3-0.4,0.3-0.6v-6.1c0-0.2-0.1-0.5-0.3-0.6c-0.2-0.2-0.4-0.3-0.6-0.3
	H312.3z"/>
<path style="fill:#BECADE;" d="M419.6,419.6H211.4v21.1h208.2V419.6z"/>
<path style="fill:#F19C61;" d="M193.5,207.1c7.6-3.5,11.5-23.2,13-32.1c-6.1-6.1-13.7-11.6-17.9-6.3c0,0-6,14.4-14.4,34.6
	C179.9,206.5,187.8,209.7,193.5,207.1z"/>
<path style="fill:#F3AA78;" d="M384.4,319.1c0,0-28.1,2.4-29.1,9.8c-1,7.5,1.2,20.7,27.7,23.2h27.5c0,0-8.2-22.8-7.8-23.6
	C403,327.8,384.4,319.1,384.4,319.1z"/>
<path style="fill:#F7C29E;" d="M339.3,430.6c-0.9,0.5-1.7,1.1-2.3,1.9c-0.6,0.8-1.1,1.7-1.4,2.7s-0.4,2-0.2,3c0.1,1,0.5,2,1,2.9
	c12.9,22.3,64.4,111.1,69,118.3c5.3,8.3,18.3,27.8,61.3,37.8s60.8,39,60.8,39h132.7c0,0-31.3-49.6-57.2-178.3
	c0,0-20.1-106.9-57.8-103.3c0,0-23-24.2-45.4-19.5c0,0-42.5-25.4-66.6-25.4l-58.1-68.7c-5.8-6.8-15.9-8.1-23-2.7
	c-2.3,1.7-4,4-4.5,7.1c-1.8,11.2,13,39.6,36.6,73.8c23.6,34.2,82,142.9,56.6,190.7c0,0-26-19.5-48.4-50.8
	C373.6,433,351.5,424.2,339.3,430.6z"/>
<path style="fill:#F19C61;" d="M433.2,309.8c7.7,6.6,15,13.7,21.8,21.3c9.2,10,20.8,24.9,27.7,36.4c8.6,14.2,14.3,26.7,17,42.3
	l-0.2,0c-3.1-14.7-11.2-30.5-18.2-41.5c-5.3-8.6-15-22.1-27.3-36.4c-6.2-7.1-14-15.6-20.8-22.1L433.2,309.8z"/>
<path style="fill:#F19C61;" d="M499.3,335c6.3,3.2,11.9,7.7,16.8,12.8c5,5.1,9.3,10.8,12.7,17c3.5,6.2,6.2,12.8,8,19.7
	c1.5,6.4,2.5,10.8,2.7,20.9h-0.2c-0.6-7-1.9-13.9-3.8-20.6c-2-6.5-4.8-13.4-8.2-19.2c-3.4-6.1-7.5-11.8-12.2-16.9
	c-4.4-4.9-10.3-10.1-15.9-13.5L499.3,335z"/>
<path style="fill:#F19C61;" d="M544.6,354.2c5.5,4.2,11.2,11.6,13.9,16.7c3.6,6.3,6.3,13.1,7.9,20.2c1.3,4.8,1.6,9.4,1.8,14.3
	l-0.2,0c-0.8-4.7-1.3-8.2-3-14c-2.6-8.7-4.6-13.1-8.1-19.8c-2.1-4.1-7.4-12.3-12.5-17.3L544.6,354.2z"/>
<path style="fill:#F19C61;" d="M366,458.1c1.2-6-5.8-15.5-12.1-22.6c-1.9-2.2-4.4-3.7-7.2-4.5c-2.8-0.8-5.7-0.7-8.5,0.2
	c-1.5,1.1-2.5,2.8-2.9,4.6c-0.4,1.8-0.1,3.7,0.9,5.4c3.5,6,9.7,16.8,17.1,29.5C358.9,467.9,365,463.7,366,458.1z"/>
<path style="fill:#F19C61;" d="M371.6,268.1c3.4-0.7,18.6-5.7,17.6-8.5l-15-17.8c-2.9-3.4-7-5.6-11.4-6h-0.1c-0.1,0-0.4,0-0.8,0
	c-2,0-7,0.6-8.1,6c-1.1,5.4,7.8,18.5,11.8,23.9c0.7,0.9,1.6,1.6,2.6,2C369.4,268.2,370.5,268.3,371.6,268.1z"/>
<path style="fill:#292929;" d="M105.1,543.5c16.6,10.2,70.2,40.8,125.5,47.3c3.2,0.4,5.5,3.4,4.6,5.9l-9.7,25.9
	c-0.6,1.7-2.6,2.7-4.7,2.5c-16.3-2-83.6-12.1-131-48.8c-1.6-1.2-2.3-3.1-1.7-4.8l9.9-26.5C98.9,542.6,102.4,541.8,105.1,543.5z"/>
<path style="fill:#141414;" d="M100.2,568.3l-0.2-0.1c-0.2-0.1-0.4-0.2-0.6-0.4c-0.2-0.2-0.3-0.4-0.4-0.6c-0.1-0.2-0.2-0.5-0.2-0.7
	c0-0.2,0-0.5,0.1-0.7l3-8c0.1-0.2,0.2-0.4,0.4-0.6c0.2-0.2,0.4-0.3,0.6-0.4c0.2-0.1,0.5-0.2,0.7-0.2c0.2,0,0.5,0,0.7,0.1l0.2,0.1
	c0.5,0.2,0.8,0.5,1.1,1c0.2,0.5,0.2,1,0.1,1.4l-3,8c-0.1,0.2-0.2,0.4-0.4,0.6c-0.2,0.2-0.4,0.3-0.6,0.4c-0.2,0.1-0.5,0.2-0.7,0.2
	C100.7,568.4,100.5,568.3,100.2,568.3z"/>
<path style="fill:#141414;" d="M110.2,574.4l-0.2-0.1c-0.2-0.1-0.4-0.2-0.6-0.4c-0.2-0.2-0.3-0.4-0.4-0.6c-0.1-0.2-0.2-0.5-0.2-0.7
	c0-0.2,0-0.5,0.1-0.7l3-8c0.2-0.5,0.5-0.8,1-1.1c0.5-0.2,1-0.2,1.4,0l0.2,0.1c0.2,0.1,0.4,0.2,0.6,0.4c0.2,0.2,0.3,0.4,0.4,0.6
	c0.1,0.2,0.2,0.5,0.2,0.7c0,0.2,0,0.5-0.1,0.7l-3,8c-0.1,0.2-0.2,0.4-0.4,0.6c-0.2,0.2-0.4,0.3-0.6,0.4c-0.2,0.1-0.5,0.2-0.7,0.2
	C110.7,574.5,110.4,574.5,110.2,574.4z"/>
<path style="fill:#141414;" d="M124.5,569l-0.2-0.1c-1-0.4-2.1,0.1-2.4,1.1l-3,8c-0.4,1,0.1,2.1,1.1,2.4l0.2,0.1
	c1,0.4,2.1-0.1,2.4-1.1l3-8C126,570.4,125.5,569.4,124.5,569z"/>
<path style="fill:#141414;" d="M130.4,585.5l-0.2-0.1c-0.5-0.2-0.8-0.5-1-1s-0.2-1-0.1-1.4l3-8c0.1-0.2,0.2-0.4,0.4-0.6
	c0.2-0.2,0.4-0.3,0.6-0.4c0.2-0.1,0.5-0.2,0.7-0.2c0.2,0,0.5,0,0.7,0.1l0.2,0.1c0.5,0.2,0.8,0.5,1.1,1c0.2,0.5,0.2,1,0,1.4l-3,8
	c-0.2,0.5-0.5,0.8-1,1C131.4,585.6,130.9,585.6,130.4,585.5z"/>
<path style="fill:#141414;" d="M140.5,591.2l-0.2-0.1c-0.5-0.2-0.8-0.5-1.1-1c-0.2-0.5-0.2-1-0.1-1.4l3-8c0.1-0.2,0.2-0.4,0.4-0.6
	c0.2-0.2,0.4-0.3,0.6-0.4c0.2-0.1,0.5-0.2,0.7-0.2c0.2,0,0.5,0,0.7,0.1l0.2,0.1c0.2,0.1,0.4,0.2,0.6,0.4c0.2,0.2,0.3,0.4,0.4,0.6
	c0.1,0.2,0.2,0.5,0.2,0.7c0,0.2,0,0.5-0.1,0.7l-3,8c-0.2,0.5-0.5,0.8-1,1.1C141.5,591.4,141,591.4,140.5,591.2z"/>
<path style="fill:#141414;" d="M151.1,595.8l-0.2-0.1c-0.2-0.1-0.4-0.2-0.6-0.4c-0.2-0.2-0.3-0.4-0.4-0.6c-0.1-0.2-0.2-0.5-0.2-0.7
	c0-0.2,0-0.5,0.1-0.7l3-8c0.2-0.5,0.5-0.8,1-1c0.5-0.2,1-0.2,1.4-0.1l0.2,0.1c0.5,0.2,0.8,0.5,1,1c0.2,0.5,0.2,1,0.1,1.4l-3,8
	c-0.1,0.2-0.2,0.4-0.4,0.6c-0.2,0.2-0.4,0.3-0.6,0.4c-0.2,0.1-0.5,0.2-0.7,0.2C151.6,595.9,151.3,595.9,151.1,595.8z"/>
<path style="fill:#141414;" d="M161.8,599.8l-0.2-0.1c-0.5-0.2-0.8-0.5-1-1c-0.2-0.5-0.2-1-0.1-1.4l3-8c0.2-0.5,0.5-0.8,1-1.1
	c0.5-0.2,1-0.2,1.4-0.1l0.2,0.1c0.2,0.1,0.4,0.2,0.6,0.4c0.2,0.2,0.3,0.4,0.4,0.6c0.1,0.2,0.2,0.5,0.2,0.7c0,0.2,0,0.5-0.1,0.7l-3,8
	c-0.2,0.5-0.5,0.8-1,1.1C162.8,600,162.3,600,161.8,599.8z"/>
<path style="fill:#141414;" d="M177.1,591.8l-0.2-0.1c-1-0.4-2.1,0.1-2.4,1.1l-3,8c-0.4,1,0.1,2.1,1.1,2.4l0.2,0.1
	c1,0.4,2.1-0.1,2.4-1.1l3-8C178.6,593.2,178.1,592.1,177.1,591.8z"/>
<path style="fill:#141414;" d="M184.2,605.5l-0.2-0.1c-0.2-0.1-0.4-0.2-0.6-0.4c-0.2-0.2-0.3-0.4-0.4-0.6c-0.1-0.2-0.2-0.5-0.2-0.7
	c0-0.2,0-0.5,0.1-0.7l3-8c0.2-0.5,0.5-0.8,1-1.1c0.5-0.2,1-0.2,1.4-0.1l0.2,0.1c0.2,0.1,0.4,0.2,0.6,0.4c0.2,0.2,0.3,0.4,0.4,0.6
	c0.1,0.2,0.2,0.5,0.2,0.7c0,0.2,0,0.5-0.1,0.7l-3,8c-0.1,0.2-0.2,0.4-0.4,0.6c-0.2,0.2-0.4,0.3-0.6,0.4c-0.2,0.1-0.5,0.2-0.7,0.2
	C184.7,605.7,184.4,605.6,184.2,605.5z"/>
<path style="fill:#141414;" d="M195.3,608.6l-0.2-0.1c-0.5-0.2-0.8-0.5-1-1c-0.2-0.5-0.2-1-0.1-1.4l3-8c0.2-0.5,0.5-0.8,1-1.1
	c0.5-0.2,1-0.2,1.4-0.1l0.2,0.1c0.5,0.2,0.8,0.5,1.1,1c0.2,0.5,0.2,1,0.1,1.4l-3,8c-0.1,0.2-0.2,0.4-0.4,0.6
	c-0.2,0.2-0.4,0.3-0.6,0.4c-0.2,0.1-0.5,0.2-0.7,0.2C195.8,608.7,195.5,608.7,195.3,608.6z"/>
<path style="fill:#141414;" d="M206.8,610.6l-0.2-0.1c-0.5-0.2-0.8-0.5-1.1-1c-0.2-0.5-0.2-1-0.1-1.4l3-8c0.1-0.2,0.2-0.4,0.4-0.6
	c0.2-0.2,0.4-0.3,0.6-0.4c0.2-0.1,0.5-0.2,0.7-0.2c0.2,0,0.5,0,0.7,0.1l0.2,0.1c0.5,0.2,0.8,0.5,1.1,1c0.2,0.5,0.2,1,0,1.4l-3,8
	c-0.1,0.2-0.2,0.4-0.4,0.6c-0.2,0.2-0.4,0.3-0.6,0.4c-0.2,0.1-0.5,0.2-0.7,0.2C207.3,610.7,207.1,610.6,206.8,610.6z"/>
<path style="fill:#141414;" d="M218.4,612.4l-0.2-0.1c-0.2-0.1-0.4-0.2-0.6-0.4c-0.2-0.2-0.3-0.4-0.4-0.6c-0.1-0.2-0.2-0.5-0.2-0.7
	c0-0.2,0-0.5,0.1-0.7l3-8c0.1-0.2,0.2-0.4,0.4-0.6c0.2-0.2,0.4-0.3,0.6-0.4c0.2-0.1,0.5-0.2,0.7-0.2c0.2,0,0.5,0,0.7,0.1l0.2,0.1
	c0.5,0.2,0.8,0.5,1,1c0.2,0.5,0.2,1,0.1,1.4l-3,8c-0.2,0.5-0.5,0.8-1,1.1S218.9,612.6,218.4,612.4z"/>
<path style="fill:#7FBF43;" d="M138,603.5l0-0.1c-0.2,0-0.4-0.1-0.5-0.1l-13.1-4.9c-0.6-0.3-1.1-0.8-1.4-1.4c-0.3-0.6-0.3-1.4,0-2
	l11.8-31.7c0.2-0.7,0.7-1.2,1.3-1.5c0.6-0.3,1.3-0.4,2-0.2l13.1,4.9c0.4,0.1,0.7,0.4,1,0.7c0.3,0.3,0.4,0.7,0.5,1
	c1,0.4,2.1,0.9,3.1,1.3c0.4-2.7-1-5.2-3.5-6.2l-13.1-4.9c-2.9-1.1-6.1,0.6-7.3,3.7l-11.8,31.7c-1.2,3.1,0.2,6.5,3.1,7.6l13.1,4.9
	c1,0.3,2,0.4,3,0.2c1-0.2,1.9-0.7,2.7-1.4C140.7,604.6,139.3,604.1,138,603.5z"/>
<path style="fill:#FFFFFF;" d="M135.1,578.4l-5.7-2.1c-0.5-0.2-1.1-0.1-1.6,0.1c-0.5,0.2-0.9,0.7-1.1,1.2c-0.2,0.5-0.2,1.1,0,1.6
	c0.2,0.5,0.6,0.9,1.1,1.1l5.7,2.1L135.1,578.4z"/>
<g style="opacity:0.2;">
	<path style="fill:#F7C29E;" d="M527.4,636.3h132.7c0,0-20.5-32.5-42.1-113.2c-9.5,59.4-61.7,56-82.4,59.3
		c-23.9,3.8-116.5-15.5-129.5-21.6c5.8,8.8,19.5,27,60.6,36.6C509.7,607.4,527.4,636.3,527.4,636.3z"/>
</g>
<g style="opacity:0.2;">
	<path style="fill:#F7C29E;" d="M391.1,330c26,41.9,72.7,138,49.6,179.9l15.3,15.1c0,0,38.7-43-22.9-137.7
		C420.2,367.5,406.2,348.4,391.1,330z"/>
</g>
<path style="fill:#FFFFFF;" d="M236.6,321.6c0,5.6-1.7,11.1-4.8,15.8c-3.1,4.7-7.5,8.3-12.7,10.5c-5.2,2.1-10.9,2.7-16.4,1.6
	c-5.5-1.1-10.6-3.8-14.5-7.8c-4-4-6.7-9-7.8-14.5c-1.1-5.5-0.5-11.2,1.6-16.4c2.1-5.2,5.8-9.6,10.4-12.7c4.7-3.1,10.1-4.8,15.8-4.8
	c7.5,0,14.7,3,20,8.3C233.6,306.8,236.6,314,236.6,321.6z"/>
<path d="M193.5,322.3c0,0-2.8-11.5,3.9-15.9c6.7-4.3,13.8-5.3,18.7-2.8c6.8,3.5,9.6,12.8,7.4,17.9l-18-4.5L193.5,322.3z"/>
<path style="fill:#F7C29E;" d="M212.7,335.9h-8.3v8.3h8.3V335.9z"/>
<path style="fill:#F19A5E;" d="M212.7,340.8v-5h-8.3v4.2C206.2,341.1,208.8,341.6,212.7,340.8z"/>
<path style="fill:#F7C29E;" d="M225.8,321c-0.4-0.2-0.9-0.3-1.4-0.3c-0.5,0-1,0.2-1.4,0.4c-0.1-3.9-1.7-7.6-4.4-10.3
	c-2.8-2.7-6.5-4.3-10.4-4.3c-3.9,0-7.6,1.5-10.4,4.3c-2.8,2.7-4.4,6.4-4.4,10.3c-0.4-0.2-0.9-0.4-1.4-0.4c-0.5,0-1,0.1-1.4,0.3
	c-1.7,0.8-2.2,3.2-1.2,5.3s3.2,3.1,4.9,2.3c0.2-0.1,0.4-0.3,0.6-0.4c1,6.8,6.6,11.9,13.3,11.8c6.6,0.1,12.3-5,13.3-11.8
	c0.2,0.2,0.4,0.3,0.6,0.4c1.7,0.8,3.9-0.2,4.9-2.3C228,324.1,227.5,321.8,225.8,321z"/>
<path style="fill:#FFFFFF;" d="M213.7,330.7c-0.4,1.6-2.3,2.9-4.6,3c-2.3,0.1-4.3-1.1-4.7-2.7L213.7,330.7z"/>
<path d="M193.4,321.1c0,0,10.9-3.3,15.7-8.8c0,0-1.3,6.6-2.4,7.7c0.3,0.2,10.9-4.9,12.3-9.7c1.4-4.7-10.8-6.4-10.8-6.4
	s-4.2,1.8-4.4,1.9c-0.2,0.1-4.1,0.6-4.6,1.6c-0.6,1.3-3.4,1.4-3.4,1.4l-1.8,3.7l-1.2,3.8L193.4,321.1z"/>
<path d="M184.5,306.1c2.4,1,5.2,1.4,8.1,0.5c6.4-2,8.9-1.2,9.7-0.7c0.2,0.2,0.5,0.2,0.8,0.3c0.3,0,0.6,0,0.9-0.1
	c0.6-0.2,1.2-0.8,1-2.2c0,0,0.3-6-4.9-9.5C193.6,296.3,188.1,300.5,184.5,306.1z"/>
<path style="fill:#7FBF43;" d="M198.2,305.7c0-0.1-0.1-0.1-0.1-0.2c0-0.1,0-0.1,0-0.2c0-0.1,0-0.1,0.1-0.2c0-0.1,0.1-0.1,0.2-0.2
	c1.1-0.7,3.8-2.3,7.1-2.4c0.1,0,0.1,0,0.2,0c0.1,0,0.1,0.1,0.2,0.1c0.1,0.1,0.1,0.1,0.1,0.2c0,0.1,0,0.1,0,0.2
	c0,0.1-0.1,0.3-0.1,0.4s-0.2,0.2-0.4,0.2c-3,0.2-5.6,1.6-6.5,2.3c-0.1,0.1-0.3,0.1-0.4,0.1C198.4,305.8,198.2,305.8,198.2,305.7z"/>
<path style="fill:#5DB7E3;" d="M442.9,101.7H250.4c-3,0-5.9,1.2-8,3.3c-2.1,2.1-3.3,5-3.3,8v80.3c0,1.5,0.3,3,0.9,4.3
	s1.4,2.6,2.5,3.7c1.1,1.1,2.3,1.9,3.7,2.5c1.4,0.6,2.8,0.9,4.3,0.9h20c-1.2,8.8-2.7,21.5-1.8,21.5c0.8,0,10.6-13.3,16.5-21.5h157.9
	c1.5,0,3-0.3,4.3-0.9c1.4-0.6,2.6-1.4,3.7-2.5c1-1.1,1.9-2.3,2.5-3.7c0.6-1.4,0.9-2.8,0.9-4.3v-80.3c0-1.5-0.3-3-0.9-4.3
	c-0.6-1.4-1.4-2.6-2.5-3.7c-1.1-1.1-2.3-1.9-3.7-2.5C445.9,102,444.4,101.7,442.9,101.7z"/>
<path style="fill:#FFFFFF;" d="M301.5,166.6c7.2-13.9,1.8-31-12.1-38.3c-13.9-7.2-31-1.8-38.2,12.1c-7.2,13.9-1.8,31,12.1,38.3
	C277.2,185.9,294.3,180.5,301.5,166.6z"/>
<path style="fill:#F7C29E;" d="M280.9,167.8h-8.3v8.3h8.3V167.8z"/>
<path style="fill:#F19A5E;" d="M280.9,172.8v-5h-8.3v4.2C274.3,173,277,173.5,280.9,172.8z"/>
<path style="fill:#F7C29E;" d="M294,152.9c-0.4-0.2-0.9-0.3-1.4-0.3c-0.5,0-1,0.2-1.4,0.4c0-3.9-1.6-7.7-4.3-10.5
	c-2.8-2.8-6.5-4.3-10.5-4.3s-7.7,1.6-10.5,4.3s-4.3,6.6-4.3,10.5c-0.4-0.2-0.9-0.4-1.4-0.4c-0.5,0-1,0.1-1.4,0.3
	c-1.7,0.8-2.2,3.2-1.2,5.3c1,2.1,3.2,3.1,4.9,2.3c0.2-0.1,0.4-0.3,0.6-0.4c1,6.8,6.6,11.9,13.3,11.8c6.6,0.1,12.3-5,13.3-11.8
	c0.2,0.2,0.4,0.3,0.6,0.4c1.7,0.8,3.9-0.2,4.9-2.3C296.2,156.1,295.7,153.7,294,152.9z"/>
<path style="fill:#050505;" d="M266.3,134.9c0,0,4.2-3.5,13.7-3c9.5,0.6,11.3,5.5,11.8,12.6l-0.6,8.4c0,0-2.5-2.5-5.7-9.6
	c0,0-5.3,6-7.6,5.3s0.9-5,0.9-5S268,153,261.6,153c0,0-3.4-10.9,1.4-14.9c0,0-3.6,0.2-3.8-0.5c-0.2-0.7,1.7-1.8,5.1-1.4
	c0,0-2.4-4.8-1.1-5.3C264.6,130.4,266.3,134.9,266.3,134.9z"/>
<path style="fill:#FFFFFF;" d="M281.8,162.6c-0.4,1.6-2.3,2.9-4.6,3c-2.3,0.1-4.2-1.1-4.7-2.7L281.8,162.6z"/>
<path style="fill:#FFFFFF;" d="M425,124.9H316.8c-1.3,0-2.3,1-2.3,2.3v0.2c0,1.3,1,2.3,2.3,2.3H425c1.3,0,2.3-1,2.3-2.3v-0.2
	C427.3,125.9,426.3,124.9,425,124.9z"/>
<path style="fill:#FFFFFF;" d="M338.8,137.9h-22c-1.3,0-2.3,1-2.3,2.3v0.2c0,1.3,1,2.3,2.3,2.3h22c1.3,0,2.3-1,2.3-2.3v-0.2
	C341.1,138.9,340.1,137.9,338.8,137.9z"/>
<path style="fill:#FFFFFF;" d="M425,137.9h-71.4c-1.3,0-2.3,1-2.3,2.3v0.2c0,1.3,1,2.3,2.3,2.3H425c1.3,0,2.3-1,2.3-2.3v-0.2
	C427.3,138.9,426.3,137.9,425,137.9z"/>
<path style="fill:#FFFFFF;" d="M316.8,150.9h53.6c0.6,0,1.2,0.2,1.7,0.7c0.4,0.4,0.7,1,0.7,1.7v0.2c0,0.6-0.2,1.2-0.7,1.7
	c-0.4,0.4-1,0.7-1.7,0.7h-53.6c-0.6,0-1.2-0.2-1.7-0.7c-0.4-0.4-0.7-1-0.7-1.7v-0.2c0-0.6,0.2-1.2,0.7-1.7
	C315.6,151.1,316.2,150.9,316.8,150.9L316.8,150.9z"/>
<path style="fill:#FFFFFF;" d="M425,150.9h-41.3c-1.3,0-2.3,1-2.3,2.3v0.2c0,1.3,1,2.3,2.3,2.3H425c1.3,0,2.3-1,2.3-2.3v-0.2
	C427.3,151.9,426.3,150.9,425,150.9z"/>
<path style="fill:#FFFFFF;" d="M425,163.9H316.8c-1.3,0-2.3,1-2.3,2.3v0.2c0,1.3,1,2.3,2.3,2.3H425c1.3,0,2.3-1,2.3-2.3v-0.2
	C427.3,165,426.3,163.9,425,163.9z"/>
<path style="fill:#FFFFFF;" d="M277.7,297.1h-33.3c-1.3,0-2.3,1-2.3,2.3v0.2c0,1.3,1,2.3,2.3,2.3h33.3c1.3,0,2.3-1,2.3-2.3v-0.2
	C280.1,298.2,279,297.1,277.7,297.1z"/>
<path style="fill:#FFFFFF;" d="M265.4,310.1h-21c-1.3,0-2.3,1-2.3,2.3v0.2c0,1.3,1,2.3,2.3,2.3h21c1.3,0,2.3-1,2.3-2.3v-0.2
	C267.7,311.2,266.7,310.1,265.4,310.1z"/>
<path style="fill:#FFFFFF;" d="M301.4,310.1h-26.9c-1.3,0-2.3,1-2.3,2.3v0.2c0,1.3,1,2.3,2.3,2.3h26.9c1.3,0,2.3-1,2.3-2.3v-0.2
	C303.7,311.2,302.7,310.1,301.4,310.1z"/>
<path style="fill:#FFFFFF;" d="M348.4,310.1h-37.9c-1.3,0-2.3,1-2.3,2.3v0.2c0,1.3,1,2.3,2.3,2.3h37.9c1.3,0,2.3-1,2.3-2.3v-0.2
	C350.7,311.2,349.7,310.1,348.4,310.1z"/>
<path style="fill:#FFFFFF;" d="M348.4,297.1h-59.7c-1.3,0-2.3,1-2.3,2.3v0.2c0,1.3,1,2.3,2.3,2.3h59.7c1.3,0,2.3-1,2.3-2.3v-0.2
	C350.7,298.2,349.7,297.1,348.4,297.1z"/>
<path style="fill:#FFFFFF;" d="M348.4,335.6H244.4c-1.3,0-2.3,1-2.3,2.3v0.2c0,1.3,1,2.3,2.3,2.3h103.9c1.3,0,2.3-1,2.3-2.3V338
	C350.7,336.7,349.7,335.6,348.4,335.6z"/>
<path style="fill:#FFFFFF;" d="M295.9,323.1h-51.4c-1.3,0-2.3,1-2.3,2.3v0.2c0,1.3,1,2.3,2.3,2.3h51.4c1.3,0,2.3-1,2.3-2.3v-0.2
	C298.2,324.2,297.2,323.1,295.9,323.1z"/>
<path style="fill:#FFFFFF;" d="M348.4,323.1h-39.6c-1.3,0-2.3,1-2.3,2.3v0.2c0,1.3,1,2.3,2.3,2.3h39.6c1.3,0,2.3-1,2.3-2.3v-0.2
	C350.7,324.2,349.7,323.1,348.4,323.1z"/>
<path style="fill:#292929;" d="M76,307.2c-1.5-1.4-3.2-2.6-5.1-3.5l0.7-1.4c1.9,1,3.8,2.3,5.4,3.8L76,307.2z"/>
<path style="fill:#292929;" d="M78.5,461.7c-2.8-3-5.4-6.1-7.8-9.4l1.3-0.9c2.4,3.2,4.9,6.3,7.7,9.2L78.5,461.7z M64.3,442
	c-1.9-3.6-3.4-7.4-4.6-11.3l1.5-0.5c1.2,3.8,2.7,7.5,4.5,11L64.3,442z M57.3,418.7c-0.2-1.9-0.3-3.8-0.3-5.7c0-2.1,0.1-4.4,0.3-6.6
	l1.6,0.2c-0.2,2.1-0.3,4.3-0.3,6.4c0,1.9,0.1,3.7,0.3,5.5L57.3,418.7z M61.1,394.8l-1.5-0.4c1-3.9,2.3-7.8,3.8-11.6l1.5,0.6
	C63.4,387.2,62.2,391,61.1,394.8z M69.8,372.4l-1.4-0.7c1.5-3.2,3.3-6.6,5.6-10.8l1.4,0.8C73.1,365.9,71.3,369.3,69.8,372.4
	L69.8,372.4z M81.1,351.1l-1.4-0.7l0-0.1c1.9-3.5,3.5-7.1,4.6-10.9l1.5,0.5C84.7,343.7,83.1,347.5,81.1,351.1L81.1,351.1z M86,327.7
	c-0.1-3.9-1.1-7.8-2.8-11.3l1.4-0.7c1.8,3.7,2.9,7.8,3,12L86,327.7z"/>
<path style="fill:#292929;" d="M92.1,474.4c-1.7-1.4-3.3-2.8-4.9-4.2l1.1-1.2c1.5,1.4,3.2,2.8,4.8,4.1L92.1,474.4z"/>
<path style="fill:#0B315E;" d="M65.4,280.1l-2.1,25.8l-15-16.9L0,249.4l41.2,13c0,0,20.3,9.9,21.2,11.2
	C63.4,274.9,65.4,280.1,65.4,280.1z"/>
<path style="fill:#305FA4;" d="M87.3,269L0,249.4l65.4,30.7L87.3,269z"/>
<path style="fill:#305FA4;" d="M31.8,299.2l26.9-13.4L0,249.4L31.8,299.2z"/>
</svg>
