<svg width="807" height="680" viewBox="0 0 807 680" fill="none" xmlns="http://www.w3.org/2000/svg">
<path d="M460.957 678.919C460.957 678.919 564.572 666.493 573.975 609.388C583.378 552.283 341.071 643.032 152.377 622.846C-31.3113 603.175 -37.5054 489.929 72.9548 474.811C183.415 459.694 362.211 498.631 308.979 340.234C255.746 181.837 434.654 322.694 625.166 360.668C815.677 398.641 848.824 -191.883 434.565 -50.8686C257.788 9.30973 196.678 -118 196.678 -118H810.134V678.919H460.957Z" fill="#BAC529"/>
<path d="M810.133 404.45C810.133 404.45 783.203 340.638 713.632 374.776C644.061 408.913 588.584 438.879 574.042 404.45C559.499 370.021 498.704 393.504 521.168 474.744C543.633 555.984 662.554 554.032 694.556 488.202C726.559 422.371 741.685 410.932 761.882 410.797C782.08 410.663 815.183 457.137 755.15 501.188C695.117 545.24 687.823 572.178 704.655 592.925C721.487 613.672 720.926 650.12 658.649 633.859C596.372 617.597 579.54 678.718 579.54 678.718H810.133V404.45Z" fill="#3D843C"/>
<path d="M460.957 678.919C460.957 678.919 564.572 666.493 573.975 609.388C583.378 552.283 341.071 643.032 152.377 622.846C-31.3113 603.175 -37.5054 489.929 72.9548 474.811C183.415 459.694 362.211 498.631 308.979 340.234C255.746 181.837 434.654 322.694 625.166 360.668C815.677 398.641 848.824 -191.883 434.565 -50.8686C257.788 9.30973 196.678 -118 196.678 -118H810.134V678.919H460.957Z" fill="#BAC529"/>
<path d="M810.133 404.45C810.133 404.45 783.203 340.638 713.632 374.776C644.061 408.913 588.584 438.879 574.042 404.45C559.499 370.021 498.704 393.504 521.168 474.744C543.633 555.984 662.554 554.032 694.556 488.202C726.559 422.371 741.685 410.932 761.882 410.797C782.08 410.663 815.183 457.137 755.15 501.188C695.117 545.24 687.823 572.178 704.655 592.925C721.487 613.672 720.926 650.12 658.649 633.859C596.372 617.597 579.54 678.718 579.54 678.718H810.133V404.45Z" fill="#3D843C"/>
<path d="M87.9199 679.267H245.101L258.137 644.13C260.437 637.976 263.933 632.34 268.423 627.546C272.912 622.753 278.306 618.897 284.293 616.203C295.681 611.048 310.998 601.69 325.852 585.003C354.752 552.547 370.089 517.695 370.089 517.695L272.678 517.22C272.678 517.22 281.444 462.679 233.03 390.256C227.855 382.496 225.48 373.2 226.298 363.905L230.888 311.048C230.888 311.048 263.788 274.25 243.603 228.591C243.603 228.591 224.303 201.842 216.644 211.633C216.644 211.633 158.356 350.606 153.029 371.269C147.702 391.933 140.642 404.923 147.721 469.866C149.593 487.056 150.269 501.394 150.246 513.182C150.196 535.814 145.154 558.156 135.481 578.612L87.9199 679.267Z" fill="#F7C29E"/>
<g style="mix-blend-mode:multiply" opacity="0.2">
<path d="M234.536 589.117C219.945 572.889 199.679 575.466 178.367 568.071C157.055 560.676 150.215 507.355 150.215 507.355C150.246 509.365 150.265 511.32 150.261 513.201C150.211 535.833 145.169 558.175 135.496 578.631L87.9199 679.267H245.101L258.137 644.13C260.437 637.976 263.933 632.339 268.423 627.546C272.912 622.752 278.306 618.897 284.293 616.202C293.982 611.813 306.524 604.379 319.197 591.976C275.905 610.19 249.108 605.329 234.536 589.117Z" fill="#F7C29E"/>
</g>
<path d="M165.018 49.6824C201.152 106.754 290.218 157.613 290.218 157.613C290.218 157.613 219.419 151.86 184.284 106.059L197.022 95.4992C197.022 95.4992 186.897 96.4806 178.412 97.462C170.599 84.4835 165.539 68.7502 165.018 49.6824Z" fill="#3D843C"/>
<path d="M259.833 73.2862C254.336 75.7822 246.206 79.5842 246.206 79.5842L254.039 68.3212C244.917 61.2157 234.881 56.4826 224.929 53.3838C220.899 59.2606 216.159 65.8291 216.159 65.8291L215.236 50.8337C188.574 45.0883 165.035 49.6746 165.035 49.6746C201.17 106.747 290.235 157.606 290.235 157.606C289.814 115.684 277.057 89.4987 259.833 73.2862Z" fill="#7FBF43"/>
<path d="M151.75 130.223C161.526 124.432 172.377 120.691 183.643 119.226C186.8 122.831 190.672 127.074 190.672 127.074L190.888 118.573C231.165 116.642 265.122 142.03 265.122 142.03C242.074 156.068 222.24 160.001 205.896 158.838C204.866 155.871 203.403 151.447 203.403 151.447L200.67 158.282C193.464 157.252 186.449 155.169 179.848 152.099C181.299 148.553 182.82 144.499 182.82 144.499L174.231 149.213C159.49 140.852 151.75 130.223 151.75 130.223Z" fill="#7FBF43"/>
<path d="M205.896 158.835C204.866 155.867 203.403 151.443 203.403 151.443L200.67 158.278C193.464 157.249 186.449 155.166 179.848 152.096C181.299 148.549 182.82 144.496 182.82 144.496L174.231 149.21C159.49 140.853 151.75 130.223 151.75 130.223C198.612 124.86 265.122 142.039 265.122 142.039C242.074 156.064 222.24 159.998 205.896 158.835Z" fill="#3D843C"/>
<path d="M548.368 124.346L544.967 149.979L563.156 136.684L618.811 108.2L575.751 112.145C575.751 112.145 553.814 117.481 552.629 118.555C551.444 119.629 548.368 124.346 548.368 124.346Z" fill="#0B315E"/>
<path d="M529.283 108.868L618.812 108.215L548.352 124.346L529.283 108.868Z" fill="#305FA4"/>
<path d="M577.136 150.133L553.674 131.27L618.814 108.215L577.136 150.133Z" fill="#305FA4"/>
<path d="M539.122 137.699C541.048 136.949 543.053 136.422 545.098 136.127L544.928 134.535C542.748 134.842 540.61 135.401 538.559 136.2L539.122 137.699Z" fill="#292929"/>
<path d="M482.705 280.447C486.277 278.649 489.738 276.639 493.07 274.427L493.957 275.76C490.571 278.006 487.055 280.048 483.427 281.877L482.705 280.447ZM502.504 267.082C505.445 264.399 508.136 261.451 510.541 258.277L511.814 259.239C509.355 262.491 506.603 265.511 503.592 268.261L502.504 267.082ZM516.717 248.092C517.489 246.442 518.222 244.726 518.863 242.988C519.585 241.021 520.226 238.962 520.762 236.875L522.306 237.262C521.754 239.402 521.098 241.512 520.376 243.529C519.72 245.314 518.979 247.076 518.176 248.768L516.717 248.092ZM523.175 213.094L524.773 213.059C524.884 217.122 524.755 221.189 524.387 225.238L522.796 225.087C523.16 221.1 523.29 217.096 523.186 213.094H523.175ZM520.901 189.107L522.484 188.879C523.152 193.562 523.642 197.38 523.985 200.923L522.395 201.081C522.051 197.573 521.577 193.767 520.913 189.107H520.901ZM519.11 177.056C518.491 173.04 518.288 168.97 518.504 164.912L520.102 165.009C519.89 168.956 520.088 172.914 520.693 176.82V176.913L519.11 177.129V177.056ZM521.121 152.888C522.679 149.026 525.048 145.544 528.069 142.68L529.17 143.839C526.315 146.551 524.077 149.845 522.607 153.499L521.121 152.888Z" fill="#292929"/>
<path d="M466.263 289.083C468.321 288.368 470.351 287.618 472.293 286.853L471.706 285.362C469.776 286.135 467.776 286.865 465.738 287.572L466.263 289.083Z" fill="#292929"/>
<path d="M457.976 118.987C457.976 118.987 491.266 96.6855 498.87 111.38C506.474 126.074 455.613 178.069 455.613 178.069L457.976 118.987Z" fill="#F19C61"/>
<path d="M457.976 216.165C457.976 216.165 491.266 193.863 498.87 208.557C506.474 223.251 455.613 275.246 455.613 275.246L457.976 216.165Z" fill="#F19C61"/>
<path d="M457.976 282.375C457.976 282.375 491.266 260.073 498.87 274.767C506.474 289.461 455.613 341.457 455.613 341.457L457.976 282.375Z" fill="#F19C61"/>
<path d="M434.98 93.9963H252.206C245.67 93.9963 239.402 96.5951 234.78 101.221C230.159 105.847 227.562 112.121 227.562 118.663V492.55C227.564 499.092 230.16 505.366 234.781 509.992C239.402 514.618 245.67 517.218 252.206 517.22H434.98C438.216 517.22 441.421 516.582 444.411 515.342C447.401 514.103 450.118 512.285 452.406 509.994C454.695 507.703 456.51 504.984 457.748 501.991C458.986 498.998 459.623 495.79 459.623 492.55V118.663C459.622 112.121 457.025 105.848 452.404 101.222C447.783 96.5965 441.515 93.9974 434.98 93.9963Z" fill="#292929"/>
<g style="mix-blend-mode:multiply" opacity="0.2">
<path d="M244.212 408.366C244.212 408.366 211.154 489.366 214.362 504.682C217.57 519.998 237.631 540.48 286.852 533.661C336.072 526.841 370.092 517.703 370.092 517.703C370.092 517.703 372.149 408.385 370.092 402.844C368.034 397.304 279.537 357.951 276.055 357.951C272.573 357.951 244.212 408.366 244.212 408.366Z" fill="#F7C29E"/>
</g>
<path d="M447.68 127.615H239.51V483.598H447.68V127.615Z" fill="white"/>
<g style="mix-blend-mode:multiply" opacity="0.3">
<path d="M397.081 335.248H216.295C214.809 335.247 213.339 335.539 211.967 336.108C210.594 336.676 209.348 337.51 208.297 338.561C207.247 339.612 206.414 340.86 205.845 342.233C205.277 343.606 204.984 345.078 204.984 346.565V421.244C204.984 422.73 205.277 424.202 205.845 425.576C206.414 426.949 207.247 428.197 208.297 429.248C209.348 430.299 210.594 431.132 211.967 431.701C213.339 432.269 214.809 432.561 216.295 432.561H358.626C364.389 440.605 374.838 455.013 375.753 455.013C376.668 455.013 374.954 441.405 373.785 432.561H397.081C398.566 432.561 400.036 432.269 401.409 431.701C402.781 431.132 404.028 430.299 405.078 429.248C406.128 428.197 406.961 426.949 407.53 425.576C408.098 424.202 408.391 422.73 408.391 421.244V346.565C408.391 345.078 408.098 343.606 407.53 342.233C406.961 340.86 406.128 339.612 405.078 338.561C404.028 337.51 402.781 336.676 401.409 336.108C400.036 335.539 398.566 335.247 397.081 335.248Z" fill="#3E82D7"/>
</g>
<g style="mix-blend-mode:multiply" opacity="0.3">
<path d="M461.797 166.056H269.338C266.34 166.055 263.465 167.245 261.344 169.365C259.224 171.485 258.03 174.361 258.027 177.361V257.635C258.027 259.122 258.32 260.594 258.888 261.967C259.457 263.34 260.29 264.588 261.34 265.639C262.391 266.69 263.637 267.524 265.01 268.092C266.382 268.661 267.853 268.953 269.338 268.952H289.322C288.164 277.789 286.643 290.462 287.476 290.462C288.31 290.462 298.061 277.128 303.925 268.952H461.805C464.801 268.948 467.673 267.754 469.79 265.632C471.907 263.51 473.096 260.634 473.096 257.635V177.361C473.093 174.363 471.901 171.489 469.783 169.369C467.664 167.25 464.792 166.058 461.797 166.056Z" fill="#3E82D7"/>
</g>
<path d="M386.51 111.967H301.016C300.027 111.967 299.225 112.769 299.225 113.76V114.633C299.225 115.623 300.027 116.426 301.016 116.426H386.51C387.5 116.426 388.302 115.623 388.302 114.633V113.76C388.302 112.769 387.5 111.967 386.51 111.967Z" fill="white"/>
<path d="M223.418 342.94C223.418 342.94 224.676 347.616 227.514 349.895L230.891 311.049C230.891 311.049 255.094 284.002 249.246 247.478C247.275 234.958 241.012 223.516 231.532 215.114C226.128 210.347 220.156 207.159 216.647 211.637C216.647 211.637 189.24 276.989 170.283 324.726L223.418 342.94Z" fill="#F7C29E"/>
<path d="M389.617 315.878H208.828C205.829 315.878 202.953 317.071 200.833 319.193C198.713 321.315 197.521 324.194 197.521 327.195V401.871C197.521 404.872 198.713 407.751 200.833 409.873C202.953 411.996 205.829 413.188 208.828 413.188H351.163C356.922 421.236 367.375 435.644 368.29 435.644C369.151 435.644 367.491 422.036 366.318 413.188H389.617C392.616 413.188 395.492 411.996 397.612 409.873C399.733 407.751 400.924 404.872 400.924 401.871V327.195C400.924 324.194 399.733 321.315 397.612 319.193C395.492 317.071 392.616 315.878 389.617 315.878Z" fill="#305FA4"/>
<path opacity="0.3" d="M353.695 500.761C353.695 502.785 353.095 504.764 351.972 506.448C350.848 508.131 349.251 509.443 347.382 510.217C345.513 510.992 343.457 511.194 341.473 510.799C339.49 510.404 337.668 509.429 336.238 507.997C334.808 506.565 333.834 504.741 333.44 502.755C333.046 500.77 333.249 498.711 334.024 496.841C334.798 494.971 336.109 493.373 337.791 492.249C339.474 491.124 341.451 490.525 343.474 490.526C346.185 490.527 348.785 491.605 350.702 493.525C352.618 495.444 353.695 498.047 353.695 500.761Z" fill="#3E82D7"/>
<path d="M346.518 505.011H340.423C340.102 505.011 339.795 504.883 339.567 504.657C339.34 504.43 339.212 504.122 339.211 503.801V497.696C339.212 497.375 339.34 497.068 339.567 496.841C339.795 496.614 340.102 496.487 340.423 496.487H346.518C346.839 496.487 347.147 496.614 347.374 496.841C347.601 497.068 347.729 497.375 347.73 497.696V503.801C347.729 504.122 347.601 504.43 347.374 504.657C347.147 504.883 346.839 505.011 346.518 505.011ZM340.423 496.816C340.189 496.816 339.965 496.908 339.799 497.073C339.634 497.238 339.54 497.462 339.539 497.696V503.801C339.54 504.035 339.634 504.259 339.799 504.424C339.965 504.589 340.189 504.682 340.423 504.682H346.518C346.752 504.682 346.976 504.589 347.142 504.424C347.308 504.259 347.401 504.035 347.402 503.801V497.696C347.401 497.462 347.308 497.238 347.142 497.073C346.976 496.908 346.752 496.816 346.518 496.816H340.423Z" fill="#3E82D7"/>
<path d="M447.68 462.54H239.51V483.597H447.68V462.54Z" fill="#BECADE"/>
<path d="M221.576 250.031C229.134 246.542 233.106 226.818 234.538 217.931C228.459 211.811 220.831 206.301 216.662 211.633C216.662 211.633 210.625 226.026 202.256 246.233C207.961 249.433 215.909 252.64 221.576 250.031Z" fill="#F19C61"/>
<path d="M412.47 362.069C412.47 362.069 384.352 364.43 383.368 371.907C382.384 379.383 384.549 392.574 411.091 395.132H438.583C438.583 395.132 430.361 372.301 430.751 371.516C431.141 370.732 412.47 362.069 412.47 362.069Z" fill="#F3AA78"/>
<path d="M367.355 473.625C366.454 474.111 365.66 474.774 365.02 475.574C364.38 476.375 363.907 477.295 363.63 478.282C363.353 479.269 363.277 480.301 363.407 481.318C363.537 482.335 363.871 483.315 364.387 484.2C377.322 506.537 428.77 595.295 433.406 602.517C438.714 610.781 451.692 630.267 494.748 640.301C537.804 650.335 555.503 679.267 555.503 679.267H688.215C688.215 679.267 656.947 629.675 631 500.969C631 500.969 610.927 394.108 573.198 397.651C573.198 397.651 550.195 373.445 527.779 378.17C527.779 378.17 485.318 352.781 461.13 352.781L403.042 284.067C397.291 277.267 387.158 275.953 380.09 281.363C377.816 283.105 376.083 285.408 375.604 288.445C373.833 299.65 388.578 327.999 412.172 362.243C435.765 396.488 494.161 505.119 468.796 552.941C468.796 552.941 442.844 533.456 420.428 502.167C401.66 475.947 379.58 467.145 367.355 473.625Z" fill="#F7C29E"/>
<path d="M461.344 352.808C469.034 359.442 476.299 366.554 483.096 374.102C492.31 384.148 503.941 399.019 510.777 410.51C519.389 424.721 525.059 437.17 527.762 452.826L527.588 452.865C524.5 438.183 516.393 422.341 509.368 411.395C504.099 402.844 494.34 389.259 482.046 375.017C475.87 367.889 468.034 359.462 461.201 352.936L461.344 352.808Z" fill="#F19C61"/>
<path d="M527.399 377.984C533.672 381.195 539.262 385.677 544.206 390.735C549.177 395.82 553.46 401.536 556.945 407.736C560.435 413.935 563.114 420.558 564.916 427.441C566.46 433.862 567.425 438.217 567.587 448.379H567.41C566.833 441.414 565.551 434.525 563.584 427.819C561.593 421.34 558.794 414.377 555.405 408.601C551.994 402.507 547.893 396.826 543.184 391.67C538.74 386.805 532.931 381.551 527.314 378.123L527.399 377.984Z" fill="#F19C61"/>
<path d="M572.708 397.157C578.255 401.353 583.872 408.787 586.605 413.81C590.215 420.135 592.886 426.953 594.533 434.049C595.846 438.844 596.178 443.499 596.382 448.376L596.209 448.399C595.39 443.673 594.877 440.15 593.198 434.431C590.619 425.757 588.597 421.294 585.142 414.606C583.077 410.483 577.719 402.319 572.643 397.285L572.708 397.157Z" fill="#F19C61"/>
<path d="M394.145 501.112C395.303 495.135 388.355 485.657 382.047 478.505C380.148 476.333 377.651 474.77 374.869 474.011C372.087 473.251 369.144 473.329 366.406 474.235C364.908 475.36 363.874 476.996 363.502 478.833C363.13 480.67 363.445 482.58 364.387 484.2C367.861 490.201 374.122 501 381.503 513.723C387.015 510.907 393.056 506.641 394.145 501.112Z" fill="#F19C61"/>
<path d="M399.722 311.048C403.076 310.376 418.301 305.306 417.367 302.548L402.351 284.774C399.465 281.357 395.356 279.209 390.905 278.789H390.836C390.712 278.789 390.45 278.758 390.064 278.758C388.053 278.758 383.092 279.334 382.004 284.79C380.927 290.18 389.84 303.278 393.769 308.722C394.435 309.64 395.349 310.347 396.405 310.759C397.46 311.171 398.611 311.272 399.722 311.048Z" fill="#F19C61"/>
<path d="M133.211 586.432C149.841 596.66 203.385 627.241 258.751 633.76C261.993 634.146 264.275 637.121 263.317 639.691L253.644 665.62C253.003 667.336 251.077 668.325 248.915 668.074C232.598 666.092 165.274 655.949 117.906 619.27C116.296 618.022 115.617 616.129 116.219 614.514L126.089 588.051C127.02 585.559 130.501 584.767 133.211 586.432Z" fill="#292929"/>
<path d="M128.346 611.226L128.164 611.16C127.933 611.074 127.721 610.944 127.54 610.775C127.359 610.607 127.214 610.405 127.111 610.18C127.008 609.956 126.951 609.713 126.943 609.466C126.934 609.219 126.974 608.973 127.06 608.742L130.041 600.759C130.126 600.528 130.257 600.316 130.425 600.136C130.593 599.955 130.794 599.81 131.018 599.707C131.243 599.605 131.485 599.548 131.731 599.54C131.977 599.531 132.222 599.571 132.453 599.658L132.638 599.724C133.104 599.899 133.482 600.252 133.688 600.705C133.894 601.159 133.912 601.676 133.739 602.142L130.762 610.125C130.676 610.356 130.545 610.568 130.377 610.749C130.209 610.929 130.007 611.075 129.782 611.177C129.558 611.279 129.315 611.336 129.069 611.345C128.822 611.353 128.577 611.313 128.346 611.226Z" fill="#141414"/>
<path d="M138.309 617.37L138.127 617.304C137.896 617.218 137.684 617.087 137.503 616.919C137.322 616.751 137.177 616.549 137.074 616.324C136.971 616.099 136.914 615.857 136.905 615.61C136.897 615.363 136.937 615.117 137.023 614.885L140.003 606.903C140.178 606.437 140.53 606.059 140.982 605.852C141.434 605.646 141.95 605.628 142.416 605.802L142.597 605.867C142.829 605.953 143.041 606.084 143.222 606.252C143.402 606.42 143.548 606.623 143.651 606.847C143.753 607.072 143.811 607.315 143.819 607.562C143.828 607.808 143.788 608.055 143.701 608.286L140.737 616.288C140.649 616.519 140.516 616.73 140.346 616.91C140.176 617.089 139.973 617.233 139.747 617.334C139.522 617.434 139.278 617.489 139.032 617.495C138.785 617.501 138.539 617.459 138.309 617.37Z" fill="#141414"/>
<path d="M152.591 611.972L152.406 611.903C151.435 611.54 150.355 612.034 149.993 613.006L147.018 620.992C146.656 621.964 147.149 623.045 148.12 623.408L148.305 623.477C149.275 623.839 150.356 623.345 150.718 622.373L153.693 614.387C154.055 613.415 153.562 612.334 152.591 611.972Z" fill="#141414"/>
<path d="M158.547 628.436L158.365 628.366C157.9 628.192 157.522 627.84 157.315 627.387C157.108 626.934 157.089 626.418 157.261 625.951L160.241 617.969C160.327 617.738 160.458 617.526 160.626 617.345C160.793 617.165 160.995 617.019 161.219 616.916C161.443 616.814 161.685 616.756 161.931 616.747C162.177 616.738 162.423 616.778 162.654 616.864L162.839 616.933C163.305 617.108 163.682 617.46 163.889 617.913C164.095 618.366 164.113 618.882 163.939 619.348L160.963 627.335C160.788 627.801 160.435 628.179 159.982 628.385C159.529 628.592 159.013 628.61 158.547 628.436Z" fill="#141414"/>
<path d="M168.65 634.204L168.465 634.135C167.999 633.96 167.621 633.608 167.415 633.155C167.209 632.703 167.191 632.186 167.364 631.72L170.341 623.737C170.426 623.506 170.557 623.294 170.725 623.113C170.893 622.932 171.095 622.786 171.32 622.683C171.544 622.58 171.787 622.523 172.033 622.514C172.28 622.506 172.526 622.546 172.757 622.632L172.938 622.702C173.169 622.788 173.381 622.919 173.561 623.087C173.741 623.255 173.887 623.457 173.989 623.681C174.091 623.905 174.148 624.147 174.157 624.394C174.165 624.64 174.125 624.886 174.038 625.117L171.062 633.103C170.888 633.569 170.536 633.947 170.084 634.154C169.631 634.36 169.116 634.378 168.65 634.204Z" fill="#141414"/>
<path d="M179.192 638.779L179.01 638.71C178.779 638.624 178.567 638.493 178.386 638.324C178.205 638.156 178.059 637.954 177.957 637.729C177.854 637.505 177.797 637.262 177.788 637.015C177.78 636.768 177.82 636.522 177.906 636.291L180.886 628.308C181.061 627.842 181.412 627.464 181.865 627.258C182.317 627.051 182.833 627.033 183.299 627.207L183.484 627.277C183.95 627.451 184.327 627.803 184.533 628.256C184.74 628.709 184.758 629.225 184.584 629.691L181.608 637.674C181.522 637.906 181.391 638.118 181.223 638.299C181.055 638.48 180.853 638.626 180.629 638.728C180.404 638.831 180.162 638.888 179.915 638.897C179.669 638.906 179.423 638.866 179.192 638.779Z" fill="#141414"/>
<path d="M189.943 642.797L189.762 642.727C189.296 642.552 188.918 642.199 188.712 641.745C188.506 641.292 188.488 640.775 188.661 640.308L191.638 632.326C191.813 631.86 192.165 631.482 192.618 631.275C193.071 631.069 193.588 631.051 194.054 631.225L194.235 631.29C194.466 631.377 194.678 631.508 194.859 631.676C195.039 631.845 195.184 632.047 195.287 632.271C195.389 632.496 195.446 632.739 195.454 632.985C195.462 633.232 195.422 633.478 195.336 633.709L192.359 641.692C192.185 642.159 191.833 642.537 191.38 642.745C190.927 642.952 190.41 642.97 189.943 642.797Z" fill="#141414"/>
<path d="M205.2 634.751L205.016 634.682C204.045 634.32 202.964 634.814 202.603 635.786L199.629 643.773C199.267 644.744 199.761 645.826 200.732 646.188L200.916 646.257C201.887 646.619 202.967 646.125 203.329 645.153L206.303 637.166C206.665 636.194 206.171 635.113 205.2 634.751Z" fill="#141414"/>
<path d="M212.307 648.523L212.125 648.457C211.894 648.371 211.682 648.241 211.501 648.072C211.32 647.904 211.175 647.702 211.072 647.477C210.969 647.253 210.912 647.01 210.904 646.763C210.895 646.516 210.935 646.27 211.021 646.039L214.001 638.056C214.176 637.59 214.528 637.212 214.98 637.006C215.432 636.799 215.948 636.781 216.414 636.955L216.595 637.021C216.827 637.107 217.039 637.237 217.22 637.405C217.4 637.574 217.546 637.776 217.649 638.001C217.751 638.225 217.809 638.468 217.817 638.715C217.826 638.962 217.786 639.208 217.699 639.439L214.723 647.422C214.637 647.653 214.506 647.865 214.338 648.046C214.17 648.226 213.968 648.372 213.743 648.474C213.519 648.576 213.276 648.633 213.03 648.642C212.783 648.65 212.538 648.61 212.307 648.523Z" fill="#141414"/>
<path d="M223.412 651.599L223.226 651.529C222.761 651.355 222.383 651.003 222.177 650.55C221.971 650.097 221.952 649.581 222.126 649.114L225.102 641.128C225.277 640.662 225.63 640.284 226.083 640.077C226.536 639.871 227.052 639.853 227.519 640.027L227.7 640.096C228.166 640.271 228.543 640.623 228.75 641.076C228.957 641.528 228.977 642.044 228.804 642.511L225.824 650.494C225.738 650.725 225.608 650.937 225.44 651.117C225.272 651.298 225.07 651.444 224.846 651.546C224.622 651.649 224.38 651.707 224.134 651.716C223.888 651.724 223.642 651.685 223.412 651.599Z" fill="#141414"/>
<path d="M234.925 653.531L234.743 653.465C234.277 653.291 233.898 652.938 233.691 652.485C233.484 652.031 233.466 651.514 233.639 651.047L236.619 643.064C236.705 642.833 236.836 642.621 237.004 642.441C237.172 642.26 237.373 642.115 237.597 642.012C237.822 641.91 238.064 641.853 238.31 641.845C238.556 641.836 238.801 641.876 239.032 641.963L239.217 642.029C239.683 642.204 240.061 642.557 240.267 643.01C240.473 643.464 240.491 643.981 240.317 644.447L237.341 652.43C237.255 652.661 237.124 652.873 236.956 653.054C236.788 653.234 236.586 653.38 236.361 653.482C236.137 653.584 235.894 653.641 235.648 653.65C235.401 653.658 235.156 653.618 234.925 653.531Z" fill="#141414"/>
<path d="M246.504 655.424L246.323 655.354C246.091 655.268 245.879 655.138 245.699 654.97C245.518 654.802 245.372 654.6 245.269 654.376C245.167 654.152 245.11 653.909 245.101 653.663C245.092 653.416 245.132 653.17 245.219 652.939L248.199 644.956C248.284 644.725 248.414 644.513 248.582 644.332C248.75 644.151 248.951 644.005 249.176 643.902C249.4 643.8 249.642 643.742 249.888 643.734C250.135 643.725 250.38 643.765 250.611 643.851L250.796 643.921C251.262 644.096 251.64 644.449 251.846 644.903C252.052 645.356 252.07 645.873 251.897 646.34L248.92 654.322C248.745 654.789 248.393 655.167 247.94 655.373C247.487 655.579 246.97 655.598 246.504 655.424Z" fill="#141414"/>
<path d="M166.076 646.476L166.118 646.356C165.94 646.332 165.766 646.29 165.597 646.229L152.496 641.333C151.859 641.064 151.354 640.554 151.092 639.915C150.829 639.275 150.83 638.557 151.095 637.918L162.91 606.235C163.127 605.578 163.595 605.035 164.212 604.724C164.828 604.412 165.543 604.358 166.199 604.573L179.304 609.472C179.675 609.616 180.004 609.847 180.264 610.147C180.525 610.446 180.708 610.805 180.798 611.192C181.829 611.64 182.864 612.092 183.91 612.536C184.261 609.874 182.894 607.286 180.459 606.378L167.373 601.486C164.505 600.416 161.224 602.069 160.066 605.172L148.253 636.855C147.095 639.946 148.489 643.362 151.361 644.432L164.462 649.331C165.425 649.672 166.464 649.738 167.463 649.522C168.461 649.307 169.38 648.818 170.117 648.11C168.766 647.577 167.419 647.032 166.076 646.476Z" fill="#7FBF43"/>
<path d="M163.199 621.341L157.497 619.209C156.977 619.053 156.418 619.101 155.932 619.343C155.446 619.585 155.07 620.003 154.881 620.512C154.691 621.021 154.702 621.583 154.911 622.084C155.12 622.585 155.512 622.988 156.007 623.211L161.705 625.34L163.199 621.341Z" fill="white"/>
<g style="mix-blend-mode:multiply" opacity="0.2">
<path d="M555.5 679.267H688.212C688.212 679.267 667.715 646.75 646.136 566.058C636.664 625.48 584.424 622.052 563.691 625.348C539.82 629.146 447.154 609.808 434.172 603.711C439.962 612.532 453.635 630.723 494.741 640.305C537.805 650.339 555.5 679.267 555.5 679.267Z" fill="#F7C29E"/>
</g>
<g style="mix-blend-mode:multiply" opacity="0.2">
<path d="M419.188 373C445.209 414.853 491.893 510.984 468.794 552.926L484.127 568.072C484.127 568.072 522.86 525.118 461.221 430.401C448.298 410.492 434.265 391.328 419.188 373Z" fill="#F7C29E"/>
</g>
<path d="M264.669 364.535C264.669 370.147 263.007 375.634 259.893 380.301C256.778 384.968 252.35 388.606 247.17 390.754C241.99 392.902 236.289 393.464 230.79 392.369C225.29 391.275 220.239 388.572 216.274 384.603C212.309 380.635 209.609 375.578 208.515 370.074C207.422 364.569 207.983 358.863 210.129 353.678C212.276 348.493 215.91 344.061 220.572 340.944C225.235 337.826 230.716 336.162 236.323 336.163C243.841 336.164 251.05 339.154 256.365 344.474C261.681 349.795 264.668 357.011 264.669 364.535Z" fill="white"/>
<path d="M221.569 365.277C221.569 365.277 218.759 353.732 225.457 349.408C232.154 345.085 239.303 344.095 244.186 346.588C250.961 350.042 253.744 359.373 251.578 364.535L233.598 360.014L221.569 365.277Z" fill="black"/>
<path d="M240.805 378.831H232.482V387.149H240.805V378.831Z" fill="#F7C29E"/>
<path d="M240.809 383.815V378.831H232.482V383.081C234.277 384.035 236.929 384.588 240.809 383.815Z" fill="#F19A5E"/>
<path d="M253.933 363.939C253.492 363.738 253.01 363.643 252.526 363.662C252.042 363.682 251.569 363.815 251.146 364.051C251.083 360.158 249.494 356.446 246.721 353.715C243.949 350.984 240.215 349.454 236.325 349.454C232.435 349.454 228.701 350.984 225.928 353.715C223.156 356.446 221.567 360.158 221.504 364.051C221.081 363.815 220.608 363.682 220.124 363.662C219.64 363.643 219.158 363.738 218.717 363.939C217.049 364.762 216.532 367.115 217.559 369.198C218.586 371.281 220.77 372.289 222.438 371.478C222.665 371.366 222.875 371.221 223.06 371.049C224.017 377.834 229.68 382.922 236.327 382.826C242.97 382.922 248.637 377.834 249.59 371.049C249.777 371.221 249.987 371.366 250.216 371.478C251.879 372.301 254.076 371.277 255.091 369.198C256.106 367.119 255.601 364.755 253.933 363.939Z" fill="#F7C29E"/>
<path d="M241.77 373.642C241.384 375.284 239.519 376.579 237.215 376.648C234.91 376.718 232.949 375.543 232.482 373.943L241.77 373.642Z" fill="white"/>
<path d="M221.501 364.052C221.501 364.052 232.395 360.748 237.162 355.235C237.162 355.235 235.815 361.877 234.807 362.939C235.124 363.152 245.685 358.009 247.121 353.28C248.557 348.55 236.313 346.831 236.313 346.831C236.313 346.831 232.121 348.616 231.908 348.724C231.696 348.833 227.763 349.288 227.311 350.293C226.724 351.599 223.949 351.715 223.949 351.715L222.196 355.366L220.973 359.203L221.501 364.052Z" fill="black"/>
<path d="M212.582 349.034C214.987 350.004 217.766 350.452 220.646 349.563C227.004 347.608 229.524 348.369 230.366 348.848C230.613 348.999 230.889 349.096 231.177 349.134C231.464 349.171 231.756 349.147 232.033 349.065C232.662 348.856 233.245 348.292 233.064 346.855C233.064 346.855 233.315 340.808 228.138 337.365C221.743 339.302 216.234 343.433 212.582 349.034Z" fill="black"/>
<path d="M226.257 348.635C226.213 348.577 226.18 348.51 226.162 348.438C226.145 348.367 226.142 348.292 226.154 348.22C226.166 348.147 226.194 348.078 226.234 348.016C226.274 347.955 226.327 347.902 226.389 347.862C227.45 347.163 230.179 345.59 233.461 345.42C233.534 345.417 233.607 345.428 233.675 345.454C233.744 345.479 233.806 345.518 233.859 345.569C233.912 345.62 233.954 345.681 233.982 345.748C234.01 345.816 234.025 345.888 234.024 345.961C234.024 346.099 233.972 346.232 233.877 346.332C233.782 346.432 233.652 346.491 233.515 346.498C230.515 346.657 227.944 348.137 226.979 348.766C226.864 348.838 226.727 348.865 226.593 348.841C226.459 348.816 226.34 348.743 226.257 348.635Z" fill="#7FBF43"/>
<path d="M470.996 144.72H278.545C275.546 144.72 272.67 145.912 270.55 148.035C268.429 150.157 267.238 153.036 267.238 156.037V236.299C267.238 237.786 267.531 239.257 268.099 240.63C268.667 242.003 269.5 243.251 270.55 244.302C271.6 245.353 272.846 246.186 274.218 246.755C275.59 247.324 277.06 247.617 278.545 247.617H298.529C297.371 256.453 295.854 269.126 296.683 269.126C297.513 269.126 307.272 255.796 313.135 247.617H471.015C472.5 247.617 473.971 247.325 475.343 246.756C476.715 246.188 477.962 245.354 479.013 244.303C480.063 243.252 480.896 242.005 481.464 240.631C482.033 239.258 482.326 237.786 482.326 236.299V156.037C482.326 154.549 482.032 153.075 481.463 151.701C480.893 150.326 480.058 149.078 479.006 148.026C477.953 146.975 476.704 146.142 475.33 145.575C473.955 145.007 472.483 144.717 470.996 144.72Z" fill="#5DB7E3"/>
<path d="M329.641 209.54C336.862 195.637 331.457 178.508 317.567 171.28C303.678 164.052 286.564 169.462 279.343 183.365C272.122 197.268 277.527 214.398 291.417 221.626C305.306 228.854 322.42 223.443 329.641 209.54Z" fill="white"/>
<path d="M308.977 210.752H300.654V219.071H308.977V210.752Z" fill="#F7C29E"/>
<path d="M308.977 215.736V210.748H300.654V214.998C302.445 215.956 305.097 216.509 308.977 215.736Z" fill="#F19A5E"/>
<path d="M322.101 195.861C321.66 195.659 321.177 195.564 320.692 195.584C320.207 195.603 319.734 195.737 319.31 195.973C319.31 192.039 317.749 188.267 314.97 185.485C312.19 182.703 308.421 181.14 304.491 181.14C300.561 181.14 296.791 182.703 294.012 185.485C291.233 188.267 289.672 192.039 289.672 195.973C289.248 195.737 288.775 195.603 288.29 195.584C287.805 195.564 287.322 195.659 286.881 195.861C285.213 196.684 284.696 199.037 285.723 201.12C286.75 203.203 288.935 204.211 290.602 203.4C290.829 203.286 291.039 203.141 291.227 202.971C292.181 209.756 297.844 214.844 304.491 214.748C311.134 214.844 316.801 209.756 317.754 202.971C317.942 203.142 318.152 203.287 318.38 203.4C320.043 204.223 322.24 203.199 323.255 201.12C324.27 199.041 323.765 196.68 322.101 195.861Z" fill="#F7C29E"/>
<path d="M294.372 177.902C294.372 177.902 298.548 174.363 308.044 174.935C317.54 175.507 319.347 180.464 319.884 187.546L319.328 195.973C319.328 195.973 316.865 193.435 313.653 186.403C313.653 186.403 308.338 192.372 306.022 191.665C303.706 190.958 306.898 186.642 306.898 186.642C306.898 186.642 296.066 195.969 289.689 195.958C289.689 195.958 286.312 185.039 291.052 181.036C291.052 181.036 287.481 181.206 287.292 180.503C287.103 179.799 288.995 178.748 292.426 179.146C292.426 179.146 289.979 174.359 291.345 173.861C292.712 173.362 294.372 177.902 294.372 177.902Z" fill="#050505"/>
<path d="M309.938 205.567C309.552 207.209 307.687 208.504 305.383 208.573C303.078 208.643 301.137 207.468 300.654 205.869L309.938 205.567Z" fill="white"/>
<path d="M453.065 167.849H344.927C343.635 167.849 342.588 168.897 342.588 170.19V170.437C342.588 171.731 343.635 172.779 344.927 172.779H453.065C454.357 172.779 455.405 171.731 455.405 170.437V170.19C455.405 168.897 454.357 167.849 453.065 167.849Z" fill="white"/>
<path d="M366.891 180.858H344.927C343.635 180.858 342.588 181.906 342.588 183.2V183.447C342.588 184.74 343.635 185.788 344.927 185.788H366.891C368.183 185.788 369.231 184.74 369.231 183.447V183.2C369.231 181.906 368.183 180.858 366.891 180.858Z" fill="white"/>
<path d="M453.072 180.858H381.632C380.34 180.858 379.293 181.906 379.293 183.2V183.447C379.293 184.74 380.34 185.788 381.632 185.788H453.072C454.364 185.788 455.411 184.74 455.411 183.447V183.2C455.411 181.906 454.364 180.858 453.072 180.858Z" fill="white"/>
<path d="M344.939 193.871H398.537C399.157 193.871 399.752 194.118 400.191 194.557C400.629 194.996 400.876 195.592 400.876 196.213V196.456C400.876 197.077 400.629 197.673 400.191 198.112C399.752 198.551 399.157 198.798 398.537 198.798H344.939C344.317 198.798 343.721 198.551 343.282 198.111C342.843 197.671 342.596 197.074 342.596 196.452V196.209C342.596 195.588 342.842 194.992 343.281 194.553C343.72 194.114 344.315 193.867 344.935 193.867L344.939 193.871Z" fill="white"/>
<path d="M453.074 193.871H411.74C410.448 193.871 409.4 194.92 409.4 196.213V196.46C409.4 197.753 410.448 198.802 411.74 198.802H453.074C454.366 198.802 455.413 197.753 455.413 196.46V196.213C455.413 194.92 454.366 193.871 453.074 193.871Z" fill="white"/>
<path d="M453.065 206.88H344.927C343.635 206.88 342.588 207.929 342.588 209.222V209.469C342.588 210.762 343.635 211.811 344.927 211.811H453.065C454.357 211.811 455.405 210.762 455.405 209.469V209.222C455.405 207.929 454.357 206.88 453.065 206.88Z" fill="white"/>
<path d="M305.83 340.088H272.537C271.245 340.088 270.197 341.137 270.197 342.43V342.677C270.197 343.97 271.245 345.019 272.537 345.019H305.83C307.122 345.019 308.169 343.97 308.169 342.677V342.43C308.169 341.137 307.122 340.088 305.83 340.088Z" fill="white"/>
<path d="M293.509 353.098H272.537C271.245 353.098 270.197 354.146 270.197 355.439V355.687C270.197 356.98 271.245 358.028 272.537 358.028H293.509C294.801 358.028 295.848 356.98 295.848 355.687V355.439C295.848 354.146 294.801 353.098 293.509 353.098Z" fill="white"/>
<path d="M329.497 353.098H302.611C301.319 353.098 300.271 354.146 300.271 355.439V355.687C300.271 356.98 301.319 358.028 302.611 358.028H329.497C330.789 358.028 331.836 356.98 331.836 355.687V355.439C331.836 354.146 330.789 353.098 329.497 353.098Z" fill="white"/>
<path d="M376.471 353.098H338.599C337.307 353.098 336.26 354.146 336.26 355.439V355.687C336.26 356.98 337.307 358.028 338.599 358.028H376.471C377.763 358.028 378.81 356.98 378.81 355.687V355.439C378.81 354.146 377.763 353.098 376.471 353.098Z" fill="white"/>
<path d="M376.476 340.088H316.806C315.514 340.088 314.467 341.137 314.467 342.43V342.677C314.467 343.97 315.514 345.019 316.806 345.019H376.476C377.768 345.019 378.816 343.97 378.816 342.677V342.43C378.816 341.137 377.768 340.088 376.476 340.088Z" fill="white"/>
<path d="M376.471 378.599H272.537C271.245 378.599 270.197 379.647 270.197 380.94V381.188C270.197 382.481 271.245 383.529 272.537 383.529H376.471C377.763 383.529 378.81 382.481 378.81 381.188V380.94C378.81 379.647 377.763 378.599 376.471 378.599Z" fill="white"/>
<path d="M323.969 366.108H272.537C271.245 366.108 270.197 367.156 270.197 368.449V368.696C270.197 369.99 271.245 371.038 272.537 371.038H323.969C325.261 371.038 326.308 369.99 326.308 368.696V368.449C326.308 367.156 325.261 366.108 323.969 366.108Z" fill="white"/>
<path d="M376.472 366.108H336.855C335.563 366.108 334.516 367.156 334.516 368.449V368.696C334.516 369.99 335.563 371.038 336.855 371.038H376.472C377.763 371.038 378.811 369.99 378.811 368.696V368.449C378.811 367.156 377.763 366.108 376.472 366.108Z" fill="white"/>
<path d="M104.066 350.154C102.519 348.784 100.82 347.597 99.002 346.615L99.7083 345.181C101.65 346.221 103.463 347.484 105.113 348.945L104.066 350.154Z" fill="#292929"/>
<path d="M106.599 504.713C103.825 501.749 101.229 498.623 98.8249 495.351L100.118 494.408C102.483 497.634 105.038 500.717 107.769 503.639L106.599 504.713ZM92.3785 484.973C90.4922 481.35 88.9416 477.562 87.7463 473.656L89.2904 473.192C90.4517 477.004 91.9622 480.701 93.8029 484.235L92.3785 484.973ZM85.4071 461.643C85.2334 459.781 85.1484 457.868 85.1484 455.967C85.1484 453.819 85.2604 451.613 85.4804 449.399L87.0708 449.557C86.8546 451.706 86.7465 453.858 86.7465 455.952C86.7465 457.807 86.8315 459.665 86.9975 461.481L85.4071 461.643ZM89.2363 437.811L87.6923 437.402C88.7412 433.474 90.0212 429.611 91.5254 425.834L93.0116 426.421C91.5324 430.141 90.2718 433.944 89.2363 437.811ZM97.8869 415.402L96.4471 414.702C97.9912 411.511 99.7707 408.083 102.013 403.922L103.419 404.695C101.187 408.841 99.4348 412.249 97.8908 415.417L97.8869 415.402ZM109.22 394.054L107.811 393.305L107.854 393.22C109.768 389.764 111.321 386.119 112.486 382.343L114.03 382.799C112.834 386.688 111.239 390.443 109.271 394.004L109.22 394.054ZM114.103 370.686C113.987 366.747 113.026 362.88 111.285 359.346L112.718 358.635C114.559 362.367 115.58 366.452 115.709 370.613L114.103 370.686Z" fill="#292929"/>
<path d="M120.215 517.409C118.532 516.026 116.888 514.62 115.328 513.233L116.394 512.039C117.938 513.414 119.563 514.805 121.23 516.173L120.215 517.409Z" fill="#292929"/>
<path d="M93.5349 323.084L91.4195 348.855L76.4653 331.998L28.1016 292.347L69.3434 305.353C69.3434 305.353 89.6477 315.229 90.5742 316.531C91.5006 317.833 93.5349 323.084 93.5349 323.084Z" fill="#0B315E"/>
<path d="M115.449 312.01L28.1016 292.347L93.5349 323.084L115.449 312.01Z" fill="#305FA4"/>
<path d="M59.94 342.167L86.8646 328.721L28.1016 292.347L59.94 342.167Z" fill="#305FA4"/>
</svg>
