<svg width="77" height="102" viewBox="0 0 77 102" fill="none" xmlns="http://www.w3.org/2000/svg">
<path d="M21.681 71.0384C24.8138 72.4834 28.124 71.0368 30.051 68.2915L33.4858 62.2772C49.7987 66.6628 65.7748 64.6159 73.6908 47.4535L73.8165 47.1811C81.6696 30.1549 73.6301 13.5622 54.5607 4.7667C42.0295 -1.01321 30.8302 -0.727584 20.4699 2.75316C17.809 3.50812 15.9866 5.31052 15.0442 7.35366C13.1594 11.4399 14.994 16.4158 19.2165 18.3634C21.1235 19.2429 23.2711 19.2424 25.1358 18.781C32.8459 16.3905 39.8966 16.504 47.1157 19.8337C56.9228 24.3571 60.3296 32.3707 56.8114 39.9985L56.6857 40.2709C52.7278 48.8521 43.3832 50.4887 30.0141 45.809C26.1479 44.5214 22.7121 46.2404 21.5606 50.1693L17.5198 62.5116C16.4834 65.8329 17.7309 69.2165 20.8638 70.6614L21.681 71.0384ZM2.27172 85.5426L1.64347 86.9047C-0.806707 92.2169 1.39482 98.1879 6.97941 100.764C12.564 103.34 18.535 101.138 20.9852 95.8259L21.6135 94.4638C24.0636 89.1516 21.8621 83.1806 16.2775 80.6047C10.6929 78.0289 4.7219 80.2304 2.27172 85.5426Z" fill="#BAC529"/>
</svg>
