<svg width="27" height="27" viewBox="0 0 27 27" fill="none" xmlns="http://www.w3.org/2000/svg">
<path d="M23.085 3.88012C20.52 1.40062 17.145 0 13.5506 0C3.23438 0 -3.24338 11.1769 1.908 20.0677L0 27L7.12687 25.1415C10.2319 26.8189 12.7755 26.6704 13.5574 26.7694C25.5195 26.7694 31.4741 12.2974 23.0681 3.924L23.085 3.88012Z" fill="#ECEFF1"/>
<path d="M13.5756 24.4695L13.5689 24.4684H13.5509C9.97111 24.4684 7.68398 22.773 7.45898 22.6751L3.24023 23.772L4.37086 19.6714L4.10198 19.2495C2.98823 17.4765 2.39648 15.4346 2.39648 13.332C2.39648 3.43988 14.4846 -1.50675 21.4799 5.48513C28.4582 12.4039 23.5589 24.4695 13.5756 24.4695Z" fill="#4CAF50"/>
<path d="M19.6965 16.0954L19.6864 16.1798C19.3478 16.0111 17.6985 15.2044 17.3914 15.0931C16.7018 14.8377 16.8964 15.0526 15.5723 16.5691C15.3754 16.7884 15.1796 16.8053 14.8455 16.6534C14.508 16.4847 13.4246 16.1303 12.1421 14.9828C11.1431 14.0884 10.4726 12.9916 10.2746 12.6541C9.94501 12.0848 10.6346 12.0038 11.2624 10.8158C11.3749 10.5796 11.3175 10.3939 11.2343 10.2263C11.1499 10.0576 10.4783 8.40382 10.197 7.74457C9.92701 7.08757 9.64913 7.17082 9.44101 7.17082C8.79301 7.11457 8.31938 7.12357 7.90201 7.55782C6.08626 9.55357 6.54413 11.6123 8.09776 13.8016C11.151 17.7976 12.7778 18.5333 15.7523 19.5548C16.5555 19.8102 17.2879 19.7742 17.8673 19.6909C18.513 19.5886 19.8551 18.8798 20.1353 18.0867C20.4221 17.2936 20.4221 16.6354 20.3378 16.4836C20.2545 16.3317 20.034 16.2473 19.6965 16.0954Z" fill="#FAFAFA"/>
</svg>
